G04 #@! TF.GenerationSoftware,KiCad,Pcbnew,9.0.7+1*
G04 #@! TF.CreationDate,2026-07-10T15:23:58+00:00*
G04 #@! TF.ProjectId,limbatus_autorouted,6c696d62-6174-4757-935f-6175746f726f,v1.0.0*
G04 #@! TF.SameCoordinates,Original*
G04 #@! TF.FileFunction,Legend,Bot*
G04 #@! TF.FilePolarity,Positive*
%FSLAX46Y46*%
G04 Gerber Fmt 4.6, Leading zero omitted, Abs format (unit mm)*
G04 Created by KiCad (PCBNEW 9.0.7+1) date 2026-07-10 15:23:58*
%MOMM*%
%LPD*%
G01*
G04 APERTURE LIST*
%ADD10C,0.150000*%
%ADD11C,0.010000*%
%ADD12C,7.100000*%
%ADD13C,1.000000*%
%ADD14O,1.900000X2.850000*%
%ADD15C,1.497000*%
%ADD16C,2.000000*%
%ADD17C,3.100000*%
%ADD18C,3.500000*%
G04 APERTURE END LIST*
D10*
X3966666Y-4639866D02*
X4100000Y-4573200D01*
X4100000Y-4573200D02*
X4166666Y-4439866D01*
X4166666Y-4439866D02*
X4166666Y-3239866D01*
X3433333Y-4639866D02*
X3433333Y-3706533D01*
X3433333Y-3239866D02*
X3500000Y-3306533D01*
X3500000Y-3306533D02*
X3433333Y-3373200D01*
X3433333Y-3373200D02*
X3366667Y-3306533D01*
X3366667Y-3306533D02*
X3433333Y-3239866D01*
X3433333Y-3239866D02*
X3433333Y-3373200D01*
X2766666Y-4639866D02*
X2766666Y-3706533D01*
X2766666Y-3839866D02*
X2700000Y-3773200D01*
X2700000Y-3773200D02*
X2566666Y-3706533D01*
X2566666Y-3706533D02*
X2366666Y-3706533D01*
X2366666Y-3706533D02*
X2233333Y-3773200D01*
X2233333Y-3773200D02*
X2166666Y-3906533D01*
X2166666Y-3906533D02*
X2166666Y-4639866D01*
X2166666Y-3906533D02*
X2100000Y-3773200D01*
X2100000Y-3773200D02*
X1966666Y-3706533D01*
X1966666Y-3706533D02*
X1766666Y-3706533D01*
X1766666Y-3706533D02*
X1633333Y-3773200D01*
X1633333Y-3773200D02*
X1566666Y-3906533D01*
X1566666Y-3906533D02*
X1566666Y-4639866D01*
X899999Y-4639866D02*
X899999Y-3239866D01*
X899999Y-3773200D02*
X766666Y-3706533D01*
X766666Y-3706533D02*
X499999Y-3706533D01*
X499999Y-3706533D02*
X366666Y-3773200D01*
X366666Y-3773200D02*
X299999Y-3839866D01*
X299999Y-3839866D02*
X233333Y-3973200D01*
X233333Y-3973200D02*
X233333Y-4373200D01*
X233333Y-4373200D02*
X299999Y-4506533D01*
X299999Y-4506533D02*
X366666Y-4573200D01*
X366666Y-4573200D02*
X499999Y-4639866D01*
X499999Y-4639866D02*
X766666Y-4639866D01*
X766666Y-4639866D02*
X899999Y-4573200D01*
X-966667Y-4639866D02*
X-966667Y-3906533D01*
X-966667Y-3906533D02*
X-900000Y-3773200D01*
X-900000Y-3773200D02*
X-766667Y-3706533D01*
X-766667Y-3706533D02*
X-500000Y-3706533D01*
X-500000Y-3706533D02*
X-366667Y-3773200D01*
X-966667Y-4573200D02*
X-833334Y-4639866D01*
X-833334Y-4639866D02*
X-500000Y-4639866D01*
X-500000Y-4639866D02*
X-366667Y-4573200D01*
X-366667Y-4573200D02*
X-300000Y-4439866D01*
X-300000Y-4439866D02*
X-300000Y-4306533D01*
X-300000Y-4306533D02*
X-366667Y-4173200D01*
X-366667Y-4173200D02*
X-500000Y-4106533D01*
X-500000Y-4106533D02*
X-833334Y-4106533D01*
X-833334Y-4106533D02*
X-966667Y-4039866D01*
X-1433334Y-3706533D02*
X-1966667Y-3706533D01*
X-1633334Y-3239866D02*
X-1633334Y-4439866D01*
X-1633334Y-4439866D02*
X-1700001Y-4573200D01*
X-1700001Y-4573200D02*
X-1833334Y-4639866D01*
X-1833334Y-4639866D02*
X-1966667Y-4639866D01*
X-3033334Y-3706533D02*
X-3033334Y-4639866D01*
X-2433334Y-3706533D02*
X-2433334Y-4439866D01*
X-2433334Y-4439866D02*
X-2500001Y-4573200D01*
X-2500001Y-4573200D02*
X-2633334Y-4639866D01*
X-2633334Y-4639866D02*
X-2833334Y-4639866D01*
X-2833334Y-4639866D02*
X-2966667Y-4573200D01*
X-2966667Y-4573200D02*
X-3033334Y-4506533D01*
X-3633334Y-4573200D02*
X-3766668Y-4639866D01*
X-3766668Y-4639866D02*
X-4033334Y-4639866D01*
X-4033334Y-4639866D02*
X-4166668Y-4573200D01*
X-4166668Y-4573200D02*
X-4233334Y-4439866D01*
X-4233334Y-4439866D02*
X-4233334Y-4373200D01*
X-4233334Y-4373200D02*
X-4166668Y-4239866D01*
X-4166668Y-4239866D02*
X-4033334Y-4173200D01*
X-4033334Y-4173200D02*
X-3833334Y-4173200D01*
X-3833334Y-4173200D02*
X-3700001Y-4106533D01*
X-3700001Y-4106533D02*
X-3633334Y-3973200D01*
X-3633334Y-3973200D02*
X-3633334Y-3906533D01*
X-3633334Y-3906533D02*
X-3700001Y-3773200D01*
X-3700001Y-3773200D02*
X-3833334Y-3706533D01*
X-3833334Y-3706533D02*
X-4033334Y-3706533D01*
X-4033334Y-3706533D02*
X-4166668Y-3773200D01*
X5928571Y-8454819D02*
X5928571Y-7788152D01*
X5928571Y-7978628D02*
X5880952Y-7883390D01*
X5880952Y-7883390D02*
X5833333Y-7835771D01*
X5833333Y-7835771D02*
X5738095Y-7788152D01*
X5738095Y-7788152D02*
X5642857Y-7788152D01*
X4928571Y-8407200D02*
X5023809Y-8454819D01*
X5023809Y-8454819D02*
X5214285Y-8454819D01*
X5214285Y-8454819D02*
X5309523Y-8407200D01*
X5309523Y-8407200D02*
X5357142Y-8311961D01*
X5357142Y-8311961D02*
X5357142Y-7931009D01*
X5357142Y-7931009D02*
X5309523Y-7835771D01*
X5309523Y-7835771D02*
X5214285Y-7788152D01*
X5214285Y-7788152D02*
X5023809Y-7788152D01*
X5023809Y-7788152D02*
X4928571Y-7835771D01*
X4928571Y-7835771D02*
X4880952Y-7931009D01*
X4880952Y-7931009D02*
X4880952Y-8026247D01*
X4880952Y-8026247D02*
X5357142Y-8121485D01*
X4547618Y-7788152D02*
X4309523Y-8454819D01*
X4309523Y-8454819D02*
X4071428Y-7788152D01*
X2976189Y-8169104D02*
X2499999Y-8169104D01*
X3071427Y-8454819D02*
X2738094Y-7454819D01*
X2738094Y-7454819D02*
X2404761Y-8454819D01*
X595236Y-7550057D02*
X547617Y-7502438D01*
X547617Y-7502438D02*
X452379Y-7454819D01*
X452379Y-7454819D02*
X214284Y-7454819D01*
X214284Y-7454819D02*
X119046Y-7502438D01*
X119046Y-7502438D02*
X71427Y-7550057D01*
X71427Y-7550057D02*
X23808Y-7645295D01*
X23808Y-7645295D02*
X23808Y-7740533D01*
X23808Y-7740533D02*
X71427Y-7883390D01*
X71427Y-7883390D02*
X642855Y-8454819D01*
X642855Y-8454819D02*
X23808Y-8454819D01*
X-595239Y-7454819D02*
X-690477Y-7454819D01*
X-690477Y-7454819D02*
X-785715Y-7502438D01*
X-785715Y-7502438D02*
X-833334Y-7550057D01*
X-833334Y-7550057D02*
X-880953Y-7645295D01*
X-880953Y-7645295D02*
X-928572Y-7835771D01*
X-928572Y-7835771D02*
X-928572Y-8073866D01*
X-928572Y-8073866D02*
X-880953Y-8264342D01*
X-880953Y-8264342D02*
X-833334Y-8359580D01*
X-833334Y-8359580D02*
X-785715Y-8407200D01*
X-785715Y-8407200D02*
X-690477Y-8454819D01*
X-690477Y-8454819D02*
X-595239Y-8454819D01*
X-595239Y-8454819D02*
X-500001Y-8407200D01*
X-500001Y-8407200D02*
X-452382Y-8359580D01*
X-452382Y-8359580D02*
X-404763Y-8264342D01*
X-404763Y-8264342D02*
X-357144Y-8073866D01*
X-357144Y-8073866D02*
X-357144Y-7835771D01*
X-357144Y-7835771D02*
X-404763Y-7645295D01*
X-404763Y-7645295D02*
X-452382Y-7550057D01*
X-452382Y-7550057D02*
X-500001Y-7502438D01*
X-500001Y-7502438D02*
X-595239Y-7454819D01*
X-1309525Y-7550057D02*
X-1357144Y-7502438D01*
X-1357144Y-7502438D02*
X-1452382Y-7454819D01*
X-1452382Y-7454819D02*
X-1690477Y-7454819D01*
X-1690477Y-7454819D02*
X-1785715Y-7502438D01*
X-1785715Y-7502438D02*
X-1833334Y-7550057D01*
X-1833334Y-7550057D02*
X-1880953Y-7645295D01*
X-1880953Y-7645295D02*
X-1880953Y-7740533D01*
X-1880953Y-7740533D02*
X-1833334Y-7883390D01*
X-1833334Y-7883390D02*
X-1261906Y-8454819D01*
X-1261906Y-8454819D02*
X-1880953Y-8454819D01*
X-2738096Y-7454819D02*
X-2547620Y-7454819D01*
X-2547620Y-7454819D02*
X-2452382Y-7502438D01*
X-2452382Y-7502438D02*
X-2404763Y-7550057D01*
X-2404763Y-7550057D02*
X-2309525Y-7692914D01*
X-2309525Y-7692914D02*
X-2261906Y-7883390D01*
X-2261906Y-7883390D02*
X-2261906Y-8264342D01*
X-2261906Y-8264342D02*
X-2309525Y-8359580D01*
X-2309525Y-8359580D02*
X-2357144Y-8407200D01*
X-2357144Y-8407200D02*
X-2452382Y-8454819D01*
X-2452382Y-8454819D02*
X-2642858Y-8454819D01*
X-2642858Y-8454819D02*
X-2738096Y-8407200D01*
X-2738096Y-8407200D02*
X-2785715Y-8359580D01*
X-2785715Y-8359580D02*
X-2833334Y-8264342D01*
X-2833334Y-8264342D02*
X-2833334Y-8026247D01*
X-2833334Y-8026247D02*
X-2785715Y-7931009D01*
X-2785715Y-7931009D02*
X-2738096Y-7883390D01*
X-2738096Y-7883390D02*
X-2642858Y-7835771D01*
X-2642858Y-7835771D02*
X-2452382Y-7835771D01*
X-2452382Y-7835771D02*
X-2357144Y-7883390D01*
X-2357144Y-7883390D02*
X-2309525Y-7931009D01*
X-2309525Y-7931009D02*
X-2261906Y-8026247D01*
X-3261906Y-8073866D02*
X-4023811Y-8073866D01*
X-4690477Y-7454819D02*
X-4785715Y-7454819D01*
X-4785715Y-7454819D02*
X-4880953Y-7502438D01*
X-4880953Y-7502438D02*
X-4928572Y-7550057D01*
X-4928572Y-7550057D02*
X-4976191Y-7645295D01*
X-4976191Y-7645295D02*
X-5023810Y-7835771D01*
X-5023810Y-7835771D02*
X-5023810Y-8073866D01*
X-5023810Y-8073866D02*
X-4976191Y-8264342D01*
X-4976191Y-8264342D02*
X-4928572Y-8359580D01*
X-4928572Y-8359580D02*
X-4880953Y-8407200D01*
X-4880953Y-8407200D02*
X-4785715Y-8454819D01*
X-4785715Y-8454819D02*
X-4690477Y-8454819D01*
X-4690477Y-8454819D02*
X-4595239Y-8407200D01*
X-4595239Y-8407200D02*
X-4547620Y-8359580D01*
X-4547620Y-8359580D02*
X-4500001Y-8264342D01*
X-4500001Y-8264342D02*
X-4452382Y-8073866D01*
X-4452382Y-8073866D02*
X-4452382Y-7835771D01*
X-4452382Y-7835771D02*
X-4500001Y-7645295D01*
X-4500001Y-7645295D02*
X-4547620Y-7550057D01*
X-4547620Y-7550057D02*
X-4595239Y-7502438D01*
X-4595239Y-7502438D02*
X-4690477Y-7454819D01*
X-5357144Y-7454819D02*
X-6023810Y-7454819D01*
X-6023810Y-7454819D02*
X-5595239Y-8454819D01*
X8476191Y545180D02*
X8476191Y-169104D01*
X8476191Y-169104D02*
X8523810Y-311961D01*
X8523810Y-311961D02*
X8619048Y-407200D01*
X8619048Y-407200D02*
X8761905Y-454819D01*
X8761905Y-454819D02*
X8857143Y-454819D01*
X7523810Y-454819D02*
X8000000Y-454819D01*
X8000000Y-454819D02*
X8000000Y545180D01*
X6619048Y-359580D02*
X6666667Y-407200D01*
X6666667Y-407200D02*
X6809524Y-454819D01*
X6809524Y-454819D02*
X6904762Y-454819D01*
X6904762Y-454819D02*
X7047619Y-407200D01*
X7047619Y-407200D02*
X7142857Y-311961D01*
X7142857Y-311961D02*
X7190476Y-216723D01*
X7190476Y-216723D02*
X7238095Y-26247D01*
X7238095Y-26247D02*
X7238095Y116609D01*
X7238095Y116609D02*
X7190476Y307085D01*
X7190476Y307085D02*
X7142857Y402323D01*
X7142857Y402323D02*
X7047619Y497561D01*
X7047619Y497561D02*
X6904762Y545180D01*
X6904762Y545180D02*
X6809524Y545180D01*
X6809524Y545180D02*
X6666667Y497561D01*
X6666667Y497561D02*
X6619048Y449942D01*
X5904762Y545180D02*
X5904762Y-169104D01*
X5904762Y-169104D02*
X5952381Y-311961D01*
X5952381Y-311961D02*
X6047619Y-407200D01*
X6047619Y-407200D02*
X6190476Y-454819D01*
X6190476Y-454819D02*
X6285714Y-454819D01*
X4952381Y-454819D02*
X5428571Y-454819D01*
X5428571Y-454819D02*
X5428571Y545180D01*
X4047619Y-359580D02*
X4095238Y-407200D01*
X4095238Y-407200D02*
X4238095Y-454819D01*
X4238095Y-454819D02*
X4333333Y-454819D01*
X4333333Y-454819D02*
X4476190Y-407200D01*
X4476190Y-407200D02*
X4571428Y-311961D01*
X4571428Y-311961D02*
X4619047Y-216723D01*
X4619047Y-216723D02*
X4666666Y-26247D01*
X4666666Y-26247D02*
X4666666Y116609D01*
X4666666Y116609D02*
X4619047Y307085D01*
X4619047Y307085D02*
X4571428Y402323D01*
X4571428Y402323D02*
X4476190Y497561D01*
X4476190Y497561D02*
X4333333Y545180D01*
X4333333Y545180D02*
X4238095Y545180D01*
X4238095Y545180D02*
X4095238Y497561D01*
X4095238Y497561D02*
X4047619Y449942D01*
X3333333Y545180D02*
X3333333Y-169104D01*
X3333333Y-169104D02*
X3380952Y-311961D01*
X3380952Y-311961D02*
X3476190Y-407200D01*
X3476190Y-407200D02*
X3619047Y-454819D01*
X3619047Y-454819D02*
X3714285Y-454819D01*
X2380952Y-454819D02*
X2857142Y-454819D01*
X2857142Y-454819D02*
X2857142Y545180D01*
X1476190Y-359580D02*
X1523809Y-407200D01*
X1523809Y-407200D02*
X1666666Y-454819D01*
X1666666Y-454819D02*
X1761904Y-454819D01*
X1761904Y-454819D02*
X1904761Y-407200D01*
X1904761Y-407200D02*
X1999999Y-311961D01*
X1999999Y-311961D02*
X2047618Y-216723D01*
X2047618Y-216723D02*
X2095237Y-26247D01*
X2095237Y-26247D02*
X2095237Y116609D01*
X2095237Y116609D02*
X2047618Y307085D01*
X2047618Y307085D02*
X1999999Y402323D01*
X1999999Y402323D02*
X1904761Y497561D01*
X1904761Y497561D02*
X1761904Y545180D01*
X1761904Y545180D02*
X1666666Y545180D01*
X1666666Y545180D02*
X1523809Y497561D01*
X1523809Y497561D02*
X1476190Y449942D01*
X761904Y545180D02*
X761904Y-169104D01*
X761904Y-169104D02*
X809523Y-311961D01*
X809523Y-311961D02*
X904761Y-407200D01*
X904761Y-407200D02*
X1047618Y-454819D01*
X1047618Y-454819D02*
X1142856Y-454819D01*
X-190476Y-454819D02*
X285713Y-454819D01*
X285713Y-454819D02*
X285713Y545180D01*
X-1095238Y-359580D02*
X-1047619Y-407200D01*
X-1047619Y-407200D02*
X-904762Y-454819D01*
X-904762Y-454819D02*
X-809524Y-454819D01*
X-809524Y-454819D02*
X-666667Y-407200D01*
X-666667Y-407200D02*
X-571429Y-311961D01*
X-571429Y-311961D02*
X-523810Y-216723D01*
X-523810Y-216723D02*
X-476191Y-26247D01*
X-476191Y-26247D02*
X-476191Y116609D01*
X-476191Y116609D02*
X-523810Y307085D01*
X-523810Y307085D02*
X-571429Y402323D01*
X-571429Y402323D02*
X-666667Y497561D01*
X-666667Y497561D02*
X-809524Y545180D01*
X-809524Y545180D02*
X-904762Y545180D01*
X-904762Y545180D02*
X-1047619Y497561D01*
X-1047619Y497561D02*
X-1095238Y449942D01*
X-1809524Y545180D02*
X-1809524Y-169104D01*
X-1809524Y-169104D02*
X-1761905Y-311961D01*
X-1761905Y-311961D02*
X-1666667Y-407200D01*
X-1666667Y-407200D02*
X-1523810Y-454819D01*
X-1523810Y-454819D02*
X-1428572Y-454819D01*
X-2761905Y-454819D02*
X-2285715Y-454819D01*
X-2285715Y-454819D02*
X-2285715Y545180D01*
X-3666667Y-359580D02*
X-3619048Y-407200D01*
X-3619048Y-407200D02*
X-3476191Y-454819D01*
X-3476191Y-454819D02*
X-3380953Y-454819D01*
X-3380953Y-454819D02*
X-3238096Y-407200D01*
X-3238096Y-407200D02*
X-3142858Y-311961D01*
X-3142858Y-311961D02*
X-3095239Y-216723D01*
X-3095239Y-216723D02*
X-3047620Y-26247D01*
X-3047620Y-26247D02*
X-3047620Y116609D01*
X-3047620Y116609D02*
X-3095239Y307085D01*
X-3095239Y307085D02*
X-3142858Y402323D01*
X-3142858Y402323D02*
X-3238096Y497561D01*
X-3238096Y497561D02*
X-3380953Y545180D01*
X-3380953Y545180D02*
X-3476191Y545180D01*
X-3476191Y545180D02*
X-3619048Y497561D01*
X-3619048Y497561D02*
X-3666667Y449942D01*
X-4380953Y545180D02*
X-4380953Y-169104D01*
X-4380953Y-169104D02*
X-4333334Y-311961D01*
X-4333334Y-311961D02*
X-4238096Y-407200D01*
X-4238096Y-407200D02*
X-4095239Y-454819D01*
X-4095239Y-454819D02*
X-4000001Y-454819D01*
X-5333334Y-454819D02*
X-4857144Y-454819D01*
X-4857144Y-454819D02*
X-4857144Y545180D01*
X-6238096Y-359580D02*
X-6190477Y-407200D01*
X-6190477Y-407200D02*
X-6047620Y-454819D01*
X-6047620Y-454819D02*
X-5952382Y-454819D01*
X-5952382Y-454819D02*
X-5809525Y-407200D01*
X-5809525Y-407200D02*
X-5714287Y-311961D01*
X-5714287Y-311961D02*
X-5666668Y-216723D01*
X-5666668Y-216723D02*
X-5619049Y-26247D01*
X-5619049Y-26247D02*
X-5619049Y116609D01*
X-5619049Y116609D02*
X-5666668Y307085D01*
X-5666668Y307085D02*
X-5714287Y402323D01*
X-5714287Y402323D02*
X-5809525Y497561D01*
X-5809525Y497561D02*
X-5952382Y545180D01*
X-5952382Y545180D02*
X-6047620Y545180D01*
X-6047620Y545180D02*
X-6190477Y497561D01*
X-6190477Y497561D02*
X-6238096Y449942D01*
X-6952382Y545180D02*
X-6952382Y-169104D01*
X-6952382Y-169104D02*
X-6904763Y-311961D01*
X-6904763Y-311961D02*
X-6809525Y-407200D01*
X-6809525Y-407200D02*
X-6666668Y-454819D01*
X-6666668Y-454819D02*
X-6571430Y-454819D01*
X-7904763Y-454819D02*
X-7428573Y-454819D01*
X-7428573Y-454819D02*
X-7428573Y545180D01*
X-8809525Y-359580D02*
X-8761906Y-407200D01*
X-8761906Y-407200D02*
X-8619049Y-454819D01*
X-8619049Y-454819D02*
X-8523811Y-454819D01*
X-8523811Y-454819D02*
X-8380954Y-407200D01*
X-8380954Y-407200D02*
X-8285716Y-311961D01*
X-8285716Y-311961D02*
X-8238097Y-216723D01*
X-8238097Y-216723D02*
X-8190478Y-26247D01*
X-8190478Y-26247D02*
X-8190478Y116609D01*
X-8190478Y116609D02*
X-8238097Y307085D01*
X-8238097Y307085D02*
X-8285716Y402323D01*
X-8285716Y402323D02*
X-8380954Y497561D01*
X-8380954Y497561D02*
X-8523811Y545180D01*
X-8523811Y545180D02*
X-8619049Y545180D01*
X-8619049Y545180D02*
X-8761906Y497561D01*
X-8761906Y497561D02*
X-8809525Y449942D01*
X-73182458Y69460254D02*
X-73536012Y70072627D01*
X-72017773Y73806920D02*
X-72630145Y73453367D01*
X-70960829Y68864970D02*
X-73182458Y69460254D01*
X-69888157Y66299941D02*
X-69706984Y66976089D01*
X-69119995Y73030463D02*
X-72017773Y73806920D01*
X-68766442Y72418091D02*
X-69119995Y73030463D01*
X-68766442Y72418091D02*
X-69004555Y71529439D01*
X-68652389Y70834616D02*
X-64325041Y69675107D01*
X-65541491Y65135254D02*
X-69888157Y66299941D01*
X-65412081Y65618218D02*
X-65541491Y65135254D01*
X-64325041Y69675107D02*
X-64480333Y69095551D01*
X-70960829Y68864970D02*
G75*
G02*
X-69701807Y66995408I-305270J-1564292D01*
G01*
X-68652389Y70834616D02*
G75*
G02*
X-69004556Y71529439I171328J523495D01*
G01*
X-31362322Y16015535D02*
X-31683342Y16645571D01*
X-29971745Y20295289D02*
X-30601782Y19974269D01*
X-29174892Y15304796D02*
X-31362322Y16015535D01*
X-28237933Y12687142D02*
X-28021621Y13352882D01*
X-27118576Y19368238D02*
X-29971745Y20295289D01*
X-26797556Y18738201D02*
X-27118576Y19368238D01*
X-26797556Y18738201D02*
X-27081852Y17863229D01*
X-26766532Y17150928D02*
X-22505799Y15766531D01*
X-23958179Y11296566D02*
X-28237933Y12687142D01*
X-23803670Y11772094D02*
X-23958179Y11296566D01*
X-22505799Y15766531D02*
X-22691209Y15195898D01*
X-29174892Y15304796D02*
G75*
G02*
X-28015441Y13371903I-386721J-1546172D01*
G01*
X-26766532Y17150928D02*
G75*
G02*
X-27081851Y17863229I198491J513810D01*
G01*
X-63128222Y34748635D02*
X-63449242Y35378671D01*
X-61737645Y39028389D02*
X-62367682Y38707369D01*
X-60940792Y34037896D02*
X-63128222Y34748635D01*
X-60003833Y31420242D02*
X-59787521Y32085982D01*
X-58884476Y38101338D02*
X-61737645Y39028389D01*
X-58563456Y37471301D02*
X-58884476Y38101338D01*
X-58563456Y37471301D02*
X-58847752Y36596329D01*
X-58532432Y35884028D02*
X-54271699Y34499631D01*
X-55724079Y30029666D02*
X-60003833Y31420242D01*
X-55569570Y30505194D02*
X-55724079Y30029666D01*
X-54271699Y34499631D02*
X-54457109Y33928998D01*
X-60940792Y34037896D02*
G75*
G02*
X-59781341Y32105003I-386721J-1546172D01*
G01*
X-58532432Y35884028D02*
G75*
G02*
X-58847751Y36596329I198491J513810D01*
G01*
X-42610022Y39647935D02*
X-42931042Y40277971D01*
X-41219445Y43927689D02*
X-41849482Y43606669D01*
X-40422592Y38937196D02*
X-42610022Y39647935D01*
X-39485633Y36319542D02*
X-39269321Y36985282D01*
X-38366276Y43000638D02*
X-41219445Y43927689D01*
X-38045256Y42370601D02*
X-38366276Y43000638D01*
X-38045256Y42370601D02*
X-38329552Y41495629D01*
X-38014232Y40783328D02*
X-33753499Y39398931D01*
X-35205879Y34928966D02*
X-39485633Y36319542D01*
X-35051370Y35404494D02*
X-35205879Y34928966D01*
X-33753499Y39398931D02*
X-33938909Y38828298D01*
X-40422592Y38937196D02*
G75*
G02*
X-39263141Y37004303I-386721J-1546172D01*
G01*
X-38014232Y40783328D02*
G75*
G02*
X-38329551Y41495629I198491J513810D01*
G01*
D11*
X2501230Y6000000D02*
X2501230Y5849926D01*
X2501230Y4986912D01*
X2501230Y3498769D01*
X0Y3498769D01*
X-2501231Y3498769D01*
X-2501231Y5681093D01*
X-1701225Y5681093D01*
X-1697905Y5337173D01*
X-1694584Y4993254D01*
X21885Y4990083D01*
X1738355Y4986912D01*
X1738355Y5162043D01*
X1738355Y5337173D01*
X190880Y5337173D01*
X-1356594Y5337173D01*
X-1528910Y5509133D01*
X-1701225Y5681093D01*
X-2501231Y5681093D01*
X-2501231Y6000000D01*
X-2501231Y6200098D01*
X-468646Y6200098D01*
X-293895Y6025012D01*
X-119144Y5849926D01*
X637478Y5849926D01*
X1394101Y5849926D01*
X1219350Y6025012D01*
X1044599Y6200098D01*
X287976Y6200098D01*
X-468646Y6200098D01*
X-2501231Y6200098D01*
X-2501231Y7063023D01*
X-1700837Y7063023D01*
X-1700837Y6719103D01*
X-1700836Y6710463D01*
X-1700701Y6621320D01*
X-1700359Y6541225D01*
X-1699840Y6473372D01*
X-1699177Y6420952D01*
X-1698399Y6387158D01*
X-1697537Y6375184D01*
X-1697422Y6375226D01*
X-1686885Y6384763D01*
X-1661679Y6409133D01*
X-1624575Y6445614D01*
X-1578342Y6491483D01*
X-1525751Y6544017D01*
X-1357266Y6712850D01*
X190545Y6712850D01*
X1738355Y6712850D01*
X1738355Y6887937D01*
X1738355Y7063023D01*
X18759Y7063023D01*
X-1700837Y7063023D01*
X-2501231Y7063023D01*
X-2501231Y8501230D01*
X0Y8501230D01*
X2501230Y8501230D01*
X2501230Y7063023D01*
X2501230Y6000000D01*
G36*
X2501230Y6000000D02*
G01*
X2501230Y5849926D01*
X2501230Y4986912D01*
X2501230Y3498769D01*
X0Y3498769D01*
X-2501231Y3498769D01*
X-2501231Y5681093D01*
X-1701225Y5681093D01*
X-1697905Y5337173D01*
X-1694584Y4993254D01*
X21885Y4990083D01*
X1738355Y4986912D01*
X1738355Y5162043D01*
X1738355Y5337173D01*
X190880Y5337173D01*
X-1356594Y5337173D01*
X-1528910Y5509133D01*
X-1701225Y5681093D01*
X-2501231Y5681093D01*
X-2501231Y6000000D01*
X-2501231Y6200098D01*
X-468646Y6200098D01*
X-293895Y6025012D01*
X-119144Y5849926D01*
X637478Y5849926D01*
X1394101Y5849926D01*
X1219350Y6025012D01*
X1044599Y6200098D01*
X287976Y6200098D01*
X-468646Y6200098D01*
X-2501231Y6200098D01*
X-2501231Y7063023D01*
X-1700837Y7063023D01*
X-1700837Y6719103D01*
X-1700836Y6710463D01*
X-1700701Y6621320D01*
X-1700359Y6541225D01*
X-1699840Y6473372D01*
X-1699177Y6420952D01*
X-1698399Y6387158D01*
X-1697537Y6375184D01*
X-1697422Y6375226D01*
X-1686885Y6384763D01*
X-1661679Y6409133D01*
X-1624575Y6445614D01*
X-1578342Y6491483D01*
X-1525751Y6544017D01*
X-1357266Y6712850D01*
X190545Y6712850D01*
X1738355Y6712850D01*
X1738355Y6887937D01*
X1738355Y7063023D01*
X18759Y7063023D01*
X-1700837Y7063023D01*
X-2501231Y7063023D01*
X-2501231Y8501230D01*
X0Y8501230D01*
X2501230Y8501230D01*
X2501230Y7063023D01*
X2501230Y6000000D01*
G37*
D10*
X-28056122Y-2933565D02*
X-28377142Y-2303529D01*
X-26665545Y1346189D02*
X-27295582Y1025169D01*
X-25868692Y-3644304D02*
X-28056122Y-2933565D01*
X-24931733Y-6261958D02*
X-24715421Y-5596218D01*
X-23812376Y419138D02*
X-26665545Y1346189D01*
X-23491356Y-210899D02*
X-23812376Y419138D01*
X-23491356Y-210899D02*
X-23775652Y-1085871D01*
X-23460332Y-1798172D02*
X-19199599Y-3182569D01*
X-20651979Y-7652534D02*
X-24931733Y-6261958D01*
X-20497470Y-7177006D02*
X-20651979Y-7652534D01*
X-19199599Y-3182569D02*
X-19385009Y-3753202D01*
X-25868692Y-3644304D02*
G75*
G02*
X-24709241Y-5577197I-386721J-1546172D01*
G01*
X-23460332Y-1798172D02*
G75*
G02*
X-23775651Y-1085871I198491J513810D01*
G01*
X53631176Y54269338D02*
X53310156Y53639301D01*
X55021752Y49989584D02*
X54391716Y50310603D01*
X56484345Y55196389D02*
X53631176Y54269338D01*
X57114382Y54875369D02*
X56484345Y55196389D01*
X57114382Y54875369D02*
X57398678Y54000397D01*
X57209182Y50700323D02*
X55021752Y49989584D01*
X58072457Y53609473D02*
X62333190Y54993869D01*
X59505816Y49133327D02*
X59289504Y49799067D01*
X62333190Y54993869D02*
X62518599Y54423235D01*
X63631062Y50999432D02*
X63785570Y50523904D01*
X63785570Y50523904D02*
X59505816Y49133327D01*
X57209182Y50700323D02*
G75*
G02*
X59283324Y49818088I595954J-1478188D01*
G01*
X58072457Y53609473D02*
G75*
G02*
X57398677Y54000397I-141428J532352D01*
G01*
X73519995Y56609663D02*
X73166442Y55997291D01*
X74684681Y52262997D02*
X74072308Y52616550D01*
X76417773Y57386120D02*
X73519995Y56609663D01*
X76906310Y52858281D02*
X74684681Y52262997D01*
X77030145Y57032567D02*
X76417773Y57386120D01*
X77030145Y57032567D02*
X77268259Y56143915D01*
X77920655Y55718264D02*
X82248003Y56877772D01*
X79117786Y51173236D02*
X78936613Y51849383D01*
X82248003Y56877772D02*
X82403294Y56298218D01*
X83335043Y52820885D02*
X83464452Y52337922D01*
X83464452Y52337922D02*
X79117786Y51173236D01*
X76906310Y52858281D02*
G75*
G02*
X78931436Y51868703I517774J-1507352D01*
G01*
X77920655Y55718264D02*
G75*
G02*
X77268258Y56143915I-113373J539024D01*
G01*
X-81982358Y36618754D02*
X-82335912Y37231127D01*
X-80817673Y40965420D02*
X-81430045Y40611867D01*
X-79760729Y36023470D02*
X-81982358Y36618754D01*
X-78688057Y33458441D02*
X-78506884Y34134589D01*
X-77919895Y40188963D02*
X-80817673Y40965420D01*
X-77566342Y39576591D02*
X-77919895Y40188963D01*
X-77566342Y39576591D02*
X-77804455Y38687939D01*
X-77452289Y37993116D02*
X-73124941Y36833607D01*
X-74341391Y32293754D02*
X-78688057Y33458441D01*
X-74211981Y32776718D02*
X-74341391Y32293754D01*
X-73124941Y36833607D02*
X-73280233Y36254051D01*
X-79760729Y36023470D02*
G75*
G02*
X-78501707Y34153908I-305270J-1564292D01*
G01*
X-77452289Y37993116D02*
G75*
G02*
X-77804456Y38687939I171328J523495D01*
G01*
X-20855722Y48351535D02*
X-21176742Y48981571D01*
X-19465145Y52631289D02*
X-20095182Y52310269D01*
X-18668292Y47640796D02*
X-20855722Y48351535D01*
X-17731333Y45023142D02*
X-17515021Y45688882D01*
X-16611976Y51704238D02*
X-19465145Y52631289D01*
X-16290956Y51074201D02*
X-16611976Y51704238D01*
X-16290956Y51074201D02*
X-16575252Y50199229D01*
X-16259932Y49486928D02*
X-11999199Y48102531D01*
X-13451579Y43632566D02*
X-17731333Y45023142D01*
X-13297070Y44108094D02*
X-13451579Y43632566D01*
X-11999199Y48102531D02*
X-12184609Y47531898D01*
X-18668292Y47640796D02*
G75*
G02*
X-17508841Y45707903I-386721J-1546172D01*
G01*
X-16259932Y49486928D02*
G75*
G02*
X-16575251Y50199229I198491J513810D01*
G01*
X-47863322Y23480035D02*
X-48184342Y24110071D01*
X-46472745Y27759789D02*
X-47102782Y27438769D01*
X-45675892Y22769296D02*
X-47863322Y23480035D01*
X-44738933Y20151642D02*
X-44522621Y20817382D01*
X-43619576Y26832738D02*
X-46472745Y27759789D01*
X-43298556Y26202701D02*
X-43619576Y26832738D01*
X-43298556Y26202701D02*
X-43582852Y25327729D01*
X-43267532Y24615428D02*
X-39006799Y23231031D01*
X-40459179Y18761066D02*
X-44738933Y20151642D01*
X-40304670Y19236594D02*
X-40459179Y18761066D01*
X-39006799Y23231031D02*
X-39192209Y22660398D01*
X-45675892Y22769296D02*
G75*
G02*
X-44516441Y20836403I-386721J-1546172D01*
G01*
X-43267532Y24615428D02*
G75*
G02*
X-43582851Y25327729I198491J513810D01*
G01*
X21865276Y35536238D02*
X21544256Y34906201D01*
X23255852Y31256484D02*
X22625816Y31577503D01*
X24718445Y36463289D02*
X21865276Y35536238D01*
X25348482Y36142269D02*
X24718445Y36463289D01*
X25348482Y36142269D02*
X25632778Y35267297D01*
X25443282Y31967223D02*
X23255852Y31256484D01*
X26306557Y34876373D02*
X30567290Y36260769D01*
X27739916Y30400227D02*
X27523604Y31065967D01*
X30567290Y36260769D02*
X30752699Y35690135D01*
X31865162Y32266332D02*
X32019670Y31790804D01*
X32019670Y31790804D02*
X27739916Y30400227D01*
X25443282Y31967223D02*
G75*
G02*
X27517424Y31084988I595954J-1478188D01*
G01*
X26306557Y34876373D02*
G75*
G02*
X25632777Y35267297I-141428J532352D01*
G01*
X23812376Y419138D02*
X23491356Y-210899D01*
X25202952Y-3860616D02*
X24572916Y-3539597D01*
X26665545Y1346189D02*
X23812376Y419138D01*
X27295582Y1025169D02*
X26665545Y1346189D01*
X27295582Y1025169D02*
X27579878Y150197D01*
X27390382Y-3149877D02*
X25202952Y-3860616D01*
X28253657Y-240727D02*
X32514390Y1143669D01*
X29687016Y-4716873D02*
X29470704Y-4051133D01*
X32514390Y1143669D02*
X32699799Y573035D01*
X33812262Y-2850768D02*
X33966770Y-3326296D01*
X33966770Y-3326296D02*
X29687016Y-4716873D01*
X27390382Y-3149877D02*
G75*
G02*
X29464524Y-4032112I595954J-1478188D01*
G01*
X28253657Y-240727D02*
G75*
G02*
X27579877Y150197I-141428J532352D01*
G01*
X58884476Y38101338D02*
X58563456Y37471301D01*
X60275052Y33821584D02*
X59645016Y34142603D01*
X61737645Y39028389D02*
X58884476Y38101338D01*
X62367682Y38707369D02*
X61737645Y39028389D01*
X62367682Y38707369D02*
X62651978Y37832397D01*
X62462482Y34532323D02*
X60275052Y33821584D01*
X63325757Y37441473D02*
X67586490Y38825869D01*
X64759116Y32965327D02*
X64542804Y33631067D01*
X67586490Y38825869D02*
X67771899Y38255235D01*
X68884362Y34831432D02*
X69038870Y34355904D01*
X69038870Y34355904D02*
X64759116Y32965327D01*
X62462482Y34532323D02*
G75*
G02*
X64536624Y33650088I595954J-1478188D01*
G01*
X63325757Y37441473D02*
G75*
G02*
X62651977Y37832397I-141428J532352D01*
G01*
X-99868948Y42390214D02*
X-100254066Y42983243D01*
X-98933346Y46791878D02*
X-99526375Y46406760D01*
X-97619209Y41912017D02*
X-99868948Y42390214D01*
X-96413763Y39406642D02*
X-96268225Y40091345D01*
X-95998903Y46168143D02*
X-98933346Y46791878D01*
X-95613785Y45575113D02*
X-95998903Y46168143D01*
X-95613785Y45575113D02*
X-95805064Y44675217D01*
X-95417016Y43999778D02*
X-91034914Y43068333D01*
X-92012099Y38471040D02*
X-96413763Y39406642D01*
X-91908143Y38960113D02*
X-92012099Y38471040D01*
X-91034914Y43068333D02*
X-91159661Y42481445D01*
X-97619209Y41912017D02*
G75*
G02*
X-96264067Y40110908I-222983J-1578125D01*
G01*
X-95417016Y43999778D02*
G75*
G02*
X-95805063Y44675217I143696J531743D01*
G01*
X40931376Y5981438D02*
X40610356Y5351401D01*
X42321952Y1701684D02*
X41691916Y2022703D01*
X43784545Y6908489D02*
X40931376Y5981438D01*
X44414582Y6587469D02*
X43784545Y6908489D01*
X44414582Y6587469D02*
X44698878Y5712497D01*
X44509382Y2412423D02*
X42321952Y1701684D01*
X45372657Y5321573D02*
X49633390Y6705969D01*
X46806016Y845427D02*
X46589704Y1511167D01*
X49633390Y6705969D02*
X49818799Y6135335D01*
X50931262Y2711532D02*
X51085770Y2236004D01*
X51085770Y2236004D02*
X46806016Y845427D01*
X44509382Y2412423D02*
G75*
G02*
X46583524Y1530188I595954J-1478188D01*
G01*
X45372657Y5321573D02*
G75*
G02*
X44698877Y5712497I-141428J532352D01*
G01*
X-26109022Y32183535D02*
X-26430042Y32813571D01*
X-24718445Y36463289D02*
X-25348482Y36142269D01*
X-23921592Y31472796D02*
X-26109022Y32183535D01*
X-22984633Y28855142D02*
X-22768321Y29520882D01*
X-21865276Y35536238D02*
X-24718445Y36463289D01*
X-21544256Y34906201D02*
X-21865276Y35536238D01*
X-21544256Y34906201D02*
X-21828552Y34031229D01*
X-21513232Y33318928D02*
X-17252499Y31934531D01*
X-18704879Y27464566D02*
X-22984633Y28855142D01*
X-18550370Y27940094D02*
X-18704879Y27464566D01*
X-17252499Y31934531D02*
X-17437909Y31363898D01*
X-23921592Y31472796D02*
G75*
G02*
X-22762141Y29539903I-386721J-1546172D01*
G01*
X-21513232Y33318928D02*
G75*
G02*
X-21828551Y34031229I198491J513810D01*
G01*
X-37356722Y55815935D02*
X-37677742Y56445971D01*
X-35966145Y60095689D02*
X-36596182Y59774669D01*
X-35169292Y55105196D02*
X-37356722Y55815935D01*
X-34232333Y52487542D02*
X-34016021Y53153282D01*
X-33112976Y59168638D02*
X-35966145Y60095689D01*
X-32791956Y58538601D02*
X-33112976Y59168638D01*
X-32791956Y58538601D02*
X-33076252Y57663629D01*
X-32760932Y56951328D02*
X-28500199Y55566931D01*
X-29952579Y51096966D02*
X-34232333Y52487542D01*
X-29798070Y51572494D02*
X-29952579Y51096966D01*
X-28500199Y55566931D02*
X-28685609Y54996298D01*
X-35169292Y55105196D02*
G75*
G02*
X-34009841Y53172303I-386721J-1546172D01*
G01*
X-32760932Y56951328D02*
G75*
G02*
X-33076251Y57663629I198491J513810D01*
G01*
X33112976Y59168638D02*
X32791956Y58538601D01*
X34503552Y54888884D02*
X33873516Y55209903D01*
X35966145Y60095689D02*
X33112976Y59168638D01*
X36596182Y59774669D02*
X35966145Y60095689D01*
X36596182Y59774669D02*
X36880478Y58899697D01*
X36690982Y55599623D02*
X34503552Y54888884D01*
X37554257Y58508773D02*
X41814990Y59893169D01*
X38987616Y54032627D02*
X38771304Y54698367D01*
X41814990Y59893169D02*
X42000399Y59322535D01*
X43112862Y55898732D02*
X43267370Y55423204D01*
X43267370Y55423204D02*
X38987616Y54032627D01*
X36690982Y55599623D02*
G75*
G02*
X38765124Y54717388I595954J-1478188D01*
G01*
X37554257Y58508773D02*
G75*
G02*
X36880477Y58899697I-141428J532352D01*
G01*
X-45175122Y2628735D02*
X-45496142Y3258771D01*
X-43784545Y6908489D02*
X-44414582Y6587469D01*
X-42987692Y1917996D02*
X-45175122Y2628735D01*
X-42050733Y-699658D02*
X-41834421Y-33918D01*
X-40931376Y5981438D02*
X-43784545Y6908489D01*
X-40610356Y5351401D02*
X-40931376Y5981438D01*
X-40610356Y5351401D02*
X-40894652Y4476429D01*
X-40579332Y3764128D02*
X-36318599Y2379731D01*
X-37770979Y-2090234D02*
X-42050733Y-699658D01*
X-37616470Y-1614706D02*
X-37770979Y-2090234D01*
X-36318599Y2379731D02*
X-36504009Y1809098D01*
X-42987692Y1917996D02*
G75*
G02*
X-41828241Y-14897I-386721J-1546172D01*
G01*
X-40579332Y3764128D02*
G75*
G02*
X-40894651Y4476429I198491J513810D01*
G01*
X27118576Y19368238D02*
X26797556Y18738201D01*
X28509152Y15088484D02*
X27879116Y15409503D01*
X29971745Y20295289D02*
X27118576Y19368238D01*
X30601782Y19974269D02*
X29971745Y20295289D01*
X30601782Y19974269D02*
X30886078Y19099297D01*
X30696582Y15799223D02*
X28509152Y15088484D01*
X31559857Y18708373D02*
X35820590Y20092769D01*
X32993216Y14232227D02*
X32776904Y14897967D01*
X35820590Y20092769D02*
X36005999Y19522135D01*
X37118462Y16098332D02*
X37272970Y15622804D01*
X37272970Y15622804D02*
X32993216Y14232227D01*
X30696582Y15799223D02*
G75*
G02*
X32770724Y14916988I595954J-1478188D01*
G01*
X31559857Y18708373D02*
G75*
G02*
X30886077Y19099297I-141428J532352D01*
G01*
X-96334448Y59018714D02*
X-96719566Y59611743D01*
X-95398846Y63420378D02*
X-95991875Y63035260D01*
X-94084709Y58540517D02*
X-96334448Y59018714D01*
X-92879263Y56035142D02*
X-92733725Y56719845D01*
X-92464403Y62796643D02*
X-95398846Y63420378D01*
X-92079285Y62203613D02*
X-92464403Y62796643D01*
X-92079285Y62203613D02*
X-92270564Y61303717D01*
X-91882516Y60628278D02*
X-87500414Y59696833D01*
X-88477599Y55099540D02*
X-92879263Y56035142D01*
X-88373643Y55588613D02*
X-88477599Y55099540D01*
X-87500414Y59696833D02*
X-87625161Y59109945D01*
X-94084709Y58540517D02*
G75*
G02*
X-92729567Y56739408I-222983J-1578125D01*
G01*
X-91882516Y60628278D02*
G75*
G02*
X-92270563Y61303717I143696J531743D01*
G01*
X95998903Y46168143D02*
X95613785Y45575113D01*
X96934505Y41766479D02*
X96341476Y42151597D01*
X98933346Y46791878D02*
X95998903Y46168143D01*
X99184245Y42244674D02*
X96934505Y41766479D01*
X99526375Y46406760D02*
X98933346Y46791878D01*
X99526375Y46406760D02*
X99717654Y45506864D01*
X100346879Y45047654D02*
X104728981Y45979097D01*
X101304501Y40446201D02*
X101158963Y41130904D01*
X104728981Y45979097D02*
X104853728Y45392208D01*
X105602210Y41870877D02*
X105706166Y41381803D01*
X105706166Y41381803D02*
X101304501Y40446201D01*
X99184245Y42244674D02*
G75*
G02*
X101154804Y41150467I438177J-1532381D01*
G01*
X100346879Y45047654D02*
G75*
G02*
X99717655Y45506864I-85007J544217D01*
G01*
X-77582458Y53039454D02*
X-77936012Y53651827D01*
X-76417773Y57386120D02*
X-77030145Y57032567D01*
X-75360829Y52444170D02*
X-77582458Y53039454D01*
X-74288157Y49879141D02*
X-74106984Y50555289D01*
X-73519995Y56609663D02*
X-76417773Y57386120D01*
X-73166442Y55997291D02*
X-73519995Y56609663D01*
X-73166442Y55997291D02*
X-73404555Y55108639D01*
X-73052389Y54413816D02*
X-68725041Y53254307D01*
X-69941491Y48714454D02*
X-74288157Y49879141D01*
X-69812081Y49197418D02*
X-69941491Y48714454D01*
X-68725041Y53254307D02*
X-68880333Y52674751D01*
X-75360829Y52444170D02*
G75*
G02*
X-74101807Y50574608I-305270J-1564292D01*
G01*
X-73052389Y54413816D02*
G75*
G02*
X-73404556Y55108639I171328J523495D01*
G01*
X38366276Y43000638D02*
X38045256Y42370601D01*
X39756852Y38720884D02*
X39126816Y39041903D01*
X41219445Y43927689D02*
X38366276Y43000638D01*
X41849482Y43606669D02*
X41219445Y43927689D01*
X41849482Y43606669D02*
X42133778Y42731697D01*
X41944282Y39431623D02*
X39756852Y38720884D01*
X42807557Y42340773D02*
X47068290Y43725169D01*
X44240916Y37864627D02*
X44024604Y38530367D01*
X47068290Y43725169D02*
X47253699Y43154535D01*
X48366162Y39730732D02*
X48520670Y39255204D01*
X48520670Y39255204D02*
X44240916Y37864627D01*
X41944282Y39431623D02*
G75*
G02*
X44018424Y38549388I595954J-1478188D01*
G01*
X42807557Y42340773D02*
G75*
G02*
X42133777Y42731697I-141428J532352D01*
G01*
X92464403Y62796643D02*
X92079285Y62203613D01*
X93400005Y58394979D02*
X92806976Y58780097D01*
X95398846Y63420378D02*
X92464403Y62796643D01*
X95649745Y58873174D02*
X93400005Y58394979D01*
X95991875Y63035260D02*
X95398846Y63420378D01*
X95991875Y63035260D02*
X96183154Y62135364D01*
X96812379Y61676154D02*
X101194481Y62607597D01*
X97770001Y57074701D02*
X97624463Y57759404D01*
X101194481Y62607597D02*
X101319228Y62020708D01*
X102067710Y58499377D02*
X102171666Y58010303D01*
X102171666Y58010303D02*
X97770001Y57074701D01*
X95649745Y58873174D02*
G75*
G02*
X97620304Y57778967I438177J-1532381D01*
G01*
X96812379Y61676154D02*
G75*
G02*
X96183155Y62135364I-85007J544217D01*
G01*
X-57874922Y50916635D02*
X-58195942Y51546671D01*
X-56484345Y55196389D02*
X-57114382Y54875369D01*
X-55687492Y50205896D02*
X-57874922Y50916635D01*
X-54750533Y47588242D02*
X-54534221Y48253982D01*
X-53631176Y54269338D02*
X-56484345Y55196389D01*
X-53310156Y53639301D02*
X-53631176Y54269338D01*
X-53310156Y53639301D02*
X-53594452Y52764329D01*
X-53279132Y52052028D02*
X-49018399Y50667631D01*
X-50470779Y46197666D02*
X-54750533Y47588242D01*
X-50316270Y46673194D02*
X-50470779Y46197666D01*
X-49018399Y50667631D02*
X-49203809Y50096998D01*
X-55687492Y50205896D02*
G75*
G02*
X-54528041Y48273003I-386721J-1546172D01*
G01*
X-53279132Y52052028D02*
G75*
G02*
X-53594451Y52764329I198491J513810D01*
G01*
X77919895Y40188963D02*
X77566342Y39576591D01*
X79084581Y35842297D02*
X78472208Y36195850D01*
X80817673Y40965420D02*
X77919895Y40188963D01*
X81306210Y36437581D02*
X79084581Y35842297D01*
X81430045Y40611867D02*
X80817673Y40965420D01*
X81430045Y40611867D02*
X81668159Y39723215D01*
X82320555Y39297564D02*
X86647903Y40457072D01*
X83517686Y34752536D02*
X83336513Y35428683D01*
X86647903Y40457072D02*
X86803194Y39877518D01*
X87734943Y36400185D02*
X87864352Y35917222D01*
X87864352Y35917222D02*
X83517686Y34752536D01*
X81306210Y36437581D02*
G75*
G02*
X83331336Y35448003I517774J-1507352D01*
G01*
X82320555Y39297564D02*
G75*
G02*
X81668158Y39723215I-113373J539024D01*
G01*
X48377876Y70437238D02*
X48056856Y69807201D01*
X49768452Y66157484D02*
X49138416Y66478503D01*
X51231045Y71364289D02*
X48377876Y70437238D01*
X51861082Y71043269D02*
X51231045Y71364289D01*
X51861082Y71043269D02*
X52145378Y70168297D01*
X51955882Y66868223D02*
X49768452Y66157484D01*
X52819157Y69777373D02*
X57079890Y71161769D01*
X54252516Y65301227D02*
X54036204Y65966967D01*
X57079890Y71161769D02*
X57265299Y70591135D01*
X58377762Y67167332D02*
X58532270Y66691804D01*
X58532270Y66691804D02*
X54252516Y65301227D01*
X51955882Y66868223D02*
G75*
G02*
X54030024Y65985988I595954J-1478188D01*
G01*
X52819157Y69777373D02*
G75*
G02*
X52145377Y70168297I-141428J532352D01*
G01*
X-52621622Y67084535D02*
X-52942642Y67714571D01*
X-51231045Y71364289D02*
X-51861082Y71043269D01*
X-50434192Y66373796D02*
X-52621622Y67084535D01*
X-49497233Y63756142D02*
X-49280921Y64421882D01*
X-48377876Y70437238D02*
X-51231045Y71364289D01*
X-48056856Y69807201D02*
X-48377876Y70437238D01*
X-48056856Y69807201D02*
X-48341152Y68932229D01*
X-48025832Y68219928D02*
X-43765099Y66835531D01*
X-45217479Y62365566D02*
X-49497233Y63756142D01*
X-45062970Y62841094D02*
X-45217479Y62365566D01*
X-43765099Y66835531D02*
X-43950509Y66264898D01*
X-50434192Y66373796D02*
G75*
G02*
X-49274741Y64440903I-386721J-1546172D01*
G01*
X-48025832Y68219928D02*
G75*
G02*
X-48341151Y68932229I198491J513810D01*
G01*
X-103403448Y25761714D02*
X-103788566Y26354743D01*
X-102467846Y30163378D02*
X-103060875Y29778260D01*
X-101153709Y25283517D02*
X-103403448Y25761714D01*
X-99948263Y22778142D02*
X-99802725Y23462845D01*
X-99533403Y29539643D02*
X-102467846Y30163378D01*
X-99148285Y28946613D02*
X-99533403Y29539643D01*
X-99148285Y28946613D02*
X-99339564Y28046717D01*
X-98951516Y27371278D02*
X-94569414Y26439833D01*
X-95546599Y21842540D02*
X-99948263Y22778142D01*
X-95442643Y22331613D02*
X-95546599Y21842540D01*
X-94569414Y26439833D02*
X-94694161Y25852945D01*
X-101153709Y25283517D02*
G75*
G02*
X-99798567Y23482408I-222983J-1578125D01*
G01*
X-98951516Y27371278D02*
G75*
G02*
X-99339563Y28046717I143696J531743D01*
G01*
X69119995Y73030463D02*
X68766442Y72418091D01*
X70284681Y68683797D02*
X69672308Y69037350D01*
X72017773Y73806920D02*
X69119995Y73030463D01*
X72506310Y69279081D02*
X70284681Y68683797D01*
X72630145Y73453367D02*
X72017773Y73806920D01*
X72630145Y73453367D02*
X72868259Y72564715D01*
X73520655Y72139064D02*
X77848003Y73298572D01*
X74717786Y67594036D02*
X74536613Y68270183D01*
X77848003Y73298572D02*
X78003294Y72719018D01*
X78935043Y69241685D02*
X79064452Y68758722D01*
X79064452Y68758722D02*
X74717786Y67594036D01*
X72506310Y69279081D02*
G75*
G02*
X74531436Y68289503I517774J-1507352D01*
G01*
X73520655Y72139064D02*
G75*
G02*
X72868258Y72564715I-113373J539024D01*
G01*
X99533403Y29539643D02*
X99148285Y28946613D01*
X100469005Y25137979D02*
X99875976Y25523097D01*
X102467846Y30163378D02*
X99533403Y29539643D01*
X102718745Y25616174D02*
X100469005Y25137979D01*
X103060875Y29778260D02*
X102467846Y30163378D01*
X103060875Y29778260D02*
X103252154Y28878364D01*
X103881379Y28419154D02*
X108263481Y29350597D01*
X104839001Y23817701D02*
X104693463Y24502404D01*
X108263481Y29350597D02*
X108388228Y28763708D01*
X109136710Y25242377D02*
X109240666Y24753303D01*
X109240666Y24753303D02*
X104839001Y23817701D01*
X102718745Y25616174D02*
G75*
G02*
X104689304Y24521967I438177J-1532381D01*
G01*
X103881379Y28419154D02*
G75*
G02*
X103252155Y28878364I-85007J544217D01*
G01*
X43619576Y26832738D02*
X43298556Y26202701D01*
X45010152Y22552984D02*
X44380116Y22874003D01*
X46472745Y27759789D02*
X43619576Y26832738D01*
X47102782Y27438769D02*
X46472745Y27759789D01*
X47102782Y27438769D02*
X47387078Y26563797D01*
X47197582Y23263723D02*
X45010152Y22552984D01*
X48060857Y26172873D02*
X52321590Y27557269D01*
X49494216Y21696727D02*
X49277904Y22362467D01*
X52321590Y27557269D02*
X52506999Y26986635D01*
X53619462Y23562832D02*
X53773970Y23087304D01*
X53773970Y23087304D02*
X49494216Y21696727D01*
X47197582Y23263723D02*
G75*
G02*
X49271724Y22381488I595954J-1478188D01*
G01*
X48060857Y26172873D02*
G75*
G02*
X47387077Y26563797I-141428J532352D01*
G01*
X16611976Y51704238D02*
X16290956Y51074201D01*
X18002552Y47424484D02*
X17372516Y47745503D01*
X19465145Y52631289D02*
X16611976Y51704238D01*
X20095182Y52310269D02*
X19465145Y52631289D01*
X20095182Y52310269D02*
X20379478Y51435297D01*
X20189982Y48135223D02*
X18002552Y47424484D01*
X21053257Y51044373D02*
X25313990Y52428769D01*
X22486616Y46568227D02*
X22270304Y47233967D01*
X25313990Y52428769D02*
X25499399Y51858135D01*
X26611862Y48434332D02*
X26766370Y47958804D01*
X26766370Y47958804D02*
X22486616Y46568227D01*
X20189982Y48135223D02*
G75*
G02*
X22264124Y47252988I595954J-1478188D01*
G01*
X21053257Y51044373D02*
G75*
G02*
X20379477Y51435297I-141428J532352D01*
G01*
%LPC*%
D12*
X117000000Y25000000D03*
X-117000000Y50000000D03*
X-58000000Y81000000D03*
X0Y25000000D03*
D13*
X-122488900Y57011700D03*
X-122488900Y60011700D03*
D14*
X-121883900Y67516700D03*
X-119343900Y67516700D03*
X-116803900Y67516700D03*
X-114263900Y67516700D03*
X-111723900Y67516700D03*
X-109183900Y67516700D03*
X-106643900Y67516700D03*
X-106643900Y83706700D03*
X-109183900Y83706700D03*
X-111723900Y83706700D03*
X-114263900Y83706700D03*
X-116803900Y83706700D03*
X-119343900Y83706700D03*
X-121883900Y83706700D03*
D15*
X-122835900Y74341700D03*
X-122835900Y76881700D03*
X-120295900Y74341700D03*
X-120295900Y76881700D03*
X-114580900Y71166700D03*
X-116485900Y71166700D03*
X-105462492Y79414108D03*
X-105462492Y81319108D03*
D12*
X-117000000Y25000000D03*
X58000000Y81000000D03*
X117000000Y50000000D03*
D16*
X-78003792Y66921605D03*
D17*
X-71151227Y71245359D03*
D18*
X-72691200Y65498100D03*
D17*
X-66890999Y67826227D03*
D16*
X-67378608Y64074595D03*
G36*
G01*
X-75955098Y71186693D02*
X-75282169Y73698100D01*
G75*
G02*
X-75220932Y73733455I48296J-12941D01*
G01*
X-72709525Y73060526D01*
G75*
G02*
X-72674170Y72999289I-12941J-48296D01*
G01*
X-73347099Y70487882D01*
G75*
G02*
X-73408336Y70452527I-48296J12941D01*
G01*
X-75919743Y71125456D01*
G75*
G02*
X-75955098Y71186693I12941J48296D01*
G01*
G37*
G36*
G01*
X-65368056Y66072296D02*
X-64695127Y68583703D01*
G75*
G02*
X-64633890Y68619058I48296J-12941D01*
G01*
X-62122483Y67946129D01*
G75*
G02*
X-62087128Y67884892I-12941J-48296D01*
G01*
X-62760057Y65373485D01*
G75*
G02*
X-62821294Y65338130I-48296J12941D01*
G01*
X-65332701Y66011059D01*
G75*
G02*
X-65368056Y66072296I12941J48296D01*
G01*
G37*
X-36309911Y13732693D03*
D17*
X-29240449Y17691886D03*
D18*
X-31079100Y12033100D03*
D17*
X-25165004Y14054477D03*
D16*
X-25848289Y10333507D03*
G36*
G01*
X-34040808Y17884717D02*
X-33237363Y20357464D01*
G75*
G02*
X-33174359Y20389566I47553J-15451D01*
G01*
X-30701612Y19586121D01*
G75*
G02*
X-30669510Y19523117I-15451J-47553D01*
G01*
X-31472955Y17050370D01*
G75*
G02*
X-31535959Y17018268I-47553J15451D01*
G01*
X-34008706Y17821713D01*
G75*
G02*
X-34040808Y17884717I15451J47553D01*
G01*
G37*
G36*
G01*
X-23735943Y12223246D02*
X-22932498Y14695993D01*
G75*
G02*
X-22869494Y14728095I47553J-15451D01*
G01*
X-20396747Y13924650D01*
G75*
G02*
X-20364645Y13861646I-15451J-47553D01*
G01*
X-21168090Y11388899D01*
G75*
G02*
X-21231094Y11356797I-47553J15451D01*
G01*
X-23703841Y12160242D01*
G75*
G02*
X-23735943Y12223246I15451J47553D01*
G01*
G37*
X-68075811Y32465793D03*
D17*
X-61006349Y36424986D03*
D18*
X-62845000Y30766200D03*
D17*
X-56930904Y32787577D03*
D16*
X-57614189Y29066607D03*
G36*
G01*
X-65806708Y36617817D02*
X-65003263Y39090564D01*
G75*
G02*
X-64940259Y39122666I47553J-15451D01*
G01*
X-62467512Y38319221D01*
G75*
G02*
X-62435410Y38256217I-15451J-47553D01*
G01*
X-63238855Y35783470D01*
G75*
G02*
X-63301859Y35751368I-47553J15451D01*
G01*
X-65774606Y36554813D01*
G75*
G02*
X-65806708Y36617817I15451J47553D01*
G01*
G37*
G36*
G01*
X-55501843Y30956346D02*
X-54698398Y33429093D01*
G75*
G02*
X-54635394Y33461195I47553J-15451D01*
G01*
X-52162647Y32657750D01*
G75*
G02*
X-52130545Y32594746I-15451J-47553D01*
G01*
X-52933990Y30121999D01*
G75*
G02*
X-52996994Y30089897I-47553J15451D01*
G01*
X-55469741Y30893342D01*
G75*
G02*
X-55501843Y30956346I15451J47553D01*
G01*
G37*
X-47557611Y37365093D03*
D17*
X-40488149Y41324286D03*
D18*
X-42326800Y35665500D03*
D17*
X-36412704Y37686877D03*
D16*
X-37095989Y33965907D03*
G36*
G01*
X-45288508Y41517117D02*
X-44485063Y43989864D01*
G75*
G02*
X-44422059Y44021966I47553J-15451D01*
G01*
X-41949312Y43218521D01*
G75*
G02*
X-41917210Y43155517I-15451J-47553D01*
G01*
X-42720655Y40682770D01*
G75*
G02*
X-42783659Y40650668I-47553J15451D01*
G01*
X-45256406Y41454113D01*
G75*
G02*
X-45288508Y41517117I15451J47553D01*
G01*
G37*
G36*
G01*
X-34983643Y35855646D02*
X-34180198Y38328393D01*
G75*
G02*
X-34117194Y38360495I47553J-15451D01*
G01*
X-31644447Y37557050D01*
G75*
G02*
X-31612345Y37494046I-15451J-47553D01*
G01*
X-32415790Y35021299D01*
G75*
G02*
X-32478794Y34989197I-47553J15451D01*
G01*
X-34951541Y35792642D01*
G75*
G02*
X-34983643Y35855646I15451J47553D01*
G01*
G37*
X-33003711Y-5216407D03*
D17*
X-25934249Y-1257214D03*
D18*
X-27772900Y-6916000D03*
D17*
X-21858804Y-4894623D03*
D16*
X-22542089Y-8615593D03*
G36*
G01*
X-30734608Y-1064383D02*
X-29931163Y1408364D01*
G75*
G02*
X-29868159Y1440466I47553J-15451D01*
G01*
X-27395412Y637021D01*
G75*
G02*
X-27363310Y574017I-15451J-47553D01*
G01*
X-28166755Y-1898730D01*
G75*
G02*
X-28229759Y-1930832I-47553J15451D01*
G01*
X-30702506Y-1127387D01*
G75*
G02*
X-30734608Y-1064383I15451J47553D01*
G01*
G37*
G36*
G01*
X-20429743Y-6725854D02*
X-19626298Y-4253107D01*
G75*
G02*
X-19563294Y-4221005I47553J-15451D01*
G01*
X-17090547Y-5024450D01*
G75*
G02*
X-17058445Y-5087454I-15451J-47553D01*
G01*
X-17861890Y-7560201D01*
G75*
G02*
X-17924894Y-7592303I-47553J15451D01*
G01*
X-20397641Y-6788858D01*
G75*
G02*
X-20429743Y-6725854I15451J47553D01*
G01*
G37*
X52360889Y45234607D03*
D17*
X55753049Y52592986D03*
D18*
X57591700Y46934200D03*
D17*
X61188169Y52045747D03*
D16*
X62822511Y48633793D03*
G36*
G01*
X51756135Y49927409D02*
X50952690Y52400156D01*
G75*
G02*
X50984792Y52463160I47553J15451D01*
G01*
X53457539Y53266605D01*
G75*
G02*
X53520543Y53234503I15451J-47553D01*
G01*
X54323988Y50761756D01*
G75*
G02*
X54291886Y50698752I-47553J-15451D01*
G01*
X51819139Y49895307D01*
G75*
G02*
X51756135Y49927409I-15451J47553D01*
G01*
G37*
G36*
G01*
X63420675Y51404231D02*
X62617230Y53876978D01*
G75*
G02*
X62649332Y53939982I47553J15451D01*
G01*
X65122079Y54743427D01*
G75*
G02*
X65185083Y54711325I15451J-47553D01*
G01*
X65988528Y52238578D01*
G75*
G02*
X65956426Y52175574I-47553J-15451D01*
G01*
X63483679Y51372129D01*
G75*
G02*
X63420675Y51404231I-15451J47553D01*
G01*
G37*
X71778608Y47653795D03*
D17*
X75551227Y54824559D03*
D18*
X77091200Y49077300D03*
D17*
X80950258Y53993617D03*
D16*
X82403792Y50500805D03*
G36*
G01*
X71420285Y52371817D02*
X70747356Y54883224D01*
G75*
G02*
X70782711Y54944461I48296J12941D01*
G01*
X73294118Y55617390D01*
G75*
G02*
X73355355Y55582035I12941J-48296D01*
G01*
X74028284Y53070628D01*
G75*
G02*
X73992929Y53009391I-48296J-12941D01*
G01*
X71481522Y52336462D01*
G75*
G02*
X71420285Y52371817I-12941J48296D01*
G01*
G37*
G36*
G01*
X83146130Y53236140D02*
X82473201Y55747547D01*
G75*
G02*
X82508556Y55808784I48296J12941D01*
G01*
X85019963Y56481713D01*
G75*
G02*
X85081200Y56446358I12941J-48296D01*
G01*
X85754129Y53934951D01*
G75*
G02*
X85718774Y53873714I-48296J-12941D01*
G01*
X83207367Y53200785D01*
G75*
G02*
X83146130Y53236140I-12941J48296D01*
G01*
G37*
X-86803692Y34080105D03*
D17*
X-79951127Y38403859D03*
D18*
X-81491100Y32656600D03*
D17*
X-75690899Y34984727D03*
D16*
X-76178508Y31233095D03*
G36*
G01*
X-84754998Y38345193D02*
X-84082069Y40856600D01*
G75*
G02*
X-84020832Y40891955I48296J-12941D01*
G01*
X-81509425Y40219026D01*
G75*
G02*
X-81474070Y40157789I-12941J-48296D01*
G01*
X-82146999Y37646382D01*
G75*
G02*
X-82208236Y37611027I-48296J12941D01*
G01*
X-84719643Y38283956D01*
G75*
G02*
X-84754998Y38345193I12941J48296D01*
G01*
G37*
G36*
G01*
X-74167956Y33230796D02*
X-73495027Y35742203D01*
G75*
G02*
X-73433790Y35777558I48296J-12941D01*
G01*
X-70922383Y35104629D01*
G75*
G02*
X-70887028Y35043392I-12941J-48296D01*
G01*
X-71559957Y32531985D01*
G75*
G02*
X-71621194Y32496630I-48296J12941D01*
G01*
X-74132601Y33169559D01*
G75*
G02*
X-74167956Y33230796I12941J48296D01*
G01*
G37*
X-25803311Y46068693D03*
D17*
X-18733849Y50027886D03*
D18*
X-20572500Y44369100D03*
D17*
X-14658404Y46390477D03*
D16*
X-15341689Y42669507D03*
G36*
G01*
X-23534208Y50220717D02*
X-22730763Y52693464D01*
G75*
G02*
X-22667759Y52725566I47553J-15451D01*
G01*
X-20195012Y51922121D01*
G75*
G02*
X-20162910Y51859117I-15451J-47553D01*
G01*
X-20966355Y49386370D01*
G75*
G02*
X-21029359Y49354268I-47553J15451D01*
G01*
X-23502106Y50157713D01*
G75*
G02*
X-23534208Y50220717I15451J47553D01*
G01*
G37*
G36*
G01*
X-13229343Y44559246D02*
X-12425898Y47031993D01*
G75*
G02*
X-12362894Y47064095I47553J-15451D01*
G01*
X-9890147Y46260650D01*
G75*
G02*
X-9858045Y46197646I-15451J-47553D01*
G01*
X-10661490Y43724899D01*
G75*
G02*
X-10724494Y43692797I-47553J15451D01*
G01*
X-13197241Y44496242D01*
G75*
G02*
X-13229343Y44559246I15451J47553D01*
G01*
G37*
X-52810911Y21197193D03*
D17*
X-45741449Y25156386D03*
D18*
X-47580100Y19497600D03*
D17*
X-41666004Y21518977D03*
D16*
X-42349289Y17798007D03*
G36*
G01*
X-50541808Y25349217D02*
X-49738363Y27821964D01*
G75*
G02*
X-49675359Y27854066I47553J-15451D01*
G01*
X-47202612Y27050621D01*
G75*
G02*
X-47170510Y26987617I-15451J-47553D01*
G01*
X-47973955Y24514870D01*
G75*
G02*
X-48036959Y24482768I-47553J15451D01*
G01*
X-50509706Y25286213D01*
G75*
G02*
X-50541808Y25349217I15451J47553D01*
G01*
G37*
G36*
G01*
X-40236943Y19687746D02*
X-39433498Y22160493D01*
G75*
G02*
X-39370494Y22192595I47553J-15451D01*
G01*
X-36897747Y21389150D01*
G75*
G02*
X-36865645Y21326146I-15451J-47553D01*
G01*
X-37669090Y18853399D01*
G75*
G02*
X-37732094Y18821297I-47553J15451D01*
G01*
X-40204841Y19624742D01*
G75*
G02*
X-40236943Y19687746I15451J47553D01*
G01*
G37*
X20594989Y26501507D03*
D17*
X23987149Y33859886D03*
D18*
X25825800Y28201100D03*
D17*
X29422269Y33312647D03*
D16*
X31056611Y29900693D03*
G36*
G01*
X19990235Y31194309D02*
X19186790Y33667056D01*
G75*
G02*
X19218892Y33730060I47553J15451D01*
G01*
X21691639Y34533505D01*
G75*
G02*
X21754643Y34501403I15451J-47553D01*
G01*
X22558088Y32028656D01*
G75*
G02*
X22525986Y31965652I-47553J-15451D01*
G01*
X20053239Y31162207D01*
G75*
G02*
X19990235Y31194309I-15451J47553D01*
G01*
G37*
G36*
G01*
X31654775Y32671131D02*
X30851330Y35143878D01*
G75*
G02*
X30883432Y35206882I47553J15451D01*
G01*
X33356179Y36010327D01*
G75*
G02*
X33419183Y35978225I15451J-47553D01*
G01*
X34222628Y33505478D01*
G75*
G02*
X34190526Y33442474I-47553J-15451D01*
G01*
X31717779Y32639029D01*
G75*
G02*
X31654775Y32671131I-15451J47553D01*
G01*
G37*
X22542089Y-8615593D03*
D17*
X25934249Y-1257214D03*
D18*
X27772900Y-6916000D03*
D17*
X31369369Y-1804453D03*
D16*
X33003711Y-5216407D03*
G36*
G01*
X21937335Y-3922791D02*
X21133890Y-1450044D01*
G75*
G02*
X21165992Y-1387040I47553J15451D01*
G01*
X23638739Y-583595D01*
G75*
G02*
X23701743Y-615697I15451J-47553D01*
G01*
X24505188Y-3088444D01*
G75*
G02*
X24473086Y-3151448I-47553J-15451D01*
G01*
X22000339Y-3954893D01*
G75*
G02*
X21937335Y-3922791I-15451J47553D01*
G01*
G37*
G36*
G01*
X33601875Y-2445969D02*
X32798430Y26778D01*
G75*
G02*
X32830532Y89782I47553J15451D01*
G01*
X35303279Y893227D01*
G75*
G02*
X35366283Y861125I15451J-47553D01*
G01*
X36169728Y-1611622D01*
G75*
G02*
X36137626Y-1674626I-47553J-15451D01*
G01*
X33664879Y-2478071D01*
G75*
G02*
X33601875Y-2445969I-15451J47553D01*
G01*
G37*
X57614189Y29066607D03*
D17*
X61006349Y36424986D03*
D18*
X62845000Y30766200D03*
D17*
X66441469Y35877747D03*
D16*
X68075811Y32465793D03*
G36*
G01*
X57009435Y33759409D02*
X56205990Y36232156D01*
G75*
G02*
X56238092Y36295160I47553J15451D01*
G01*
X58710839Y37098605D01*
G75*
G02*
X58773843Y37066503I15451J-47553D01*
G01*
X59577288Y34593756D01*
G75*
G02*
X59545186Y34530752I-47553J-15451D01*
G01*
X57072439Y33727307D01*
G75*
G02*
X57009435Y33759409I-15451J47553D01*
G01*
G37*
G36*
G01*
X68673975Y35236231D02*
X67870530Y37708978D01*
G75*
G02*
X67902632Y37771982I47553J15451D01*
G01*
X70375379Y38575427D01*
G75*
G02*
X70438383Y38543325I15451J-47553D01*
G01*
X71241828Y36070578D01*
G75*
G02*
X71209726Y36007574I-47553J-15451D01*
G01*
X68736979Y35204129D01*
G75*
G02*
X68673975Y35236231I-15451J47553D01*
G01*
G37*
X-104550812Y39602714D03*
D17*
X-97933925Y44279178D03*
D18*
X-99171000Y38459200D03*
D17*
X-93500593Y41087695D03*
D16*
X-93791188Y37315686D03*
G36*
G01*
X-102728143Y43969178D02*
X-102187573Y46512362D01*
G75*
G02*
X-102128270Y46550873I48907J-10396D01*
G01*
X-99585086Y46010303D01*
G75*
G02*
X-99546575Y45951000I-10396J-48907D01*
G01*
X-100087145Y43407816D01*
G75*
G02*
X-100146448Y43369305I-48907J10396D01*
G01*
X-102689632Y43909875D01*
G75*
G02*
X-102728143Y43969178I10396J48907D01*
G01*
G37*
G36*
G01*
X-91887944Y39415873D02*
X-91347374Y41959057D01*
G75*
G02*
X-91288071Y41997568I48907J-10396D01*
G01*
X-88744887Y41456998D01*
G75*
G02*
X-88706376Y41397695I-10396J-48907D01*
G01*
X-89246946Y38854511D01*
G75*
G02*
X-89306249Y38816000I-48907J10396D01*
G01*
X-91849433Y39356570D01*
G75*
G02*
X-91887944Y39415873I10396J48907D01*
G01*
G37*
X39661089Y-3053293D03*
D17*
X43053249Y4305086D03*
D18*
X44891900Y-1353700D03*
D17*
X48488369Y3757847D03*
D16*
X50122711Y345893D03*
G36*
G01*
X39056335Y1639509D02*
X38252890Y4112256D01*
G75*
G02*
X38284992Y4175260I47553J15451D01*
G01*
X40757739Y4978705D01*
G75*
G02*
X40820743Y4946603I15451J-47553D01*
G01*
X41624188Y2473856D01*
G75*
G02*
X41592086Y2410852I-47553J-15451D01*
G01*
X39119339Y1607407D01*
G75*
G02*
X39056335Y1639509I-15451J47553D01*
G01*
G37*
G36*
G01*
X50720875Y3116331D02*
X49917430Y5589078D01*
G75*
G02*
X49949532Y5652082I47553J15451D01*
G01*
X52422279Y6455527D01*
G75*
G02*
X52485283Y6423425I15451J-47553D01*
G01*
X53288728Y3950678D01*
G75*
G02*
X53256626Y3887674I-47553J-15451D01*
G01*
X50783879Y3084229D01*
G75*
G02*
X50720875Y3116331I-15451J47553D01*
G01*
G37*
X-31056611Y29900693D03*
D17*
X-23987149Y33859886D03*
D18*
X-25825800Y28201100D03*
D17*
X-19911704Y30222477D03*
D16*
X-20594989Y26501507D03*
G36*
G01*
X-28787508Y34052717D02*
X-27984063Y36525464D01*
G75*
G02*
X-27921059Y36557566I47553J-15451D01*
G01*
X-25448312Y35754121D01*
G75*
G02*
X-25416210Y35691117I-15451J-47553D01*
G01*
X-26219655Y33218370D01*
G75*
G02*
X-26282659Y33186268I-47553J15451D01*
G01*
X-28755406Y33989713D01*
G75*
G02*
X-28787508Y34052717I15451J47553D01*
G01*
G37*
G36*
G01*
X-18482643Y28391246D02*
X-17679198Y30863993D01*
G75*
G02*
X-17616194Y30896095I47553J-15451D01*
G01*
X-15143447Y30092650D01*
G75*
G02*
X-15111345Y30029646I-15451J-47553D01*
G01*
X-15914790Y27556899D01*
G75*
G02*
X-15977794Y27524797I-47553J15451D01*
G01*
X-18450541Y28328242D01*
G75*
G02*
X-18482643Y28391246I15451J47553D01*
G01*
G37*
X-42304311Y53533093D03*
D17*
X-35234849Y57492286D03*
D18*
X-37073500Y51833500D03*
D17*
X-31159404Y53854877D03*
D16*
X-31842689Y50133907D03*
G36*
G01*
X-40035208Y57685117D02*
X-39231763Y60157864D01*
G75*
G02*
X-39168759Y60189966I47553J-15451D01*
G01*
X-36696012Y59386521D01*
G75*
G02*
X-36663910Y59323517I-15451J-47553D01*
G01*
X-37467355Y56850770D01*
G75*
G02*
X-37530359Y56818668I-47553J15451D01*
G01*
X-40003106Y57622113D01*
G75*
G02*
X-40035208Y57685117I15451J47553D01*
G01*
G37*
G36*
G01*
X-29730343Y52023646D02*
X-28926898Y54496393D01*
G75*
G02*
X-28863894Y54528495I47553J-15451D01*
G01*
X-26391147Y53725050D01*
G75*
G02*
X-26359045Y53662046I-15451J-47553D01*
G01*
X-27162490Y51189299D01*
G75*
G02*
X-27225494Y51157197I-47553J15451D01*
G01*
X-29698241Y51960642D01*
G75*
G02*
X-29730343Y52023646I15451J47553D01*
G01*
G37*
X31842689Y50133907D03*
D17*
X35234849Y57492286D03*
D18*
X37073500Y51833500D03*
D17*
X40669969Y56945047D03*
D16*
X42304311Y53533093D03*
G36*
G01*
X31237935Y54826709D02*
X30434490Y57299456D01*
G75*
G02*
X30466592Y57362460I47553J15451D01*
G01*
X32939339Y58165905D01*
G75*
G02*
X33002343Y58133803I15451J-47553D01*
G01*
X33805788Y55661056D01*
G75*
G02*
X33773686Y55598052I-47553J-15451D01*
G01*
X31300939Y54794607D01*
G75*
G02*
X31237935Y54826709I-15451J47553D01*
G01*
G37*
G36*
G01*
X42902475Y56303531D02*
X42099030Y58776278D01*
G75*
G02*
X42131132Y58839282I47553J15451D01*
G01*
X44603879Y59642727D01*
G75*
G02*
X44666883Y59610625I15451J-47553D01*
G01*
X45470328Y57137878D01*
G75*
G02*
X45438226Y57074874I-47553J-15451D01*
G01*
X42965479Y56271429D01*
G75*
G02*
X42902475Y56303531I-15451J47553D01*
G01*
G37*
X-50122711Y345893D03*
D17*
X-43053249Y4305086D03*
D18*
X-44891900Y-1353700D03*
D17*
X-38977804Y667677D03*
D16*
X-39661089Y-3053293D03*
G36*
G01*
X-47853608Y4497917D02*
X-47050163Y6970664D01*
G75*
G02*
X-46987159Y7002766I47553J-15451D01*
G01*
X-44514412Y6199321D01*
G75*
G02*
X-44482310Y6136317I-15451J-47553D01*
G01*
X-45285755Y3663570D01*
G75*
G02*
X-45348759Y3631468I-47553J15451D01*
G01*
X-47821506Y4434913D01*
G75*
G02*
X-47853608Y4497917I15451J47553D01*
G01*
G37*
G36*
G01*
X-37548743Y-1163554D02*
X-36745298Y1309193D01*
G75*
G02*
X-36682294Y1341295I47553J-15451D01*
G01*
X-34209547Y537850D01*
G75*
G02*
X-34177445Y474846I-15451J-47553D01*
G01*
X-34980890Y-1997901D01*
G75*
G02*
X-35043894Y-2030003I-47553J15451D01*
G01*
X-37516641Y-1226558D01*
G75*
G02*
X-37548743Y-1163554I15451J47553D01*
G01*
G37*
X25848289Y10333507D03*
D17*
X29240449Y17691886D03*
D18*
X31079100Y12033100D03*
D17*
X34675569Y17144647D03*
D16*
X36309911Y13732693D03*
G36*
G01*
X25243535Y15026309D02*
X24440090Y17499056D01*
G75*
G02*
X24472192Y17562060I47553J15451D01*
G01*
X26944939Y18365505D01*
G75*
G02*
X27007943Y18333403I15451J-47553D01*
G01*
X27811388Y15860656D01*
G75*
G02*
X27779286Y15797652I-47553J-15451D01*
G01*
X25306539Y14994207D01*
G75*
G02*
X25243535Y15026309I-15451J47553D01*
G01*
G37*
G36*
G01*
X36908075Y16503131D02*
X36104630Y18975878D01*
G75*
G02*
X36136732Y19038882I47553J15451D01*
G01*
X38609479Y19842327D01*
G75*
G02*
X38672483Y19810225I15451J-47553D01*
G01*
X39475928Y17337478D01*
G75*
G02*
X39443826Y17274474I-47553J-15451D01*
G01*
X36971079Y16471029D01*
G75*
G02*
X36908075Y16503131I-15451J47553D01*
G01*
G37*
X-101016312Y56231214D03*
D17*
X-94399425Y60907678D03*
D18*
X-95636500Y55087700D03*
D17*
X-89966093Y57716195D03*
D16*
X-90256688Y53944186D03*
G36*
G01*
X-99193643Y60597678D02*
X-98653073Y63140862D01*
G75*
G02*
X-98593770Y63179373I48907J-10396D01*
G01*
X-96050586Y62638803D01*
G75*
G02*
X-96012075Y62579500I-10396J-48907D01*
G01*
X-96552645Y60036316D01*
G75*
G02*
X-96611948Y59997805I-48907J10396D01*
G01*
X-99155132Y60538375D01*
G75*
G02*
X-99193643Y60597678I10396J48907D01*
G01*
G37*
G36*
G01*
X-88353444Y56044373D02*
X-87812874Y58587557D01*
G75*
G02*
X-87753571Y58626068I48907J-10396D01*
G01*
X-85210387Y58085498D01*
G75*
G02*
X-85171876Y58026195I-10396J-48907D01*
G01*
X-85712446Y55483011D01*
G75*
G02*
X-85771749Y55444500I-48907J10396D01*
G01*
X-88314933Y55985070D01*
G75*
G02*
X-88353444Y56044373I10396J48907D01*
G01*
G37*
X93791188Y37315686D03*
D17*
X97933925Y44279178D03*
D18*
X99171000Y38459200D03*
D17*
X103282069Y43166812D03*
D16*
X104550812Y39602714D03*
G36*
G01*
X93680278Y42045994D02*
X93139708Y44589178D01*
G75*
G02*
X93178219Y44648481I48907J10396D01*
G01*
X95721403Y45189051D01*
G75*
G02*
X95780706Y45150540I10396J-48907D01*
G01*
X96321276Y42607356D01*
G75*
G02*
X96282765Y42548053I-48907J-10396D01*
G01*
X93739581Y42007483D01*
G75*
G02*
X93680278Y42045994I-10396J48907D01*
G01*
G37*
G36*
G01*
X105435289Y42295450D02*
X104894719Y44838634D01*
G75*
G02*
X104933230Y44897937I48907J10396D01*
G01*
X107476414Y45438507D01*
G75*
G02*
X107535717Y45399996I10396J-48907D01*
G01*
X108076287Y42856812D01*
G75*
G02*
X108037776Y42797509I-48907J-10396D01*
G01*
X105494592Y42256939D01*
G75*
G02*
X105435289Y42295450I-10396J48907D01*
G01*
G37*
X-82403792Y50500805D03*
D17*
X-75551227Y54824559D03*
D18*
X-77091200Y49077300D03*
D17*
X-71290999Y51405427D03*
D16*
X-71778608Y47653795D03*
G36*
G01*
X-80355098Y54765893D02*
X-79682169Y57277300D01*
G75*
G02*
X-79620932Y57312655I48296J-12941D01*
G01*
X-77109525Y56639726D01*
G75*
G02*
X-77074170Y56578489I-12941J-48296D01*
G01*
X-77747099Y54067082D01*
G75*
G02*
X-77808336Y54031727I-48296J12941D01*
G01*
X-80319743Y54704656D01*
G75*
G02*
X-80355098Y54765893I12941J48296D01*
G01*
G37*
G36*
G01*
X-69768056Y49651496D02*
X-69095127Y52162903D01*
G75*
G02*
X-69033890Y52198258I48296J-12941D01*
G01*
X-66522483Y51525329D01*
G75*
G02*
X-66487128Y51464092I-12941J-48296D01*
G01*
X-67160057Y48952685D01*
G75*
G02*
X-67221294Y48917330I-48296J12941D01*
G01*
X-69732701Y49590259D01*
G75*
G02*
X-69768056Y49651496I12941J48296D01*
G01*
G37*
X37095989Y33965907D03*
D17*
X40488149Y41324286D03*
D18*
X42326800Y35665500D03*
D17*
X45923269Y40777047D03*
D16*
X47557611Y37365093D03*
G36*
G01*
X36491235Y38658709D02*
X35687790Y41131456D01*
G75*
G02*
X35719892Y41194460I47553J15451D01*
G01*
X38192639Y41997905D01*
G75*
G02*
X38255643Y41965803I15451J-47553D01*
G01*
X39059088Y39493056D01*
G75*
G02*
X39026986Y39430052I-47553J-15451D01*
G01*
X36554239Y38626607D01*
G75*
G02*
X36491235Y38658709I-15451J47553D01*
G01*
G37*
G36*
G01*
X48155775Y40135531D02*
X47352330Y42608278D01*
G75*
G02*
X47384432Y42671282I47553J15451D01*
G01*
X49857179Y43474727D01*
G75*
G02*
X49920183Y43442625I15451J-47553D01*
G01*
X50723628Y40969878D01*
G75*
G02*
X50691526Y40906874I-47553J-15451D01*
G01*
X48218779Y40103429D01*
G75*
G02*
X48155775Y40135531I-15451J47553D01*
G01*
G37*
X90256688Y53944186D03*
D17*
X94399425Y60907678D03*
D18*
X95636500Y55087700D03*
D17*
X99747569Y59795312D03*
D16*
X101016312Y56231214D03*
G36*
G01*
X90145778Y58674494D02*
X89605208Y61217678D01*
G75*
G02*
X89643719Y61276981I48907J10396D01*
G01*
X92186903Y61817551D01*
G75*
G02*
X92246206Y61779040I10396J-48907D01*
G01*
X92786776Y59235856D01*
G75*
G02*
X92748265Y59176553I-48907J-10396D01*
G01*
X90205081Y58635983D01*
G75*
G02*
X90145778Y58674494I-10396J48907D01*
G01*
G37*
G36*
G01*
X101900789Y58923950D02*
X101360219Y61467134D01*
G75*
G02*
X101398730Y61526437I48907J10396D01*
G01*
X103941914Y62067007D01*
G75*
G02*
X104001217Y62028496I10396J-48907D01*
G01*
X104541787Y59485312D01*
G75*
G02*
X104503276Y59426009I-48907J-10396D01*
G01*
X101960092Y58885439D01*
G75*
G02*
X101900789Y58923950I-10396J48907D01*
G01*
G37*
X-62822511Y48633793D03*
D17*
X-55753049Y52592986D03*
D18*
X-57591700Y46934200D03*
D17*
X-51677604Y48955577D03*
D16*
X-52360889Y45234607D03*
G36*
G01*
X-60553408Y52785817D02*
X-59749963Y55258564D01*
G75*
G02*
X-59686959Y55290666I47553J-15451D01*
G01*
X-57214212Y54487221D01*
G75*
G02*
X-57182110Y54424217I-15451J-47553D01*
G01*
X-57985555Y51951470D01*
G75*
G02*
X-58048559Y51919368I-47553J15451D01*
G01*
X-60521306Y52722813D01*
G75*
G02*
X-60553408Y52785817I15451J47553D01*
G01*
G37*
G36*
G01*
X-50248543Y47124346D02*
X-49445098Y49597093D01*
G75*
G02*
X-49382094Y49629195I47553J-15451D01*
G01*
X-46909347Y48825750D01*
G75*
G02*
X-46877245Y48762746I-15451J-47553D01*
G01*
X-47680690Y46289999D01*
G75*
G02*
X-47743694Y46257897I-47553J15451D01*
G01*
X-50216441Y47061342D01*
G75*
G02*
X-50248543Y47124346I15451J47553D01*
G01*
G37*
X76178508Y31233095D03*
D17*
X79951127Y38403859D03*
D18*
X81491100Y32656600D03*
D17*
X85350158Y37572917D03*
D16*
X86803692Y34080105D03*
G36*
G01*
X75820185Y35951117D02*
X75147256Y38462524D01*
G75*
G02*
X75182611Y38523761I48296J12941D01*
G01*
X77694018Y39196690D01*
G75*
G02*
X77755255Y39161335I12941J-48296D01*
G01*
X78428184Y36649928D01*
G75*
G02*
X78392829Y36588691I-48296J-12941D01*
G01*
X75881422Y35915762D01*
G75*
G02*
X75820185Y35951117I-12941J48296D01*
G01*
G37*
G36*
G01*
X87546030Y36815440D02*
X86873101Y39326847D01*
G75*
G02*
X86908456Y39388084I48296J12941D01*
G01*
X89419863Y40061013D01*
G75*
G02*
X89481100Y40025658I12941J-48296D01*
G01*
X90154029Y37514251D01*
G75*
G02*
X90118674Y37453014I-48296J-12941D01*
G01*
X87607267Y36780085D01*
G75*
G02*
X87546030Y36815440I-12941J48296D01*
G01*
G37*
X47107589Y61402507D03*
D17*
X50499749Y68760886D03*
D18*
X52338400Y63102100D03*
D17*
X55934869Y68213647D03*
D16*
X57569211Y64801693D03*
G36*
G01*
X46502835Y66095309D02*
X45699390Y68568056D01*
G75*
G02*
X45731492Y68631060I47553J15451D01*
G01*
X48204239Y69434505D01*
G75*
G02*
X48267243Y69402403I15451J-47553D01*
G01*
X49070688Y66929656D01*
G75*
G02*
X49038586Y66866652I-47553J-15451D01*
G01*
X46565839Y66063207D01*
G75*
G02*
X46502835Y66095309I-15451J47553D01*
G01*
G37*
G36*
G01*
X58167375Y67572131D02*
X57363930Y70044878D01*
G75*
G02*
X57396032Y70107882I47553J15451D01*
G01*
X59868779Y70911327D01*
G75*
G02*
X59931783Y70879225I15451J-47553D01*
G01*
X60735228Y68406478D01*
G75*
G02*
X60703126Y68343474I-47553J-15451D01*
G01*
X58230379Y67540029D01*
G75*
G02*
X58167375Y67572131I-15451J47553D01*
G01*
G37*
X-57569211Y64801693D03*
D17*
X-50499749Y68760886D03*
D18*
X-52338400Y63102100D03*
D17*
X-46424304Y65123477D03*
D16*
X-47107589Y61402507D03*
G36*
G01*
X-55300108Y68953717D02*
X-54496663Y71426464D01*
G75*
G02*
X-54433659Y71458566I47553J-15451D01*
G01*
X-51960912Y70655121D01*
G75*
G02*
X-51928810Y70592117I-15451J-47553D01*
G01*
X-52732255Y68119370D01*
G75*
G02*
X-52795259Y68087268I-47553J15451D01*
G01*
X-55268006Y68890713D01*
G75*
G02*
X-55300108Y68953717I15451J47553D01*
G01*
G37*
G36*
G01*
X-44995243Y63292246D02*
X-44191798Y65764993D01*
G75*
G02*
X-44128794Y65797095I47553J-15451D01*
G01*
X-41656047Y64993650D01*
G75*
G02*
X-41623945Y64930646I-15451J-47553D01*
G01*
X-42427390Y62457899D01*
G75*
G02*
X-42490394Y62425797I-47553J15451D01*
G01*
X-44963141Y63229242D01*
G75*
G02*
X-44995243Y63292246I15451J47553D01*
G01*
G37*
X-108085312Y22974214D03*
D17*
X-101468425Y27650678D03*
D18*
X-102705500Y21830700D03*
D17*
X-97035093Y24459195D03*
D16*
X-97325688Y20687186D03*
G36*
G01*
X-106262643Y27340678D02*
X-105722073Y29883862D01*
G75*
G02*
X-105662770Y29922373I48907J-10396D01*
G01*
X-103119586Y29381803D01*
G75*
G02*
X-103081075Y29322500I-10396J-48907D01*
G01*
X-103621645Y26779316D01*
G75*
G02*
X-103680948Y26740805I-48907J10396D01*
G01*
X-106224132Y27281375D01*
G75*
G02*
X-106262643Y27340678I10396J48907D01*
G01*
G37*
G36*
G01*
X-95422444Y22787373D02*
X-94881874Y25330557D01*
G75*
G02*
X-94822571Y25369068I48907J-10396D01*
G01*
X-92279387Y24828498D01*
G75*
G02*
X-92240876Y24769195I-10396J-48907D01*
G01*
X-92781446Y22226011D01*
G75*
G02*
X-92840749Y22187500I-48907J10396D01*
G01*
X-95383933Y22728070D01*
G75*
G02*
X-95422444Y22787373I10396J48907D01*
G01*
G37*
X67378608Y64074595D03*
D17*
X71151227Y71245359D03*
D18*
X72691200Y65498100D03*
D17*
X76550258Y70414417D03*
D16*
X78003792Y66921605D03*
G36*
G01*
X67020285Y68792617D02*
X66347356Y71304024D01*
G75*
G02*
X66382711Y71365261I48296J12941D01*
G01*
X68894118Y72038190D01*
G75*
G02*
X68955355Y72002835I12941J-48296D01*
G01*
X69628284Y69491428D01*
G75*
G02*
X69592929Y69430191I-48296J-12941D01*
G01*
X67081522Y68757262D01*
G75*
G02*
X67020285Y68792617I-12941J48296D01*
G01*
G37*
G36*
G01*
X78746130Y69656940D02*
X78073201Y72168347D01*
G75*
G02*
X78108556Y72229584I48296J12941D01*
G01*
X80619963Y72902513D01*
G75*
G02*
X80681200Y72867158I12941J-48296D01*
G01*
X81354129Y70355751D01*
G75*
G02*
X81318774Y70294514I-48296J-12941D01*
G01*
X78807367Y69621585D01*
G75*
G02*
X78746130Y69656940I-12941J48296D01*
G01*
G37*
X97325688Y20687186D03*
D17*
X101468425Y27650678D03*
D18*
X102705500Y21830700D03*
D17*
X106816569Y26538312D03*
D16*
X108085312Y22974214D03*
G36*
G01*
X97214778Y25417494D02*
X96674208Y27960678D01*
G75*
G02*
X96712719Y28019981I48907J10396D01*
G01*
X99255903Y28560551D01*
G75*
G02*
X99315206Y28522040I10396J-48907D01*
G01*
X99855776Y25978856D01*
G75*
G02*
X99817265Y25919553I-48907J-10396D01*
G01*
X97274081Y25378983D01*
G75*
G02*
X97214778Y25417494I-10396J48907D01*
G01*
G37*
G36*
G01*
X108969789Y25666950D02*
X108429219Y28210134D01*
G75*
G02*
X108467730Y28269437I48907J10396D01*
G01*
X111010914Y28810007D01*
G75*
G02*
X111070217Y28771496I10396J-48907D01*
G01*
X111610787Y26228312D01*
G75*
G02*
X111572276Y26169009I-48907J-10396D01*
G01*
X109029092Y25628439D01*
G75*
G02*
X108969789Y25666950I-10396J48907D01*
G01*
G37*
X42349289Y17798007D03*
D17*
X45741449Y25156386D03*
D18*
X47580100Y19497600D03*
D17*
X51176569Y24609147D03*
D16*
X52810911Y21197193D03*
G36*
G01*
X41744535Y22490809D02*
X40941090Y24963556D01*
G75*
G02*
X40973192Y25026560I47553J15451D01*
G01*
X43445939Y25830005D01*
G75*
G02*
X43508943Y25797903I15451J-47553D01*
G01*
X44312388Y23325156D01*
G75*
G02*
X44280286Y23262152I-47553J-15451D01*
G01*
X41807539Y22458707D01*
G75*
G02*
X41744535Y22490809I-15451J47553D01*
G01*
G37*
G36*
G01*
X53409075Y23967631D02*
X52605630Y26440378D01*
G75*
G02*
X52637732Y26503382I47553J15451D01*
G01*
X55110479Y27306827D01*
G75*
G02*
X55173483Y27274725I15451J-47553D01*
G01*
X55976928Y24801978D01*
G75*
G02*
X55944826Y24738974I-47553J-15451D01*
G01*
X53472079Y23935529D01*
G75*
G02*
X53409075Y23967631I-15451J47553D01*
G01*
G37*
X15341689Y42669507D03*
D17*
X18733849Y50027886D03*
D18*
X20572500Y44369100D03*
D17*
X24168969Y49480647D03*
D16*
X25803311Y46068693D03*
G36*
G01*
X14736935Y47362309D02*
X13933490Y49835056D01*
G75*
G02*
X13965592Y49898060I47553J15451D01*
G01*
X16438339Y50701505D01*
G75*
G02*
X16501343Y50669403I15451J-47553D01*
G01*
X17304788Y48196656D01*
G75*
G02*
X17272686Y48133652I-47553J-15451D01*
G01*
X14799939Y47330207D01*
G75*
G02*
X14736935Y47362309I-15451J47553D01*
G01*
G37*
G36*
G01*
X26401475Y48839131D02*
X25598030Y51311878D01*
G75*
G02*
X25630132Y51374882I47553J15451D01*
G01*
X28102879Y52178327D01*
G75*
G02*
X28165883Y52146225I15451J-47553D01*
G01*
X28969328Y49673478D01*
G75*
G02*
X28937226Y49610474I-47553J-15451D01*
G01*
X26464479Y48807029D01*
G75*
G02*
X26401475Y48839131I-15451J47553D01*
G01*
G37*
%LPD*%
M02*
