M48
; DRILL file {KiCad 9.0.7+1} date 2026-07-10T15:23:58+0000
; FORMAT={-:-/ absolute / metric / decimal}
; #@! TF.CreationDate,2026-07-10T15:23:58+00:00
; #@! TF.GenerationSoftware,Kicad,Pcbnew,9.0.7+1
; #@! TF.FileFunction,Plated,1,2,PTH
FMAT,2
METRIC
; #@! TA.AperFunction,Plated,PTH,ViaDrill
T1C0.300
; #@! TA.AperFunction,Plated,PTH,ComponentDrill
T2C0.300
; #@! TA.AperFunction,Plated,PTH,ComponentDrill
T3C1.000
; #@! TA.AperFunction,Plated,PTH,ComponentDrill
T4C1.016
%
G90
G05
T1
X-117.431Y57.423
X-105.77Y21.947
X-103.221Y34.015
X-99.593Y16.034
X-98.634Y34.578
X-90.674Y51.388
X-79.851Y46.14
X-75.809Y27.86
X-75.262Y43.777
X-73.612Y69.897
X-71.547Y61.594
X-60.833Y24.903
X-55.387Y63.023
X-54.998Y42.641
X-50.694Y51.693
X-49.051Y57.423
X-45.768Y13.078
X-41.741Y-4.66
X-40.133Y30.816
X-40.133Y-7.616
X-34.358Y48.554
X-31.214Y24.903
X-31.082Y-7.649
X-31.082Y39.698
X-30.189Y7.956
X-25.268Y-10.572
X-25.094Y51.51
X-20.453Y24.363
X-20.059Y52.506
X-19.322Y63.673
X-16.349Y39.685
X13.261Y51.588
X22.299Y7.165
X25.247Y20.089
X25.272Y57.423
X25.53Y39.685
X28.245Y63.034
X28.245Y60.379
X28.245Y-10.283
X29.168Y25.523
X31.218Y87.432
X31.813Y64.588
X32.103Y-11.436
X37.164Y7.165
X37.734Y44.989
X40.137Y49.162
X45.995Y-4.606
X47.909Y-4.035
X48.298Y32.805
X52.412Y16.034
X57.975Y60.379
X63.921Y42.641
X67.477Y26.621
X76.831Y45.796
X78.345Y45.682
X78.786Y60.379
X87.706Y27.86
X99.969Y51.51
X105.543Y33.772
X108.516Y18.991
T2
X-117.0Y37.0
X-75.0Y80.0
X-40.0Y80.0
X40.0Y80.0
X75.0Y80.0
X117.0Y37.0
T3
X-121.884Y83.232
X-121.884Y67.992
X-119.344Y83.232
X-119.344Y67.992
X-116.804Y83.232
X-116.804Y67.992
X-114.264Y83.232
X-114.264Y67.992
X-111.724Y83.232
X-111.724Y67.992
X-109.184Y83.232
X-109.184Y67.992
X-106.644Y83.232
X-106.644Y67.992
T4
X-122.836Y76.882
X-122.836Y74.342
X-120.296Y76.882
X-120.296Y74.342
X-116.486Y71.167
X-114.581Y71.167
X-105.462Y81.319
X-105.462Y79.414
M30
