%TF.GenerationSoftware,KiCad,Pcbnew,9.0.7+1*%
%TF.CreationDate,2026-07-10T15:23:58+00:00*%
%TF.ProjectId,limbatus_autorouted,6c696d62-6174-4757-935f-6175746f726f,v1.0.0*%
%TF.SameCoordinates,Original*%
%TF.FileFunction,Drillmap*%
%TF.FilePolarity,Positive*%
%FSLAX45Y45*%
G04 Gerber Fmt 4.5, Leading zero omitted, Abs format (unit mm)*
G04 Created by KiCad (PCBNEW 9.0.7+1) date 2026-07-10 15:23:58*
%MOMM*%
%LPD*%
G01*
G04 APERTURE LIST*
%ADD10C,0.150000*%
%ADD11C,0.200000*%
%ADD12C,0.100000*%
%ADD13C,0.190000*%
%ADD14C,0.300000*%
%ADD15C,0.340000*%
%ADD16C,0.700000*%
G04 APERTURE END LIST*
D10*
X-3050000Y8436166D02*
G75*
G02*
X-2900000Y8586166I150000J0D01*
G01*
X12476386Y-2177572D02*
G75*
G02*
X12276386Y-2377576I-200006J2D01*
G01*
X-12276386Y-2377572D02*
G75*
G02*
X-12476386Y-2177572I0J200000D01*
G01*
X12276386Y-2377572D02*
X-12276386Y-2377572D01*
X-3050000Y8436166D02*
X-3050000Y6636166D01*
X-12476386Y8636166D02*
G75*
G02*
X-12276386Y8836166I200000J0D01*
G01*
X-12276386Y8836166D02*
X12276386Y8836166D01*
X2900000Y8586166D02*
X-2900000Y8586166D01*
X-12476386Y-2177572D02*
X-12476386Y8636166D01*
X12476386Y8636166D02*
X12476386Y-2177572D01*
X-2900000Y6486166D02*
G75*
G02*
X-3050000Y6636166I0J150000D01*
G01*
X-2900000Y6486166D02*
X2900000Y6486166D01*
X12276386Y8836166D02*
G75*
G02*
X12476386Y8636166I4J-199996D01*
G01*
X3050000Y6636166D02*
X3050000Y8436166D01*
X3050000Y6636166D02*
G75*
G02*
X2900000Y6486166I-150007J7D01*
G01*
X2900000Y8586166D02*
G75*
G02*
X3049996Y8436166I0J-149996D01*
G01*
D11*
D12*
X-12293890Y6046170D02*
X-12203890Y5956170D01*
X-12203890Y6046170D02*
X-12293890Y5956170D01*
X-12293890Y5746170D02*
X-12203890Y5656170D01*
X-12203890Y5746170D02*
X-12293890Y5656170D01*
D13*
X-10713531Y2297421D02*
G75*
G02*
X-10903531Y2297421I-95000J0D01*
G01*
X-10903531Y2297421D02*
G75*
G02*
X-10713531Y2297421I95000J0D01*
G01*
X-10360081Y3960271D02*
G75*
G02*
X-10550081Y3960271I-95000J0D01*
G01*
X-10550081Y3960271D02*
G75*
G02*
X-10360081Y3960271I95000J0D01*
G01*
X-10006631Y5623121D02*
G75*
G02*
X-10196631Y5623121I-95000J0D01*
G01*
X-10196631Y5623121D02*
G75*
G02*
X-10006631Y5623121I95000J0D01*
G01*
X-9637569Y2068719D02*
G75*
G02*
X-9827569Y2068719I-95000J0D01*
G01*
X-9827569Y2068719D02*
G75*
G02*
X-9637569Y2068719I95000J0D01*
G01*
X-9284119Y3731569D02*
G75*
G02*
X-9474119Y3731569I-95000J0D01*
G01*
X-9474119Y3731569D02*
G75*
G02*
X-9284119Y3731569I95000J0D01*
G01*
X-8930669Y5394419D02*
G75*
G02*
X-9120669Y5394419I-95000J0D01*
G01*
X-9120669Y5394419D02*
G75*
G02*
X-8930669Y5394419I95000J0D01*
G01*
X-8585369Y3408010D02*
G75*
G02*
X-8775369Y3408010I-95000J0D01*
G01*
X-8775369Y3408010D02*
G75*
G02*
X-8585369Y3408010I95000J0D01*
G01*
X-8145379Y5050081D02*
G75*
G02*
X-8335379Y5050081I-95000J0D01*
G01*
X-8335379Y5050081D02*
G75*
G02*
X-8145379Y5050081I95000J0D01*
G01*
X-7705379Y6692160D02*
G75*
G02*
X-7895379Y6692160I-95000J0D01*
G01*
X-7895379Y6692160D02*
G75*
G02*
X-7705379Y6692160I95000J0D01*
G01*
X-7522851Y3123309D02*
G75*
G02*
X-7712851Y3123309I-95000J0D01*
G01*
X-7712851Y3123309D02*
G75*
G02*
X-7522851Y3123309I95000J0D01*
G01*
X-7082861Y4765380D02*
G75*
G02*
X-7272861Y4765380I-95000J0D01*
G01*
X-7272861Y4765380D02*
G75*
G02*
X-7082861Y4765380I95000J0D01*
G01*
X-6712581Y3246579D02*
G75*
G02*
X-6902581Y3246579I-95000J0D01*
G01*
X-6902581Y3246579D02*
G75*
G02*
X-6712581Y3246579I95000J0D01*
G01*
X-6642861Y6407459D02*
G75*
G02*
X-6832861Y6407459I-95000J0D01*
G01*
X-6832861Y6407459D02*
G75*
G02*
X-6642861Y6407459I95000J0D01*
G01*
X-6187251Y4863379D02*
G75*
G02*
X-6377251Y4863379I-95000J0D01*
G01*
X-6377251Y4863379D02*
G75*
G02*
X-6187251Y4863379I95000J0D01*
G01*
X-5666419Y2906661D02*
G75*
G02*
X-5856419Y2906661I-95000J0D01*
G01*
X-5856419Y2906661D02*
G75*
G02*
X-5666419Y2906661I95000J0D01*
G01*
X-5661921Y6480169D02*
G75*
G02*
X-5851921Y6480169I-95000J0D01*
G01*
X-5851921Y6480169D02*
G75*
G02*
X-5661921Y6480169I95000J0D01*
G01*
X-5186091Y2119719D02*
G75*
G02*
X-5376091Y2119719I-95000J0D01*
G01*
X-5376091Y2119719D02*
G75*
G02*
X-5186091Y2119719I95000J0D01*
G01*
X-5141089Y4523461D02*
G75*
G02*
X-5331089Y4523461I-95000J0D01*
G01*
X-5331089Y4523461D02*
G75*
G02*
X-5141089Y4523461I95000J0D01*
G01*
X-4917271Y34589D02*
G75*
G02*
X-5107271Y34589I-95000J0D01*
G01*
X-5107271Y34589D02*
G75*
G02*
X-4917271Y34589I95000J0D01*
G01*
X-4660761Y3736509D02*
G75*
G02*
X-4850761Y3736509I-95000J0D01*
G01*
X-4850761Y3736509D02*
G75*
G02*
X-4660761Y3736509I95000J0D01*
G01*
X-4615759Y6140251D02*
G75*
G02*
X-4805759Y6140251I-95000J0D01*
G01*
X-4805759Y6140251D02*
G75*
G02*
X-4615759Y6140251I95000J0D01*
G01*
X-4139929Y1779801D02*
G75*
G02*
X-4329929Y1779801I-95000J0D01*
G01*
X-4329929Y1779801D02*
G75*
G02*
X-4139929Y1779801I95000J0D01*
G01*
X-4135431Y5353309D02*
G75*
G02*
X-4325431Y5353309I-95000J0D01*
G01*
X-4325431Y5353309D02*
G75*
G02*
X-4135431Y5353309I95000J0D01*
G01*
X-3871109Y-305329D02*
G75*
G02*
X-4061109Y-305329I-95000J0D01*
G01*
X-4061109Y-305329D02*
G75*
G02*
X-3871109Y-305329I95000J0D01*
G01*
X-3614599Y3396591D02*
G75*
G02*
X-3804599Y3396591I-95000J0D01*
G01*
X-3804599Y3396591D02*
G75*
G02*
X-3614599Y3396591I95000J0D01*
G01*
X-3535991Y1373269D02*
G75*
G02*
X-3725991Y1373269I-95000J0D01*
G01*
X-3725991Y1373269D02*
G75*
G02*
X-3535991Y1373269I95000J0D01*
G01*
X-3205371Y-521641D02*
G75*
G02*
X-3395371Y-521641I-95000J0D01*
G01*
X-3395371Y-521641D02*
G75*
G02*
X-3205371Y-521641I95000J0D01*
G01*
X-3089269Y5013391D02*
G75*
G02*
X-3279269Y5013391I-95000J0D01*
G01*
X-3279269Y5013391D02*
G75*
G02*
X-3089269Y5013391I95000J0D01*
G01*
X-3010661Y2990069D02*
G75*
G02*
X-3200661Y2990069I-95000J0D01*
G01*
X-3200661Y2990069D02*
G75*
G02*
X-3010661Y2990069I95000J0D01*
G01*
X-2489829Y1033351D02*
G75*
G02*
X-2679829Y1033351I-95000J0D01*
G01*
X-2679829Y1033351D02*
G75*
G02*
X-2489829Y1033351I95000J0D01*
G01*
X-2485331Y4606869D02*
G75*
G02*
X-2675331Y4606869I-95000J0D01*
G01*
X-2675331Y4606869D02*
G75*
G02*
X-2485331Y4606869I95000J0D01*
G01*
X-2159209Y-861559D02*
G75*
G02*
X-2349209Y-861559I-95000J0D01*
G01*
X-2349209Y-861559D02*
G75*
G02*
X-2159209Y-861559I95000J0D01*
G01*
X-1964499Y2650151D02*
G75*
G02*
X-2154499Y2650151I-95000J0D01*
G01*
X-2154499Y2650151D02*
G75*
G02*
X-1964499Y2650151I95000J0D01*
G01*
X-1439169Y4266951D02*
G75*
G02*
X-1629169Y4266951I-95000J0D01*
G01*
X-1629169Y4266951D02*
G75*
G02*
X-1439169Y4266951I95000J0D01*
G01*
X1629169Y4266951D02*
G75*
G02*
X1439169Y4266951I-95000J0D01*
G01*
X1439169Y4266951D02*
G75*
G02*
X1629169Y4266951I95000J0D01*
G01*
X2154499Y2650151D02*
G75*
G02*
X1964499Y2650151I-95000J0D01*
G01*
X1964499Y2650151D02*
G75*
G02*
X2154499Y2650151I95000J0D01*
G01*
X2349209Y-861559D02*
G75*
G02*
X2159209Y-861559I-95000J0D01*
G01*
X2159209Y-861559D02*
G75*
G02*
X2349209Y-861559I95000J0D01*
G01*
X2675331Y4606869D02*
G75*
G02*
X2485331Y4606869I-95000J0D01*
G01*
X2485331Y4606869D02*
G75*
G02*
X2675331Y4606869I95000J0D01*
G01*
X2679829Y1033351D02*
G75*
G02*
X2489829Y1033351I-95000J0D01*
G01*
X2489829Y1033351D02*
G75*
G02*
X2679829Y1033351I95000J0D01*
G01*
X3200661Y2990069D02*
G75*
G02*
X3010661Y2990069I-95000J0D01*
G01*
X3010661Y2990069D02*
G75*
G02*
X3200661Y2990069I95000J0D01*
G01*
X3279269Y5013391D02*
G75*
G02*
X3089269Y5013391I-95000J0D01*
G01*
X3089269Y5013391D02*
G75*
G02*
X3279269Y5013391I95000J0D01*
G01*
X3395371Y-521641D02*
G75*
G02*
X3205371Y-521641I-95000J0D01*
G01*
X3205371Y-521641D02*
G75*
G02*
X3395371Y-521641I95000J0D01*
G01*
X3725991Y1373269D02*
G75*
G02*
X3535991Y1373269I-95000J0D01*
G01*
X3535991Y1373269D02*
G75*
G02*
X3725991Y1373269I95000J0D01*
G01*
X3804599Y3396591D02*
G75*
G02*
X3614599Y3396591I-95000J0D01*
G01*
X3614599Y3396591D02*
G75*
G02*
X3804599Y3396591I95000J0D01*
G01*
X4061109Y-305329D02*
G75*
G02*
X3871109Y-305329I-95000J0D01*
G01*
X3871109Y-305329D02*
G75*
G02*
X4061109Y-305329I95000J0D01*
G01*
X4325431Y5353309D02*
G75*
G02*
X4135431Y5353309I-95000J0D01*
G01*
X4135431Y5353309D02*
G75*
G02*
X4325431Y5353309I95000J0D01*
G01*
X4329929Y1779801D02*
G75*
G02*
X4139929Y1779801I-95000J0D01*
G01*
X4139929Y1779801D02*
G75*
G02*
X4329929Y1779801I95000J0D01*
G01*
X4805759Y6140251D02*
G75*
G02*
X4615759Y6140251I-95000J0D01*
G01*
X4615759Y6140251D02*
G75*
G02*
X4805759Y6140251I95000J0D01*
G01*
X4850761Y3736509D02*
G75*
G02*
X4660761Y3736509I-95000J0D01*
G01*
X4660761Y3736509D02*
G75*
G02*
X4850761Y3736509I95000J0D01*
G01*
X5107271Y34589D02*
G75*
G02*
X4917271Y34589I-95000J0D01*
G01*
X4917271Y34589D02*
G75*
G02*
X5107271Y34589I95000J0D01*
G01*
X5331089Y4523461D02*
G75*
G02*
X5141089Y4523461I-95000J0D01*
G01*
X5141089Y4523461D02*
G75*
G02*
X5331089Y4523461I95000J0D01*
G01*
X5376091Y2119719D02*
G75*
G02*
X5186091Y2119719I-95000J0D01*
G01*
X5186091Y2119719D02*
G75*
G02*
X5376091Y2119719I95000J0D01*
G01*
X5851921Y6480169D02*
G75*
G02*
X5661921Y6480169I-95000J0D01*
G01*
X5661921Y6480169D02*
G75*
G02*
X5851921Y6480169I95000J0D01*
G01*
X5856419Y2906661D02*
G75*
G02*
X5666419Y2906661I-95000J0D01*
G01*
X5666419Y2906661D02*
G75*
G02*
X5856419Y2906661I95000J0D01*
G01*
X6377251Y4863379D02*
G75*
G02*
X6187251Y4863379I-95000J0D01*
G01*
X6187251Y4863379D02*
G75*
G02*
X6377251Y4863379I95000J0D01*
G01*
X6832861Y6407459D02*
G75*
G02*
X6642861Y6407459I-95000J0D01*
G01*
X6642861Y6407459D02*
G75*
G02*
X6832861Y6407459I95000J0D01*
G01*
X6902581Y3246579D02*
G75*
G02*
X6712581Y3246579I-95000J0D01*
G01*
X6712581Y3246579D02*
G75*
G02*
X6902581Y3246579I95000J0D01*
G01*
X7272861Y4765380D02*
G75*
G02*
X7082861Y4765380I-95000J0D01*
G01*
X7082861Y4765380D02*
G75*
G02*
X7272861Y4765380I95000J0D01*
G01*
X7712851Y3123309D02*
G75*
G02*
X7522851Y3123309I-95000J0D01*
G01*
X7522851Y3123309D02*
G75*
G02*
X7712851Y3123309I95000J0D01*
G01*
X7895379Y6692160D02*
G75*
G02*
X7705379Y6692160I-95000J0D01*
G01*
X7705379Y6692160D02*
G75*
G02*
X7895379Y6692160I95000J0D01*
G01*
X8335379Y5050081D02*
G75*
G02*
X8145379Y5050081I-95000J0D01*
G01*
X8145379Y5050081D02*
G75*
G02*
X8335379Y5050081I95000J0D01*
G01*
X8775369Y3408010D02*
G75*
G02*
X8585369Y3408010I-95000J0D01*
G01*
X8585369Y3408010D02*
G75*
G02*
X8775369Y3408010I95000J0D01*
G01*
X9120669Y5394419D02*
G75*
G02*
X8930669Y5394419I-95000J0D01*
G01*
X8930669Y5394419D02*
G75*
G02*
X9120669Y5394419I95000J0D01*
G01*
X9474119Y3731569D02*
G75*
G02*
X9284119Y3731569I-95000J0D01*
G01*
X9284119Y3731569D02*
G75*
G02*
X9474119Y3731569I95000J0D01*
G01*
X9827569Y2068719D02*
G75*
G02*
X9637569Y2068719I-95000J0D01*
G01*
X9637569Y2068719D02*
G75*
G02*
X9827569Y2068719I95000J0D01*
G01*
X10196631Y5623121D02*
G75*
G02*
X10006631Y5623121I-95000J0D01*
G01*
X10006631Y5623121D02*
G75*
G02*
X10196631Y5623121I95000J0D01*
G01*
X10550081Y3960271D02*
G75*
G02*
X10360081Y3960271I-95000J0D01*
G01*
X10360081Y3960271D02*
G75*
G02*
X10550081Y3960271I95000J0D01*
G01*
X10903531Y2297421D02*
G75*
G02*
X10713531Y2297421I-95000J0D01*
G01*
X10713531Y2297421D02*
G75*
G02*
X10903531Y2297421I95000J0D01*
G01*
D14*
X-10146843Y2915068D02*
X-10146843Y2615068D01*
X-10296843Y2765068D02*
X-9996843Y2765068D01*
X-9793393Y4577918D02*
X-9793393Y4277918D01*
X-9943393Y4427918D02*
X-9643393Y4427918D01*
X-9703509Y2595920D02*
X-9703509Y2295920D01*
X-9853509Y2445920D02*
X-9553509Y2445920D01*
X-9439943Y6240768D02*
X-9439943Y5940768D01*
X-9589943Y6090768D02*
X-9289943Y6090768D01*
X-9350059Y4258770D02*
X-9350059Y3958769D01*
X-9500059Y4108769D02*
X-9200059Y4108769D01*
X-8996609Y5921619D02*
X-8996609Y5621619D01*
X-9146609Y5771619D02*
X-8846609Y5771619D01*
X-7995113Y3990386D02*
X-7995113Y3690386D01*
X-8145113Y3840386D02*
X-7845113Y3840386D01*
X-7569090Y3648473D02*
X-7569090Y3348473D01*
X-7719090Y3498473D02*
X-7419090Y3498473D01*
X-7555123Y5632456D02*
X-7555123Y5332456D01*
X-7705123Y5482456D02*
X-7405123Y5482456D01*
X-7129100Y5290543D02*
X-7129100Y4990543D01*
X-7279100Y5140543D02*
X-6979100Y5140543D01*
X-7115123Y7274536D02*
X-7115123Y6974536D01*
X-7265123Y7124536D02*
X-6965123Y7124536D01*
X-6689100Y6932623D02*
X-6689100Y6632623D01*
X-6839100Y6782623D02*
X-6539100Y6782623D01*
X-6100635Y3792499D02*
X-6100635Y3492499D01*
X-6250635Y3642499D02*
X-5950635Y3642499D01*
X-5693090Y3428758D02*
X-5693090Y3128758D01*
X-5843090Y3278758D02*
X-5543090Y3278758D01*
X-5575305Y5409299D02*
X-5575305Y5109299D01*
X-5725305Y5259299D02*
X-5425305Y5259299D01*
X-5167760Y5045558D02*
X-5167760Y4745558D01*
X-5317760Y4895558D02*
X-5017760Y4895558D01*
X-5049975Y7026089D02*
X-5049975Y6726089D01*
X-5199975Y6876089D02*
X-4899975Y6876089D01*
X-4642430Y6662348D02*
X-4642430Y6362348D01*
X-4792430Y6512348D02*
X-4492430Y6512348D01*
X-4574145Y2665639D02*
X-4574145Y2365639D01*
X-4724145Y2515639D02*
X-4424145Y2515639D01*
X-4305325Y580509D02*
X-4305325Y280509D01*
X-4455325Y430509D02*
X-4155325Y430509D01*
X-4166600Y2301898D02*
X-4166600Y2001898D01*
X-4316600Y2151898D02*
X-4016600Y2151898D01*
X-4048815Y4282429D02*
X-4048815Y3982429D01*
X-4198815Y4132429D02*
X-3898815Y4132429D01*
X-3897780Y216768D02*
X-3897780Y-83232D01*
X-4047780Y66768D02*
X-3747780Y66768D01*
X-3641270Y3918688D02*
X-3641270Y3618688D01*
X-3791270Y3768688D02*
X-3491270Y3768688D01*
X-3523485Y5899229D02*
X-3523485Y5599229D01*
X-3673485Y5749229D02*
X-3373485Y5749229D01*
X-3115940Y5535488D02*
X-3115940Y5235488D01*
X-3265940Y5385488D02*
X-2965940Y5385488D01*
X-2924045Y1919189D02*
X-2924045Y1619189D01*
X-3074045Y1769189D02*
X-2774045Y1769189D01*
X-2593425Y24279D02*
X-2593425Y-275721D01*
X-2743425Y-125721D02*
X-2443425Y-125721D01*
X-2516500Y1555448D02*
X-2516500Y1255448D01*
X-2666500Y1405448D02*
X-2366500Y1405448D01*
X-2398715Y3535989D02*
X-2398715Y3235989D01*
X-2548715Y3385989D02*
X-2248715Y3385989D01*
X-2185880Y-339462D02*
X-2185880Y-639462D01*
X-2335880Y-489462D02*
X-2035880Y-489462D01*
X-1991170Y3172248D02*
X-1991170Y2872248D01*
X-2141170Y3022248D02*
X-1841170Y3022248D01*
X-1873385Y5152789D02*
X-1873385Y4852789D01*
X-2023385Y5002789D02*
X-1723385Y5002789D01*
X-1465840Y4789048D02*
X-1465840Y4489048D01*
X-1615840Y4639048D02*
X-1315840Y4639048D01*
X1873385Y5152789D02*
X1873385Y4852789D01*
X1723385Y5002789D02*
X2023385Y5002789D01*
X2398715Y3535989D02*
X2398715Y3235989D01*
X2248715Y3385989D02*
X2548715Y3385989D01*
X2416897Y5098065D02*
X2416897Y4798065D01*
X2266897Y4948065D02*
X2566897Y4948065D01*
X2593425Y24279D02*
X2593425Y-275721D01*
X2443425Y-125721D02*
X2743425Y-125721D01*
X2924045Y1919189D02*
X2924045Y1619189D01*
X2774045Y1769189D02*
X3074045Y1769189D01*
X2942227Y3481265D02*
X2942227Y3181265D01*
X2792227Y3331265D02*
X3092227Y3331265D01*
X3136937Y-30445D02*
X3136937Y-330445D01*
X2986937Y-180445D02*
X3286937Y-180445D01*
X3467557Y1864465D02*
X3467557Y1564465D01*
X3317557Y1714465D02*
X3617557Y1714465D01*
X3523485Y5899229D02*
X3523485Y5599229D01*
X3373485Y5749229D02*
X3673485Y5749229D01*
X4048815Y4282429D02*
X4048815Y3982429D01*
X3898815Y4132429D02*
X4198815Y4132429D01*
X4066997Y5844505D02*
X4066997Y5544505D01*
X3916997Y5694505D02*
X4216997Y5694505D01*
X4305325Y580509D02*
X4305325Y280509D01*
X4155325Y430509D02*
X4455325Y430509D01*
X4574145Y2665639D02*
X4574145Y2365639D01*
X4424145Y2515639D02*
X4724145Y2515639D01*
X4592327Y4227705D02*
X4592327Y3927705D01*
X4442327Y4077705D02*
X4742327Y4077705D01*
X4848837Y525785D02*
X4848837Y225785D01*
X4698837Y375785D02*
X4998837Y375785D01*
X5049975Y7026089D02*
X5049975Y6726089D01*
X4899975Y6876089D02*
X5199975Y6876089D01*
X5117657Y2610915D02*
X5117657Y2310915D01*
X4967657Y2460915D02*
X5267657Y2460915D01*
X5575305Y5409299D02*
X5575305Y5109299D01*
X5425305Y5259299D02*
X5725305Y5259299D01*
X5593487Y6971365D02*
X5593487Y6671365D01*
X5443487Y6821365D02*
X5743487Y6821365D01*
X6100635Y3792499D02*
X6100635Y3492499D01*
X5950635Y3642499D02*
X6250635Y3642499D01*
X6118817Y5354575D02*
X6118817Y5054575D01*
X5968817Y5204575D02*
X6268817Y5204575D01*
X6644147Y3737775D02*
X6644147Y3437775D01*
X6494147Y3587775D02*
X6794147Y3587775D01*
X7115123Y7274536D02*
X7115123Y6974536D01*
X6965123Y7124536D02*
X7265123Y7124536D01*
X7555123Y5632456D02*
X7555123Y5332456D01*
X7405123Y5482456D02*
X7705123Y5482456D01*
X7655026Y7191442D02*
X7655026Y6891442D01*
X7505026Y7041442D02*
X7805026Y7041442D01*
X7995113Y3990386D02*
X7995113Y3690386D01*
X7845113Y3840386D02*
X8145113Y3840386D01*
X8095026Y5549362D02*
X8095026Y5249362D01*
X7945026Y5399362D02*
X8245026Y5399362D01*
X8535016Y3907292D02*
X8535016Y3607292D01*
X8385016Y3757292D02*
X8685016Y3757292D01*
X9439943Y6240768D02*
X9439943Y5940768D01*
X9289943Y6090768D02*
X9589943Y6090768D01*
X9793393Y4577918D02*
X9793393Y4277918D01*
X9643393Y4427918D02*
X9943393Y4427918D01*
X9974757Y6129531D02*
X9974757Y5829531D01*
X9824757Y5979531D02*
X10124757Y5979531D01*
X10146843Y2915068D02*
X10146843Y2615068D01*
X9996843Y2765068D02*
X10296843Y2765068D01*
X10328207Y4466681D02*
X10328207Y4166681D01*
X10178207Y4316681D02*
X10478207Y4316681D01*
X10681657Y2803831D02*
X10681657Y2503831D01*
X10531657Y2653831D02*
X10831657Y2653831D01*
D15*
X-10150341Y2062861D02*
X-10150341Y2303279D01*
X-10390759Y2303279D01*
X-10390759Y2062861D01*
X-10150341Y2062861D01*
X-9796891Y3725711D02*
X-9796891Y3966129D01*
X-10037309Y3966129D01*
X-10037309Y3725711D01*
X-9796891Y3725711D01*
X-9443441Y5388561D02*
X-9443441Y5628979D01*
X-9683859Y5628979D01*
X-9683859Y5388561D01*
X-9443441Y5388561D01*
X-8028901Y3145451D02*
X-8028901Y3385869D01*
X-8269319Y3385869D01*
X-8269319Y3145451D01*
X-8028901Y3145451D01*
X-7588911Y4787521D02*
X-7588911Y5027939D01*
X-7829329Y5027939D01*
X-7829329Y4787521D01*
X-7588911Y4787521D01*
X-7148911Y6429601D02*
X-7148911Y6670019D01*
X-7389329Y6670019D01*
X-7389329Y6429601D01*
X-7148911Y6429601D01*
X-6164291Y2956411D02*
X-6164291Y3196829D01*
X-6404709Y3196829D01*
X-6404709Y2956411D01*
X-6164291Y2956411D01*
X-5638961Y4573211D02*
X-5638961Y4813629D01*
X-5879379Y4813629D01*
X-5879379Y4573211D01*
X-5638961Y4573211D01*
X-5113631Y6190001D02*
X-5113631Y6430419D01*
X-5354049Y6430419D01*
X-5354049Y6190001D01*
X-5113631Y6190001D01*
X-4637801Y1829551D02*
X-4637801Y2069969D01*
X-4878219Y2069969D01*
X-4878219Y1829551D01*
X-4637801Y1829551D01*
X-4368981Y-255579D02*
X-4368981Y-15161D01*
X-4609399Y-15161D01*
X-4609399Y-255579D01*
X-4368981Y-255579D01*
X-4112471Y3446341D02*
X-4112471Y3686759D01*
X-4352889Y3686759D01*
X-4352889Y3446341D01*
X-4112471Y3446341D01*
X-3587141Y5063141D02*
X-3587141Y5303559D01*
X-3827559Y5303559D01*
X-3827559Y5063141D01*
X-3587141Y5063141D01*
X-2987701Y1083101D02*
X-2987701Y1323519D01*
X-3228119Y1323519D01*
X-3228119Y1083101D01*
X-2987701Y1083101D01*
X-2657081Y-811809D02*
X-2657081Y-571391D01*
X-2897499Y-571391D01*
X-2897499Y-811809D01*
X-2657081Y-811809D01*
X-2462371Y2699901D02*
X-2462371Y2940319D01*
X-2702789Y2940319D01*
X-2702789Y2699901D01*
X-2462371Y2699901D01*
X-1937041Y4316701D02*
X-1937041Y4557119D01*
X-2177459Y4557119D01*
X-2177459Y4316701D01*
X-1937041Y4316701D01*
X2177459Y4316701D02*
X2177459Y4557119D01*
X1937041Y4557119D01*
X1937041Y4316701D01*
X2177459Y4316701D01*
X2702789Y2699901D02*
X2702789Y2940319D01*
X2462371Y2940319D01*
X2462371Y2699901D01*
X2702789Y2699901D01*
X2897499Y-811809D02*
X2897499Y-571391D01*
X2657081Y-571391D01*
X2657081Y-811809D01*
X2897499Y-811809D01*
X3228119Y1083101D02*
X3228119Y1323519D01*
X2987701Y1323519D01*
X2987701Y1083101D01*
X3228119Y1083101D01*
X3827559Y5063141D02*
X3827559Y5303559D01*
X3587141Y5303559D01*
X3587141Y5063141D01*
X3827559Y5063141D01*
X4352889Y3446341D02*
X4352889Y3686759D01*
X4112471Y3686759D01*
X4112471Y3446341D01*
X4352889Y3446341D01*
X4609399Y-255579D02*
X4609399Y-15161D01*
X4368981Y-15161D01*
X4368981Y-255579D01*
X4609399Y-255579D01*
X4878219Y1829551D02*
X4878219Y2069969D01*
X4637801Y2069969D01*
X4637801Y1829551D01*
X4878219Y1829551D01*
X5354049Y6190001D02*
X5354049Y6430419D01*
X5113631Y6430419D01*
X5113631Y6190001D01*
X5354049Y6190001D01*
X5879379Y4573211D02*
X5879379Y4813629D01*
X5638961Y4813629D01*
X5638961Y4573211D01*
X5879379Y4573211D01*
X6404709Y2956411D02*
X6404709Y3196829D01*
X6164291Y3196829D01*
X6164291Y2956411D01*
X6404709Y2956411D01*
X7389329Y6429601D02*
X7389329Y6670019D01*
X7148911Y6670019D01*
X7148911Y6429601D01*
X7389329Y6429601D01*
X7829329Y4787521D02*
X7829329Y5027939D01*
X7588911Y5027939D01*
X7588911Y4787521D01*
X7829329Y4787521D01*
X8269319Y3145451D02*
X8269319Y3385869D01*
X8028901Y3385869D01*
X8028901Y3145451D01*
X8269319Y3145451D01*
X9683859Y5388561D02*
X9683859Y5628979D01*
X9443441Y5628979D01*
X9443441Y5388561D01*
X9683859Y5388561D01*
X10037309Y3725711D02*
X10037309Y3966129D01*
X9796891Y3966129D01*
X9796891Y3725711D01*
X10037309Y3725711D01*
X10390759Y2062861D02*
X10390759Y2303279D01*
X10150341Y2303279D01*
X10150341Y2062861D01*
X10390759Y2062861D01*
D16*
X-11700000Y4650000D02*
X-11350000Y5000000D01*
X-11700000Y5350000D01*
X-12050000Y5000000D01*
X-11700000Y4650000D01*
X-11700000Y2150000D02*
X-11350000Y2500000D01*
X-11700000Y2850000D01*
X-12050000Y2500000D01*
X-11700000Y2150000D01*
X-5800000Y7750000D02*
X-5450000Y8100000D01*
X-5800000Y8450000D01*
X-6150000Y8100000D01*
X-5800000Y7750000D01*
X0Y2150000D02*
X350000Y2500000D01*
X0Y2850000D01*
X-350000Y2500000D01*
X0Y2150000D01*
X5800000Y7750000D02*
X6150000Y8100000D01*
X5800000Y8450000D01*
X5450000Y8100000D01*
X5800000Y7750000D01*
X11700000Y4650000D02*
X12050000Y5000000D01*
X11700000Y5350000D01*
X11350000Y5000000D01*
X11700000Y4650000D01*
X11700000Y2150000D02*
X12050000Y2500000D01*
X11700000Y2850000D01*
X11350000Y2500000D01*
X11700000Y2150000D01*
D11*
X-12223109Y-2696556D02*
X-12223109Y-2496556D01*
X-12223109Y-2496556D02*
X-12175490Y-2496556D01*
X-12175490Y-2496556D02*
X-12146918Y-2506079D01*
X-12146918Y-2506079D02*
X-12127871Y-2525127D01*
X-12127871Y-2525127D02*
X-12118347Y-2544175D01*
X-12118347Y-2544175D02*
X-12108823Y-2582270D01*
X-12108823Y-2582270D02*
X-12108823Y-2610841D01*
X-12108823Y-2610841D02*
X-12118347Y-2648937D01*
X-12118347Y-2648937D02*
X-12127871Y-2667984D01*
X-12127871Y-2667984D02*
X-12146918Y-2687032D01*
X-12146918Y-2687032D02*
X-12175490Y-2696556D01*
X-12175490Y-2696556D02*
X-12223109Y-2696556D01*
X-12023109Y-2696556D02*
X-12023109Y-2563222D01*
X-12023109Y-2601318D02*
X-12013585Y-2582270D01*
X-12013585Y-2582270D02*
X-12004061Y-2572746D01*
X-12004061Y-2572746D02*
X-11985014Y-2563222D01*
X-11985014Y-2563222D02*
X-11965966Y-2563222D01*
X-11899299Y-2696556D02*
X-11899299Y-2563222D01*
X-11899299Y-2496556D02*
X-11908823Y-2506079D01*
X-11908823Y-2506079D02*
X-11899299Y-2515603D01*
X-11899299Y-2515603D02*
X-11889776Y-2506079D01*
X-11889776Y-2506079D02*
X-11899299Y-2496556D01*
X-11899299Y-2496556D02*
X-11899299Y-2515603D01*
X-11775490Y-2696556D02*
X-11794537Y-2687032D01*
X-11794537Y-2687032D02*
X-11804061Y-2667984D01*
X-11804061Y-2667984D02*
X-11804061Y-2496556D01*
X-11670728Y-2696556D02*
X-11689776Y-2687032D01*
X-11689776Y-2687032D02*
X-11699299Y-2667984D01*
X-11699299Y-2667984D02*
X-11699299Y-2496556D01*
X-11442156Y-2696556D02*
X-11442156Y-2496556D01*
X-11442156Y-2496556D02*
X-11375490Y-2639413D01*
X-11375490Y-2639413D02*
X-11308823Y-2496556D01*
X-11308823Y-2496556D02*
X-11308823Y-2696556D01*
X-11127871Y-2696556D02*
X-11127871Y-2591794D01*
X-11127871Y-2591794D02*
X-11137395Y-2572746D01*
X-11137395Y-2572746D02*
X-11156442Y-2563222D01*
X-11156442Y-2563222D02*
X-11194537Y-2563222D01*
X-11194537Y-2563222D02*
X-11213585Y-2572746D01*
X-11127871Y-2687032D02*
X-11146918Y-2696556D01*
X-11146918Y-2696556D02*
X-11194537Y-2696556D01*
X-11194537Y-2696556D02*
X-11213585Y-2687032D01*
X-11213585Y-2687032D02*
X-11223109Y-2667984D01*
X-11223109Y-2667984D02*
X-11223109Y-2648937D01*
X-11223109Y-2648937D02*
X-11213585Y-2629889D01*
X-11213585Y-2629889D02*
X-11194537Y-2620365D01*
X-11194537Y-2620365D02*
X-11146918Y-2620365D01*
X-11146918Y-2620365D02*
X-11127871Y-2610841D01*
X-11032633Y-2563222D02*
X-11032633Y-2763222D01*
X-11032633Y-2572746D02*
X-11013585Y-2563222D01*
X-11013585Y-2563222D02*
X-10975490Y-2563222D01*
X-10975490Y-2563222D02*
X-10956442Y-2572746D01*
X-10956442Y-2572746D02*
X-10946918Y-2582270D01*
X-10946918Y-2582270D02*
X-10937395Y-2601318D01*
X-10937395Y-2601318D02*
X-10937395Y-2658460D01*
X-10937395Y-2658460D02*
X-10946918Y-2677508D01*
X-10946918Y-2677508D02*
X-10956442Y-2687032D01*
X-10956442Y-2687032D02*
X-10975490Y-2696556D01*
X-10975490Y-2696556D02*
X-11013585Y-2696556D01*
X-11013585Y-2696556D02*
X-11032633Y-2687032D01*
X-10851680Y-2677508D02*
X-10842157Y-2687032D01*
X-10842157Y-2687032D02*
X-10851680Y-2696556D01*
X-10851680Y-2696556D02*
X-10861204Y-2687032D01*
X-10861204Y-2687032D02*
X-10851680Y-2677508D01*
X-10851680Y-2677508D02*
X-10851680Y-2696556D01*
X-10851680Y-2572746D02*
X-10842157Y-2582270D01*
X-10842157Y-2582270D02*
X-10851680Y-2591794D01*
X-10851680Y-2591794D02*
X-10861204Y-2582270D01*
X-10861204Y-2582270D02*
X-10851680Y-2572746D01*
X-10851680Y-2572746D02*
X-10851680Y-2591794D01*
D12*
X-12573886Y-2980072D02*
X-12483886Y-3070072D01*
X-12483886Y-2980072D02*
X-12573886Y-3070072D01*
D11*
X-12185014Y-2916556D02*
X-12165966Y-2916556D01*
X-12165966Y-2916556D02*
X-12146918Y-2926079D01*
X-12146918Y-2926079D02*
X-12137395Y-2935603D01*
X-12137395Y-2935603D02*
X-12127871Y-2954651D01*
X-12127871Y-2954651D02*
X-12118347Y-2992746D01*
X-12118347Y-2992746D02*
X-12118347Y-3040365D01*
X-12118347Y-3040365D02*
X-12127871Y-3078460D01*
X-12127871Y-3078460D02*
X-12137395Y-3097508D01*
X-12137395Y-3097508D02*
X-12146918Y-3107032D01*
X-12146918Y-3107032D02*
X-12165966Y-3116556D01*
X-12165966Y-3116556D02*
X-12185014Y-3116556D01*
X-12185014Y-3116556D02*
X-12204061Y-3107032D01*
X-12204061Y-3107032D02*
X-12213585Y-3097508D01*
X-12213585Y-3097508D02*
X-12223109Y-3078460D01*
X-12223109Y-3078460D02*
X-12232633Y-3040365D01*
X-12232633Y-3040365D02*
X-12232633Y-2992746D01*
X-12232633Y-2992746D02*
X-12223109Y-2954651D01*
X-12223109Y-2954651D02*
X-12213585Y-2935603D01*
X-12213585Y-2935603D02*
X-12204061Y-2926079D01*
X-12204061Y-2926079D02*
X-12185014Y-2916556D01*
X-12032633Y-3097508D02*
X-12023109Y-3107032D01*
X-12023109Y-3107032D02*
X-12032633Y-3116556D01*
X-12032633Y-3116556D02*
X-12042156Y-3107032D01*
X-12042156Y-3107032D02*
X-12032633Y-3097508D01*
X-12032633Y-3097508D02*
X-12032633Y-3116556D01*
X-11927871Y-3116556D02*
X-11889776Y-3116556D01*
X-11889776Y-3116556D02*
X-11870728Y-3107032D01*
X-11870728Y-3107032D02*
X-11861204Y-3097508D01*
X-11861204Y-3097508D02*
X-11842156Y-3068936D01*
X-11842156Y-3068936D02*
X-11832633Y-3030841D01*
X-11832633Y-3030841D02*
X-11832633Y-2954651D01*
X-11832633Y-2954651D02*
X-11842156Y-2935603D01*
X-11842156Y-2935603D02*
X-11851680Y-2926079D01*
X-11851680Y-2926079D02*
X-11870728Y-2916556D01*
X-11870728Y-2916556D02*
X-11908823Y-2916556D01*
X-11908823Y-2916556D02*
X-11927871Y-2926079D01*
X-11927871Y-2926079D02*
X-11937395Y-2935603D01*
X-11937395Y-2935603D02*
X-11946918Y-2954651D01*
X-11946918Y-2954651D02*
X-11946918Y-3002270D01*
X-11946918Y-3002270D02*
X-11937395Y-3021317D01*
X-11937395Y-3021317D02*
X-11927871Y-3030841D01*
X-11927871Y-3030841D02*
X-11908823Y-3040365D01*
X-11908823Y-3040365D02*
X-11870728Y-3040365D01*
X-11870728Y-3040365D02*
X-11851680Y-3030841D01*
X-11851680Y-3030841D02*
X-11842156Y-3021317D01*
X-11842156Y-3021317D02*
X-11832633Y-3002270D01*
X-11708823Y-2916556D02*
X-11689775Y-2916556D01*
X-11689775Y-2916556D02*
X-11670728Y-2926079D01*
X-11670728Y-2926079D02*
X-11661204Y-2935603D01*
X-11661204Y-2935603D02*
X-11651680Y-2954651D01*
X-11651680Y-2954651D02*
X-11642156Y-2992746D01*
X-11642156Y-2992746D02*
X-11642156Y-3040365D01*
X-11642156Y-3040365D02*
X-11651680Y-3078460D01*
X-11651680Y-3078460D02*
X-11661204Y-3097508D01*
X-11661204Y-3097508D02*
X-11670728Y-3107032D01*
X-11670728Y-3107032D02*
X-11689775Y-3116556D01*
X-11689775Y-3116556D02*
X-11708823Y-3116556D01*
X-11708823Y-3116556D02*
X-11727871Y-3107032D01*
X-11727871Y-3107032D02*
X-11737395Y-3097508D01*
X-11737395Y-3097508D02*
X-11746918Y-3078460D01*
X-11746918Y-3078460D02*
X-11756442Y-3040365D01*
X-11756442Y-3040365D02*
X-11756442Y-2992746D01*
X-11756442Y-2992746D02*
X-11746918Y-2954651D01*
X-11746918Y-2954651D02*
X-11737395Y-2935603D01*
X-11737395Y-2935603D02*
X-11727871Y-2926079D01*
X-11727871Y-2926079D02*
X-11708823Y-2916556D01*
X-11518347Y-2916556D02*
X-11499299Y-2916556D01*
X-11499299Y-2916556D02*
X-11480252Y-2926079D01*
X-11480252Y-2926079D02*
X-11470728Y-2935603D01*
X-11470728Y-2935603D02*
X-11461204Y-2954651D01*
X-11461204Y-2954651D02*
X-11451680Y-2992746D01*
X-11451680Y-2992746D02*
X-11451680Y-3040365D01*
X-11451680Y-3040365D02*
X-11461204Y-3078460D01*
X-11461204Y-3078460D02*
X-11470728Y-3097508D01*
X-11470728Y-3097508D02*
X-11480252Y-3107032D01*
X-11480252Y-3107032D02*
X-11499299Y-3116556D01*
X-11499299Y-3116556D02*
X-11518347Y-3116556D01*
X-11518347Y-3116556D02*
X-11537395Y-3107032D01*
X-11537395Y-3107032D02*
X-11546918Y-3097508D01*
X-11546918Y-3097508D02*
X-11556442Y-3078460D01*
X-11556442Y-3078460D02*
X-11565966Y-3040365D01*
X-11565966Y-3040365D02*
X-11565966Y-2992746D01*
X-11565966Y-2992746D02*
X-11556442Y-2954651D01*
X-11556442Y-2954651D02*
X-11546918Y-2935603D01*
X-11546918Y-2935603D02*
X-11537395Y-2926079D01*
X-11537395Y-2926079D02*
X-11518347Y-2916556D01*
X-11365966Y-3116556D02*
X-11365966Y-2983222D01*
X-11365966Y-3002270D02*
X-11356442Y-2992746D01*
X-11356442Y-2992746D02*
X-11337395Y-2983222D01*
X-11337395Y-2983222D02*
X-11308823Y-2983222D01*
X-11308823Y-2983222D02*
X-11289775Y-2992746D01*
X-11289775Y-2992746D02*
X-11280252Y-3011794D01*
X-11280252Y-3011794D02*
X-11280252Y-3116556D01*
X-11280252Y-3011794D02*
X-11270728Y-2992746D01*
X-11270728Y-2992746D02*
X-11251680Y-2983222D01*
X-11251680Y-2983222D02*
X-11223109Y-2983222D01*
X-11223109Y-2983222D02*
X-11204061Y-2992746D01*
X-11204061Y-2992746D02*
X-11194537Y-3011794D01*
X-11194537Y-3011794D02*
X-11194537Y-3116556D01*
X-11099299Y-3116556D02*
X-11099299Y-2983222D01*
X-11099299Y-3002270D02*
X-11089776Y-2992746D01*
X-11089776Y-2992746D02*
X-11070728Y-2983222D01*
X-11070728Y-2983222D02*
X-11042156Y-2983222D01*
X-11042156Y-2983222D02*
X-11023109Y-2992746D01*
X-11023109Y-2992746D02*
X-11013585Y-3011794D01*
X-11013585Y-3011794D02*
X-11013585Y-3116556D01*
X-11013585Y-3011794D02*
X-11004061Y-2992746D01*
X-11004061Y-2992746D02*
X-10985014Y-2983222D01*
X-10985014Y-2983222D02*
X-10956442Y-2983222D01*
X-10956442Y-2983222D02*
X-10937395Y-2992746D01*
X-10937395Y-2992746D02*
X-10927871Y-3011794D01*
X-10927871Y-3011794D02*
X-10927871Y-3116556D01*
X-10537395Y-2907032D02*
X-10708823Y-3164175D01*
X-10280252Y-2916556D02*
X-10261204Y-2916556D01*
X-10261204Y-2916556D02*
X-10242156Y-2926079D01*
X-10242156Y-2926079D02*
X-10232633Y-2935603D01*
X-10232633Y-2935603D02*
X-10223109Y-2954651D01*
X-10223109Y-2954651D02*
X-10213585Y-2992746D01*
X-10213585Y-2992746D02*
X-10213585Y-3040365D01*
X-10213585Y-3040365D02*
X-10223109Y-3078460D01*
X-10223109Y-3078460D02*
X-10232633Y-3097508D01*
X-10232633Y-3097508D02*
X-10242156Y-3107032D01*
X-10242156Y-3107032D02*
X-10261204Y-3116556D01*
X-10261204Y-3116556D02*
X-10280252Y-3116556D01*
X-10280252Y-3116556D02*
X-10299299Y-3107032D01*
X-10299299Y-3107032D02*
X-10308823Y-3097508D01*
X-10308823Y-3097508D02*
X-10318347Y-3078460D01*
X-10318347Y-3078460D02*
X-10327871Y-3040365D01*
X-10327871Y-3040365D02*
X-10327871Y-2992746D01*
X-10327871Y-2992746D02*
X-10318347Y-2954651D01*
X-10318347Y-2954651D02*
X-10308823Y-2935603D01*
X-10308823Y-2935603D02*
X-10299299Y-2926079D01*
X-10299299Y-2926079D02*
X-10280252Y-2916556D01*
X-10127871Y-3097508D02*
X-10118347Y-3107032D01*
X-10118347Y-3107032D02*
X-10127871Y-3116556D01*
X-10127871Y-3116556D02*
X-10137394Y-3107032D01*
X-10137394Y-3107032D02*
X-10127871Y-3097508D01*
X-10127871Y-3097508D02*
X-10127871Y-3116556D01*
X-9994537Y-2916556D02*
X-9975490Y-2916556D01*
X-9975490Y-2916556D02*
X-9956442Y-2926079D01*
X-9956442Y-2926079D02*
X-9946918Y-2935603D01*
X-9946918Y-2935603D02*
X-9937394Y-2954651D01*
X-9937394Y-2954651D02*
X-9927871Y-2992746D01*
X-9927871Y-2992746D02*
X-9927871Y-3040365D01*
X-9927871Y-3040365D02*
X-9937394Y-3078460D01*
X-9937394Y-3078460D02*
X-9946918Y-3097508D01*
X-9946918Y-3097508D02*
X-9956442Y-3107032D01*
X-9956442Y-3107032D02*
X-9975490Y-3116556D01*
X-9975490Y-3116556D02*
X-9994537Y-3116556D01*
X-9994537Y-3116556D02*
X-10013585Y-3107032D01*
X-10013585Y-3107032D02*
X-10023109Y-3097508D01*
X-10023109Y-3097508D02*
X-10032633Y-3078460D01*
X-10032633Y-3078460D02*
X-10042156Y-3040365D01*
X-10042156Y-3040365D02*
X-10042156Y-2992746D01*
X-10042156Y-2992746D02*
X-10032633Y-2954651D01*
X-10032633Y-2954651D02*
X-10023109Y-2935603D01*
X-10023109Y-2935603D02*
X-10013585Y-2926079D01*
X-10013585Y-2926079D02*
X-9994537Y-2916556D01*
X-9861204Y-2916556D02*
X-9737394Y-2916556D01*
X-9737394Y-2916556D02*
X-9804061Y-2992746D01*
X-9804061Y-2992746D02*
X-9775490Y-2992746D01*
X-9775490Y-2992746D02*
X-9756442Y-3002270D01*
X-9756442Y-3002270D02*
X-9746918Y-3011794D01*
X-9746918Y-3011794D02*
X-9737394Y-3030841D01*
X-9737394Y-3030841D02*
X-9737394Y-3078460D01*
X-9737394Y-3078460D02*
X-9746918Y-3097508D01*
X-9746918Y-3097508D02*
X-9756442Y-3107032D01*
X-9756442Y-3107032D02*
X-9775490Y-3116556D01*
X-9775490Y-3116556D02*
X-9832633Y-3116556D01*
X-9832633Y-3116556D02*
X-9851680Y-3107032D01*
X-9851680Y-3107032D02*
X-9861204Y-3097508D01*
X-9556442Y-2916556D02*
X-9651680Y-2916556D01*
X-9651680Y-2916556D02*
X-9661204Y-3011794D01*
X-9661204Y-3011794D02*
X-9651680Y-3002270D01*
X-9651680Y-3002270D02*
X-9632633Y-2992746D01*
X-9632633Y-2992746D02*
X-9585013Y-2992746D01*
X-9585013Y-2992746D02*
X-9565966Y-3002270D01*
X-9565966Y-3002270D02*
X-9556442Y-3011794D01*
X-9556442Y-3011794D02*
X-9546918Y-3030841D01*
X-9546918Y-3030841D02*
X-9546918Y-3078460D01*
X-9546918Y-3078460D02*
X-9556442Y-3097508D01*
X-9556442Y-3097508D02*
X-9565966Y-3107032D01*
X-9565966Y-3107032D02*
X-9585013Y-3116556D01*
X-9585013Y-3116556D02*
X-9632633Y-3116556D01*
X-9632633Y-3116556D02*
X-9651680Y-3107032D01*
X-9651680Y-3107032D02*
X-9661204Y-3097508D01*
X-9375490Y-2983222D02*
X-9375490Y-3116556D01*
X-9423109Y-2907032D02*
X-9470728Y-3049889D01*
X-9470728Y-3049889D02*
X-9346918Y-3049889D01*
X-9280252Y-2916556D02*
X-9280252Y-2954651D01*
X-9204061Y-2916556D02*
X-9204061Y-2954651D01*
X-8908823Y-3192746D02*
X-8918347Y-3183222D01*
X-8918347Y-3183222D02*
X-8937394Y-3154651D01*
X-8937394Y-3154651D02*
X-8946918Y-3135603D01*
X-8946918Y-3135603D02*
X-8956442Y-3107032D01*
X-8956442Y-3107032D02*
X-8965966Y-3059413D01*
X-8965966Y-3059413D02*
X-8965966Y-3021317D01*
X-8965966Y-3021317D02*
X-8956442Y-2973698D01*
X-8956442Y-2973698D02*
X-8946918Y-2945127D01*
X-8946918Y-2945127D02*
X-8937394Y-2926079D01*
X-8937394Y-2926079D02*
X-8918347Y-2897508D01*
X-8918347Y-2897508D02*
X-8908823Y-2887984D01*
X-8842156Y-2935603D02*
X-8832632Y-2926079D01*
X-8832632Y-2926079D02*
X-8813585Y-2916556D01*
X-8813585Y-2916556D02*
X-8765966Y-2916556D01*
X-8765966Y-2916556D02*
X-8746918Y-2926079D01*
X-8746918Y-2926079D02*
X-8737394Y-2935603D01*
X-8737394Y-2935603D02*
X-8727871Y-2954651D01*
X-8727871Y-2954651D02*
X-8727871Y-2973698D01*
X-8727871Y-2973698D02*
X-8737394Y-3002270D01*
X-8737394Y-3002270D02*
X-8851680Y-3116556D01*
X-8851680Y-3116556D02*
X-8727871Y-3116556D01*
X-8489775Y-3116556D02*
X-8489775Y-2916556D01*
X-8404061Y-3116556D02*
X-8404061Y-3011794D01*
X-8404061Y-3011794D02*
X-8413585Y-2992746D01*
X-8413585Y-2992746D02*
X-8432632Y-2983222D01*
X-8432632Y-2983222D02*
X-8461204Y-2983222D01*
X-8461204Y-2983222D02*
X-8480251Y-2992746D01*
X-8480251Y-2992746D02*
X-8489775Y-3002270D01*
X-8280251Y-3116556D02*
X-8299299Y-3107032D01*
X-8299299Y-3107032D02*
X-8308823Y-3097508D01*
X-8308823Y-3097508D02*
X-8318347Y-3078460D01*
X-8318347Y-3078460D02*
X-8318347Y-3021317D01*
X-8318347Y-3021317D02*
X-8308823Y-3002270D01*
X-8308823Y-3002270D02*
X-8299299Y-2992746D01*
X-8299299Y-2992746D02*
X-8280251Y-2983222D01*
X-8280251Y-2983222D02*
X-8251680Y-2983222D01*
X-8251680Y-2983222D02*
X-8232632Y-2992746D01*
X-8232632Y-2992746D02*
X-8223108Y-3002270D01*
X-8223108Y-3002270D02*
X-8213585Y-3021317D01*
X-8213585Y-3021317D02*
X-8213585Y-3078460D01*
X-8213585Y-3078460D02*
X-8223108Y-3097508D01*
X-8223108Y-3097508D02*
X-8232632Y-3107032D01*
X-8232632Y-3107032D02*
X-8251680Y-3116556D01*
X-8251680Y-3116556D02*
X-8280251Y-3116556D01*
X-8099299Y-3116556D02*
X-8118347Y-3107032D01*
X-8118347Y-3107032D02*
X-8127870Y-3087984D01*
X-8127870Y-3087984D02*
X-8127870Y-2916556D01*
X-7946918Y-3107032D02*
X-7965966Y-3116556D01*
X-7965966Y-3116556D02*
X-8004061Y-3116556D01*
X-8004061Y-3116556D02*
X-8023108Y-3107032D01*
X-8023108Y-3107032D02*
X-8032632Y-3087984D01*
X-8032632Y-3087984D02*
X-8032632Y-3011794D01*
X-8032632Y-3011794D02*
X-8023108Y-2992746D01*
X-8023108Y-2992746D02*
X-8004061Y-2983222D01*
X-8004061Y-2983222D02*
X-7965966Y-2983222D01*
X-7965966Y-2983222D02*
X-7946918Y-2992746D01*
X-7946918Y-2992746D02*
X-7937394Y-3011794D01*
X-7937394Y-3011794D02*
X-7937394Y-3030841D01*
X-7937394Y-3030841D02*
X-8032632Y-3049889D01*
X-7861204Y-3107032D02*
X-7842156Y-3116556D01*
X-7842156Y-3116556D02*
X-7804061Y-3116556D01*
X-7804061Y-3116556D02*
X-7785013Y-3107032D01*
X-7785013Y-3107032D02*
X-7775489Y-3087984D01*
X-7775489Y-3087984D02*
X-7775489Y-3078460D01*
X-7775489Y-3078460D02*
X-7785013Y-3059413D01*
X-7785013Y-3059413D02*
X-7804061Y-3049889D01*
X-7804061Y-3049889D02*
X-7832632Y-3049889D01*
X-7832632Y-3049889D02*
X-7851680Y-3040365D01*
X-7851680Y-3040365D02*
X-7861204Y-3021317D01*
X-7861204Y-3021317D02*
X-7861204Y-3011794D01*
X-7861204Y-3011794D02*
X-7851680Y-2992746D01*
X-7851680Y-2992746D02*
X-7832632Y-2983222D01*
X-7832632Y-2983222D02*
X-7804061Y-2983222D01*
X-7804061Y-2983222D02*
X-7785013Y-2992746D01*
X-7708823Y-3192746D02*
X-7699299Y-3183222D01*
X-7699299Y-3183222D02*
X-7680251Y-3154651D01*
X-7680251Y-3154651D02*
X-7670727Y-3135603D01*
X-7670727Y-3135603D02*
X-7661204Y-3107032D01*
X-7661204Y-3107032D02*
X-7651680Y-3059413D01*
X-7651680Y-3059413D02*
X-7651680Y-3021317D01*
X-7651680Y-3021317D02*
X-7661204Y-2973698D01*
X-7661204Y-2973698D02*
X-7670727Y-2945127D01*
X-7670727Y-2945127D02*
X-7680251Y-2926079D01*
X-7680251Y-2926079D02*
X-7699299Y-2897508D01*
X-7699299Y-2897508D02*
X-7708823Y-2887984D01*
X-7346918Y-3192746D02*
X-7356442Y-3183222D01*
X-7356442Y-3183222D02*
X-7375489Y-3154651D01*
X-7375489Y-3154651D02*
X-7385013Y-3135603D01*
X-7385013Y-3135603D02*
X-7394537Y-3107032D01*
X-7394537Y-3107032D02*
X-7404061Y-3059413D01*
X-7404061Y-3059413D02*
X-7404061Y-3021317D01*
X-7404061Y-3021317D02*
X-7394537Y-2973698D01*
X-7394537Y-2973698D02*
X-7385013Y-2945127D01*
X-7385013Y-2945127D02*
X-7375489Y-2926079D01*
X-7375489Y-2926079D02*
X-7356442Y-2897508D01*
X-7356442Y-2897508D02*
X-7346918Y-2887984D01*
X-7270727Y-2983222D02*
X-7270727Y-3116556D01*
X-7270727Y-3002270D02*
X-7261204Y-2992746D01*
X-7261204Y-2992746D02*
X-7242156Y-2983222D01*
X-7242156Y-2983222D02*
X-7213585Y-2983222D01*
X-7213585Y-2983222D02*
X-7194537Y-2992746D01*
X-7194537Y-2992746D02*
X-7185013Y-3011794D01*
X-7185013Y-3011794D02*
X-7185013Y-3116556D01*
X-7061204Y-3116556D02*
X-7080251Y-3107032D01*
X-7080251Y-3107032D02*
X-7089775Y-3097508D01*
X-7089775Y-3097508D02*
X-7099299Y-3078460D01*
X-7099299Y-3078460D02*
X-7099299Y-3021317D01*
X-7099299Y-3021317D02*
X-7089775Y-3002270D01*
X-7089775Y-3002270D02*
X-7080251Y-2992746D01*
X-7080251Y-2992746D02*
X-7061204Y-2983222D01*
X-7061204Y-2983222D02*
X-7032632Y-2983222D01*
X-7032632Y-2983222D02*
X-7013585Y-2992746D01*
X-7013585Y-2992746D02*
X-7004061Y-3002270D01*
X-7004061Y-3002270D02*
X-6994537Y-3021317D01*
X-6994537Y-3021317D02*
X-6994537Y-3078460D01*
X-6994537Y-3078460D02*
X-7004061Y-3097508D01*
X-7004061Y-3097508D02*
X-7013585Y-3107032D01*
X-7013585Y-3107032D02*
X-7032632Y-3116556D01*
X-7032632Y-3116556D02*
X-7061204Y-3116556D01*
X-6937394Y-2983222D02*
X-6861204Y-2983222D01*
X-6908823Y-2916556D02*
X-6908823Y-3087984D01*
X-6908823Y-3087984D02*
X-6899299Y-3107032D01*
X-6899299Y-3107032D02*
X-6880251Y-3116556D01*
X-6880251Y-3116556D02*
X-6861204Y-3116556D01*
X-6642156Y-2983222D02*
X-6642156Y-3183222D01*
X-6642156Y-2992746D02*
X-6623108Y-2983222D01*
X-6623108Y-2983222D02*
X-6585013Y-2983222D01*
X-6585013Y-2983222D02*
X-6565965Y-2992746D01*
X-6565965Y-2992746D02*
X-6556442Y-3002270D01*
X-6556442Y-3002270D02*
X-6546918Y-3021317D01*
X-6546918Y-3021317D02*
X-6546918Y-3078460D01*
X-6546918Y-3078460D02*
X-6556442Y-3097508D01*
X-6556442Y-3097508D02*
X-6565965Y-3107032D01*
X-6565965Y-3107032D02*
X-6585013Y-3116556D01*
X-6585013Y-3116556D02*
X-6623108Y-3116556D01*
X-6623108Y-3116556D02*
X-6642156Y-3107032D01*
X-6432632Y-3116556D02*
X-6451680Y-3107032D01*
X-6451680Y-3107032D02*
X-6461204Y-3087984D01*
X-6461204Y-3087984D02*
X-6461204Y-2916556D01*
X-6270727Y-3116556D02*
X-6270727Y-3011794D01*
X-6270727Y-3011794D02*
X-6280251Y-2992746D01*
X-6280251Y-2992746D02*
X-6299299Y-2983222D01*
X-6299299Y-2983222D02*
X-6337394Y-2983222D01*
X-6337394Y-2983222D02*
X-6356442Y-2992746D01*
X-6270727Y-3107032D02*
X-6289775Y-3116556D01*
X-6289775Y-3116556D02*
X-6337394Y-3116556D01*
X-6337394Y-3116556D02*
X-6356442Y-3107032D01*
X-6356442Y-3107032D02*
X-6365965Y-3087984D01*
X-6365965Y-3087984D02*
X-6365965Y-3068936D01*
X-6365965Y-3068936D02*
X-6356442Y-3049889D01*
X-6356442Y-3049889D02*
X-6337394Y-3040365D01*
X-6337394Y-3040365D02*
X-6289775Y-3040365D01*
X-6289775Y-3040365D02*
X-6270727Y-3030841D01*
X-6204061Y-2983222D02*
X-6127870Y-2983222D01*
X-6175489Y-2916556D02*
X-6175489Y-3087984D01*
X-6175489Y-3087984D02*
X-6165965Y-3107032D01*
X-6165965Y-3107032D02*
X-6146918Y-3116556D01*
X-6146918Y-3116556D02*
X-6127870Y-3116556D01*
X-5985013Y-3107032D02*
X-6004061Y-3116556D01*
X-6004061Y-3116556D02*
X-6042156Y-3116556D01*
X-6042156Y-3116556D02*
X-6061204Y-3107032D01*
X-6061204Y-3107032D02*
X-6070727Y-3087984D01*
X-6070727Y-3087984D02*
X-6070727Y-3011794D01*
X-6070727Y-3011794D02*
X-6061204Y-2992746D01*
X-6061204Y-2992746D02*
X-6042156Y-2983222D01*
X-6042156Y-2983222D02*
X-6004061Y-2983222D01*
X-6004061Y-2983222D02*
X-5985013Y-2992746D01*
X-5985013Y-2992746D02*
X-5975489Y-3011794D01*
X-5975489Y-3011794D02*
X-5975489Y-3030841D01*
X-5975489Y-3030841D02*
X-6070727Y-3049889D01*
X-5804061Y-3116556D02*
X-5804061Y-2916556D01*
X-5804061Y-3107032D02*
X-5823108Y-3116556D01*
X-5823108Y-3116556D02*
X-5861204Y-3116556D01*
X-5861204Y-3116556D02*
X-5880251Y-3107032D01*
X-5880251Y-3107032D02*
X-5889775Y-3097508D01*
X-5889775Y-3097508D02*
X-5899299Y-3078460D01*
X-5899299Y-3078460D02*
X-5899299Y-3021317D01*
X-5899299Y-3021317D02*
X-5889775Y-3002270D01*
X-5889775Y-3002270D02*
X-5880251Y-2992746D01*
X-5880251Y-2992746D02*
X-5861204Y-2983222D01*
X-5861204Y-2983222D02*
X-5823108Y-2983222D01*
X-5823108Y-2983222D02*
X-5804061Y-2992746D01*
X-5727870Y-3192746D02*
X-5718346Y-3183222D01*
X-5718346Y-3183222D02*
X-5699299Y-3154651D01*
X-5699299Y-3154651D02*
X-5689775Y-3135603D01*
X-5689775Y-3135603D02*
X-5680251Y-3107032D01*
X-5680251Y-3107032D02*
X-5670727Y-3059413D01*
X-5670727Y-3059413D02*
X-5670727Y-3021317D01*
X-5670727Y-3021317D02*
X-5680251Y-2973698D01*
X-5680251Y-2973698D02*
X-5689775Y-2945127D01*
X-5689775Y-2945127D02*
X-5699299Y-2926079D01*
X-5699299Y-2926079D02*
X-5718346Y-2897508D01*
X-5718346Y-2897508D02*
X-5727870Y-2887984D01*
D13*
X-12483886Y-3289072D02*
G75*
G02*
X-12673886Y-3289072I-95000J0D01*
G01*
X-12673886Y-3289072D02*
G75*
G02*
X-12483886Y-3289072I95000J0D01*
G01*
D11*
X-12118347Y-3380556D02*
X-12232633Y-3380556D01*
X-12175490Y-3380556D02*
X-12175490Y-3180556D01*
X-12175490Y-3180556D02*
X-12194537Y-3209127D01*
X-12194537Y-3209127D02*
X-12213585Y-3228175D01*
X-12213585Y-3228175D02*
X-12232633Y-3237698D01*
X-12032633Y-3361508D02*
X-12023109Y-3371032D01*
X-12023109Y-3371032D02*
X-12032633Y-3380556D01*
X-12032633Y-3380556D02*
X-12042156Y-3371032D01*
X-12042156Y-3371032D02*
X-12032633Y-3361508D01*
X-12032633Y-3361508D02*
X-12032633Y-3380556D01*
X-11927871Y-3380556D02*
X-11889776Y-3380556D01*
X-11889776Y-3380556D02*
X-11870728Y-3371032D01*
X-11870728Y-3371032D02*
X-11861204Y-3361508D01*
X-11861204Y-3361508D02*
X-11842156Y-3332936D01*
X-11842156Y-3332936D02*
X-11832633Y-3294841D01*
X-11832633Y-3294841D02*
X-11832633Y-3218651D01*
X-11832633Y-3218651D02*
X-11842156Y-3199603D01*
X-11842156Y-3199603D02*
X-11851680Y-3190079D01*
X-11851680Y-3190079D02*
X-11870728Y-3180556D01*
X-11870728Y-3180556D02*
X-11908823Y-3180556D01*
X-11908823Y-3180556D02*
X-11927871Y-3190079D01*
X-11927871Y-3190079D02*
X-11937395Y-3199603D01*
X-11937395Y-3199603D02*
X-11946918Y-3218651D01*
X-11946918Y-3218651D02*
X-11946918Y-3266270D01*
X-11946918Y-3266270D02*
X-11937395Y-3285317D01*
X-11937395Y-3285317D02*
X-11927871Y-3294841D01*
X-11927871Y-3294841D02*
X-11908823Y-3304365D01*
X-11908823Y-3304365D02*
X-11870728Y-3304365D01*
X-11870728Y-3304365D02*
X-11851680Y-3294841D01*
X-11851680Y-3294841D02*
X-11842156Y-3285317D01*
X-11842156Y-3285317D02*
X-11832633Y-3266270D01*
X-11708823Y-3180556D02*
X-11689775Y-3180556D01*
X-11689775Y-3180556D02*
X-11670728Y-3190079D01*
X-11670728Y-3190079D02*
X-11661204Y-3199603D01*
X-11661204Y-3199603D02*
X-11651680Y-3218651D01*
X-11651680Y-3218651D02*
X-11642156Y-3256746D01*
X-11642156Y-3256746D02*
X-11642156Y-3304365D01*
X-11642156Y-3304365D02*
X-11651680Y-3342460D01*
X-11651680Y-3342460D02*
X-11661204Y-3361508D01*
X-11661204Y-3361508D02*
X-11670728Y-3371032D01*
X-11670728Y-3371032D02*
X-11689775Y-3380556D01*
X-11689775Y-3380556D02*
X-11708823Y-3380556D01*
X-11708823Y-3380556D02*
X-11727871Y-3371032D01*
X-11727871Y-3371032D02*
X-11737395Y-3361508D01*
X-11737395Y-3361508D02*
X-11746918Y-3342460D01*
X-11746918Y-3342460D02*
X-11756442Y-3304365D01*
X-11756442Y-3304365D02*
X-11756442Y-3256746D01*
X-11756442Y-3256746D02*
X-11746918Y-3218651D01*
X-11746918Y-3218651D02*
X-11737395Y-3199603D01*
X-11737395Y-3199603D02*
X-11727871Y-3190079D01*
X-11727871Y-3190079D02*
X-11708823Y-3180556D01*
X-11518347Y-3180556D02*
X-11499299Y-3180556D01*
X-11499299Y-3180556D02*
X-11480252Y-3190079D01*
X-11480252Y-3190079D02*
X-11470728Y-3199603D01*
X-11470728Y-3199603D02*
X-11461204Y-3218651D01*
X-11461204Y-3218651D02*
X-11451680Y-3256746D01*
X-11451680Y-3256746D02*
X-11451680Y-3304365D01*
X-11451680Y-3304365D02*
X-11461204Y-3342460D01*
X-11461204Y-3342460D02*
X-11470728Y-3361508D01*
X-11470728Y-3361508D02*
X-11480252Y-3371032D01*
X-11480252Y-3371032D02*
X-11499299Y-3380556D01*
X-11499299Y-3380556D02*
X-11518347Y-3380556D01*
X-11518347Y-3380556D02*
X-11537395Y-3371032D01*
X-11537395Y-3371032D02*
X-11546918Y-3361508D01*
X-11546918Y-3361508D02*
X-11556442Y-3342460D01*
X-11556442Y-3342460D02*
X-11565966Y-3304365D01*
X-11565966Y-3304365D02*
X-11565966Y-3256746D01*
X-11565966Y-3256746D02*
X-11556442Y-3218651D01*
X-11556442Y-3218651D02*
X-11546918Y-3199603D01*
X-11546918Y-3199603D02*
X-11537395Y-3190079D01*
X-11537395Y-3190079D02*
X-11518347Y-3180556D01*
X-11365966Y-3380556D02*
X-11365966Y-3247222D01*
X-11365966Y-3266270D02*
X-11356442Y-3256746D01*
X-11356442Y-3256746D02*
X-11337395Y-3247222D01*
X-11337395Y-3247222D02*
X-11308823Y-3247222D01*
X-11308823Y-3247222D02*
X-11289775Y-3256746D01*
X-11289775Y-3256746D02*
X-11280252Y-3275794D01*
X-11280252Y-3275794D02*
X-11280252Y-3380556D01*
X-11280252Y-3275794D02*
X-11270728Y-3256746D01*
X-11270728Y-3256746D02*
X-11251680Y-3247222D01*
X-11251680Y-3247222D02*
X-11223109Y-3247222D01*
X-11223109Y-3247222D02*
X-11204061Y-3256746D01*
X-11204061Y-3256746D02*
X-11194537Y-3275794D01*
X-11194537Y-3275794D02*
X-11194537Y-3380556D01*
X-11099299Y-3380556D02*
X-11099299Y-3247222D01*
X-11099299Y-3266270D02*
X-11089776Y-3256746D01*
X-11089776Y-3256746D02*
X-11070728Y-3247222D01*
X-11070728Y-3247222D02*
X-11042156Y-3247222D01*
X-11042156Y-3247222D02*
X-11023109Y-3256746D01*
X-11023109Y-3256746D02*
X-11013585Y-3275794D01*
X-11013585Y-3275794D02*
X-11013585Y-3380556D01*
X-11013585Y-3275794D02*
X-11004061Y-3256746D01*
X-11004061Y-3256746D02*
X-10985014Y-3247222D01*
X-10985014Y-3247222D02*
X-10956442Y-3247222D01*
X-10956442Y-3247222D02*
X-10937395Y-3256746D01*
X-10937395Y-3256746D02*
X-10927871Y-3275794D01*
X-10927871Y-3275794D02*
X-10927871Y-3380556D01*
X-10537395Y-3171032D02*
X-10708823Y-3428175D01*
X-10280252Y-3180556D02*
X-10261204Y-3180556D01*
X-10261204Y-3180556D02*
X-10242156Y-3190079D01*
X-10242156Y-3190079D02*
X-10232633Y-3199603D01*
X-10232633Y-3199603D02*
X-10223109Y-3218651D01*
X-10223109Y-3218651D02*
X-10213585Y-3256746D01*
X-10213585Y-3256746D02*
X-10213585Y-3304365D01*
X-10213585Y-3304365D02*
X-10223109Y-3342460D01*
X-10223109Y-3342460D02*
X-10232633Y-3361508D01*
X-10232633Y-3361508D02*
X-10242156Y-3371032D01*
X-10242156Y-3371032D02*
X-10261204Y-3380556D01*
X-10261204Y-3380556D02*
X-10280252Y-3380556D01*
X-10280252Y-3380556D02*
X-10299299Y-3371032D01*
X-10299299Y-3371032D02*
X-10308823Y-3361508D01*
X-10308823Y-3361508D02*
X-10318347Y-3342460D01*
X-10318347Y-3342460D02*
X-10327871Y-3304365D01*
X-10327871Y-3304365D02*
X-10327871Y-3256746D01*
X-10327871Y-3256746D02*
X-10318347Y-3218651D01*
X-10318347Y-3218651D02*
X-10308823Y-3199603D01*
X-10308823Y-3199603D02*
X-10299299Y-3190079D01*
X-10299299Y-3190079D02*
X-10280252Y-3180556D01*
X-10127871Y-3361508D02*
X-10118347Y-3371032D01*
X-10118347Y-3371032D02*
X-10127871Y-3380556D01*
X-10127871Y-3380556D02*
X-10137394Y-3371032D01*
X-10137394Y-3371032D02*
X-10127871Y-3361508D01*
X-10127871Y-3361508D02*
X-10127871Y-3380556D01*
X-9994537Y-3180556D02*
X-9975490Y-3180556D01*
X-9975490Y-3180556D02*
X-9956442Y-3190079D01*
X-9956442Y-3190079D02*
X-9946918Y-3199603D01*
X-9946918Y-3199603D02*
X-9937394Y-3218651D01*
X-9937394Y-3218651D02*
X-9927871Y-3256746D01*
X-9927871Y-3256746D02*
X-9927871Y-3304365D01*
X-9927871Y-3304365D02*
X-9937394Y-3342460D01*
X-9937394Y-3342460D02*
X-9946918Y-3361508D01*
X-9946918Y-3361508D02*
X-9956442Y-3371032D01*
X-9956442Y-3371032D02*
X-9975490Y-3380556D01*
X-9975490Y-3380556D02*
X-9994537Y-3380556D01*
X-9994537Y-3380556D02*
X-10013585Y-3371032D01*
X-10013585Y-3371032D02*
X-10023109Y-3361508D01*
X-10023109Y-3361508D02*
X-10032633Y-3342460D01*
X-10032633Y-3342460D02*
X-10042156Y-3304365D01*
X-10042156Y-3304365D02*
X-10042156Y-3256746D01*
X-10042156Y-3256746D02*
X-10032633Y-3218651D01*
X-10032633Y-3218651D02*
X-10023109Y-3199603D01*
X-10023109Y-3199603D02*
X-10013585Y-3190079D01*
X-10013585Y-3190079D02*
X-9994537Y-3180556D01*
X-9861204Y-3180556D02*
X-9727871Y-3180556D01*
X-9727871Y-3180556D02*
X-9813585Y-3380556D01*
X-9565966Y-3247222D02*
X-9565966Y-3380556D01*
X-9613585Y-3171032D02*
X-9661204Y-3313889D01*
X-9661204Y-3313889D02*
X-9537394Y-3313889D01*
X-9432633Y-3266270D02*
X-9451680Y-3256746D01*
X-9451680Y-3256746D02*
X-9461204Y-3247222D01*
X-9461204Y-3247222D02*
X-9470728Y-3228175D01*
X-9470728Y-3228175D02*
X-9470728Y-3218651D01*
X-9470728Y-3218651D02*
X-9461204Y-3199603D01*
X-9461204Y-3199603D02*
X-9451680Y-3190079D01*
X-9451680Y-3190079D02*
X-9432633Y-3180556D01*
X-9432633Y-3180556D02*
X-9394537Y-3180556D01*
X-9394537Y-3180556D02*
X-9375490Y-3190079D01*
X-9375490Y-3190079D02*
X-9365966Y-3199603D01*
X-9365966Y-3199603D02*
X-9356442Y-3218651D01*
X-9356442Y-3218651D02*
X-9356442Y-3228175D01*
X-9356442Y-3228175D02*
X-9365966Y-3247222D01*
X-9365966Y-3247222D02*
X-9375490Y-3256746D01*
X-9375490Y-3256746D02*
X-9394537Y-3266270D01*
X-9394537Y-3266270D02*
X-9432633Y-3266270D01*
X-9432633Y-3266270D02*
X-9451680Y-3275794D01*
X-9451680Y-3275794D02*
X-9461204Y-3285317D01*
X-9461204Y-3285317D02*
X-9470728Y-3304365D01*
X-9470728Y-3304365D02*
X-9470728Y-3342460D01*
X-9470728Y-3342460D02*
X-9461204Y-3361508D01*
X-9461204Y-3361508D02*
X-9451680Y-3371032D01*
X-9451680Y-3371032D02*
X-9432633Y-3380556D01*
X-9432633Y-3380556D02*
X-9394537Y-3380556D01*
X-9394537Y-3380556D02*
X-9375490Y-3371032D01*
X-9375490Y-3371032D02*
X-9365966Y-3361508D01*
X-9365966Y-3361508D02*
X-9356442Y-3342460D01*
X-9356442Y-3342460D02*
X-9356442Y-3304365D01*
X-9356442Y-3304365D02*
X-9365966Y-3285317D01*
X-9365966Y-3285317D02*
X-9375490Y-3275794D01*
X-9375490Y-3275794D02*
X-9394537Y-3266270D01*
X-9280252Y-3180556D02*
X-9280252Y-3218651D01*
X-9204061Y-3180556D02*
X-9204061Y-3218651D01*
X-8908823Y-3456746D02*
X-8918347Y-3447222D01*
X-8918347Y-3447222D02*
X-8937394Y-3418651D01*
X-8937394Y-3418651D02*
X-8946918Y-3399603D01*
X-8946918Y-3399603D02*
X-8956442Y-3371032D01*
X-8956442Y-3371032D02*
X-8965966Y-3323413D01*
X-8965966Y-3323413D02*
X-8965966Y-3285317D01*
X-8965966Y-3285317D02*
X-8956442Y-3237698D01*
X-8956442Y-3237698D02*
X-8946918Y-3209127D01*
X-8946918Y-3209127D02*
X-8937394Y-3190079D01*
X-8937394Y-3190079D02*
X-8918347Y-3161508D01*
X-8918347Y-3161508D02*
X-8908823Y-3151984D01*
X-8746918Y-3180556D02*
X-8785013Y-3180556D01*
X-8785013Y-3180556D02*
X-8804061Y-3190079D01*
X-8804061Y-3190079D02*
X-8813585Y-3199603D01*
X-8813585Y-3199603D02*
X-8832632Y-3228175D01*
X-8832632Y-3228175D02*
X-8842156Y-3266270D01*
X-8842156Y-3266270D02*
X-8842156Y-3342460D01*
X-8842156Y-3342460D02*
X-8832632Y-3361508D01*
X-8832632Y-3361508D02*
X-8823109Y-3371032D01*
X-8823109Y-3371032D02*
X-8804061Y-3380556D01*
X-8804061Y-3380556D02*
X-8765966Y-3380556D01*
X-8765966Y-3380556D02*
X-8746918Y-3371032D01*
X-8746918Y-3371032D02*
X-8737394Y-3361508D01*
X-8737394Y-3361508D02*
X-8727871Y-3342460D01*
X-8727871Y-3342460D02*
X-8727871Y-3294841D01*
X-8727871Y-3294841D02*
X-8737394Y-3275794D01*
X-8737394Y-3275794D02*
X-8746918Y-3266270D01*
X-8746918Y-3266270D02*
X-8765966Y-3256746D01*
X-8765966Y-3256746D02*
X-8804061Y-3256746D01*
X-8804061Y-3256746D02*
X-8823109Y-3266270D01*
X-8823109Y-3266270D02*
X-8832632Y-3275794D01*
X-8832632Y-3275794D02*
X-8842156Y-3294841D01*
X-8613585Y-3266270D02*
X-8632632Y-3256746D01*
X-8632632Y-3256746D02*
X-8642156Y-3247222D01*
X-8642156Y-3247222D02*
X-8651680Y-3228175D01*
X-8651680Y-3228175D02*
X-8651680Y-3218651D01*
X-8651680Y-3218651D02*
X-8642156Y-3199603D01*
X-8642156Y-3199603D02*
X-8632632Y-3190079D01*
X-8632632Y-3190079D02*
X-8613585Y-3180556D01*
X-8613585Y-3180556D02*
X-8575490Y-3180556D01*
X-8575490Y-3180556D02*
X-8556442Y-3190079D01*
X-8556442Y-3190079D02*
X-8546918Y-3199603D01*
X-8546918Y-3199603D02*
X-8537394Y-3218651D01*
X-8537394Y-3218651D02*
X-8537394Y-3228175D01*
X-8537394Y-3228175D02*
X-8546918Y-3247222D01*
X-8546918Y-3247222D02*
X-8556442Y-3256746D01*
X-8556442Y-3256746D02*
X-8575490Y-3266270D01*
X-8575490Y-3266270D02*
X-8613585Y-3266270D01*
X-8613585Y-3266270D02*
X-8632632Y-3275794D01*
X-8632632Y-3275794D02*
X-8642156Y-3285317D01*
X-8642156Y-3285317D02*
X-8651680Y-3304365D01*
X-8651680Y-3304365D02*
X-8651680Y-3342460D01*
X-8651680Y-3342460D02*
X-8642156Y-3361508D01*
X-8642156Y-3361508D02*
X-8632632Y-3371032D01*
X-8632632Y-3371032D02*
X-8613585Y-3380556D01*
X-8613585Y-3380556D02*
X-8575490Y-3380556D01*
X-8575490Y-3380556D02*
X-8556442Y-3371032D01*
X-8556442Y-3371032D02*
X-8546918Y-3361508D01*
X-8546918Y-3361508D02*
X-8537394Y-3342460D01*
X-8537394Y-3342460D02*
X-8537394Y-3304365D01*
X-8537394Y-3304365D02*
X-8546918Y-3285317D01*
X-8546918Y-3285317D02*
X-8556442Y-3275794D01*
X-8556442Y-3275794D02*
X-8575490Y-3266270D01*
X-8299299Y-3380556D02*
X-8299299Y-3180556D01*
X-8213585Y-3380556D02*
X-8213585Y-3275794D01*
X-8213585Y-3275794D02*
X-8223108Y-3256746D01*
X-8223108Y-3256746D02*
X-8242156Y-3247222D01*
X-8242156Y-3247222D02*
X-8270728Y-3247222D01*
X-8270728Y-3247222D02*
X-8289775Y-3256746D01*
X-8289775Y-3256746D02*
X-8299299Y-3266270D01*
X-8089775Y-3380556D02*
X-8108823Y-3371032D01*
X-8108823Y-3371032D02*
X-8118347Y-3361508D01*
X-8118347Y-3361508D02*
X-8127870Y-3342460D01*
X-8127870Y-3342460D02*
X-8127870Y-3285317D01*
X-8127870Y-3285317D02*
X-8118347Y-3266270D01*
X-8118347Y-3266270D02*
X-8108823Y-3256746D01*
X-8108823Y-3256746D02*
X-8089775Y-3247222D01*
X-8089775Y-3247222D02*
X-8061204Y-3247222D01*
X-8061204Y-3247222D02*
X-8042156Y-3256746D01*
X-8042156Y-3256746D02*
X-8032632Y-3266270D01*
X-8032632Y-3266270D02*
X-8023108Y-3285317D01*
X-8023108Y-3285317D02*
X-8023108Y-3342460D01*
X-8023108Y-3342460D02*
X-8032632Y-3361508D01*
X-8032632Y-3361508D02*
X-8042156Y-3371032D01*
X-8042156Y-3371032D02*
X-8061204Y-3380556D01*
X-8061204Y-3380556D02*
X-8089775Y-3380556D01*
X-7908823Y-3380556D02*
X-7927870Y-3371032D01*
X-7927870Y-3371032D02*
X-7937394Y-3351984D01*
X-7937394Y-3351984D02*
X-7937394Y-3180556D01*
X-7756442Y-3371032D02*
X-7775489Y-3380556D01*
X-7775489Y-3380556D02*
X-7813585Y-3380556D01*
X-7813585Y-3380556D02*
X-7832632Y-3371032D01*
X-7832632Y-3371032D02*
X-7842156Y-3351984D01*
X-7842156Y-3351984D02*
X-7842156Y-3275794D01*
X-7842156Y-3275794D02*
X-7832632Y-3256746D01*
X-7832632Y-3256746D02*
X-7813585Y-3247222D01*
X-7813585Y-3247222D02*
X-7775489Y-3247222D01*
X-7775489Y-3247222D02*
X-7756442Y-3256746D01*
X-7756442Y-3256746D02*
X-7746918Y-3275794D01*
X-7746918Y-3275794D02*
X-7746918Y-3294841D01*
X-7746918Y-3294841D02*
X-7842156Y-3313889D01*
X-7670727Y-3371032D02*
X-7651680Y-3380556D01*
X-7651680Y-3380556D02*
X-7613585Y-3380556D01*
X-7613585Y-3380556D02*
X-7594537Y-3371032D01*
X-7594537Y-3371032D02*
X-7585013Y-3351984D01*
X-7585013Y-3351984D02*
X-7585013Y-3342460D01*
X-7585013Y-3342460D02*
X-7594537Y-3323413D01*
X-7594537Y-3323413D02*
X-7613585Y-3313889D01*
X-7613585Y-3313889D02*
X-7642156Y-3313889D01*
X-7642156Y-3313889D02*
X-7661204Y-3304365D01*
X-7661204Y-3304365D02*
X-7670727Y-3285317D01*
X-7670727Y-3285317D02*
X-7670727Y-3275794D01*
X-7670727Y-3275794D02*
X-7661204Y-3256746D01*
X-7661204Y-3256746D02*
X-7642156Y-3247222D01*
X-7642156Y-3247222D02*
X-7613585Y-3247222D01*
X-7613585Y-3247222D02*
X-7594537Y-3256746D01*
X-7518346Y-3456746D02*
X-7508823Y-3447222D01*
X-7508823Y-3447222D02*
X-7489775Y-3418651D01*
X-7489775Y-3418651D02*
X-7480251Y-3399603D01*
X-7480251Y-3399603D02*
X-7470727Y-3371032D01*
X-7470727Y-3371032D02*
X-7461204Y-3323413D01*
X-7461204Y-3323413D02*
X-7461204Y-3285317D01*
X-7461204Y-3285317D02*
X-7470727Y-3237698D01*
X-7470727Y-3237698D02*
X-7480251Y-3209127D01*
X-7480251Y-3209127D02*
X-7489775Y-3190079D01*
X-7489775Y-3190079D02*
X-7508823Y-3161508D01*
X-7508823Y-3161508D02*
X-7518346Y-3151984D01*
X-7156442Y-3456746D02*
X-7165966Y-3447222D01*
X-7165966Y-3447222D02*
X-7185013Y-3418651D01*
X-7185013Y-3418651D02*
X-7194537Y-3399603D01*
X-7194537Y-3399603D02*
X-7204061Y-3371032D01*
X-7204061Y-3371032D02*
X-7213585Y-3323413D01*
X-7213585Y-3323413D02*
X-7213585Y-3285317D01*
X-7213585Y-3285317D02*
X-7204061Y-3237698D01*
X-7204061Y-3237698D02*
X-7194537Y-3209127D01*
X-7194537Y-3209127D02*
X-7185013Y-3190079D01*
X-7185013Y-3190079D02*
X-7165966Y-3161508D01*
X-7165966Y-3161508D02*
X-7156442Y-3151984D01*
X-7080251Y-3247222D02*
X-7080251Y-3380556D01*
X-7080251Y-3266270D02*
X-7070727Y-3256746D01*
X-7070727Y-3256746D02*
X-7051680Y-3247222D01*
X-7051680Y-3247222D02*
X-7023108Y-3247222D01*
X-7023108Y-3247222D02*
X-7004061Y-3256746D01*
X-7004061Y-3256746D02*
X-6994537Y-3275794D01*
X-6994537Y-3275794D02*
X-6994537Y-3380556D01*
X-6870727Y-3380556D02*
X-6889775Y-3371032D01*
X-6889775Y-3371032D02*
X-6899299Y-3361508D01*
X-6899299Y-3361508D02*
X-6908823Y-3342460D01*
X-6908823Y-3342460D02*
X-6908823Y-3285317D01*
X-6908823Y-3285317D02*
X-6899299Y-3266270D01*
X-6899299Y-3266270D02*
X-6889775Y-3256746D01*
X-6889775Y-3256746D02*
X-6870727Y-3247222D01*
X-6870727Y-3247222D02*
X-6842156Y-3247222D01*
X-6842156Y-3247222D02*
X-6823108Y-3256746D01*
X-6823108Y-3256746D02*
X-6813585Y-3266270D01*
X-6813585Y-3266270D02*
X-6804061Y-3285317D01*
X-6804061Y-3285317D02*
X-6804061Y-3342460D01*
X-6804061Y-3342460D02*
X-6813585Y-3361508D01*
X-6813585Y-3361508D02*
X-6823108Y-3371032D01*
X-6823108Y-3371032D02*
X-6842156Y-3380556D01*
X-6842156Y-3380556D02*
X-6870727Y-3380556D01*
X-6746918Y-3247222D02*
X-6670727Y-3247222D01*
X-6718346Y-3180556D02*
X-6718346Y-3351984D01*
X-6718346Y-3351984D02*
X-6708823Y-3371032D01*
X-6708823Y-3371032D02*
X-6689775Y-3380556D01*
X-6689775Y-3380556D02*
X-6670727Y-3380556D01*
X-6451680Y-3247222D02*
X-6451680Y-3447222D01*
X-6451680Y-3256746D02*
X-6432632Y-3247222D01*
X-6432632Y-3247222D02*
X-6394537Y-3247222D01*
X-6394537Y-3247222D02*
X-6375489Y-3256746D01*
X-6375489Y-3256746D02*
X-6365965Y-3266270D01*
X-6365965Y-3266270D02*
X-6356442Y-3285317D01*
X-6356442Y-3285317D02*
X-6356442Y-3342460D01*
X-6356442Y-3342460D02*
X-6365965Y-3361508D01*
X-6365965Y-3361508D02*
X-6375489Y-3371032D01*
X-6375489Y-3371032D02*
X-6394537Y-3380556D01*
X-6394537Y-3380556D02*
X-6432632Y-3380556D01*
X-6432632Y-3380556D02*
X-6451680Y-3371032D01*
X-6242156Y-3380556D02*
X-6261204Y-3371032D01*
X-6261204Y-3371032D02*
X-6270727Y-3351984D01*
X-6270727Y-3351984D02*
X-6270727Y-3180556D01*
X-6080251Y-3380556D02*
X-6080251Y-3275794D01*
X-6080251Y-3275794D02*
X-6089775Y-3256746D01*
X-6089775Y-3256746D02*
X-6108823Y-3247222D01*
X-6108823Y-3247222D02*
X-6146918Y-3247222D01*
X-6146918Y-3247222D02*
X-6165965Y-3256746D01*
X-6080251Y-3371032D02*
X-6099299Y-3380556D01*
X-6099299Y-3380556D02*
X-6146918Y-3380556D01*
X-6146918Y-3380556D02*
X-6165965Y-3371032D01*
X-6165965Y-3371032D02*
X-6175489Y-3351984D01*
X-6175489Y-3351984D02*
X-6175489Y-3332936D01*
X-6175489Y-3332936D02*
X-6165965Y-3313889D01*
X-6165965Y-3313889D02*
X-6146918Y-3304365D01*
X-6146918Y-3304365D02*
X-6099299Y-3304365D01*
X-6099299Y-3304365D02*
X-6080251Y-3294841D01*
X-6013584Y-3247222D02*
X-5937394Y-3247222D01*
X-5985013Y-3180556D02*
X-5985013Y-3351984D01*
X-5985013Y-3351984D02*
X-5975489Y-3371032D01*
X-5975489Y-3371032D02*
X-5956442Y-3380556D01*
X-5956442Y-3380556D02*
X-5937394Y-3380556D01*
X-5794537Y-3371032D02*
X-5813584Y-3380556D01*
X-5813584Y-3380556D02*
X-5851680Y-3380556D01*
X-5851680Y-3380556D02*
X-5870727Y-3371032D01*
X-5870727Y-3371032D02*
X-5880251Y-3351984D01*
X-5880251Y-3351984D02*
X-5880251Y-3275794D01*
X-5880251Y-3275794D02*
X-5870727Y-3256746D01*
X-5870727Y-3256746D02*
X-5851680Y-3247222D01*
X-5851680Y-3247222D02*
X-5813584Y-3247222D01*
X-5813584Y-3247222D02*
X-5794537Y-3256746D01*
X-5794537Y-3256746D02*
X-5785013Y-3275794D01*
X-5785013Y-3275794D02*
X-5785013Y-3294841D01*
X-5785013Y-3294841D02*
X-5880251Y-3313889D01*
X-5613584Y-3380556D02*
X-5613584Y-3180556D01*
X-5613584Y-3371032D02*
X-5632632Y-3380556D01*
X-5632632Y-3380556D02*
X-5670727Y-3380556D01*
X-5670727Y-3380556D02*
X-5689775Y-3371032D01*
X-5689775Y-3371032D02*
X-5699299Y-3361508D01*
X-5699299Y-3361508D02*
X-5708823Y-3342460D01*
X-5708823Y-3342460D02*
X-5708823Y-3285317D01*
X-5708823Y-3285317D02*
X-5699299Y-3266270D01*
X-5699299Y-3266270D02*
X-5689775Y-3256746D01*
X-5689775Y-3256746D02*
X-5670727Y-3247222D01*
X-5670727Y-3247222D02*
X-5632632Y-3247222D01*
X-5632632Y-3247222D02*
X-5613584Y-3256746D01*
X-5537394Y-3456746D02*
X-5527870Y-3447222D01*
X-5527870Y-3447222D02*
X-5508823Y-3418651D01*
X-5508823Y-3418651D02*
X-5499299Y-3399603D01*
X-5499299Y-3399603D02*
X-5489775Y-3371032D01*
X-5489775Y-3371032D02*
X-5480251Y-3323413D01*
X-5480251Y-3323413D02*
X-5480251Y-3285317D01*
X-5480251Y-3285317D02*
X-5489775Y-3237698D01*
X-5489775Y-3237698D02*
X-5499299Y-3209127D01*
X-5499299Y-3209127D02*
X-5508823Y-3190079D01*
X-5508823Y-3190079D02*
X-5527870Y-3161508D01*
X-5527870Y-3161508D02*
X-5537394Y-3151984D01*
X-12583886Y-3499072D02*
X-12583886Y-3699072D01*
X-12683886Y-3599072D02*
X-12483886Y-3599072D01*
X-12242156Y-3490556D02*
X-12118347Y-3490556D01*
X-12118347Y-3490556D02*
X-12185014Y-3566746D01*
X-12185014Y-3566746D02*
X-12156442Y-3566746D01*
X-12156442Y-3566746D02*
X-12137395Y-3576270D01*
X-12137395Y-3576270D02*
X-12127871Y-3585794D01*
X-12127871Y-3585794D02*
X-12118347Y-3604841D01*
X-12118347Y-3604841D02*
X-12118347Y-3652460D01*
X-12118347Y-3652460D02*
X-12127871Y-3671508D01*
X-12127871Y-3671508D02*
X-12137395Y-3681032D01*
X-12137395Y-3681032D02*
X-12156442Y-3690556D01*
X-12156442Y-3690556D02*
X-12213585Y-3690556D01*
X-12213585Y-3690556D02*
X-12232633Y-3681032D01*
X-12232633Y-3681032D02*
X-12242156Y-3671508D01*
X-12032633Y-3671508D02*
X-12023109Y-3681032D01*
X-12023109Y-3681032D02*
X-12032633Y-3690556D01*
X-12032633Y-3690556D02*
X-12042156Y-3681032D01*
X-12042156Y-3681032D02*
X-12032633Y-3671508D01*
X-12032633Y-3671508D02*
X-12032633Y-3690556D01*
X-11899299Y-3490556D02*
X-11880252Y-3490556D01*
X-11880252Y-3490556D02*
X-11861204Y-3500079D01*
X-11861204Y-3500079D02*
X-11851680Y-3509603D01*
X-11851680Y-3509603D02*
X-11842156Y-3528651D01*
X-11842156Y-3528651D02*
X-11832633Y-3566746D01*
X-11832633Y-3566746D02*
X-11832633Y-3614365D01*
X-11832633Y-3614365D02*
X-11842156Y-3652460D01*
X-11842156Y-3652460D02*
X-11851680Y-3671508D01*
X-11851680Y-3671508D02*
X-11861204Y-3681032D01*
X-11861204Y-3681032D02*
X-11880252Y-3690556D01*
X-11880252Y-3690556D02*
X-11899299Y-3690556D01*
X-11899299Y-3690556D02*
X-11918347Y-3681032D01*
X-11918347Y-3681032D02*
X-11927871Y-3671508D01*
X-11927871Y-3671508D02*
X-11937395Y-3652460D01*
X-11937395Y-3652460D02*
X-11946918Y-3614365D01*
X-11946918Y-3614365D02*
X-11946918Y-3566746D01*
X-11946918Y-3566746D02*
X-11937395Y-3528651D01*
X-11937395Y-3528651D02*
X-11927871Y-3509603D01*
X-11927871Y-3509603D02*
X-11918347Y-3500079D01*
X-11918347Y-3500079D02*
X-11899299Y-3490556D01*
X-11708823Y-3490556D02*
X-11689775Y-3490556D01*
X-11689775Y-3490556D02*
X-11670728Y-3500079D01*
X-11670728Y-3500079D02*
X-11661204Y-3509603D01*
X-11661204Y-3509603D02*
X-11651680Y-3528651D01*
X-11651680Y-3528651D02*
X-11642156Y-3566746D01*
X-11642156Y-3566746D02*
X-11642156Y-3614365D01*
X-11642156Y-3614365D02*
X-11651680Y-3652460D01*
X-11651680Y-3652460D02*
X-11661204Y-3671508D01*
X-11661204Y-3671508D02*
X-11670728Y-3681032D01*
X-11670728Y-3681032D02*
X-11689775Y-3690556D01*
X-11689775Y-3690556D02*
X-11708823Y-3690556D01*
X-11708823Y-3690556D02*
X-11727871Y-3681032D01*
X-11727871Y-3681032D02*
X-11737395Y-3671508D01*
X-11737395Y-3671508D02*
X-11746918Y-3652460D01*
X-11746918Y-3652460D02*
X-11756442Y-3614365D01*
X-11756442Y-3614365D02*
X-11756442Y-3566746D01*
X-11756442Y-3566746D02*
X-11746918Y-3528651D01*
X-11746918Y-3528651D02*
X-11737395Y-3509603D01*
X-11737395Y-3509603D02*
X-11727871Y-3500079D01*
X-11727871Y-3500079D02*
X-11708823Y-3490556D01*
X-11518347Y-3490556D02*
X-11499299Y-3490556D01*
X-11499299Y-3490556D02*
X-11480252Y-3500079D01*
X-11480252Y-3500079D02*
X-11470728Y-3509603D01*
X-11470728Y-3509603D02*
X-11461204Y-3528651D01*
X-11461204Y-3528651D02*
X-11451680Y-3566746D01*
X-11451680Y-3566746D02*
X-11451680Y-3614365D01*
X-11451680Y-3614365D02*
X-11461204Y-3652460D01*
X-11461204Y-3652460D02*
X-11470728Y-3671508D01*
X-11470728Y-3671508D02*
X-11480252Y-3681032D01*
X-11480252Y-3681032D02*
X-11499299Y-3690556D01*
X-11499299Y-3690556D02*
X-11518347Y-3690556D01*
X-11518347Y-3690556D02*
X-11537395Y-3681032D01*
X-11537395Y-3681032D02*
X-11546918Y-3671508D01*
X-11546918Y-3671508D02*
X-11556442Y-3652460D01*
X-11556442Y-3652460D02*
X-11565966Y-3614365D01*
X-11565966Y-3614365D02*
X-11565966Y-3566746D01*
X-11565966Y-3566746D02*
X-11556442Y-3528651D01*
X-11556442Y-3528651D02*
X-11546918Y-3509603D01*
X-11546918Y-3509603D02*
X-11537395Y-3500079D01*
X-11537395Y-3500079D02*
X-11518347Y-3490556D01*
X-11365966Y-3690556D02*
X-11365966Y-3557222D01*
X-11365966Y-3576270D02*
X-11356442Y-3566746D01*
X-11356442Y-3566746D02*
X-11337395Y-3557222D01*
X-11337395Y-3557222D02*
X-11308823Y-3557222D01*
X-11308823Y-3557222D02*
X-11289775Y-3566746D01*
X-11289775Y-3566746D02*
X-11280252Y-3585794D01*
X-11280252Y-3585794D02*
X-11280252Y-3690556D01*
X-11280252Y-3585794D02*
X-11270728Y-3566746D01*
X-11270728Y-3566746D02*
X-11251680Y-3557222D01*
X-11251680Y-3557222D02*
X-11223109Y-3557222D01*
X-11223109Y-3557222D02*
X-11204061Y-3566746D01*
X-11204061Y-3566746D02*
X-11194537Y-3585794D01*
X-11194537Y-3585794D02*
X-11194537Y-3690556D01*
X-11099299Y-3690556D02*
X-11099299Y-3557222D01*
X-11099299Y-3576270D02*
X-11089776Y-3566746D01*
X-11089776Y-3566746D02*
X-11070728Y-3557222D01*
X-11070728Y-3557222D02*
X-11042156Y-3557222D01*
X-11042156Y-3557222D02*
X-11023109Y-3566746D01*
X-11023109Y-3566746D02*
X-11013585Y-3585794D01*
X-11013585Y-3585794D02*
X-11013585Y-3690556D01*
X-11013585Y-3585794D02*
X-11004061Y-3566746D01*
X-11004061Y-3566746D02*
X-10985014Y-3557222D01*
X-10985014Y-3557222D02*
X-10956442Y-3557222D01*
X-10956442Y-3557222D02*
X-10937395Y-3566746D01*
X-10937395Y-3566746D02*
X-10927871Y-3585794D01*
X-10927871Y-3585794D02*
X-10927871Y-3690556D01*
X-10537395Y-3481032D02*
X-10708823Y-3738175D01*
X-10280252Y-3490556D02*
X-10261204Y-3490556D01*
X-10261204Y-3490556D02*
X-10242156Y-3500079D01*
X-10242156Y-3500079D02*
X-10232633Y-3509603D01*
X-10232633Y-3509603D02*
X-10223109Y-3528651D01*
X-10223109Y-3528651D02*
X-10213585Y-3566746D01*
X-10213585Y-3566746D02*
X-10213585Y-3614365D01*
X-10213585Y-3614365D02*
X-10223109Y-3652460D01*
X-10223109Y-3652460D02*
X-10232633Y-3671508D01*
X-10232633Y-3671508D02*
X-10242156Y-3681032D01*
X-10242156Y-3681032D02*
X-10261204Y-3690556D01*
X-10261204Y-3690556D02*
X-10280252Y-3690556D01*
X-10280252Y-3690556D02*
X-10299299Y-3681032D01*
X-10299299Y-3681032D02*
X-10308823Y-3671508D01*
X-10308823Y-3671508D02*
X-10318347Y-3652460D01*
X-10318347Y-3652460D02*
X-10327871Y-3614365D01*
X-10327871Y-3614365D02*
X-10327871Y-3566746D01*
X-10327871Y-3566746D02*
X-10318347Y-3528651D01*
X-10318347Y-3528651D02*
X-10308823Y-3509603D01*
X-10308823Y-3509603D02*
X-10299299Y-3500079D01*
X-10299299Y-3500079D02*
X-10280252Y-3490556D01*
X-10127871Y-3671508D02*
X-10118347Y-3681032D01*
X-10118347Y-3681032D02*
X-10127871Y-3690556D01*
X-10127871Y-3690556D02*
X-10137394Y-3681032D01*
X-10137394Y-3681032D02*
X-10127871Y-3671508D01*
X-10127871Y-3671508D02*
X-10127871Y-3690556D01*
X-9927871Y-3690556D02*
X-10042156Y-3690556D01*
X-9985014Y-3690556D02*
X-9985014Y-3490556D01*
X-9985014Y-3490556D02*
X-10004061Y-3519127D01*
X-10004061Y-3519127D02*
X-10023109Y-3538175D01*
X-10023109Y-3538175D02*
X-10042156Y-3547698D01*
X-9737394Y-3690556D02*
X-9851680Y-3690556D01*
X-9794537Y-3690556D02*
X-9794537Y-3490556D01*
X-9794537Y-3490556D02*
X-9813585Y-3519127D01*
X-9813585Y-3519127D02*
X-9832633Y-3538175D01*
X-9832633Y-3538175D02*
X-9851680Y-3547698D01*
X-9623109Y-3576270D02*
X-9642156Y-3566746D01*
X-9642156Y-3566746D02*
X-9651680Y-3557222D01*
X-9651680Y-3557222D02*
X-9661204Y-3538175D01*
X-9661204Y-3538175D02*
X-9661204Y-3528651D01*
X-9661204Y-3528651D02*
X-9651680Y-3509603D01*
X-9651680Y-3509603D02*
X-9642156Y-3500079D01*
X-9642156Y-3500079D02*
X-9623109Y-3490556D01*
X-9623109Y-3490556D02*
X-9585013Y-3490556D01*
X-9585013Y-3490556D02*
X-9565966Y-3500079D01*
X-9565966Y-3500079D02*
X-9556442Y-3509603D01*
X-9556442Y-3509603D02*
X-9546918Y-3528651D01*
X-9546918Y-3528651D02*
X-9546918Y-3538175D01*
X-9546918Y-3538175D02*
X-9556442Y-3557222D01*
X-9556442Y-3557222D02*
X-9565966Y-3566746D01*
X-9565966Y-3566746D02*
X-9585013Y-3576270D01*
X-9585013Y-3576270D02*
X-9623109Y-3576270D01*
X-9623109Y-3576270D02*
X-9642156Y-3585794D01*
X-9642156Y-3585794D02*
X-9651680Y-3595317D01*
X-9651680Y-3595317D02*
X-9661204Y-3614365D01*
X-9661204Y-3614365D02*
X-9661204Y-3652460D01*
X-9661204Y-3652460D02*
X-9651680Y-3671508D01*
X-9651680Y-3671508D02*
X-9642156Y-3681032D01*
X-9642156Y-3681032D02*
X-9623109Y-3690556D01*
X-9623109Y-3690556D02*
X-9585013Y-3690556D01*
X-9585013Y-3690556D02*
X-9565966Y-3681032D01*
X-9565966Y-3681032D02*
X-9556442Y-3671508D01*
X-9556442Y-3671508D02*
X-9546918Y-3652460D01*
X-9546918Y-3652460D02*
X-9546918Y-3614365D01*
X-9546918Y-3614365D02*
X-9556442Y-3595317D01*
X-9556442Y-3595317D02*
X-9565966Y-3585794D01*
X-9565966Y-3585794D02*
X-9585013Y-3576270D01*
X-9356442Y-3690556D02*
X-9470728Y-3690556D01*
X-9413585Y-3690556D02*
X-9413585Y-3490556D01*
X-9413585Y-3490556D02*
X-9432633Y-3519127D01*
X-9432633Y-3519127D02*
X-9451680Y-3538175D01*
X-9451680Y-3538175D02*
X-9470728Y-3547698D01*
X-9280252Y-3490556D02*
X-9280252Y-3528651D01*
X-9204061Y-3490556D02*
X-9204061Y-3528651D01*
X-8908823Y-3766746D02*
X-8918347Y-3757222D01*
X-8918347Y-3757222D02*
X-8937394Y-3728651D01*
X-8937394Y-3728651D02*
X-8946918Y-3709603D01*
X-8946918Y-3709603D02*
X-8956442Y-3681032D01*
X-8956442Y-3681032D02*
X-8965966Y-3633413D01*
X-8965966Y-3633413D02*
X-8965966Y-3595317D01*
X-8965966Y-3595317D02*
X-8956442Y-3547698D01*
X-8956442Y-3547698D02*
X-8946918Y-3519127D01*
X-8946918Y-3519127D02*
X-8937394Y-3500079D01*
X-8937394Y-3500079D02*
X-8918347Y-3471508D01*
X-8918347Y-3471508D02*
X-8908823Y-3461984D01*
X-8746918Y-3490556D02*
X-8785013Y-3490556D01*
X-8785013Y-3490556D02*
X-8804061Y-3500079D01*
X-8804061Y-3500079D02*
X-8813585Y-3509603D01*
X-8813585Y-3509603D02*
X-8832632Y-3538175D01*
X-8832632Y-3538175D02*
X-8842156Y-3576270D01*
X-8842156Y-3576270D02*
X-8842156Y-3652460D01*
X-8842156Y-3652460D02*
X-8832632Y-3671508D01*
X-8832632Y-3671508D02*
X-8823109Y-3681032D01*
X-8823109Y-3681032D02*
X-8804061Y-3690556D01*
X-8804061Y-3690556D02*
X-8765966Y-3690556D01*
X-8765966Y-3690556D02*
X-8746918Y-3681032D01*
X-8746918Y-3681032D02*
X-8737394Y-3671508D01*
X-8737394Y-3671508D02*
X-8727871Y-3652460D01*
X-8727871Y-3652460D02*
X-8727871Y-3604841D01*
X-8727871Y-3604841D02*
X-8737394Y-3585794D01*
X-8737394Y-3585794D02*
X-8746918Y-3576270D01*
X-8746918Y-3576270D02*
X-8765966Y-3566746D01*
X-8765966Y-3566746D02*
X-8804061Y-3566746D01*
X-8804061Y-3566746D02*
X-8823109Y-3576270D01*
X-8823109Y-3576270D02*
X-8832632Y-3585794D01*
X-8832632Y-3585794D02*
X-8842156Y-3604841D01*
X-8613585Y-3576270D02*
X-8632632Y-3566746D01*
X-8632632Y-3566746D02*
X-8642156Y-3557222D01*
X-8642156Y-3557222D02*
X-8651680Y-3538175D01*
X-8651680Y-3538175D02*
X-8651680Y-3528651D01*
X-8651680Y-3528651D02*
X-8642156Y-3509603D01*
X-8642156Y-3509603D02*
X-8632632Y-3500079D01*
X-8632632Y-3500079D02*
X-8613585Y-3490556D01*
X-8613585Y-3490556D02*
X-8575490Y-3490556D01*
X-8575490Y-3490556D02*
X-8556442Y-3500079D01*
X-8556442Y-3500079D02*
X-8546918Y-3509603D01*
X-8546918Y-3509603D02*
X-8537394Y-3528651D01*
X-8537394Y-3528651D02*
X-8537394Y-3538175D01*
X-8537394Y-3538175D02*
X-8546918Y-3557222D01*
X-8546918Y-3557222D02*
X-8556442Y-3566746D01*
X-8556442Y-3566746D02*
X-8575490Y-3576270D01*
X-8575490Y-3576270D02*
X-8613585Y-3576270D01*
X-8613585Y-3576270D02*
X-8632632Y-3585794D01*
X-8632632Y-3585794D02*
X-8642156Y-3595317D01*
X-8642156Y-3595317D02*
X-8651680Y-3614365D01*
X-8651680Y-3614365D02*
X-8651680Y-3652460D01*
X-8651680Y-3652460D02*
X-8642156Y-3671508D01*
X-8642156Y-3671508D02*
X-8632632Y-3681032D01*
X-8632632Y-3681032D02*
X-8613585Y-3690556D01*
X-8613585Y-3690556D02*
X-8575490Y-3690556D01*
X-8575490Y-3690556D02*
X-8556442Y-3681032D01*
X-8556442Y-3681032D02*
X-8546918Y-3671508D01*
X-8546918Y-3671508D02*
X-8537394Y-3652460D01*
X-8537394Y-3652460D02*
X-8537394Y-3614365D01*
X-8537394Y-3614365D02*
X-8546918Y-3595317D01*
X-8546918Y-3595317D02*
X-8556442Y-3585794D01*
X-8556442Y-3585794D02*
X-8575490Y-3576270D01*
X-8299299Y-3690556D02*
X-8299299Y-3490556D01*
X-8213585Y-3690556D02*
X-8213585Y-3585794D01*
X-8213585Y-3585794D02*
X-8223108Y-3566746D01*
X-8223108Y-3566746D02*
X-8242156Y-3557222D01*
X-8242156Y-3557222D02*
X-8270728Y-3557222D01*
X-8270728Y-3557222D02*
X-8289775Y-3566746D01*
X-8289775Y-3566746D02*
X-8299299Y-3576270D01*
X-8089775Y-3690556D02*
X-8108823Y-3681032D01*
X-8108823Y-3681032D02*
X-8118347Y-3671508D01*
X-8118347Y-3671508D02*
X-8127870Y-3652460D01*
X-8127870Y-3652460D02*
X-8127870Y-3595317D01*
X-8127870Y-3595317D02*
X-8118347Y-3576270D01*
X-8118347Y-3576270D02*
X-8108823Y-3566746D01*
X-8108823Y-3566746D02*
X-8089775Y-3557222D01*
X-8089775Y-3557222D02*
X-8061204Y-3557222D01*
X-8061204Y-3557222D02*
X-8042156Y-3566746D01*
X-8042156Y-3566746D02*
X-8032632Y-3576270D01*
X-8032632Y-3576270D02*
X-8023108Y-3595317D01*
X-8023108Y-3595317D02*
X-8023108Y-3652460D01*
X-8023108Y-3652460D02*
X-8032632Y-3671508D01*
X-8032632Y-3671508D02*
X-8042156Y-3681032D01*
X-8042156Y-3681032D02*
X-8061204Y-3690556D01*
X-8061204Y-3690556D02*
X-8089775Y-3690556D01*
X-7908823Y-3690556D02*
X-7927870Y-3681032D01*
X-7927870Y-3681032D02*
X-7937394Y-3661984D01*
X-7937394Y-3661984D02*
X-7937394Y-3490556D01*
X-7756442Y-3681032D02*
X-7775489Y-3690556D01*
X-7775489Y-3690556D02*
X-7813585Y-3690556D01*
X-7813585Y-3690556D02*
X-7832632Y-3681032D01*
X-7832632Y-3681032D02*
X-7842156Y-3661984D01*
X-7842156Y-3661984D02*
X-7842156Y-3585794D01*
X-7842156Y-3585794D02*
X-7832632Y-3566746D01*
X-7832632Y-3566746D02*
X-7813585Y-3557222D01*
X-7813585Y-3557222D02*
X-7775489Y-3557222D01*
X-7775489Y-3557222D02*
X-7756442Y-3566746D01*
X-7756442Y-3566746D02*
X-7746918Y-3585794D01*
X-7746918Y-3585794D02*
X-7746918Y-3604841D01*
X-7746918Y-3604841D02*
X-7842156Y-3623889D01*
X-7670727Y-3681032D02*
X-7651680Y-3690556D01*
X-7651680Y-3690556D02*
X-7613585Y-3690556D01*
X-7613585Y-3690556D02*
X-7594537Y-3681032D01*
X-7594537Y-3681032D02*
X-7585013Y-3661984D01*
X-7585013Y-3661984D02*
X-7585013Y-3652460D01*
X-7585013Y-3652460D02*
X-7594537Y-3633413D01*
X-7594537Y-3633413D02*
X-7613585Y-3623889D01*
X-7613585Y-3623889D02*
X-7642156Y-3623889D01*
X-7642156Y-3623889D02*
X-7661204Y-3614365D01*
X-7661204Y-3614365D02*
X-7670727Y-3595317D01*
X-7670727Y-3595317D02*
X-7670727Y-3585794D01*
X-7670727Y-3585794D02*
X-7661204Y-3566746D01*
X-7661204Y-3566746D02*
X-7642156Y-3557222D01*
X-7642156Y-3557222D02*
X-7613585Y-3557222D01*
X-7613585Y-3557222D02*
X-7594537Y-3566746D01*
X-7518346Y-3766746D02*
X-7508823Y-3757222D01*
X-7508823Y-3757222D02*
X-7489775Y-3728651D01*
X-7489775Y-3728651D02*
X-7480251Y-3709603D01*
X-7480251Y-3709603D02*
X-7470727Y-3681032D01*
X-7470727Y-3681032D02*
X-7461204Y-3633413D01*
X-7461204Y-3633413D02*
X-7461204Y-3595317D01*
X-7461204Y-3595317D02*
X-7470727Y-3547698D01*
X-7470727Y-3547698D02*
X-7480251Y-3519127D01*
X-7480251Y-3519127D02*
X-7489775Y-3500079D01*
X-7489775Y-3500079D02*
X-7508823Y-3471508D01*
X-7508823Y-3471508D02*
X-7518346Y-3461984D01*
X-7156442Y-3766746D02*
X-7165966Y-3757222D01*
X-7165966Y-3757222D02*
X-7185013Y-3728651D01*
X-7185013Y-3728651D02*
X-7194537Y-3709603D01*
X-7194537Y-3709603D02*
X-7204061Y-3681032D01*
X-7204061Y-3681032D02*
X-7213585Y-3633413D01*
X-7213585Y-3633413D02*
X-7213585Y-3595317D01*
X-7213585Y-3595317D02*
X-7204061Y-3547698D01*
X-7204061Y-3547698D02*
X-7194537Y-3519127D01*
X-7194537Y-3519127D02*
X-7185013Y-3500079D01*
X-7185013Y-3500079D02*
X-7165966Y-3471508D01*
X-7165966Y-3471508D02*
X-7156442Y-3461984D01*
X-7080251Y-3557222D02*
X-7080251Y-3690556D01*
X-7080251Y-3576270D02*
X-7070727Y-3566746D01*
X-7070727Y-3566746D02*
X-7051680Y-3557222D01*
X-7051680Y-3557222D02*
X-7023108Y-3557222D01*
X-7023108Y-3557222D02*
X-7004061Y-3566746D01*
X-7004061Y-3566746D02*
X-6994537Y-3585794D01*
X-6994537Y-3585794D02*
X-6994537Y-3690556D01*
X-6870727Y-3690556D02*
X-6889775Y-3681032D01*
X-6889775Y-3681032D02*
X-6899299Y-3671508D01*
X-6899299Y-3671508D02*
X-6908823Y-3652460D01*
X-6908823Y-3652460D02*
X-6908823Y-3595317D01*
X-6908823Y-3595317D02*
X-6899299Y-3576270D01*
X-6899299Y-3576270D02*
X-6889775Y-3566746D01*
X-6889775Y-3566746D02*
X-6870727Y-3557222D01*
X-6870727Y-3557222D02*
X-6842156Y-3557222D01*
X-6842156Y-3557222D02*
X-6823108Y-3566746D01*
X-6823108Y-3566746D02*
X-6813585Y-3576270D01*
X-6813585Y-3576270D02*
X-6804061Y-3595317D01*
X-6804061Y-3595317D02*
X-6804061Y-3652460D01*
X-6804061Y-3652460D02*
X-6813585Y-3671508D01*
X-6813585Y-3671508D02*
X-6823108Y-3681032D01*
X-6823108Y-3681032D02*
X-6842156Y-3690556D01*
X-6842156Y-3690556D02*
X-6870727Y-3690556D01*
X-6746918Y-3557222D02*
X-6670727Y-3557222D01*
X-6718346Y-3490556D02*
X-6718346Y-3661984D01*
X-6718346Y-3661984D02*
X-6708823Y-3681032D01*
X-6708823Y-3681032D02*
X-6689775Y-3690556D01*
X-6689775Y-3690556D02*
X-6670727Y-3690556D01*
X-6451680Y-3557222D02*
X-6451680Y-3757222D01*
X-6451680Y-3566746D02*
X-6432632Y-3557222D01*
X-6432632Y-3557222D02*
X-6394537Y-3557222D01*
X-6394537Y-3557222D02*
X-6375489Y-3566746D01*
X-6375489Y-3566746D02*
X-6365965Y-3576270D01*
X-6365965Y-3576270D02*
X-6356442Y-3595317D01*
X-6356442Y-3595317D02*
X-6356442Y-3652460D01*
X-6356442Y-3652460D02*
X-6365965Y-3671508D01*
X-6365965Y-3671508D02*
X-6375489Y-3681032D01*
X-6375489Y-3681032D02*
X-6394537Y-3690556D01*
X-6394537Y-3690556D02*
X-6432632Y-3690556D01*
X-6432632Y-3690556D02*
X-6451680Y-3681032D01*
X-6242156Y-3690556D02*
X-6261204Y-3681032D01*
X-6261204Y-3681032D02*
X-6270727Y-3661984D01*
X-6270727Y-3661984D02*
X-6270727Y-3490556D01*
X-6080251Y-3690556D02*
X-6080251Y-3585794D01*
X-6080251Y-3585794D02*
X-6089775Y-3566746D01*
X-6089775Y-3566746D02*
X-6108823Y-3557222D01*
X-6108823Y-3557222D02*
X-6146918Y-3557222D01*
X-6146918Y-3557222D02*
X-6165965Y-3566746D01*
X-6080251Y-3681032D02*
X-6099299Y-3690556D01*
X-6099299Y-3690556D02*
X-6146918Y-3690556D01*
X-6146918Y-3690556D02*
X-6165965Y-3681032D01*
X-6165965Y-3681032D02*
X-6175489Y-3661984D01*
X-6175489Y-3661984D02*
X-6175489Y-3642936D01*
X-6175489Y-3642936D02*
X-6165965Y-3623889D01*
X-6165965Y-3623889D02*
X-6146918Y-3614365D01*
X-6146918Y-3614365D02*
X-6099299Y-3614365D01*
X-6099299Y-3614365D02*
X-6080251Y-3604841D01*
X-6013584Y-3557222D02*
X-5937394Y-3557222D01*
X-5985013Y-3490556D02*
X-5985013Y-3661984D01*
X-5985013Y-3661984D02*
X-5975489Y-3681032D01*
X-5975489Y-3681032D02*
X-5956442Y-3690556D01*
X-5956442Y-3690556D02*
X-5937394Y-3690556D01*
X-5794537Y-3681032D02*
X-5813584Y-3690556D01*
X-5813584Y-3690556D02*
X-5851680Y-3690556D01*
X-5851680Y-3690556D02*
X-5870727Y-3681032D01*
X-5870727Y-3681032D02*
X-5880251Y-3661984D01*
X-5880251Y-3661984D02*
X-5880251Y-3585794D01*
X-5880251Y-3585794D02*
X-5870727Y-3566746D01*
X-5870727Y-3566746D02*
X-5851680Y-3557222D01*
X-5851680Y-3557222D02*
X-5813584Y-3557222D01*
X-5813584Y-3557222D02*
X-5794537Y-3566746D01*
X-5794537Y-3566746D02*
X-5785013Y-3585794D01*
X-5785013Y-3585794D02*
X-5785013Y-3604841D01*
X-5785013Y-3604841D02*
X-5880251Y-3623889D01*
X-5613584Y-3690556D02*
X-5613584Y-3490556D01*
X-5613584Y-3681032D02*
X-5632632Y-3690556D01*
X-5632632Y-3690556D02*
X-5670727Y-3690556D01*
X-5670727Y-3690556D02*
X-5689775Y-3681032D01*
X-5689775Y-3681032D02*
X-5699299Y-3671508D01*
X-5699299Y-3671508D02*
X-5708823Y-3652460D01*
X-5708823Y-3652460D02*
X-5708823Y-3595317D01*
X-5708823Y-3595317D02*
X-5699299Y-3576270D01*
X-5699299Y-3576270D02*
X-5689775Y-3566746D01*
X-5689775Y-3566746D02*
X-5670727Y-3557222D01*
X-5670727Y-3557222D02*
X-5632632Y-3557222D01*
X-5632632Y-3557222D02*
X-5613584Y-3566746D01*
X-5537394Y-3766746D02*
X-5527870Y-3757222D01*
X-5527870Y-3757222D02*
X-5508823Y-3728651D01*
X-5508823Y-3728651D02*
X-5499299Y-3709603D01*
X-5499299Y-3709603D02*
X-5489775Y-3681032D01*
X-5489775Y-3681032D02*
X-5480251Y-3633413D01*
X-5480251Y-3633413D02*
X-5480251Y-3595317D01*
X-5480251Y-3595317D02*
X-5489775Y-3547698D01*
X-5489775Y-3547698D02*
X-5499299Y-3519127D01*
X-5499299Y-3519127D02*
X-5508823Y-3500079D01*
X-5508823Y-3500079D02*
X-5527870Y-3471508D01*
X-5527870Y-3471508D02*
X-5537394Y-3461984D01*
X-12513174Y-3989783D02*
X-12513174Y-3848360D01*
X-12654597Y-3848360D01*
X-12654597Y-3989783D01*
X-12513174Y-3989783D01*
X-12242156Y-3810556D02*
X-12118347Y-3810556D01*
X-12118347Y-3810556D02*
X-12185014Y-3886746D01*
X-12185014Y-3886746D02*
X-12156442Y-3886746D01*
X-12156442Y-3886746D02*
X-12137395Y-3896270D01*
X-12137395Y-3896270D02*
X-12127871Y-3905794D01*
X-12127871Y-3905794D02*
X-12118347Y-3924841D01*
X-12118347Y-3924841D02*
X-12118347Y-3972460D01*
X-12118347Y-3972460D02*
X-12127871Y-3991508D01*
X-12127871Y-3991508D02*
X-12137395Y-4001032D01*
X-12137395Y-4001032D02*
X-12156442Y-4010556D01*
X-12156442Y-4010556D02*
X-12213585Y-4010556D01*
X-12213585Y-4010556D02*
X-12232633Y-4001032D01*
X-12232633Y-4001032D02*
X-12242156Y-3991508D01*
X-12032633Y-3991508D02*
X-12023109Y-4001032D01*
X-12023109Y-4001032D02*
X-12032633Y-4010556D01*
X-12032633Y-4010556D02*
X-12042156Y-4001032D01*
X-12042156Y-4001032D02*
X-12032633Y-3991508D01*
X-12032633Y-3991508D02*
X-12032633Y-4010556D01*
X-11851680Y-3877222D02*
X-11851680Y-4010556D01*
X-11899299Y-3801032D02*
X-11946918Y-3943889D01*
X-11946918Y-3943889D02*
X-11823109Y-3943889D01*
X-11708823Y-3810556D02*
X-11689775Y-3810556D01*
X-11689775Y-3810556D02*
X-11670728Y-3820079D01*
X-11670728Y-3820079D02*
X-11661204Y-3829603D01*
X-11661204Y-3829603D02*
X-11651680Y-3848651D01*
X-11651680Y-3848651D02*
X-11642156Y-3886746D01*
X-11642156Y-3886746D02*
X-11642156Y-3934365D01*
X-11642156Y-3934365D02*
X-11651680Y-3972460D01*
X-11651680Y-3972460D02*
X-11661204Y-3991508D01*
X-11661204Y-3991508D02*
X-11670728Y-4001032D01*
X-11670728Y-4001032D02*
X-11689775Y-4010556D01*
X-11689775Y-4010556D02*
X-11708823Y-4010556D01*
X-11708823Y-4010556D02*
X-11727871Y-4001032D01*
X-11727871Y-4001032D02*
X-11737395Y-3991508D01*
X-11737395Y-3991508D02*
X-11746918Y-3972460D01*
X-11746918Y-3972460D02*
X-11756442Y-3934365D01*
X-11756442Y-3934365D02*
X-11756442Y-3886746D01*
X-11756442Y-3886746D02*
X-11746918Y-3848651D01*
X-11746918Y-3848651D02*
X-11737395Y-3829603D01*
X-11737395Y-3829603D02*
X-11727871Y-3820079D01*
X-11727871Y-3820079D02*
X-11708823Y-3810556D01*
X-11518347Y-3810556D02*
X-11499299Y-3810556D01*
X-11499299Y-3810556D02*
X-11480252Y-3820079D01*
X-11480252Y-3820079D02*
X-11470728Y-3829603D01*
X-11470728Y-3829603D02*
X-11461204Y-3848651D01*
X-11461204Y-3848651D02*
X-11451680Y-3886746D01*
X-11451680Y-3886746D02*
X-11451680Y-3934365D01*
X-11451680Y-3934365D02*
X-11461204Y-3972460D01*
X-11461204Y-3972460D02*
X-11470728Y-3991508D01*
X-11470728Y-3991508D02*
X-11480252Y-4001032D01*
X-11480252Y-4001032D02*
X-11499299Y-4010556D01*
X-11499299Y-4010556D02*
X-11518347Y-4010556D01*
X-11518347Y-4010556D02*
X-11537395Y-4001032D01*
X-11537395Y-4001032D02*
X-11546918Y-3991508D01*
X-11546918Y-3991508D02*
X-11556442Y-3972460D01*
X-11556442Y-3972460D02*
X-11565966Y-3934365D01*
X-11565966Y-3934365D02*
X-11565966Y-3886746D01*
X-11565966Y-3886746D02*
X-11556442Y-3848651D01*
X-11556442Y-3848651D02*
X-11546918Y-3829603D01*
X-11546918Y-3829603D02*
X-11537395Y-3820079D01*
X-11537395Y-3820079D02*
X-11518347Y-3810556D01*
X-11365966Y-4010556D02*
X-11365966Y-3877222D01*
X-11365966Y-3896270D02*
X-11356442Y-3886746D01*
X-11356442Y-3886746D02*
X-11337395Y-3877222D01*
X-11337395Y-3877222D02*
X-11308823Y-3877222D01*
X-11308823Y-3877222D02*
X-11289775Y-3886746D01*
X-11289775Y-3886746D02*
X-11280252Y-3905794D01*
X-11280252Y-3905794D02*
X-11280252Y-4010556D01*
X-11280252Y-3905794D02*
X-11270728Y-3886746D01*
X-11270728Y-3886746D02*
X-11251680Y-3877222D01*
X-11251680Y-3877222D02*
X-11223109Y-3877222D01*
X-11223109Y-3877222D02*
X-11204061Y-3886746D01*
X-11204061Y-3886746D02*
X-11194537Y-3905794D01*
X-11194537Y-3905794D02*
X-11194537Y-4010556D01*
X-11099299Y-4010556D02*
X-11099299Y-3877222D01*
X-11099299Y-3896270D02*
X-11089776Y-3886746D01*
X-11089776Y-3886746D02*
X-11070728Y-3877222D01*
X-11070728Y-3877222D02*
X-11042156Y-3877222D01*
X-11042156Y-3877222D02*
X-11023109Y-3886746D01*
X-11023109Y-3886746D02*
X-11013585Y-3905794D01*
X-11013585Y-3905794D02*
X-11013585Y-4010556D01*
X-11013585Y-3905794D02*
X-11004061Y-3886746D01*
X-11004061Y-3886746D02*
X-10985014Y-3877222D01*
X-10985014Y-3877222D02*
X-10956442Y-3877222D01*
X-10956442Y-3877222D02*
X-10937395Y-3886746D01*
X-10937395Y-3886746D02*
X-10927871Y-3905794D01*
X-10927871Y-3905794D02*
X-10927871Y-4010556D01*
X-10537395Y-3801032D02*
X-10708823Y-4058175D01*
X-10280252Y-3810556D02*
X-10261204Y-3810556D01*
X-10261204Y-3810556D02*
X-10242156Y-3820079D01*
X-10242156Y-3820079D02*
X-10232633Y-3829603D01*
X-10232633Y-3829603D02*
X-10223109Y-3848651D01*
X-10223109Y-3848651D02*
X-10213585Y-3886746D01*
X-10213585Y-3886746D02*
X-10213585Y-3934365D01*
X-10213585Y-3934365D02*
X-10223109Y-3972460D01*
X-10223109Y-3972460D02*
X-10232633Y-3991508D01*
X-10232633Y-3991508D02*
X-10242156Y-4001032D01*
X-10242156Y-4001032D02*
X-10261204Y-4010556D01*
X-10261204Y-4010556D02*
X-10280252Y-4010556D01*
X-10280252Y-4010556D02*
X-10299299Y-4001032D01*
X-10299299Y-4001032D02*
X-10308823Y-3991508D01*
X-10308823Y-3991508D02*
X-10318347Y-3972460D01*
X-10318347Y-3972460D02*
X-10327871Y-3934365D01*
X-10327871Y-3934365D02*
X-10327871Y-3886746D01*
X-10327871Y-3886746D02*
X-10318347Y-3848651D01*
X-10318347Y-3848651D02*
X-10308823Y-3829603D01*
X-10308823Y-3829603D02*
X-10299299Y-3820079D01*
X-10299299Y-3820079D02*
X-10280252Y-3810556D01*
X-10127871Y-3991508D02*
X-10118347Y-4001032D01*
X-10118347Y-4001032D02*
X-10127871Y-4010556D01*
X-10127871Y-4010556D02*
X-10137394Y-4001032D01*
X-10137394Y-4001032D02*
X-10127871Y-3991508D01*
X-10127871Y-3991508D02*
X-10127871Y-4010556D01*
X-9927871Y-4010556D02*
X-10042156Y-4010556D01*
X-9985014Y-4010556D02*
X-9985014Y-3810556D01*
X-9985014Y-3810556D02*
X-10004061Y-3839127D01*
X-10004061Y-3839127D02*
X-10023109Y-3858175D01*
X-10023109Y-3858175D02*
X-10042156Y-3867698D01*
X-9861204Y-3810556D02*
X-9737394Y-3810556D01*
X-9737394Y-3810556D02*
X-9804061Y-3886746D01*
X-9804061Y-3886746D02*
X-9775490Y-3886746D01*
X-9775490Y-3886746D02*
X-9756442Y-3896270D01*
X-9756442Y-3896270D02*
X-9746918Y-3905794D01*
X-9746918Y-3905794D02*
X-9737394Y-3924841D01*
X-9737394Y-3924841D02*
X-9737394Y-3972460D01*
X-9737394Y-3972460D02*
X-9746918Y-3991508D01*
X-9746918Y-3991508D02*
X-9756442Y-4001032D01*
X-9756442Y-4001032D02*
X-9775490Y-4010556D01*
X-9775490Y-4010556D02*
X-9832633Y-4010556D01*
X-9832633Y-4010556D02*
X-9851680Y-4001032D01*
X-9851680Y-4001032D02*
X-9861204Y-3991508D01*
X-9670728Y-3810556D02*
X-9546918Y-3810556D01*
X-9546918Y-3810556D02*
X-9613585Y-3886746D01*
X-9613585Y-3886746D02*
X-9585013Y-3886746D01*
X-9585013Y-3886746D02*
X-9565966Y-3896270D01*
X-9565966Y-3896270D02*
X-9556442Y-3905794D01*
X-9556442Y-3905794D02*
X-9546918Y-3924841D01*
X-9546918Y-3924841D02*
X-9546918Y-3972460D01*
X-9546918Y-3972460D02*
X-9556442Y-3991508D01*
X-9556442Y-3991508D02*
X-9565966Y-4001032D01*
X-9565966Y-4001032D02*
X-9585013Y-4010556D01*
X-9585013Y-4010556D02*
X-9642156Y-4010556D01*
X-9642156Y-4010556D02*
X-9661204Y-4001032D01*
X-9661204Y-4001032D02*
X-9670728Y-3991508D01*
X-9451680Y-4010556D02*
X-9413585Y-4010556D01*
X-9413585Y-4010556D02*
X-9394537Y-4001032D01*
X-9394537Y-4001032D02*
X-9385013Y-3991508D01*
X-9385013Y-3991508D02*
X-9365966Y-3962936D01*
X-9365966Y-3962936D02*
X-9356442Y-3924841D01*
X-9356442Y-3924841D02*
X-9356442Y-3848651D01*
X-9356442Y-3848651D02*
X-9365966Y-3829603D01*
X-9365966Y-3829603D02*
X-9375490Y-3820079D01*
X-9375490Y-3820079D02*
X-9394537Y-3810556D01*
X-9394537Y-3810556D02*
X-9432633Y-3810556D01*
X-9432633Y-3810556D02*
X-9451680Y-3820079D01*
X-9451680Y-3820079D02*
X-9461204Y-3829603D01*
X-9461204Y-3829603D02*
X-9470728Y-3848651D01*
X-9470728Y-3848651D02*
X-9470728Y-3896270D01*
X-9470728Y-3896270D02*
X-9461204Y-3915317D01*
X-9461204Y-3915317D02*
X-9451680Y-3924841D01*
X-9451680Y-3924841D02*
X-9432633Y-3934365D01*
X-9432633Y-3934365D02*
X-9394537Y-3934365D01*
X-9394537Y-3934365D02*
X-9375490Y-3924841D01*
X-9375490Y-3924841D02*
X-9365966Y-3915317D01*
X-9365966Y-3915317D02*
X-9356442Y-3896270D01*
X-9280252Y-3810556D02*
X-9280252Y-3848651D01*
X-9204061Y-3810556D02*
X-9204061Y-3848651D01*
X-8908823Y-4086746D02*
X-8918347Y-4077222D01*
X-8918347Y-4077222D02*
X-8937394Y-4048651D01*
X-8937394Y-4048651D02*
X-8946918Y-4029603D01*
X-8946918Y-4029603D02*
X-8956442Y-4001032D01*
X-8956442Y-4001032D02*
X-8965966Y-3953413D01*
X-8965966Y-3953413D02*
X-8965966Y-3915317D01*
X-8965966Y-3915317D02*
X-8956442Y-3867698D01*
X-8956442Y-3867698D02*
X-8946918Y-3839127D01*
X-8946918Y-3839127D02*
X-8937394Y-3820079D01*
X-8937394Y-3820079D02*
X-8918347Y-3791508D01*
X-8918347Y-3791508D02*
X-8908823Y-3781984D01*
X-8851680Y-3810556D02*
X-8727871Y-3810556D01*
X-8727871Y-3810556D02*
X-8794537Y-3886746D01*
X-8794537Y-3886746D02*
X-8765966Y-3886746D01*
X-8765966Y-3886746D02*
X-8746918Y-3896270D01*
X-8746918Y-3896270D02*
X-8737394Y-3905794D01*
X-8737394Y-3905794D02*
X-8727871Y-3924841D01*
X-8727871Y-3924841D02*
X-8727871Y-3972460D01*
X-8727871Y-3972460D02*
X-8737394Y-3991508D01*
X-8737394Y-3991508D02*
X-8746918Y-4001032D01*
X-8746918Y-4001032D02*
X-8765966Y-4010556D01*
X-8765966Y-4010556D02*
X-8823109Y-4010556D01*
X-8823109Y-4010556D02*
X-8842156Y-4001032D01*
X-8842156Y-4001032D02*
X-8851680Y-3991508D01*
X-8556442Y-3877222D02*
X-8556442Y-4010556D01*
X-8604061Y-3801032D02*
X-8651680Y-3943889D01*
X-8651680Y-3943889D02*
X-8527871Y-3943889D01*
X-8299299Y-4010556D02*
X-8299299Y-3810556D01*
X-8213585Y-4010556D02*
X-8213585Y-3905794D01*
X-8213585Y-3905794D02*
X-8223108Y-3886746D01*
X-8223108Y-3886746D02*
X-8242156Y-3877222D01*
X-8242156Y-3877222D02*
X-8270728Y-3877222D01*
X-8270728Y-3877222D02*
X-8289775Y-3886746D01*
X-8289775Y-3886746D02*
X-8299299Y-3896270D01*
X-8089775Y-4010556D02*
X-8108823Y-4001032D01*
X-8108823Y-4001032D02*
X-8118347Y-3991508D01*
X-8118347Y-3991508D02*
X-8127870Y-3972460D01*
X-8127870Y-3972460D02*
X-8127870Y-3915317D01*
X-8127870Y-3915317D02*
X-8118347Y-3896270D01*
X-8118347Y-3896270D02*
X-8108823Y-3886746D01*
X-8108823Y-3886746D02*
X-8089775Y-3877222D01*
X-8089775Y-3877222D02*
X-8061204Y-3877222D01*
X-8061204Y-3877222D02*
X-8042156Y-3886746D01*
X-8042156Y-3886746D02*
X-8032632Y-3896270D01*
X-8032632Y-3896270D02*
X-8023108Y-3915317D01*
X-8023108Y-3915317D02*
X-8023108Y-3972460D01*
X-8023108Y-3972460D02*
X-8032632Y-3991508D01*
X-8032632Y-3991508D02*
X-8042156Y-4001032D01*
X-8042156Y-4001032D02*
X-8061204Y-4010556D01*
X-8061204Y-4010556D02*
X-8089775Y-4010556D01*
X-7908823Y-4010556D02*
X-7927870Y-4001032D01*
X-7927870Y-4001032D02*
X-7937394Y-3981984D01*
X-7937394Y-3981984D02*
X-7937394Y-3810556D01*
X-7756442Y-4001032D02*
X-7775489Y-4010556D01*
X-7775489Y-4010556D02*
X-7813585Y-4010556D01*
X-7813585Y-4010556D02*
X-7832632Y-4001032D01*
X-7832632Y-4001032D02*
X-7842156Y-3981984D01*
X-7842156Y-3981984D02*
X-7842156Y-3905794D01*
X-7842156Y-3905794D02*
X-7832632Y-3886746D01*
X-7832632Y-3886746D02*
X-7813585Y-3877222D01*
X-7813585Y-3877222D02*
X-7775489Y-3877222D01*
X-7775489Y-3877222D02*
X-7756442Y-3886746D01*
X-7756442Y-3886746D02*
X-7746918Y-3905794D01*
X-7746918Y-3905794D02*
X-7746918Y-3924841D01*
X-7746918Y-3924841D02*
X-7842156Y-3943889D01*
X-7670727Y-4001032D02*
X-7651680Y-4010556D01*
X-7651680Y-4010556D02*
X-7613585Y-4010556D01*
X-7613585Y-4010556D02*
X-7594537Y-4001032D01*
X-7594537Y-4001032D02*
X-7585013Y-3981984D01*
X-7585013Y-3981984D02*
X-7585013Y-3972460D01*
X-7585013Y-3972460D02*
X-7594537Y-3953413D01*
X-7594537Y-3953413D02*
X-7613585Y-3943889D01*
X-7613585Y-3943889D02*
X-7642156Y-3943889D01*
X-7642156Y-3943889D02*
X-7661204Y-3934365D01*
X-7661204Y-3934365D02*
X-7670727Y-3915317D01*
X-7670727Y-3915317D02*
X-7670727Y-3905794D01*
X-7670727Y-3905794D02*
X-7661204Y-3886746D01*
X-7661204Y-3886746D02*
X-7642156Y-3877222D01*
X-7642156Y-3877222D02*
X-7613585Y-3877222D01*
X-7613585Y-3877222D02*
X-7594537Y-3886746D01*
X-7518346Y-4086746D02*
X-7508823Y-4077222D01*
X-7508823Y-4077222D02*
X-7489775Y-4048651D01*
X-7489775Y-4048651D02*
X-7480251Y-4029603D01*
X-7480251Y-4029603D02*
X-7470727Y-4001032D01*
X-7470727Y-4001032D02*
X-7461204Y-3953413D01*
X-7461204Y-3953413D02*
X-7461204Y-3915317D01*
X-7461204Y-3915317D02*
X-7470727Y-3867698D01*
X-7470727Y-3867698D02*
X-7480251Y-3839127D01*
X-7480251Y-3839127D02*
X-7489775Y-3820079D01*
X-7489775Y-3820079D02*
X-7508823Y-3791508D01*
X-7508823Y-3791508D02*
X-7518346Y-3781984D01*
X-7156442Y-4086746D02*
X-7165966Y-4077222D01*
X-7165966Y-4077222D02*
X-7185013Y-4048651D01*
X-7185013Y-4048651D02*
X-7194537Y-4029603D01*
X-7194537Y-4029603D02*
X-7204061Y-4001032D01*
X-7204061Y-4001032D02*
X-7213585Y-3953413D01*
X-7213585Y-3953413D02*
X-7213585Y-3915317D01*
X-7213585Y-3915317D02*
X-7204061Y-3867698D01*
X-7204061Y-3867698D02*
X-7194537Y-3839127D01*
X-7194537Y-3839127D02*
X-7185013Y-3820079D01*
X-7185013Y-3820079D02*
X-7165966Y-3791508D01*
X-7165966Y-3791508D02*
X-7156442Y-3781984D01*
X-7080251Y-3877222D02*
X-7080251Y-4010556D01*
X-7080251Y-3896270D02*
X-7070727Y-3886746D01*
X-7070727Y-3886746D02*
X-7051680Y-3877222D01*
X-7051680Y-3877222D02*
X-7023108Y-3877222D01*
X-7023108Y-3877222D02*
X-7004061Y-3886746D01*
X-7004061Y-3886746D02*
X-6994537Y-3905794D01*
X-6994537Y-3905794D02*
X-6994537Y-4010556D01*
X-6870727Y-4010556D02*
X-6889775Y-4001032D01*
X-6889775Y-4001032D02*
X-6899299Y-3991508D01*
X-6899299Y-3991508D02*
X-6908823Y-3972460D01*
X-6908823Y-3972460D02*
X-6908823Y-3915317D01*
X-6908823Y-3915317D02*
X-6899299Y-3896270D01*
X-6899299Y-3896270D02*
X-6889775Y-3886746D01*
X-6889775Y-3886746D02*
X-6870727Y-3877222D01*
X-6870727Y-3877222D02*
X-6842156Y-3877222D01*
X-6842156Y-3877222D02*
X-6823108Y-3886746D01*
X-6823108Y-3886746D02*
X-6813585Y-3896270D01*
X-6813585Y-3896270D02*
X-6804061Y-3915317D01*
X-6804061Y-3915317D02*
X-6804061Y-3972460D01*
X-6804061Y-3972460D02*
X-6813585Y-3991508D01*
X-6813585Y-3991508D02*
X-6823108Y-4001032D01*
X-6823108Y-4001032D02*
X-6842156Y-4010556D01*
X-6842156Y-4010556D02*
X-6870727Y-4010556D01*
X-6746918Y-3877222D02*
X-6670727Y-3877222D01*
X-6718346Y-3810556D02*
X-6718346Y-3981984D01*
X-6718346Y-3981984D02*
X-6708823Y-4001032D01*
X-6708823Y-4001032D02*
X-6689775Y-4010556D01*
X-6689775Y-4010556D02*
X-6670727Y-4010556D01*
X-6451680Y-3877222D02*
X-6451680Y-4077222D01*
X-6451680Y-3886746D02*
X-6432632Y-3877222D01*
X-6432632Y-3877222D02*
X-6394537Y-3877222D01*
X-6394537Y-3877222D02*
X-6375489Y-3886746D01*
X-6375489Y-3886746D02*
X-6365965Y-3896270D01*
X-6365965Y-3896270D02*
X-6356442Y-3915317D01*
X-6356442Y-3915317D02*
X-6356442Y-3972460D01*
X-6356442Y-3972460D02*
X-6365965Y-3991508D01*
X-6365965Y-3991508D02*
X-6375489Y-4001032D01*
X-6375489Y-4001032D02*
X-6394537Y-4010556D01*
X-6394537Y-4010556D02*
X-6432632Y-4010556D01*
X-6432632Y-4010556D02*
X-6451680Y-4001032D01*
X-6242156Y-4010556D02*
X-6261204Y-4001032D01*
X-6261204Y-4001032D02*
X-6270727Y-3981984D01*
X-6270727Y-3981984D02*
X-6270727Y-3810556D01*
X-6080251Y-4010556D02*
X-6080251Y-3905794D01*
X-6080251Y-3905794D02*
X-6089775Y-3886746D01*
X-6089775Y-3886746D02*
X-6108823Y-3877222D01*
X-6108823Y-3877222D02*
X-6146918Y-3877222D01*
X-6146918Y-3877222D02*
X-6165965Y-3886746D01*
X-6080251Y-4001032D02*
X-6099299Y-4010556D01*
X-6099299Y-4010556D02*
X-6146918Y-4010556D01*
X-6146918Y-4010556D02*
X-6165965Y-4001032D01*
X-6165965Y-4001032D02*
X-6175489Y-3981984D01*
X-6175489Y-3981984D02*
X-6175489Y-3962936D01*
X-6175489Y-3962936D02*
X-6165965Y-3943889D01*
X-6165965Y-3943889D02*
X-6146918Y-3934365D01*
X-6146918Y-3934365D02*
X-6099299Y-3934365D01*
X-6099299Y-3934365D02*
X-6080251Y-3924841D01*
X-6013584Y-3877222D02*
X-5937394Y-3877222D01*
X-5985013Y-3810556D02*
X-5985013Y-3981984D01*
X-5985013Y-3981984D02*
X-5975489Y-4001032D01*
X-5975489Y-4001032D02*
X-5956442Y-4010556D01*
X-5956442Y-4010556D02*
X-5937394Y-4010556D01*
X-5794537Y-4001032D02*
X-5813584Y-4010556D01*
X-5813584Y-4010556D02*
X-5851680Y-4010556D01*
X-5851680Y-4010556D02*
X-5870727Y-4001032D01*
X-5870727Y-4001032D02*
X-5880251Y-3981984D01*
X-5880251Y-3981984D02*
X-5880251Y-3905794D01*
X-5880251Y-3905794D02*
X-5870727Y-3886746D01*
X-5870727Y-3886746D02*
X-5851680Y-3877222D01*
X-5851680Y-3877222D02*
X-5813584Y-3877222D01*
X-5813584Y-3877222D02*
X-5794537Y-3886746D01*
X-5794537Y-3886746D02*
X-5785013Y-3905794D01*
X-5785013Y-3905794D02*
X-5785013Y-3924841D01*
X-5785013Y-3924841D02*
X-5880251Y-3943889D01*
X-5613584Y-4010556D02*
X-5613584Y-3810556D01*
X-5613584Y-4001032D02*
X-5632632Y-4010556D01*
X-5632632Y-4010556D02*
X-5670727Y-4010556D01*
X-5670727Y-4010556D02*
X-5689775Y-4001032D01*
X-5689775Y-4001032D02*
X-5699299Y-3991508D01*
X-5699299Y-3991508D02*
X-5708823Y-3972460D01*
X-5708823Y-3972460D02*
X-5708823Y-3915317D01*
X-5708823Y-3915317D02*
X-5699299Y-3896270D01*
X-5699299Y-3896270D02*
X-5689775Y-3886746D01*
X-5689775Y-3886746D02*
X-5670727Y-3877222D01*
X-5670727Y-3877222D02*
X-5632632Y-3877222D01*
X-5632632Y-3877222D02*
X-5613584Y-3886746D01*
X-5537394Y-4086746D02*
X-5527870Y-4077222D01*
X-5527870Y-4077222D02*
X-5508823Y-4048651D01*
X-5508823Y-4048651D02*
X-5499299Y-4029603D01*
X-5499299Y-4029603D02*
X-5489775Y-4001032D01*
X-5489775Y-4001032D02*
X-5480251Y-3953413D01*
X-5480251Y-3953413D02*
X-5480251Y-3915317D01*
X-5480251Y-3915317D02*
X-5489775Y-3867698D01*
X-5489775Y-3867698D02*
X-5499299Y-3839127D01*
X-5499299Y-3839127D02*
X-5508823Y-3820079D01*
X-5508823Y-3820079D02*
X-5527870Y-3791508D01*
X-5527870Y-3791508D02*
X-5537394Y-3781984D01*
X-12583886Y-4339072D02*
X-12483886Y-4239072D01*
X-12583886Y-4139072D01*
X-12683886Y-4239072D01*
X-12583886Y-4339072D01*
X-12242156Y-4130556D02*
X-12108823Y-4130556D01*
X-12108823Y-4130556D02*
X-12194537Y-4330556D01*
X-12032633Y-4311508D02*
X-12023109Y-4321032D01*
X-12023109Y-4321032D02*
X-12032633Y-4330556D01*
X-12032633Y-4330556D02*
X-12042156Y-4321032D01*
X-12042156Y-4321032D02*
X-12032633Y-4311508D01*
X-12032633Y-4311508D02*
X-12032633Y-4330556D01*
X-11899299Y-4130556D02*
X-11880252Y-4130556D01*
X-11880252Y-4130556D02*
X-11861204Y-4140079D01*
X-11861204Y-4140079D02*
X-11851680Y-4149603D01*
X-11851680Y-4149603D02*
X-11842156Y-4168651D01*
X-11842156Y-4168651D02*
X-11832633Y-4206746D01*
X-11832633Y-4206746D02*
X-11832633Y-4254365D01*
X-11832633Y-4254365D02*
X-11842156Y-4292460D01*
X-11842156Y-4292460D02*
X-11851680Y-4311508D01*
X-11851680Y-4311508D02*
X-11861204Y-4321032D01*
X-11861204Y-4321032D02*
X-11880252Y-4330556D01*
X-11880252Y-4330556D02*
X-11899299Y-4330556D01*
X-11899299Y-4330556D02*
X-11918347Y-4321032D01*
X-11918347Y-4321032D02*
X-11927871Y-4311508D01*
X-11927871Y-4311508D02*
X-11937395Y-4292460D01*
X-11937395Y-4292460D02*
X-11946918Y-4254365D01*
X-11946918Y-4254365D02*
X-11946918Y-4206746D01*
X-11946918Y-4206746D02*
X-11937395Y-4168651D01*
X-11937395Y-4168651D02*
X-11927871Y-4149603D01*
X-11927871Y-4149603D02*
X-11918347Y-4140079D01*
X-11918347Y-4140079D02*
X-11899299Y-4130556D01*
X-11708823Y-4130556D02*
X-11689775Y-4130556D01*
X-11689775Y-4130556D02*
X-11670728Y-4140079D01*
X-11670728Y-4140079D02*
X-11661204Y-4149603D01*
X-11661204Y-4149603D02*
X-11651680Y-4168651D01*
X-11651680Y-4168651D02*
X-11642156Y-4206746D01*
X-11642156Y-4206746D02*
X-11642156Y-4254365D01*
X-11642156Y-4254365D02*
X-11651680Y-4292460D01*
X-11651680Y-4292460D02*
X-11661204Y-4311508D01*
X-11661204Y-4311508D02*
X-11670728Y-4321032D01*
X-11670728Y-4321032D02*
X-11689775Y-4330556D01*
X-11689775Y-4330556D02*
X-11708823Y-4330556D01*
X-11708823Y-4330556D02*
X-11727871Y-4321032D01*
X-11727871Y-4321032D02*
X-11737395Y-4311508D01*
X-11737395Y-4311508D02*
X-11746918Y-4292460D01*
X-11746918Y-4292460D02*
X-11756442Y-4254365D01*
X-11756442Y-4254365D02*
X-11756442Y-4206746D01*
X-11756442Y-4206746D02*
X-11746918Y-4168651D01*
X-11746918Y-4168651D02*
X-11737395Y-4149603D01*
X-11737395Y-4149603D02*
X-11727871Y-4140079D01*
X-11727871Y-4140079D02*
X-11708823Y-4130556D01*
X-11518347Y-4130556D02*
X-11499299Y-4130556D01*
X-11499299Y-4130556D02*
X-11480252Y-4140079D01*
X-11480252Y-4140079D02*
X-11470728Y-4149603D01*
X-11470728Y-4149603D02*
X-11461204Y-4168651D01*
X-11461204Y-4168651D02*
X-11451680Y-4206746D01*
X-11451680Y-4206746D02*
X-11451680Y-4254365D01*
X-11451680Y-4254365D02*
X-11461204Y-4292460D01*
X-11461204Y-4292460D02*
X-11470728Y-4311508D01*
X-11470728Y-4311508D02*
X-11480252Y-4321032D01*
X-11480252Y-4321032D02*
X-11499299Y-4330556D01*
X-11499299Y-4330556D02*
X-11518347Y-4330556D01*
X-11518347Y-4330556D02*
X-11537395Y-4321032D01*
X-11537395Y-4321032D02*
X-11546918Y-4311508D01*
X-11546918Y-4311508D02*
X-11556442Y-4292460D01*
X-11556442Y-4292460D02*
X-11565966Y-4254365D01*
X-11565966Y-4254365D02*
X-11565966Y-4206746D01*
X-11565966Y-4206746D02*
X-11556442Y-4168651D01*
X-11556442Y-4168651D02*
X-11546918Y-4149603D01*
X-11546918Y-4149603D02*
X-11537395Y-4140079D01*
X-11537395Y-4140079D02*
X-11518347Y-4130556D01*
X-11365966Y-4330556D02*
X-11365966Y-4197222D01*
X-11365966Y-4216270D02*
X-11356442Y-4206746D01*
X-11356442Y-4206746D02*
X-11337395Y-4197222D01*
X-11337395Y-4197222D02*
X-11308823Y-4197222D01*
X-11308823Y-4197222D02*
X-11289775Y-4206746D01*
X-11289775Y-4206746D02*
X-11280252Y-4225794D01*
X-11280252Y-4225794D02*
X-11280252Y-4330556D01*
X-11280252Y-4225794D02*
X-11270728Y-4206746D01*
X-11270728Y-4206746D02*
X-11251680Y-4197222D01*
X-11251680Y-4197222D02*
X-11223109Y-4197222D01*
X-11223109Y-4197222D02*
X-11204061Y-4206746D01*
X-11204061Y-4206746D02*
X-11194537Y-4225794D01*
X-11194537Y-4225794D02*
X-11194537Y-4330556D01*
X-11099299Y-4330556D02*
X-11099299Y-4197222D01*
X-11099299Y-4216270D02*
X-11089776Y-4206746D01*
X-11089776Y-4206746D02*
X-11070728Y-4197222D01*
X-11070728Y-4197222D02*
X-11042156Y-4197222D01*
X-11042156Y-4197222D02*
X-11023109Y-4206746D01*
X-11023109Y-4206746D02*
X-11013585Y-4225794D01*
X-11013585Y-4225794D02*
X-11013585Y-4330556D01*
X-11013585Y-4225794D02*
X-11004061Y-4206746D01*
X-11004061Y-4206746D02*
X-10985014Y-4197222D01*
X-10985014Y-4197222D02*
X-10956442Y-4197222D01*
X-10956442Y-4197222D02*
X-10937395Y-4206746D01*
X-10937395Y-4206746D02*
X-10927871Y-4225794D01*
X-10927871Y-4225794D02*
X-10927871Y-4330556D01*
X-10537395Y-4121032D02*
X-10708823Y-4378175D01*
X-10280252Y-4130556D02*
X-10261204Y-4130556D01*
X-10261204Y-4130556D02*
X-10242156Y-4140079D01*
X-10242156Y-4140079D02*
X-10232633Y-4149603D01*
X-10232633Y-4149603D02*
X-10223109Y-4168651D01*
X-10223109Y-4168651D02*
X-10213585Y-4206746D01*
X-10213585Y-4206746D02*
X-10213585Y-4254365D01*
X-10213585Y-4254365D02*
X-10223109Y-4292460D01*
X-10223109Y-4292460D02*
X-10232633Y-4311508D01*
X-10232633Y-4311508D02*
X-10242156Y-4321032D01*
X-10242156Y-4321032D02*
X-10261204Y-4330556D01*
X-10261204Y-4330556D02*
X-10280252Y-4330556D01*
X-10280252Y-4330556D02*
X-10299299Y-4321032D01*
X-10299299Y-4321032D02*
X-10308823Y-4311508D01*
X-10308823Y-4311508D02*
X-10318347Y-4292460D01*
X-10318347Y-4292460D02*
X-10327871Y-4254365D01*
X-10327871Y-4254365D02*
X-10327871Y-4206746D01*
X-10327871Y-4206746D02*
X-10318347Y-4168651D01*
X-10318347Y-4168651D02*
X-10308823Y-4149603D01*
X-10308823Y-4149603D02*
X-10299299Y-4140079D01*
X-10299299Y-4140079D02*
X-10280252Y-4130556D01*
X-10127871Y-4311508D02*
X-10118347Y-4321032D01*
X-10118347Y-4321032D02*
X-10127871Y-4330556D01*
X-10127871Y-4330556D02*
X-10137394Y-4321032D01*
X-10137394Y-4321032D02*
X-10127871Y-4311508D01*
X-10127871Y-4311508D02*
X-10127871Y-4330556D01*
X-10042156Y-4149603D02*
X-10032633Y-4140079D01*
X-10032633Y-4140079D02*
X-10013585Y-4130556D01*
X-10013585Y-4130556D02*
X-9965966Y-4130556D01*
X-9965966Y-4130556D02*
X-9946918Y-4140079D01*
X-9946918Y-4140079D02*
X-9937394Y-4149603D01*
X-9937394Y-4149603D02*
X-9927871Y-4168651D01*
X-9927871Y-4168651D02*
X-9927871Y-4187698D01*
X-9927871Y-4187698D02*
X-9937394Y-4216270D01*
X-9937394Y-4216270D02*
X-10051680Y-4330556D01*
X-10051680Y-4330556D02*
X-9927871Y-4330556D01*
X-9861204Y-4130556D02*
X-9727871Y-4130556D01*
X-9727871Y-4130556D02*
X-9813585Y-4330556D01*
X-9556442Y-4130556D02*
X-9651680Y-4130556D01*
X-9651680Y-4130556D02*
X-9661204Y-4225794D01*
X-9661204Y-4225794D02*
X-9651680Y-4216270D01*
X-9651680Y-4216270D02*
X-9632633Y-4206746D01*
X-9632633Y-4206746D02*
X-9585013Y-4206746D01*
X-9585013Y-4206746D02*
X-9565966Y-4216270D01*
X-9565966Y-4216270D02*
X-9556442Y-4225794D01*
X-9556442Y-4225794D02*
X-9546918Y-4244841D01*
X-9546918Y-4244841D02*
X-9546918Y-4292460D01*
X-9546918Y-4292460D02*
X-9556442Y-4311508D01*
X-9556442Y-4311508D02*
X-9565966Y-4321032D01*
X-9565966Y-4321032D02*
X-9585013Y-4330556D01*
X-9585013Y-4330556D02*
X-9632633Y-4330556D01*
X-9632633Y-4330556D02*
X-9651680Y-4321032D01*
X-9651680Y-4321032D02*
X-9661204Y-4311508D01*
X-9375490Y-4130556D02*
X-9413585Y-4130556D01*
X-9413585Y-4130556D02*
X-9432633Y-4140079D01*
X-9432633Y-4140079D02*
X-9442156Y-4149603D01*
X-9442156Y-4149603D02*
X-9461204Y-4178175D01*
X-9461204Y-4178175D02*
X-9470728Y-4216270D01*
X-9470728Y-4216270D02*
X-9470728Y-4292460D01*
X-9470728Y-4292460D02*
X-9461204Y-4311508D01*
X-9461204Y-4311508D02*
X-9451680Y-4321032D01*
X-9451680Y-4321032D02*
X-9432633Y-4330556D01*
X-9432633Y-4330556D02*
X-9394537Y-4330556D01*
X-9394537Y-4330556D02*
X-9375490Y-4321032D01*
X-9375490Y-4321032D02*
X-9365966Y-4311508D01*
X-9365966Y-4311508D02*
X-9356442Y-4292460D01*
X-9356442Y-4292460D02*
X-9356442Y-4244841D01*
X-9356442Y-4244841D02*
X-9365966Y-4225794D01*
X-9365966Y-4225794D02*
X-9375490Y-4216270D01*
X-9375490Y-4216270D02*
X-9394537Y-4206746D01*
X-9394537Y-4206746D02*
X-9432633Y-4206746D01*
X-9432633Y-4206746D02*
X-9451680Y-4216270D01*
X-9451680Y-4216270D02*
X-9461204Y-4225794D01*
X-9461204Y-4225794D02*
X-9470728Y-4244841D01*
X-9280252Y-4130556D02*
X-9280252Y-4168651D01*
X-9204061Y-4130556D02*
X-9204061Y-4168651D01*
X-8908823Y-4406746D02*
X-8918347Y-4397222D01*
X-8918347Y-4397222D02*
X-8937394Y-4368651D01*
X-8937394Y-4368651D02*
X-8946918Y-4349603D01*
X-8946918Y-4349603D02*
X-8956442Y-4321032D01*
X-8956442Y-4321032D02*
X-8965966Y-4273413D01*
X-8965966Y-4273413D02*
X-8965966Y-4235318D01*
X-8965966Y-4235318D02*
X-8956442Y-4187698D01*
X-8956442Y-4187698D02*
X-8946918Y-4159127D01*
X-8946918Y-4159127D02*
X-8937394Y-4140079D01*
X-8937394Y-4140079D02*
X-8918347Y-4111508D01*
X-8918347Y-4111508D02*
X-8908823Y-4101984D01*
X-8851680Y-4130556D02*
X-8718347Y-4130556D01*
X-8718347Y-4130556D02*
X-8804061Y-4330556D01*
X-8489775Y-4330556D02*
X-8489775Y-4130556D01*
X-8404061Y-4330556D02*
X-8404061Y-4225794D01*
X-8404061Y-4225794D02*
X-8413585Y-4206746D01*
X-8413585Y-4206746D02*
X-8432632Y-4197222D01*
X-8432632Y-4197222D02*
X-8461204Y-4197222D01*
X-8461204Y-4197222D02*
X-8480251Y-4206746D01*
X-8480251Y-4206746D02*
X-8489775Y-4216270D01*
X-8280251Y-4330556D02*
X-8299299Y-4321032D01*
X-8299299Y-4321032D02*
X-8308823Y-4311508D01*
X-8308823Y-4311508D02*
X-8318347Y-4292460D01*
X-8318347Y-4292460D02*
X-8318347Y-4235318D01*
X-8318347Y-4235318D02*
X-8308823Y-4216270D01*
X-8308823Y-4216270D02*
X-8299299Y-4206746D01*
X-8299299Y-4206746D02*
X-8280251Y-4197222D01*
X-8280251Y-4197222D02*
X-8251680Y-4197222D01*
X-8251680Y-4197222D02*
X-8232632Y-4206746D01*
X-8232632Y-4206746D02*
X-8223108Y-4216270D01*
X-8223108Y-4216270D02*
X-8213585Y-4235318D01*
X-8213585Y-4235318D02*
X-8213585Y-4292460D01*
X-8213585Y-4292460D02*
X-8223108Y-4311508D01*
X-8223108Y-4311508D02*
X-8232632Y-4321032D01*
X-8232632Y-4321032D02*
X-8251680Y-4330556D01*
X-8251680Y-4330556D02*
X-8280251Y-4330556D01*
X-8099299Y-4330556D02*
X-8118347Y-4321032D01*
X-8118347Y-4321032D02*
X-8127870Y-4301984D01*
X-8127870Y-4301984D02*
X-8127870Y-4130556D01*
X-7946918Y-4321032D02*
X-7965966Y-4330556D01*
X-7965966Y-4330556D02*
X-8004061Y-4330556D01*
X-8004061Y-4330556D02*
X-8023108Y-4321032D01*
X-8023108Y-4321032D02*
X-8032632Y-4301984D01*
X-8032632Y-4301984D02*
X-8032632Y-4225794D01*
X-8032632Y-4225794D02*
X-8023108Y-4206746D01*
X-8023108Y-4206746D02*
X-8004061Y-4197222D01*
X-8004061Y-4197222D02*
X-7965966Y-4197222D01*
X-7965966Y-4197222D02*
X-7946918Y-4206746D01*
X-7946918Y-4206746D02*
X-7937394Y-4225794D01*
X-7937394Y-4225794D02*
X-7937394Y-4244841D01*
X-7937394Y-4244841D02*
X-8032632Y-4263889D01*
X-7861204Y-4321032D02*
X-7842156Y-4330556D01*
X-7842156Y-4330556D02*
X-7804061Y-4330556D01*
X-7804061Y-4330556D02*
X-7785013Y-4321032D01*
X-7785013Y-4321032D02*
X-7775489Y-4301984D01*
X-7775489Y-4301984D02*
X-7775489Y-4292460D01*
X-7775489Y-4292460D02*
X-7785013Y-4273413D01*
X-7785013Y-4273413D02*
X-7804061Y-4263889D01*
X-7804061Y-4263889D02*
X-7832632Y-4263889D01*
X-7832632Y-4263889D02*
X-7851680Y-4254365D01*
X-7851680Y-4254365D02*
X-7861204Y-4235318D01*
X-7861204Y-4235318D02*
X-7861204Y-4225794D01*
X-7861204Y-4225794D02*
X-7851680Y-4206746D01*
X-7851680Y-4206746D02*
X-7832632Y-4197222D01*
X-7832632Y-4197222D02*
X-7804061Y-4197222D01*
X-7804061Y-4197222D02*
X-7785013Y-4206746D01*
X-7708823Y-4406746D02*
X-7699299Y-4397222D01*
X-7699299Y-4397222D02*
X-7680251Y-4368651D01*
X-7680251Y-4368651D02*
X-7670727Y-4349603D01*
X-7670727Y-4349603D02*
X-7661204Y-4321032D01*
X-7661204Y-4321032D02*
X-7651680Y-4273413D01*
X-7651680Y-4273413D02*
X-7651680Y-4235318D01*
X-7651680Y-4235318D02*
X-7661204Y-4187698D01*
X-7661204Y-4187698D02*
X-7670727Y-4159127D01*
X-7670727Y-4159127D02*
X-7680251Y-4140079D01*
X-7680251Y-4140079D02*
X-7699299Y-4111508D01*
X-7699299Y-4111508D02*
X-7708823Y-4101984D01*
X-7346918Y-4406746D02*
X-7356442Y-4397222D01*
X-7356442Y-4397222D02*
X-7375489Y-4368651D01*
X-7375489Y-4368651D02*
X-7385013Y-4349603D01*
X-7385013Y-4349603D02*
X-7394537Y-4321032D01*
X-7394537Y-4321032D02*
X-7404061Y-4273413D01*
X-7404061Y-4273413D02*
X-7404061Y-4235318D01*
X-7404061Y-4235318D02*
X-7394537Y-4187698D01*
X-7394537Y-4187698D02*
X-7385013Y-4159127D01*
X-7385013Y-4159127D02*
X-7375489Y-4140079D01*
X-7375489Y-4140079D02*
X-7356442Y-4111508D01*
X-7356442Y-4111508D02*
X-7346918Y-4101984D01*
X-7270727Y-4197222D02*
X-7270727Y-4330556D01*
X-7270727Y-4216270D02*
X-7261204Y-4206746D01*
X-7261204Y-4206746D02*
X-7242156Y-4197222D01*
X-7242156Y-4197222D02*
X-7213585Y-4197222D01*
X-7213585Y-4197222D02*
X-7194537Y-4206746D01*
X-7194537Y-4206746D02*
X-7185013Y-4225794D01*
X-7185013Y-4225794D02*
X-7185013Y-4330556D01*
X-7061204Y-4330556D02*
X-7080251Y-4321032D01*
X-7080251Y-4321032D02*
X-7089775Y-4311508D01*
X-7089775Y-4311508D02*
X-7099299Y-4292460D01*
X-7099299Y-4292460D02*
X-7099299Y-4235318D01*
X-7099299Y-4235318D02*
X-7089775Y-4216270D01*
X-7089775Y-4216270D02*
X-7080251Y-4206746D01*
X-7080251Y-4206746D02*
X-7061204Y-4197222D01*
X-7061204Y-4197222D02*
X-7032632Y-4197222D01*
X-7032632Y-4197222D02*
X-7013585Y-4206746D01*
X-7013585Y-4206746D02*
X-7004061Y-4216270D01*
X-7004061Y-4216270D02*
X-6994537Y-4235318D01*
X-6994537Y-4235318D02*
X-6994537Y-4292460D01*
X-6994537Y-4292460D02*
X-7004061Y-4311508D01*
X-7004061Y-4311508D02*
X-7013585Y-4321032D01*
X-7013585Y-4321032D02*
X-7032632Y-4330556D01*
X-7032632Y-4330556D02*
X-7061204Y-4330556D01*
X-6937394Y-4197222D02*
X-6861204Y-4197222D01*
X-6908823Y-4130556D02*
X-6908823Y-4301984D01*
X-6908823Y-4301984D02*
X-6899299Y-4321032D01*
X-6899299Y-4321032D02*
X-6880251Y-4330556D01*
X-6880251Y-4330556D02*
X-6861204Y-4330556D01*
X-6642156Y-4197222D02*
X-6642156Y-4397222D01*
X-6642156Y-4206746D02*
X-6623108Y-4197222D01*
X-6623108Y-4197222D02*
X-6585013Y-4197222D01*
X-6585013Y-4197222D02*
X-6565965Y-4206746D01*
X-6565965Y-4206746D02*
X-6556442Y-4216270D01*
X-6556442Y-4216270D02*
X-6546918Y-4235318D01*
X-6546918Y-4235318D02*
X-6546918Y-4292460D01*
X-6546918Y-4292460D02*
X-6556442Y-4311508D01*
X-6556442Y-4311508D02*
X-6565965Y-4321032D01*
X-6565965Y-4321032D02*
X-6585013Y-4330556D01*
X-6585013Y-4330556D02*
X-6623108Y-4330556D01*
X-6623108Y-4330556D02*
X-6642156Y-4321032D01*
X-6432632Y-4330556D02*
X-6451680Y-4321032D01*
X-6451680Y-4321032D02*
X-6461204Y-4301984D01*
X-6461204Y-4301984D02*
X-6461204Y-4130556D01*
X-6270727Y-4330556D02*
X-6270727Y-4225794D01*
X-6270727Y-4225794D02*
X-6280251Y-4206746D01*
X-6280251Y-4206746D02*
X-6299299Y-4197222D01*
X-6299299Y-4197222D02*
X-6337394Y-4197222D01*
X-6337394Y-4197222D02*
X-6356442Y-4206746D01*
X-6270727Y-4321032D02*
X-6289775Y-4330556D01*
X-6289775Y-4330556D02*
X-6337394Y-4330556D01*
X-6337394Y-4330556D02*
X-6356442Y-4321032D01*
X-6356442Y-4321032D02*
X-6365965Y-4301984D01*
X-6365965Y-4301984D02*
X-6365965Y-4282937D01*
X-6365965Y-4282937D02*
X-6356442Y-4263889D01*
X-6356442Y-4263889D02*
X-6337394Y-4254365D01*
X-6337394Y-4254365D02*
X-6289775Y-4254365D01*
X-6289775Y-4254365D02*
X-6270727Y-4244841D01*
X-6204061Y-4197222D02*
X-6127870Y-4197222D01*
X-6175489Y-4130556D02*
X-6175489Y-4301984D01*
X-6175489Y-4301984D02*
X-6165965Y-4321032D01*
X-6165965Y-4321032D02*
X-6146918Y-4330556D01*
X-6146918Y-4330556D02*
X-6127870Y-4330556D01*
X-5985013Y-4321032D02*
X-6004061Y-4330556D01*
X-6004061Y-4330556D02*
X-6042156Y-4330556D01*
X-6042156Y-4330556D02*
X-6061204Y-4321032D01*
X-6061204Y-4321032D02*
X-6070727Y-4301984D01*
X-6070727Y-4301984D02*
X-6070727Y-4225794D01*
X-6070727Y-4225794D02*
X-6061204Y-4206746D01*
X-6061204Y-4206746D02*
X-6042156Y-4197222D01*
X-6042156Y-4197222D02*
X-6004061Y-4197222D01*
X-6004061Y-4197222D02*
X-5985013Y-4206746D01*
X-5985013Y-4206746D02*
X-5975489Y-4225794D01*
X-5975489Y-4225794D02*
X-5975489Y-4244841D01*
X-5975489Y-4244841D02*
X-6070727Y-4263889D01*
X-5804061Y-4330556D02*
X-5804061Y-4130556D01*
X-5804061Y-4321032D02*
X-5823108Y-4330556D01*
X-5823108Y-4330556D02*
X-5861204Y-4330556D01*
X-5861204Y-4330556D02*
X-5880251Y-4321032D01*
X-5880251Y-4321032D02*
X-5889775Y-4311508D01*
X-5889775Y-4311508D02*
X-5899299Y-4292460D01*
X-5899299Y-4292460D02*
X-5899299Y-4235318D01*
X-5899299Y-4235318D02*
X-5889775Y-4216270D01*
X-5889775Y-4216270D02*
X-5880251Y-4206746D01*
X-5880251Y-4206746D02*
X-5861204Y-4197222D01*
X-5861204Y-4197222D02*
X-5823108Y-4197222D01*
X-5823108Y-4197222D02*
X-5804061Y-4206746D01*
X-5727870Y-4406746D02*
X-5718346Y-4397222D01*
X-5718346Y-4397222D02*
X-5699299Y-4368651D01*
X-5699299Y-4368651D02*
X-5689775Y-4349603D01*
X-5689775Y-4349603D02*
X-5680251Y-4321032D01*
X-5680251Y-4321032D02*
X-5670727Y-4273413D01*
X-5670727Y-4273413D02*
X-5670727Y-4235318D01*
X-5670727Y-4235318D02*
X-5680251Y-4187698D01*
X-5680251Y-4187698D02*
X-5689775Y-4159127D01*
X-5689775Y-4159127D02*
X-5699299Y-4140079D01*
X-5699299Y-4140079D02*
X-5718346Y-4111508D01*
X-5718346Y-4111508D02*
X-5727870Y-4101984D01*
M02*
