G04 #@! TF.GenerationSoftware,KiCad,Pcbnew,9.0.7+1*
G04 #@! TF.CreationDate,2026-07-10T15:23:58+00:00*
G04 #@! TF.ProjectId,limbatus_autorouted,6c696d62-6174-4757-935f-6175746f726f,v1.0.0*
G04 #@! TF.SameCoordinates,Original*
G04 #@! TF.FileFunction,Soldermask,Top*
G04 #@! TF.FilePolarity,Negative*
%FSLAX46Y46*%
G04 Gerber Fmt 4.6, Leading zero omitted, Abs format (unit mm)*
G04 Created by KiCad (PCBNEW 9.0.7+1) date 2026-07-10 15:23:58*
%MOMM*%
%LPD*%
G01*
G04 APERTURE LIST*
%ADD10C,7.100000*%
%ADD11C,1.000000*%
%ADD12O,1.900000X2.850000*%
%ADD13C,1.497000*%
%ADD14C,2.000000*%
%ADD15C,3.100000*%
%ADD16C,3.500000*%
G04 APERTURE END LIST*
G36*
G01*
X-37000000Y72311700D02*
X-40000000Y72311700D01*
G75*
G02*
X-40050000Y72361700I0J50000D01*
G01*
X-40050000Y74861700D01*
G75*
G02*
X-40000000Y74911700I50000J0D01*
G01*
X-37000000Y74911700D01*
G75*
G02*
X-36950000Y74861700I0J-50000D01*
G01*
X-36950000Y72361700D01*
G75*
G02*
X-37000000Y72311700I-50000J0D01*
G01*
G37*
G36*
G01*
X-37000000Y75811700D02*
X-40000000Y75811700D01*
G75*
G02*
X-40050000Y75861700I0J50000D01*
G01*
X-40050000Y78361700D01*
G75*
G02*
X-40000000Y78411700I50000J0D01*
G01*
X-37000000Y78411700D01*
G75*
G02*
X-36950000Y78361700I0J-50000D01*
G01*
X-36950000Y75861700D01*
G75*
G02*
X-37000000Y75811700I-50000J0D01*
G01*
G37*
G36*
G01*
X-48667182Y-6015247D02*
X-48296361Y-4873979D01*
G75*
G02*
X-48233357Y-4841877I47553J-15451D01*
G01*
X-47377406Y-5119993D01*
G75*
G02*
X-47345304Y-5182997I-15451J-47553D01*
G01*
X-47716125Y-6324265D01*
G75*
G02*
X-47779129Y-6356367I-47553J15451D01*
G01*
X-48635080Y-6078251D01*
G75*
G02*
X-48667182Y-6015247I15451J47553D01*
G01*
G37*
G36*
G01*
X-45528696Y-7035003D02*
X-45157875Y-5893735D01*
G75*
G02*
X-45094871Y-5861633I47553J-15451D01*
G01*
X-44238920Y-6139749D01*
G75*
G02*
X-44206818Y-6202753I-15451J-47553D01*
G01*
X-44577639Y-7344021D01*
G75*
G02*
X-44640643Y-7376123I-47553J15451D01*
G01*
X-45496594Y-7098007D01*
G75*
G02*
X-45528696Y-7035003I15451J47553D01*
G01*
G37*
G36*
G01*
X20258239Y38378779D02*
X19887418Y39520047D01*
G75*
G02*
X19919520Y39583051I47553J15451D01*
G01*
X20775471Y39861167D01*
G75*
G02*
X20838475Y39829065I15451J-47553D01*
G01*
X21209296Y38687797D01*
G75*
G02*
X21177194Y38624793I-47553J-15451D01*
G01*
X20321243Y38346677D01*
G75*
G02*
X20258239Y38378779I-15451J47553D01*
G01*
G37*
G36*
G01*
X23396725Y39398535D02*
X23025904Y40539803D01*
G75*
G02*
X23058006Y40602807I47553J15451D01*
G01*
X23913957Y40880923D01*
G75*
G02*
X23976961Y40848821I15451J-47553D01*
G01*
X24347782Y39707553D01*
G75*
G02*
X24315680Y39644549I-47553J-15451D01*
G01*
X23459729Y39366433D01*
G75*
G02*
X23396725Y39398535I-15451J47553D01*
G01*
G37*
G36*
G01*
X-29601082Y23539553D02*
X-29230261Y24680821D01*
G75*
G02*
X-29167257Y24712923I47553J-15451D01*
G01*
X-28311306Y24434807D01*
G75*
G02*
X-28279204Y24371803I-15451J-47553D01*
G01*
X-28650025Y23230535D01*
G75*
G02*
X-28713029Y23198433I-47553J15451D01*
G01*
X-29568980Y23476549D01*
G75*
G02*
X-29601082Y23539553I15451J47553D01*
G01*
G37*
G36*
G01*
X-26462596Y22519797D02*
X-26091775Y23661065D01*
G75*
G02*
X-26028771Y23693167I47553J-15451D01*
G01*
X-25172820Y23415051D01*
G75*
G02*
X-25140718Y23352047I-15451J-47553D01*
G01*
X-25511539Y22210779D01*
G75*
G02*
X-25574543Y22178677I-47553J15451D01*
G01*
X-26430494Y22456793D01*
G75*
G02*
X-26462596Y22519797I15451J47553D01*
G01*
G37*
G36*
G01*
X-34854382Y7371653D02*
X-34483561Y8512921D01*
G75*
G02*
X-34420557Y8545023I47553J-15451D01*
G01*
X-33564606Y8266907D01*
G75*
G02*
X-33532504Y8203903I-15451J-47553D01*
G01*
X-33903325Y7062635D01*
G75*
G02*
X-33966329Y7030533I-47553J15451D01*
G01*
X-34822280Y7308649D01*
G75*
G02*
X-34854382Y7371653I15451J47553D01*
G01*
G37*
G36*
G01*
X-31715896Y6351897D02*
X-31345075Y7493165D01*
G75*
G02*
X-31282071Y7525267I47553J-15451D01*
G01*
X-30426120Y7247151D01*
G75*
G02*
X-30394018Y7184147I-15451J-47553D01*
G01*
X-30764839Y6042879D01*
G75*
G02*
X-30827843Y6010777I-47553J15451D01*
G01*
X-31683794Y6288893D01*
G75*
G02*
X-31715896Y6351897I15451J47553D01*
G01*
G37*
G36*
G01*
X52024139Y57111779D02*
X51653318Y58253047D01*
G75*
G02*
X51685420Y58316051I47553J15451D01*
G01*
X52541371Y58594167D01*
G75*
G02*
X52604375Y58562065I15451J-47553D01*
G01*
X52975196Y57420797D01*
G75*
G02*
X52943094Y57357793I-47553J-15451D01*
G01*
X52087143Y57079677D01*
G75*
G02*
X52024139Y57111779I-15451J47553D01*
G01*
G37*
G36*
G01*
X55162625Y58131535D02*
X54791804Y59272803D01*
G75*
G02*
X54823906Y59335807I47553J15451D01*
G01*
X55679857Y59613923D01*
G75*
G02*
X55742861Y59581821I15451J-47553D01*
G01*
X56113682Y58440553D01*
G75*
G02*
X56081580Y58377549I-47553J-15451D01*
G01*
X55225629Y58099433D01*
G75*
G02*
X55162625Y58131535I-15451J47553D01*
G01*
G37*
D10*
X117000000Y25000000D03*
G36*
G01*
X-31548182Y-11577547D02*
X-31177361Y-10436279D01*
G75*
G02*
X-31114357Y-10404177I47553J-15451D01*
G01*
X-30258406Y-10682293D01*
G75*
G02*
X-30226304Y-10745297I-15451J-47553D01*
G01*
X-30597125Y-11886565D01*
G75*
G02*
X-30660129Y-11918667I-47553J15451D01*
G01*
X-31516080Y-11640551D01*
G75*
G02*
X-31548182Y-11577547I15451J47553D01*
G01*
G37*
G36*
G01*
X-28409696Y-12597303D02*
X-28038875Y-11456035D01*
G75*
G02*
X-27975871Y-11423933I47553J-15451D01*
G01*
X-27119920Y-11702049D01*
G75*
G02*
X-27087818Y-11765053I-15451J-47553D01*
G01*
X-27458639Y-12906321D01*
G75*
G02*
X-27521643Y-12938423I-47553J15451D01*
G01*
X-28377594Y-12660307D01*
G75*
G02*
X-28409696Y-12597303I15451J47553D01*
G01*
G37*
G36*
G01*
X-85017232Y27803804D02*
X-84706649Y28962915D01*
G75*
G02*
X-84645412Y28998270I48296J-12941D01*
G01*
X-83776079Y28765333D01*
G75*
G02*
X-83740724Y28704096I-12941J-48296D01*
G01*
X-84051307Y27544985D01*
G75*
G02*
X-84112544Y27509630I-48296J12941D01*
G01*
X-84981877Y27742567D01*
G75*
G02*
X-85017232Y27803804I12941J48296D01*
G01*
G37*
G36*
G01*
X-81829676Y26949704D02*
X-81519093Y28108815D01*
G75*
G02*
X-81457856Y28144170I48296J-12941D01*
G01*
X-80588523Y27911233D01*
G75*
G02*
X-80553168Y27849996I-12941J-48296D01*
G01*
X-80863751Y26690885D01*
G75*
G02*
X-80924988Y26655530I-48296J12941D01*
G01*
X-81794321Y26888467D01*
G75*
G02*
X-81829676Y26949704I12941J48296D01*
G01*
G37*
G36*
G01*
X30764839Y6042879D02*
X30394018Y7184147D01*
G75*
G02*
X30426120Y7247151I47553J15451D01*
G01*
X31282071Y7525267D01*
G75*
G02*
X31345075Y7493165I15451J-47553D01*
G01*
X31715896Y6351897D01*
G75*
G02*
X31683794Y6288893I-47553J-15451D01*
G01*
X30827843Y6010777D01*
G75*
G02*
X30764839Y6042879I-15451J47553D01*
G01*
G37*
G36*
G01*
X33903325Y7062635D02*
X33532504Y8203903D01*
G75*
G02*
X33564606Y8266907I47553J15451D01*
G01*
X34420557Y8545023D01*
G75*
G02*
X34483561Y8512921I15451J-47553D01*
G01*
X34854382Y7371653D01*
G75*
G02*
X34822280Y7308649I-47553J-15451D01*
G01*
X33966329Y7030533D01*
G75*
G02*
X33903325Y7062635I-15451J47553D01*
G01*
G37*
G36*
G01*
X94697830Y49163101D02*
X94448336Y50336878D01*
G75*
G02*
X94486847Y50396181I48907J10396D01*
G01*
X95367179Y50583302D01*
G75*
G02*
X95426482Y50544791I10396J-48907D01*
G01*
X95675976Y49371014D01*
G75*
G02*
X95637465Y49311711I-48907J-10396D01*
G01*
X94757133Y49124590D01*
G75*
G02*
X94697830Y49163101I-10396J48907D01*
G01*
G37*
G36*
G01*
X97925718Y49849209D02*
X97676224Y51022986D01*
G75*
G02*
X97714735Y51082289I48907J10396D01*
G01*
X98595067Y51269410D01*
G75*
G02*
X98654370Y51230899I10396J-48907D01*
G01*
X98903864Y50057122D01*
G75*
G02*
X98865353Y49997819I-48907J-10396D01*
G01*
X97985021Y49810698D01*
G75*
G02*
X97925718Y49849209I-10396J48907D01*
G01*
G37*
G36*
G01*
X-46102082Y31003953D02*
X-45731261Y32145221D01*
G75*
G02*
X-45668257Y32177323I47553J-15451D01*
G01*
X-44812306Y31899207D01*
G75*
G02*
X-44780204Y31836203I-15451J-47553D01*
G01*
X-45151025Y30694935D01*
G75*
G02*
X-45214029Y30662833I-47553J15451D01*
G01*
X-46069980Y30940949D01*
G75*
G02*
X-46102082Y31003953I15451J47553D01*
G01*
G37*
G36*
G01*
X-42963596Y29984197D02*
X-42592775Y31125465D01*
G75*
G02*
X-42529771Y31157567I47553J-15451D01*
G01*
X-41673820Y30879451D01*
G75*
G02*
X-41641718Y30816447I-15451J-47553D01*
G01*
X-42012539Y29675179D01*
G75*
G02*
X-42075543Y29643077I-47553J15451D01*
G01*
X-42931494Y29921193D01*
G75*
G02*
X-42963596Y29984197I15451J47553D01*
G01*
G37*
X-117000000Y50000000D03*
G36*
G01*
X-66620282Y26104653D02*
X-66249461Y27245921D01*
G75*
G02*
X-66186457Y27278023I47553J-15451D01*
G01*
X-65330506Y26999907D01*
G75*
G02*
X-65298404Y26936903I-15451J-47553D01*
G01*
X-65669225Y25795635D01*
G75*
G02*
X-65732229Y25763533I-47553J15451D01*
G01*
X-66588180Y26041649D01*
G75*
G02*
X-66620282Y26104653I15451J47553D01*
G01*
G37*
G36*
G01*
X-63481796Y25084897D02*
X-63110975Y26226165D01*
G75*
G02*
X-63047971Y26258267I47553J-15451D01*
G01*
X-62192020Y25980151D01*
G75*
G02*
X-62159918Y25917147I-15451J-47553D01*
G01*
X-62530739Y24775879D01*
G75*
G02*
X-62593743Y24743777I-47553J15451D01*
G01*
X-63449694Y25021893D01*
G75*
G02*
X-63481796Y25084897I15451J47553D01*
G01*
G37*
G36*
G01*
X-105972864Y16800122D02*
X-105723370Y17973899D01*
G75*
G02*
X-105664067Y18012410I48907J-10396D01*
G01*
X-104783735Y17825289D01*
G75*
G02*
X-104745224Y17765986I-10396J-48907D01*
G01*
X-104994718Y16592209D01*
G75*
G02*
X-105054021Y16553698I-48907J10396D01*
G01*
X-105934353Y16740819D01*
G75*
G02*
X-105972864Y16800122I10396J48907D01*
G01*
G37*
G36*
G01*
X-102744976Y16114014D02*
X-102495482Y17287791D01*
G75*
G02*
X-102436179Y17326302I48907J-10396D01*
G01*
X-101555847Y17139181D01*
G75*
G02*
X-101517336Y17079878I-10396J-48907D01*
G01*
X-101766830Y15906101D01*
G75*
G02*
X-101826133Y15867590I-48907J10396D01*
G01*
X-102706465Y16054711D01*
G75*
G02*
X-102744976Y16114014I10396J48907D01*
G01*
G37*
G36*
G01*
X-61366982Y42272653D02*
X-60996161Y43413921D01*
G75*
G02*
X-60933157Y43446023I47553J-15451D01*
G01*
X-60077206Y43167907D01*
G75*
G02*
X-60045104Y43104903I-15451J-47553D01*
G01*
X-60415925Y41963635D01*
G75*
G02*
X-60478929Y41931533I-47553J15451D01*
G01*
X-61334880Y42209649D01*
G75*
G02*
X-61366982Y42272653I15451J47553D01*
G01*
G37*
G36*
G01*
X-58228496Y41252897D02*
X-57857675Y42394165D01*
G75*
G02*
X-57794671Y42426267I47553J-15451D01*
G01*
X-56938720Y42148151D01*
G75*
G02*
X-56906618Y42085147I-15451J-47553D01*
G01*
X-57277439Y40943879D01*
G75*
G02*
X-57340443Y40911777I-47553J15451D01*
G01*
X-58196394Y41189893D01*
G75*
G02*
X-58228496Y41252897I15451J47553D01*
G01*
G37*
G36*
G01*
X-24347782Y39707553D02*
X-23976961Y40848821D01*
G75*
G02*
X-23913957Y40880923I47553J-15451D01*
G01*
X-23058006Y40602807D01*
G75*
G02*
X-23025904Y40539803I-15451J-47553D01*
G01*
X-23396725Y39398535D01*
G75*
G02*
X-23459729Y39366433I-47553J15451D01*
G01*
X-24315680Y39644549D01*
G75*
G02*
X-24347782Y39707553I15451J47553D01*
G01*
G37*
G36*
G01*
X-21209296Y38687797D02*
X-20838475Y39829065D01*
G75*
G02*
X-20775471Y39861167I47553J-15451D01*
G01*
X-19919520Y39583051D01*
G75*
G02*
X-19887418Y39520047I-15451J-47553D01*
G01*
X-20258239Y38378779D01*
G75*
G02*
X-20321243Y38346677I-47553J15451D01*
G01*
X-21177194Y38624793D01*
G75*
G02*
X-21209296Y38687797I15451J47553D01*
G01*
G37*
G36*
G01*
X-80617332Y44224604D02*
X-80306749Y45383715D01*
G75*
G02*
X-80245512Y45419070I48296J-12941D01*
G01*
X-79376179Y45186133D01*
G75*
G02*
X-79340824Y45124896I-12941J-48296D01*
G01*
X-79651407Y43965785D01*
G75*
G02*
X-79712644Y43930430I-48296J12941D01*
G01*
X-80581977Y44163367D01*
G75*
G02*
X-80617332Y44224604I12941J48296D01*
G01*
G37*
G36*
G01*
X-77429776Y43370504D02*
X-77119193Y44529615D01*
G75*
G02*
X-77057956Y44564970I48296J-12941D01*
G01*
X-76188623Y44332033D01*
G75*
G02*
X-76153268Y44270796I-12941J-48296D01*
G01*
X-76463851Y43111685D01*
G75*
G02*
X-76525088Y43076330I-48296J12941D01*
G01*
X-77394421Y43309267D01*
G75*
G02*
X-77429776Y43370504I12941J48296D01*
G01*
G37*
X-58000000Y81000000D03*
G36*
G01*
X-98903864Y50057122D02*
X-98654370Y51230899D01*
G75*
G02*
X-98595067Y51269410I48907J-10396D01*
G01*
X-97714735Y51082289D01*
G75*
G02*
X-97676224Y51022986I-10396J-48907D01*
G01*
X-97925718Y49849209D01*
G75*
G02*
X-97985021Y49810698I-48907J10396D01*
G01*
X-98865353Y49997819D01*
G75*
G02*
X-98903864Y50057122I10396J48907D01*
G01*
G37*
G36*
G01*
X-95675976Y49371014D02*
X-95426482Y50544791D01*
G75*
G02*
X-95367179Y50583302I48907J-10396D01*
G01*
X-94486847Y50396181D01*
G75*
G02*
X-94448336Y50336878I-10396J-48907D01*
G01*
X-94697830Y49163101D01*
G75*
G02*
X-94757133Y49124590I-48907J10396D01*
G01*
X-95637465Y49311711D01*
G75*
G02*
X-95675976Y49371014I10396J48907D01*
G01*
G37*
G36*
G01*
X62530739Y24775879D02*
X62159918Y25917147D01*
G75*
G02*
X62192020Y25980151I47553J15451D01*
G01*
X63047971Y26258267D01*
G75*
G02*
X63110975Y26226165I15451J-47553D01*
G01*
X63481796Y25084897D01*
G75*
G02*
X63449694Y25021893I-47553J-15451D01*
G01*
X62593743Y24743777D01*
G75*
G02*
X62530739Y24775879I-15451J47553D01*
G01*
G37*
G36*
G01*
X65669225Y25795635D02*
X65298404Y26936903D01*
G75*
G02*
X65330506Y26999907I47553J15451D01*
G01*
X66186457Y27278023D01*
G75*
G02*
X66249461Y27245921I15451J-47553D01*
G01*
X66620282Y26104653D01*
G75*
G02*
X66588180Y26041649I-47553J-15451D01*
G01*
X65732229Y25763533D01*
G75*
G02*
X65669225Y25795635I-15451J47553D01*
G01*
G37*
G36*
G01*
X101766830Y15906101D02*
X101517336Y17079878D01*
G75*
G02*
X101555847Y17139181I48907J10396D01*
G01*
X102436179Y17326302D01*
G75*
G02*
X102495482Y17287791I10396J-48907D01*
G01*
X102744976Y16114014D01*
G75*
G02*
X102706465Y16054711I-48907J-10396D01*
G01*
X101826133Y15867590D01*
G75*
G02*
X101766830Y15906101I-10396J48907D01*
G01*
G37*
G36*
G01*
X104994718Y16592209D02*
X104745224Y17765986D01*
G75*
G02*
X104783735Y17825289I48907J10396D01*
G01*
X105664067Y18012410D01*
G75*
G02*
X105723370Y17973899I10396J-48907D01*
G01*
X105972864Y16800122D01*
G75*
G02*
X105934353Y16740819I-48907J-10396D01*
G01*
X105054021Y16553698D01*
G75*
G02*
X104994718Y16592209I-10396J48907D01*
G01*
G37*
G36*
G01*
X25511539Y22210779D02*
X25140718Y23352047D01*
G75*
G02*
X25172820Y23415051I47553J15451D01*
G01*
X26028771Y23693167D01*
G75*
G02*
X26091775Y23661065I15451J-47553D01*
G01*
X26462596Y22519797D01*
G75*
G02*
X26430494Y22456793I-47553J-15451D01*
G01*
X25574543Y22178677D01*
G75*
G02*
X25511539Y22210779I-15451J47553D01*
G01*
G37*
G36*
G01*
X28650025Y23230535D02*
X28279204Y24371803D01*
G75*
G02*
X28311306Y24434807I47553J15451D01*
G01*
X29167257Y24712923D01*
G75*
G02*
X29230261Y24680821I15451J-47553D01*
G01*
X29601082Y23539553D01*
G75*
G02*
X29568980Y23476549I-47553J-15451D01*
G01*
X28713029Y23198433D01*
G75*
G02*
X28650025Y23230535I-15451J47553D01*
G01*
G37*
G36*
G01*
X-56113682Y58440553D02*
X-55742861Y59581821D01*
G75*
G02*
X-55679857Y59613923I47553J-15451D01*
G01*
X-54823906Y59335807D01*
G75*
G02*
X-54791804Y59272803I-15451J-47553D01*
G01*
X-55162625Y58131535D01*
G75*
G02*
X-55225629Y58099433I-47553J15451D01*
G01*
X-56081580Y58377549D01*
G75*
G02*
X-56113682Y58440553I15451J47553D01*
G01*
G37*
G36*
G01*
X-52975196Y57420797D02*
X-52604375Y58562065D01*
G75*
G02*
X-52541371Y58594167I47553J-15451D01*
G01*
X-51685420Y58316051D01*
G75*
G02*
X-51653318Y58253047I-15451J-47553D01*
G01*
X-52024139Y57111779D01*
G75*
G02*
X-52087143Y57079677I-47553J15451D01*
G01*
X-52943094Y57357793D01*
G75*
G02*
X-52975196Y57420797I15451J47553D01*
G01*
G37*
X0Y25000000D03*
G36*
G01*
X42012539Y29675179D02*
X41641718Y30816447D01*
G75*
G02*
X41673820Y30879451I47553J15451D01*
G01*
X42529771Y31157567D01*
G75*
G02*
X42592775Y31125465I15451J-47553D01*
G01*
X42963596Y29984197D01*
G75*
G02*
X42931494Y29921193I-47553J-15451D01*
G01*
X42075543Y29643077D01*
G75*
G02*
X42012539Y29675179I-15451J47553D01*
G01*
G37*
G36*
G01*
X45151025Y30694935D02*
X44780204Y31836203D01*
G75*
G02*
X44812306Y31899207I47553J15451D01*
G01*
X45668257Y32177323D01*
G75*
G02*
X45731261Y32145221I15451J-47553D01*
G01*
X46102082Y31003953D01*
G75*
G02*
X46069980Y30940949I-47553J-15451D01*
G01*
X45214029Y30662833D01*
G75*
G02*
X45151025Y30694935I-15451J47553D01*
G01*
G37*
G36*
G01*
X98232330Y32534601D02*
X97982836Y33708378D01*
G75*
G02*
X98021347Y33767681I48907J10396D01*
G01*
X98901679Y33954802D01*
G75*
G02*
X98960982Y33916291I10396J-48907D01*
G01*
X99210476Y32742514D01*
G75*
G02*
X99171965Y32683211I-48907J-10396D01*
G01*
X98291633Y32496090D01*
G75*
G02*
X98232330Y32534601I-10396J48907D01*
G01*
G37*
G36*
G01*
X101460218Y33220709D02*
X101210724Y34394486D01*
G75*
G02*
X101249235Y34453789I48907J10396D01*
G01*
X102129567Y34640910D01*
G75*
G02*
X102188870Y34602399I10396J-48907D01*
G01*
X102438364Y33428622D01*
G75*
G02*
X102399853Y33369319I-48907J-10396D01*
G01*
X101519521Y33182198D01*
G75*
G02*
X101460218Y33220709I-10396J48907D01*
G01*
G37*
G36*
G01*
X-121778900Y55411700D02*
X-120978900Y55411700D01*
G75*
G02*
X-120928900Y55361700I0J-50000D01*
G01*
X-120928900Y54361700D01*
G75*
G02*
X-120978900Y54311700I-50000J0D01*
G01*
X-121778900Y54311700D01*
G75*
G02*
X-121828900Y54361700I0J50000D01*
G01*
X-121828900Y55361700D01*
G75*
G02*
X-121778900Y55411700I50000J0D01*
G01*
G37*
G36*
G01*
X-121778900Y62711700D02*
X-120978900Y62711700D01*
G75*
G02*
X-120928900Y62661700I0J-50000D01*
G01*
X-120928900Y61661700D01*
G75*
G02*
X-120978900Y61611700I-50000J0D01*
G01*
X-121778900Y61611700D01*
G75*
G02*
X-121828900Y61661700I0J50000D01*
G01*
X-121828900Y62661700D01*
G75*
G02*
X-121778900Y62711700I50000J0D01*
G01*
G37*
D11*
X-122488900Y57011700D03*
X-122488900Y60011700D03*
G36*
G01*
X-123988900Y55411700D02*
X-123188900Y55411700D01*
G75*
G02*
X-123138900Y55361700I0J-50000D01*
G01*
X-123138900Y54361700D01*
G75*
G02*
X-123188900Y54311700I-50000J0D01*
G01*
X-123988900Y54311700D01*
G75*
G02*
X-124038900Y54361700I0J50000D01*
G01*
X-124038900Y55361700D01*
G75*
G02*
X-123988900Y55411700I50000J0D01*
G01*
G37*
G36*
G01*
X-123988900Y62711700D02*
X-123188900Y62711700D01*
G75*
G02*
X-123138900Y62661700I0J-50000D01*
G01*
X-123138900Y61661700D01*
G75*
G02*
X-123188900Y61611700I-50000J0D01*
G01*
X-123988900Y61611700D01*
G75*
G02*
X-124038900Y61661700I0J50000D01*
G01*
X-124038900Y62661700D01*
G75*
G02*
X-123988900Y62711700I50000J0D01*
G01*
G37*
G36*
G01*
X-121478900Y61161700D02*
X-119978900Y61161700D01*
G75*
G02*
X-119928900Y61111700I0J-50000D01*
G01*
X-119928900Y60411700D01*
G75*
G02*
X-119978900Y60361700I-50000J0D01*
G01*
X-121478900Y60361700D01*
G75*
G02*
X-121528900Y60411700I0J50000D01*
G01*
X-121528900Y61111700D01*
G75*
G02*
X-121478900Y61161700I50000J0D01*
G01*
G37*
G36*
G01*
X-121478900Y58161700D02*
X-119978900Y58161700D01*
G75*
G02*
X-119928900Y58111700I0J-50000D01*
G01*
X-119928900Y57411700D01*
G75*
G02*
X-119978900Y57361700I-50000J0D01*
G01*
X-121478900Y57361700D01*
G75*
G02*
X-121528900Y57411700I0J50000D01*
G01*
X-121528900Y58111700D01*
G75*
G02*
X-121478900Y58161700I50000J0D01*
G01*
G37*
G36*
G01*
X-121478900Y56661700D02*
X-119978900Y56661700D01*
G75*
G02*
X-119928900Y56611700I0J-50000D01*
G01*
X-119928900Y55911700D01*
G75*
G02*
X-119978900Y55861700I-50000J0D01*
G01*
X-121478900Y55861700D01*
G75*
G02*
X-121528900Y55911700I0J50000D01*
G01*
X-121528900Y56611700D01*
G75*
G02*
X-121478900Y56661700I50000J0D01*
G01*
G37*
G36*
G01*
X72063851Y59532385D02*
X71753268Y60691496D01*
G75*
G02*
X71788623Y60752733I48296J12941D01*
G01*
X72657956Y60985670D01*
G75*
G02*
X72719193Y60950315I12941J-48296D01*
G01*
X73029776Y59791204D01*
G75*
G02*
X72994421Y59729967I-48296J-12941D01*
G01*
X72125088Y59497030D01*
G75*
G02*
X72063851Y59532385I-12941J48296D01*
G01*
G37*
G36*
G01*
X75251407Y60386485D02*
X74940824Y61545596D01*
G75*
G02*
X74976179Y61606833I48296J12941D01*
G01*
X75845512Y61839770D01*
G75*
G02*
X75906749Y61804415I12941J-48296D01*
G01*
X76217332Y60645304D01*
G75*
G02*
X76181977Y60584067I-48296J-12941D01*
G01*
X75312644Y60351130D01*
G75*
G02*
X75251407Y60386485I-12941J48296D01*
G01*
G37*
D12*
X-121883900Y67516700D03*
X-119343900Y67516700D03*
X-116803900Y67516700D03*
X-114263900Y67516700D03*
X-111723900Y67516700D03*
X-109183900Y67516700D03*
X-106643900Y67516700D03*
X-106643900Y83706700D03*
X-109183900Y83706700D03*
X-111723900Y83706700D03*
X-114263900Y83706700D03*
X-116803900Y83706700D03*
X-119343900Y83706700D03*
X-121883900Y83706700D03*
D13*
X-122835900Y74341700D03*
X-122835900Y76881700D03*
X-120295900Y74341700D03*
X-120295900Y76881700D03*
X-114580900Y71166700D03*
X-116485900Y71166700D03*
X-105462492Y79414108D03*
X-105462492Y81319108D03*
D10*
X-117000000Y25000000D03*
G36*
G01*
X-40848782Y47171953D02*
X-40477961Y48313221D01*
G75*
G02*
X-40414957Y48345323I47553J-15451D01*
G01*
X-39559006Y48067207D01*
G75*
G02*
X-39526904Y48004203I-15451J-47553D01*
G01*
X-39897725Y46862935D01*
G75*
G02*
X-39960729Y46830833I-47553J15451D01*
G01*
X-40816680Y47108949D01*
G75*
G02*
X-40848782Y47171953I15451J47553D01*
G01*
G37*
G36*
G01*
X-37710296Y46152197D02*
X-37339475Y47293465D01*
G75*
G02*
X-37276471Y47325567I47553J-15451D01*
G01*
X-36420520Y47047451D01*
G75*
G02*
X-36388418Y46984447I-15451J-47553D01*
G01*
X-36759239Y45843179D01*
G75*
G02*
X-36822243Y45811077I-47553J15451D01*
G01*
X-37678194Y46089193D01*
G75*
G02*
X-37710296Y46152197I15451J47553D01*
G01*
G37*
G36*
G01*
X47265839Y13507279D02*
X46895018Y14648547D01*
G75*
G02*
X46927120Y14711551I47553J15451D01*
G01*
X47783071Y14989667D01*
G75*
G02*
X47846075Y14957565I15451J-47553D01*
G01*
X48216896Y13816297D01*
G75*
G02*
X48184794Y13753293I-47553J-15451D01*
G01*
X47328843Y13475177D01*
G75*
G02*
X47265839Y13507279I-15451J47553D01*
G01*
G37*
G36*
G01*
X50404325Y14527035D02*
X50033504Y15668303D01*
G75*
G02*
X50065606Y15731307I47553J15451D01*
G01*
X50921557Y16009423D01*
G75*
G02*
X50984561Y15977321I15451J-47553D01*
G01*
X51355382Y14836053D01*
G75*
G02*
X51323280Y14773049I-47553J-15451D01*
G01*
X50467329Y14494933D01*
G75*
G02*
X50404325Y14527035I-15451J47553D01*
G01*
G37*
G36*
G01*
X44577639Y-7344021D02*
X44206818Y-6202753D01*
G75*
G02*
X44238920Y-6139749I47553J15451D01*
G01*
X45094871Y-5861633D01*
G75*
G02*
X45157875Y-5893735I15451J-47553D01*
G01*
X45528696Y-7035003D01*
G75*
G02*
X45496594Y-7098007I-47553J-15451D01*
G01*
X44640643Y-7376123D01*
G75*
G02*
X44577639Y-7344021I-15451J47553D01*
G01*
G37*
G36*
G01*
X47716125Y-6324265D02*
X47345304Y-5182997D01*
G75*
G02*
X47377406Y-5119993I47553J15451D01*
G01*
X48233357Y-4841877D01*
G75*
G02*
X48296361Y-4873979I15451J-47553D01*
G01*
X48667182Y-6015247D01*
G75*
G02*
X48635080Y-6078251I-47553J-15451D01*
G01*
X47779129Y-6356367D01*
G75*
G02*
X47716125Y-6324265I-15451J47553D01*
G01*
G37*
G36*
G01*
X-76217332Y60645304D02*
X-75906749Y61804415D01*
G75*
G02*
X-75845512Y61839770I48296J-12941D01*
G01*
X-74976179Y61606833D01*
G75*
G02*
X-74940824Y61545596I-12941J-48296D01*
G01*
X-75251407Y60386485D01*
G75*
G02*
X-75312644Y60351130I-48296J12941D01*
G01*
X-76181977Y60584067D01*
G75*
G02*
X-76217332Y60645304I12941J48296D01*
G01*
G37*
G36*
G01*
X-73029776Y59791204D02*
X-72719193Y60950315D01*
G75*
G02*
X-72657956Y60985670I48296J-12941D01*
G01*
X-71788623Y60752733D01*
G75*
G02*
X-71753268Y60691496I-12941J-48296D01*
G01*
X-72063851Y59532385D01*
G75*
G02*
X-72125088Y59497030I-48296J12941D01*
G01*
X-72994421Y59729967D01*
G75*
G02*
X-73029776Y59791204I12941J48296D01*
G01*
G37*
G36*
G01*
X57277439Y40943879D02*
X56906618Y42085147D01*
G75*
G02*
X56938720Y42148151I47553J15451D01*
G01*
X57794671Y42426267D01*
G75*
G02*
X57857675Y42394165I15451J-47553D01*
G01*
X58228496Y41252897D01*
G75*
G02*
X58196394Y41189893I-47553J-15451D01*
G01*
X57340443Y40911777D01*
G75*
G02*
X57277439Y40943879I-15451J47553D01*
G01*
G37*
G36*
G01*
X60415925Y41963635D02*
X60045104Y43104903D01*
G75*
G02*
X60077206Y43167907I47553J15451D01*
G01*
X60933157Y43446023D01*
G75*
G02*
X60996161Y43413921I15451J-47553D01*
G01*
X61366982Y42272653D01*
G75*
G02*
X61334880Y42209649I-47553J-15451D01*
G01*
X60478929Y41931533D01*
G75*
G02*
X60415925Y41963635I-15451J47553D01*
G01*
G37*
G36*
G01*
X76463851Y43111685D02*
X76153268Y44270796D01*
G75*
G02*
X76188623Y44332033I48296J12941D01*
G01*
X77057956Y44564970D01*
G75*
G02*
X77119193Y44529615I12941J-48296D01*
G01*
X77429776Y43370504D01*
G75*
G02*
X77394421Y43309267I-48296J-12941D01*
G01*
X76525088Y43076330D01*
G75*
G02*
X76463851Y43111685I-12941J48296D01*
G01*
G37*
G36*
G01*
X79651407Y43965785D02*
X79340824Y45124896D01*
G75*
G02*
X79376179Y45186133I48296J12941D01*
G01*
X80245512Y45419070D01*
G75*
G02*
X80306749Y45383715I12941J-48296D01*
G01*
X80617332Y44224604D01*
G75*
G02*
X80581977Y44163367I-48296J-12941D01*
G01*
X79712644Y43930430D01*
G75*
G02*
X79651407Y43965785I-12941J48296D01*
G01*
G37*
G36*
G01*
X36759239Y45843179D02*
X36388418Y46984447D01*
G75*
G02*
X36420520Y47047451I47553J15451D01*
G01*
X37276471Y47325567D01*
G75*
G02*
X37339475Y47293465I15451J-47553D01*
G01*
X37710296Y46152197D01*
G75*
G02*
X37678194Y46089193I-47553J-15451D01*
G01*
X36822243Y45811077D01*
G75*
G02*
X36759239Y45843179I-15451J47553D01*
G01*
G37*
G36*
G01*
X39897725Y46862935D02*
X39526904Y48004203D01*
G75*
G02*
X39559006Y48067207I47553J15451D01*
G01*
X40414957Y48345323D01*
G75*
G02*
X40477961Y48313221I15451J-47553D01*
G01*
X40848782Y47171953D01*
G75*
G02*
X40816680Y47108949I-47553J-15451D01*
G01*
X39960729Y46830833D01*
G75*
G02*
X39897725Y46862935I-15451J47553D01*
G01*
G37*
G36*
G01*
X80863751Y26690885D02*
X80553168Y27849996D01*
G75*
G02*
X80588523Y27911233I48296J12941D01*
G01*
X81457856Y28144170D01*
G75*
G02*
X81519093Y28108815I12941J-48296D01*
G01*
X81829676Y26949704D01*
G75*
G02*
X81794321Y26888467I-48296J-12941D01*
G01*
X80924988Y26655530D01*
G75*
G02*
X80863751Y26690885I-12941J48296D01*
G01*
G37*
G36*
G01*
X84051307Y27544985D02*
X83740724Y28704096D01*
G75*
G02*
X83776079Y28765333I48296J12941D01*
G01*
X84645412Y28998270D01*
G75*
G02*
X84706649Y28962915I12941J-48296D01*
G01*
X85017232Y27803804D01*
G75*
G02*
X84981877Y27742567I-48296J-12941D01*
G01*
X84112544Y27509630D01*
G75*
G02*
X84051307Y27544985I-12941J48296D01*
G01*
G37*
X58000000Y81000000D03*
G36*
G01*
X27458639Y-12906321D02*
X27087818Y-11765053D01*
G75*
G02*
X27119920Y-11702049I47553J15451D01*
G01*
X27975871Y-11423933D01*
G75*
G02*
X28038875Y-11456035I15451J-47553D01*
G01*
X28409696Y-12597303D01*
G75*
G02*
X28377594Y-12660307I-47553J-15451D01*
G01*
X27521643Y-12938423D01*
G75*
G02*
X27458639Y-12906321I-15451J47553D01*
G01*
G37*
G36*
G01*
X30597125Y-11886565D02*
X30226304Y-10745297D01*
G75*
G02*
X30258406Y-10682293I47553J15451D01*
G01*
X31114357Y-10404177D01*
G75*
G02*
X31177361Y-10436279I15451J-47553D01*
G01*
X31548182Y-11577547D01*
G75*
G02*
X31516080Y-11640551I-47553J-15451D01*
G01*
X30660129Y-11918667D01*
G75*
G02*
X30597125Y-11886565I-15451J47553D01*
G01*
G37*
G36*
G01*
X-102438364Y33428622D02*
X-102188870Y34602399D01*
G75*
G02*
X-102129567Y34640910I48907J-10396D01*
G01*
X-101249235Y34453789D01*
G75*
G02*
X-101210724Y34394486I-10396J-48907D01*
G01*
X-101460218Y33220709D01*
G75*
G02*
X-101519521Y33182198I-48907J10396D01*
G01*
X-102399853Y33369319D01*
G75*
G02*
X-102438364Y33428622I10396J48907D01*
G01*
G37*
G36*
G01*
X-99210476Y32742514D02*
X-98960982Y33916291D01*
G75*
G02*
X-98901679Y33954802I48907J-10396D01*
G01*
X-98021347Y33767681D01*
G75*
G02*
X-97982836Y33708378I-10396J-48907D01*
G01*
X-98232330Y32534601D01*
G75*
G02*
X-98291633Y32496090I-48907J10396D01*
G01*
X-99171965Y32683211D01*
G75*
G02*
X-99210476Y32742514I10396J48907D01*
G01*
G37*
G36*
G01*
X-51355382Y14836053D02*
X-50984561Y15977321D01*
G75*
G02*
X-50921557Y16009423I47553J-15451D01*
G01*
X-50065606Y15731307D01*
G75*
G02*
X-50033504Y15668303I-15451J-47553D01*
G01*
X-50404325Y14527035D01*
G75*
G02*
X-50467329Y14494933I-47553J15451D01*
G01*
X-51323280Y14773049D01*
G75*
G02*
X-51355382Y14836053I15451J47553D01*
G01*
G37*
G36*
G01*
X-48216896Y13816297D02*
X-47846075Y14957565D01*
G75*
G02*
X-47783071Y14989667I47553J-15451D01*
G01*
X-46927120Y14711551D01*
G75*
G02*
X-46895018Y14648547I-15451J-47553D01*
G01*
X-47265839Y13507279D01*
G75*
G02*
X-47328843Y13475177I-47553J15451D01*
G01*
X-48184794Y13753293D01*
G75*
G02*
X-48216896Y13816297I15451J47553D01*
G01*
G37*
X117000000Y50000000D03*
D14*
X-78003792Y66921605D03*
D15*
X-71151227Y71245359D03*
D16*
X-72691200Y65498100D03*
D15*
X-66890999Y67826227D03*
D14*
X-67378608Y64074595D03*
X-36309911Y13732693D03*
D15*
X-29240449Y17691886D03*
D16*
X-31079100Y12033100D03*
D15*
X-25165004Y14054477D03*
D14*
X-25848289Y10333507D03*
X-68075811Y32465793D03*
D15*
X-61006349Y36424986D03*
D16*
X-62845000Y30766200D03*
D15*
X-56930904Y32787577D03*
D14*
X-57614189Y29066607D03*
X-47557611Y37365093D03*
D15*
X-40488149Y41324286D03*
D16*
X-42326800Y35665500D03*
D15*
X-36412704Y37686877D03*
D14*
X-37095989Y33965907D03*
X-33003711Y-5216407D03*
D15*
X-25934249Y-1257214D03*
D16*
X-27772900Y-6916000D03*
D15*
X-21858804Y-4894623D03*
D14*
X-22542089Y-8615593D03*
X52360889Y45234607D03*
D15*
X55753049Y52592986D03*
D16*
X57591700Y46934200D03*
D15*
X61188169Y52045747D03*
D14*
X62822511Y48633793D03*
X71778608Y47653795D03*
D15*
X75551227Y54824559D03*
D16*
X77091200Y49077300D03*
D15*
X80950258Y53993617D03*
D14*
X82403792Y50500805D03*
X-86803692Y34080105D03*
D15*
X-79951127Y38403859D03*
D16*
X-81491100Y32656600D03*
D15*
X-75690899Y34984727D03*
D14*
X-76178508Y31233095D03*
X-25803311Y46068693D03*
D15*
X-18733849Y50027886D03*
D16*
X-20572500Y44369100D03*
D15*
X-14658404Y46390477D03*
D14*
X-15341689Y42669507D03*
X-52810911Y21197193D03*
D15*
X-45741449Y25156386D03*
D16*
X-47580100Y19497600D03*
D15*
X-41666004Y21518977D03*
D14*
X-42349289Y17798007D03*
X20594989Y26501507D03*
D15*
X23987149Y33859886D03*
D16*
X25825800Y28201100D03*
D15*
X29422269Y33312647D03*
D14*
X31056611Y29900693D03*
X22542089Y-8615593D03*
D15*
X25934249Y-1257214D03*
D16*
X27772900Y-6916000D03*
D15*
X31369369Y-1804453D03*
D14*
X33003711Y-5216407D03*
X57614189Y29066607D03*
D15*
X61006349Y36424986D03*
D16*
X62845000Y30766200D03*
D15*
X66441469Y35877747D03*
D14*
X68075811Y32465793D03*
X-104550812Y39602714D03*
D15*
X-97933925Y44279178D03*
D16*
X-99171000Y38459200D03*
D15*
X-93500593Y41087695D03*
D14*
X-93791188Y37315686D03*
X39661089Y-3053293D03*
D15*
X43053249Y4305086D03*
D16*
X44891900Y-1353700D03*
D15*
X48488369Y3757847D03*
D14*
X50122711Y345893D03*
X-31056611Y29900693D03*
D15*
X-23987149Y33859886D03*
D16*
X-25825800Y28201100D03*
D15*
X-19911704Y30222477D03*
D14*
X-20594989Y26501507D03*
X-42304311Y53533093D03*
D15*
X-35234849Y57492286D03*
D16*
X-37073500Y51833500D03*
D15*
X-31159404Y53854877D03*
D14*
X-31842689Y50133907D03*
X31842689Y50133907D03*
D15*
X35234849Y57492286D03*
D16*
X37073500Y51833500D03*
D15*
X40669969Y56945047D03*
D14*
X42304311Y53533093D03*
X-50122711Y345893D03*
D15*
X-43053249Y4305086D03*
D16*
X-44891900Y-1353700D03*
D15*
X-38977804Y667677D03*
D14*
X-39661089Y-3053293D03*
X25848289Y10333507D03*
D15*
X29240449Y17691886D03*
D16*
X31079100Y12033100D03*
D15*
X34675569Y17144647D03*
D14*
X36309911Y13732693D03*
X-101016312Y56231214D03*
D15*
X-94399425Y60907678D03*
D16*
X-95636500Y55087700D03*
D15*
X-89966093Y57716195D03*
D14*
X-90256688Y53944186D03*
X93791188Y37315686D03*
D15*
X97933925Y44279178D03*
D16*
X99171000Y38459200D03*
D15*
X103282069Y43166812D03*
D14*
X104550812Y39602714D03*
X-82403792Y50500805D03*
D15*
X-75551227Y54824559D03*
D16*
X-77091200Y49077300D03*
D15*
X-71290999Y51405427D03*
D14*
X-71778608Y47653795D03*
X37095989Y33965907D03*
D15*
X40488149Y41324286D03*
D16*
X42326800Y35665500D03*
D15*
X45923269Y40777047D03*
D14*
X47557611Y37365093D03*
X90256688Y53944186D03*
D15*
X94399425Y60907678D03*
D16*
X95636500Y55087700D03*
D15*
X99747569Y59795312D03*
D14*
X101016312Y56231214D03*
X-62822511Y48633793D03*
D15*
X-55753049Y52592986D03*
D16*
X-57591700Y46934200D03*
D15*
X-51677604Y48955577D03*
D14*
X-52360889Y45234607D03*
X76178508Y31233095D03*
D15*
X79951127Y38403859D03*
D16*
X81491100Y32656600D03*
D15*
X85350158Y37572917D03*
D14*
X86803692Y34080105D03*
X47107589Y61402507D03*
D15*
X50499749Y68760886D03*
D16*
X52338400Y63102100D03*
D15*
X55934869Y68213647D03*
D14*
X57569211Y64801693D03*
X-57569211Y64801693D03*
D15*
X-50499749Y68760886D03*
D16*
X-52338400Y63102100D03*
D15*
X-46424304Y65123477D03*
D14*
X-47107589Y61402507D03*
X-108085312Y22974214D03*
D15*
X-101468425Y27650678D03*
D16*
X-102705500Y21830700D03*
D15*
X-97035093Y24459195D03*
D14*
X-97325688Y20687186D03*
X67378608Y64074595D03*
D15*
X71151227Y71245359D03*
D16*
X72691200Y65498100D03*
D15*
X76550258Y70414417D03*
D14*
X78003792Y66921605D03*
X97325688Y20687186D03*
D15*
X101468425Y27650678D03*
D16*
X102705500Y21830700D03*
D15*
X106816569Y26538312D03*
D14*
X108085312Y22974214D03*
X42349289Y17798007D03*
D15*
X45741449Y25156386D03*
D16*
X47580100Y19497600D03*
D15*
X51176569Y24609147D03*
D14*
X52810911Y21197193D03*
X15341689Y42669507D03*
D15*
X18733849Y50027886D03*
D16*
X20572500Y44369100D03*
D15*
X24168969Y49480647D03*
D14*
X25803311Y46068693D03*
M02*
