%TF.GenerationSoftware,KiCad,Pcbnew,8.0.8+1*%
%TF.CreationDate,2026-07-04T20:51:32+00:00*%
%TF.ProjectId,limbatus_autorouted,6c696d62-6174-4757-935f-6175746f726f,v1.0.0*%
%TF.SameCoordinates,Original*%
%TF.FileFunction,Drillmap*%
%TF.FilePolarity,Positive*%
%FSLAX45Y45*%
G04 Gerber Fmt 4.5, Leading zero omitted, Abs format (unit mm)*
G04 Created by KiCad (PCBNEW 8.0.8+1) date 2026-07-04 20:51:32*
%MOMM*%
%LPD*%
G01*
G04 APERTURE LIST*
%ADD10C,0.150000*%
%ADD11C,0.200000*%
%ADD12C,0.100000*%
%ADD13C,0.101600*%
G04 APERTURE END LIST*
D10*
X-2900000Y6486166D02*
G75*
G02*
X-3050000Y6636166I0J150000D01*
G01*
X12476386Y8636166D02*
X12476386Y-2177572D01*
X12276386Y8836166D02*
G75*
G02*
X12476386Y8636166I4J-199996D01*
G01*
X2900000Y8586166D02*
G75*
G02*
X3049996Y8436166I0J-149996D01*
G01*
X-2900000Y6486166D02*
X2900000Y6486166D01*
X3050000Y6636166D02*
G75*
G02*
X2900000Y6486166I-150007J7D01*
G01*
X2900000Y8586166D02*
X-2900000Y8586166D01*
X-3050000Y8436166D02*
X-3050000Y6636166D01*
X-12276386Y-2377572D02*
G75*
G02*
X-12476386Y-2177572I0J200000D01*
G01*
X12476386Y-2177572D02*
G75*
G02*
X12276386Y-2377576I-200006J2D01*
G01*
X-12276386Y8836166D02*
X12276386Y8836166D01*
X3050000Y6636166D02*
X3050000Y8436166D01*
X-3050000Y8436166D02*
G75*
G02*
X-2900000Y8586166I150000J0D01*
G01*
X12276386Y-2377572D02*
X-12276386Y-2377572D01*
X-12476386Y8636166D02*
G75*
G02*
X-12276386Y8836166I200000J0D01*
G01*
X-12476386Y-2177572D02*
X-12476386Y8636166D01*
D11*
D12*
X-9379750Y3392220D02*
X-9349750Y3362220D01*
X-9349750Y3392220D02*
X-9379750Y3362220D01*
X-9347910Y4987740D02*
X-9317910Y4957740D01*
X-9317910Y4987740D02*
X-9347910Y4957740D01*
X-6623510Y6565240D02*
X-6593510Y6535240D01*
X-6593510Y6565240D02*
X-6623510Y6535240D01*
X-4584120Y6287440D02*
X-4554120Y6257440D01*
X-4554120Y6287440D02*
X-4584120Y6257440D01*
X-4171950Y3315480D02*
X-4141950Y3285480D01*
X-4141950Y3315480D02*
X-4171950Y3285480D01*
X-3833180Y1834070D02*
X-3803180Y1804070D01*
X-3803180Y1834070D02*
X-3833180Y1804070D01*
X-3731050Y4873080D02*
X-3701050Y4843080D01*
X-3701050Y4873080D02*
X-3731050Y4843080D01*
X-2018930Y4053400D02*
X-1988930Y4023400D01*
X-1988930Y4053400D02*
X-2018930Y4023400D01*
X-1947250Y731550D02*
X-1917250Y701550D01*
X-1917250Y731550D02*
X-1947250Y701550D01*
X-1649950Y2712690D02*
X-1619950Y2682690D01*
X-1619950Y2712690D02*
X-1649950Y2682690D01*
X2430830Y4490760D02*
X2460830Y4460760D01*
X2460830Y4490760D02*
X2430830Y4460760D01*
X3106850Y2769110D02*
X3136850Y2739110D01*
X3136850Y2769110D02*
X3106850Y2739110D01*
X3738830Y1587570D02*
X3768830Y1557570D01*
X3768830Y1587570D02*
X3738830Y1557570D01*
X5782550Y6287940D02*
X5812550Y6257940D01*
X5812550Y6287940D02*
X5782550Y6257940D01*
X6832700Y3460810D02*
X6862700Y3430810D01*
X6862700Y3460810D02*
X6832700Y3430810D01*
X8058840Y4981630D02*
X8088840Y4951630D01*
X8088840Y4981630D02*
X8058840Y4951630D01*
X-11685000Y3700000D02*
G75*
G02*
X-11715000Y3700000I-15000J0D01*
G01*
X-11715000Y3700000D02*
G75*
G02*
X-11685000Y3700000I15000J0D01*
G01*
X-7485000Y8000000D02*
G75*
G02*
X-7515000Y8000000I-15000J0D01*
G01*
X-7515000Y8000000D02*
G75*
G02*
X-7485000Y8000000I15000J0D01*
G01*
X-3985000Y8000000D02*
G75*
G02*
X-4015000Y8000000I-15000J0D01*
G01*
X-4015000Y8000000D02*
G75*
G02*
X-3985000Y8000000I15000J0D01*
G01*
X15000Y1800000D02*
G75*
G02*
X-15000Y1800000I-15000J0D01*
G01*
X-15000Y1800000D02*
G75*
G02*
X15000Y1800000I15000J0D01*
G01*
X15000Y1200000D02*
G75*
G02*
X-15000Y1200000I-15000J0D01*
G01*
X-15000Y1200000D02*
G75*
G02*
X15000Y1200000I15000J0D01*
G01*
X4015000Y8000000D02*
G75*
G02*
X3985000Y8000000I-15000J0D01*
G01*
X3985000Y8000000D02*
G75*
G02*
X4015000Y8000000I15000J0D01*
G01*
X7515000Y8000000D02*
G75*
G02*
X7485000Y8000000I-15000J0D01*
G01*
X7485000Y8000000D02*
G75*
G02*
X7515000Y8000000I15000J0D01*
G01*
X11715000Y3700000D02*
G75*
G02*
X11685000Y3700000I-15000J0D01*
G01*
X11685000Y3700000D02*
G75*
G02*
X11715000Y3700000I15000J0D01*
G01*
X-12188390Y8573170D02*
X-12188390Y8473170D01*
X-12238390Y8523170D02*
X-12138390Y8523170D01*
X-12188390Y7049170D02*
X-12188390Y6949170D01*
X-12238390Y6999170D02*
X-12138390Y6999170D01*
X-11934390Y8573170D02*
X-11934390Y8473170D01*
X-11984390Y8523170D02*
X-11884390Y8523170D01*
X-11934390Y7049170D02*
X-11934390Y6949170D01*
X-11984390Y6999170D02*
X-11884390Y6999170D01*
X-11680390Y8573170D02*
X-11680390Y8473170D01*
X-11730390Y8523170D02*
X-11630390Y8523170D01*
X-11680390Y7049170D02*
X-11680390Y6949170D01*
X-11730390Y6999170D02*
X-11630390Y6999170D01*
X-11426390Y8573170D02*
X-11426390Y8473170D01*
X-11476390Y8523170D02*
X-11376390Y8523170D01*
X-11426390Y7049170D02*
X-11426390Y6949170D01*
X-11476390Y6999170D02*
X-11376390Y6999170D01*
X-11172390Y8573170D02*
X-11172390Y8473170D01*
X-11222390Y8523170D02*
X-11122390Y8523170D01*
X-11172390Y7049170D02*
X-11172390Y6949170D01*
X-11222390Y6999170D02*
X-11122390Y6999170D01*
X-10918390Y8573170D02*
X-10918390Y8473170D01*
X-10968390Y8523170D02*
X-10868390Y8523170D01*
X-10918390Y7049170D02*
X-10918390Y6949170D01*
X-10968390Y6999170D02*
X-10868390Y6999170D01*
X-10664390Y8573170D02*
X-10664390Y8473170D01*
X-10714390Y8523170D02*
X-10614390Y8523170D01*
X-10664390Y7049170D02*
X-10664390Y6949170D01*
X-10714390Y6999170D02*
X-10614390Y6999170D01*
D13*
X-12247669Y7852249D02*
X-12247669Y7924091D01*
X-12319511Y7924091D01*
X-12319511Y7852249D01*
X-12247669Y7852249D01*
X-12247669Y7598249D02*
X-12247669Y7670091D01*
X-12319511Y7670091D01*
X-12319511Y7598249D01*
X-12247669Y7598249D01*
X-11993669Y7852249D02*
X-11993669Y7924091D01*
X-12065511Y7924091D01*
X-12065511Y7852249D01*
X-11993669Y7852249D01*
X-11993669Y7598249D02*
X-11993669Y7670091D01*
X-12065511Y7670091D01*
X-12065511Y7598249D01*
X-11993669Y7598249D01*
X-11612669Y7280749D02*
X-11612669Y7352591D01*
X-11684511Y7352591D01*
X-11684511Y7280749D01*
X-11612669Y7280749D01*
X-11422169Y7280749D02*
X-11422169Y7352591D01*
X-11494011Y7352591D01*
X-11494011Y7280749D01*
X-11422169Y7280749D01*
X-10510328Y8295989D02*
X-10510328Y8367832D01*
X-10582171Y8367832D01*
X-10582171Y8295989D01*
X-10510328Y8295989D01*
X-10510328Y8105489D02*
X-10510328Y8177332D01*
X-10582171Y8177332D01*
X-10582171Y8105489D01*
X-10510328Y8105489D01*
D11*
X-12223109Y-2696556D02*
X-12223109Y-2496556D01*
X-12223109Y-2496556D02*
X-12175490Y-2496556D01*
X-12175490Y-2496556D02*
X-12146918Y-2506079D01*
X-12146918Y-2506079D02*
X-12127871Y-2525127D01*
X-12127871Y-2525127D02*
X-12118347Y-2544175D01*
X-12118347Y-2544175D02*
X-12108823Y-2582270D01*
X-12108823Y-2582270D02*
X-12108823Y-2610841D01*
X-12108823Y-2610841D02*
X-12118347Y-2648937D01*
X-12118347Y-2648937D02*
X-12127871Y-2667984D01*
X-12127871Y-2667984D02*
X-12146918Y-2687032D01*
X-12146918Y-2687032D02*
X-12175490Y-2696556D01*
X-12175490Y-2696556D02*
X-12223109Y-2696556D01*
X-12023109Y-2696556D02*
X-12023109Y-2563222D01*
X-12023109Y-2601318D02*
X-12013585Y-2582270D01*
X-12013585Y-2582270D02*
X-12004061Y-2572746D01*
X-12004061Y-2572746D02*
X-11985014Y-2563222D01*
X-11985014Y-2563222D02*
X-11965966Y-2563222D01*
X-11899299Y-2696556D02*
X-11899299Y-2563222D01*
X-11899299Y-2496556D02*
X-11908823Y-2506079D01*
X-11908823Y-2506079D02*
X-11899299Y-2515603D01*
X-11899299Y-2515603D02*
X-11889776Y-2506079D01*
X-11889776Y-2506079D02*
X-11899299Y-2496556D01*
X-11899299Y-2496556D02*
X-11899299Y-2515603D01*
X-11775490Y-2696556D02*
X-11794537Y-2687032D01*
X-11794537Y-2687032D02*
X-11804061Y-2667984D01*
X-11804061Y-2667984D02*
X-11804061Y-2496556D01*
X-11670728Y-2696556D02*
X-11689776Y-2687032D01*
X-11689776Y-2687032D02*
X-11699299Y-2667984D01*
X-11699299Y-2667984D02*
X-11699299Y-2496556D01*
X-11442156Y-2696556D02*
X-11442156Y-2496556D01*
X-11442156Y-2496556D02*
X-11375490Y-2639413D01*
X-11375490Y-2639413D02*
X-11308823Y-2496556D01*
X-11308823Y-2496556D02*
X-11308823Y-2696556D01*
X-11127871Y-2696556D02*
X-11127871Y-2591794D01*
X-11127871Y-2591794D02*
X-11137395Y-2572746D01*
X-11137395Y-2572746D02*
X-11156442Y-2563222D01*
X-11156442Y-2563222D02*
X-11194537Y-2563222D01*
X-11194537Y-2563222D02*
X-11213585Y-2572746D01*
X-11127871Y-2687032D02*
X-11146918Y-2696556D01*
X-11146918Y-2696556D02*
X-11194537Y-2696556D01*
X-11194537Y-2696556D02*
X-11213585Y-2687032D01*
X-11213585Y-2687032D02*
X-11223109Y-2667984D01*
X-11223109Y-2667984D02*
X-11223109Y-2648937D01*
X-11223109Y-2648937D02*
X-11213585Y-2629889D01*
X-11213585Y-2629889D02*
X-11194537Y-2620365D01*
X-11194537Y-2620365D02*
X-11146918Y-2620365D01*
X-11146918Y-2620365D02*
X-11127871Y-2610841D01*
X-11032633Y-2563222D02*
X-11032633Y-2763222D01*
X-11032633Y-2572746D02*
X-11013585Y-2563222D01*
X-11013585Y-2563222D02*
X-10975490Y-2563222D01*
X-10975490Y-2563222D02*
X-10956442Y-2572746D01*
X-10956442Y-2572746D02*
X-10946918Y-2582270D01*
X-10946918Y-2582270D02*
X-10937395Y-2601318D01*
X-10937395Y-2601318D02*
X-10937395Y-2658460D01*
X-10937395Y-2658460D02*
X-10946918Y-2677508D01*
X-10946918Y-2677508D02*
X-10956442Y-2687032D01*
X-10956442Y-2687032D02*
X-10975490Y-2696556D01*
X-10975490Y-2696556D02*
X-11013585Y-2696556D01*
X-11013585Y-2696556D02*
X-11032633Y-2687032D01*
X-10851680Y-2677508D02*
X-10842157Y-2687032D01*
X-10842157Y-2687032D02*
X-10851680Y-2696556D01*
X-10851680Y-2696556D02*
X-10861204Y-2687032D01*
X-10861204Y-2687032D02*
X-10851680Y-2677508D01*
X-10851680Y-2677508D02*
X-10851680Y-2696556D01*
X-10851680Y-2572746D02*
X-10842157Y-2582270D01*
X-10842157Y-2582270D02*
X-10851680Y-2591794D01*
X-10851680Y-2591794D02*
X-10861204Y-2582270D01*
X-10861204Y-2582270D02*
X-10851680Y-2572746D01*
X-10851680Y-2572746D02*
X-10851680Y-2591794D01*
D12*
X-12513886Y-3010072D02*
X-12483886Y-3040072D01*
X-12483886Y-3010072D02*
X-12513886Y-3040072D01*
D11*
X-12185014Y-2916556D02*
X-12165966Y-2916556D01*
X-12165966Y-2916556D02*
X-12146918Y-2926079D01*
X-12146918Y-2926079D02*
X-12137395Y-2935603D01*
X-12137395Y-2935603D02*
X-12127871Y-2954651D01*
X-12127871Y-2954651D02*
X-12118347Y-2992746D01*
X-12118347Y-2992746D02*
X-12118347Y-3040365D01*
X-12118347Y-3040365D02*
X-12127871Y-3078460D01*
X-12127871Y-3078460D02*
X-12137395Y-3097508D01*
X-12137395Y-3097508D02*
X-12146918Y-3107032D01*
X-12146918Y-3107032D02*
X-12165966Y-3116556D01*
X-12165966Y-3116556D02*
X-12185014Y-3116556D01*
X-12185014Y-3116556D02*
X-12204061Y-3107032D01*
X-12204061Y-3107032D02*
X-12213585Y-3097508D01*
X-12213585Y-3097508D02*
X-12223109Y-3078460D01*
X-12223109Y-3078460D02*
X-12232633Y-3040365D01*
X-12232633Y-3040365D02*
X-12232633Y-2992746D01*
X-12232633Y-2992746D02*
X-12223109Y-2954651D01*
X-12223109Y-2954651D02*
X-12213585Y-2935603D01*
X-12213585Y-2935603D02*
X-12204061Y-2926079D01*
X-12204061Y-2926079D02*
X-12185014Y-2916556D01*
X-12032633Y-3097508D02*
X-12023109Y-3107032D01*
X-12023109Y-3107032D02*
X-12032633Y-3116556D01*
X-12032633Y-3116556D02*
X-12042156Y-3107032D01*
X-12042156Y-3107032D02*
X-12032633Y-3097508D01*
X-12032633Y-3097508D02*
X-12032633Y-3116556D01*
X-11956442Y-2916556D02*
X-11832633Y-2916556D01*
X-11832633Y-2916556D02*
X-11899299Y-2992746D01*
X-11899299Y-2992746D02*
X-11870728Y-2992746D01*
X-11870728Y-2992746D02*
X-11851680Y-3002270D01*
X-11851680Y-3002270D02*
X-11842156Y-3011794D01*
X-11842156Y-3011794D02*
X-11832633Y-3030841D01*
X-11832633Y-3030841D02*
X-11832633Y-3078460D01*
X-11832633Y-3078460D02*
X-11842156Y-3097508D01*
X-11842156Y-3097508D02*
X-11851680Y-3107032D01*
X-11851680Y-3107032D02*
X-11870728Y-3116556D01*
X-11870728Y-3116556D02*
X-11927871Y-3116556D01*
X-11927871Y-3116556D02*
X-11946918Y-3107032D01*
X-11946918Y-3107032D02*
X-11956442Y-3097508D01*
X-11708823Y-2916556D02*
X-11689775Y-2916556D01*
X-11689775Y-2916556D02*
X-11670728Y-2926079D01*
X-11670728Y-2926079D02*
X-11661204Y-2935603D01*
X-11661204Y-2935603D02*
X-11651680Y-2954651D01*
X-11651680Y-2954651D02*
X-11642156Y-2992746D01*
X-11642156Y-2992746D02*
X-11642156Y-3040365D01*
X-11642156Y-3040365D02*
X-11651680Y-3078460D01*
X-11651680Y-3078460D02*
X-11661204Y-3097508D01*
X-11661204Y-3097508D02*
X-11670728Y-3107032D01*
X-11670728Y-3107032D02*
X-11689775Y-3116556D01*
X-11689775Y-3116556D02*
X-11708823Y-3116556D01*
X-11708823Y-3116556D02*
X-11727871Y-3107032D01*
X-11727871Y-3107032D02*
X-11737395Y-3097508D01*
X-11737395Y-3097508D02*
X-11746918Y-3078460D01*
X-11746918Y-3078460D02*
X-11756442Y-3040365D01*
X-11756442Y-3040365D02*
X-11756442Y-2992746D01*
X-11756442Y-2992746D02*
X-11746918Y-2954651D01*
X-11746918Y-2954651D02*
X-11737395Y-2935603D01*
X-11737395Y-2935603D02*
X-11727871Y-2926079D01*
X-11727871Y-2926079D02*
X-11708823Y-2916556D01*
X-11518347Y-2916556D02*
X-11499299Y-2916556D01*
X-11499299Y-2916556D02*
X-11480252Y-2926079D01*
X-11480252Y-2926079D02*
X-11470728Y-2935603D01*
X-11470728Y-2935603D02*
X-11461204Y-2954651D01*
X-11461204Y-2954651D02*
X-11451680Y-2992746D01*
X-11451680Y-2992746D02*
X-11451680Y-3040365D01*
X-11451680Y-3040365D02*
X-11461204Y-3078460D01*
X-11461204Y-3078460D02*
X-11470728Y-3097508D01*
X-11470728Y-3097508D02*
X-11480252Y-3107032D01*
X-11480252Y-3107032D02*
X-11499299Y-3116556D01*
X-11499299Y-3116556D02*
X-11518347Y-3116556D01*
X-11518347Y-3116556D02*
X-11537395Y-3107032D01*
X-11537395Y-3107032D02*
X-11546918Y-3097508D01*
X-11546918Y-3097508D02*
X-11556442Y-3078460D01*
X-11556442Y-3078460D02*
X-11565966Y-3040365D01*
X-11565966Y-3040365D02*
X-11565966Y-2992746D01*
X-11565966Y-2992746D02*
X-11556442Y-2954651D01*
X-11556442Y-2954651D02*
X-11546918Y-2935603D01*
X-11546918Y-2935603D02*
X-11537395Y-2926079D01*
X-11537395Y-2926079D02*
X-11518347Y-2916556D01*
X-11365966Y-3116556D02*
X-11365966Y-2983222D01*
X-11365966Y-3002270D02*
X-11356442Y-2992746D01*
X-11356442Y-2992746D02*
X-11337395Y-2983222D01*
X-11337395Y-2983222D02*
X-11308823Y-2983222D01*
X-11308823Y-2983222D02*
X-11289775Y-2992746D01*
X-11289775Y-2992746D02*
X-11280252Y-3011794D01*
X-11280252Y-3011794D02*
X-11280252Y-3116556D01*
X-11280252Y-3011794D02*
X-11270728Y-2992746D01*
X-11270728Y-2992746D02*
X-11251680Y-2983222D01*
X-11251680Y-2983222D02*
X-11223109Y-2983222D01*
X-11223109Y-2983222D02*
X-11204061Y-2992746D01*
X-11204061Y-2992746D02*
X-11194537Y-3011794D01*
X-11194537Y-3011794D02*
X-11194537Y-3116556D01*
X-11099299Y-3116556D02*
X-11099299Y-2983222D01*
X-11099299Y-3002270D02*
X-11089776Y-2992746D01*
X-11089776Y-2992746D02*
X-11070728Y-2983222D01*
X-11070728Y-2983222D02*
X-11042156Y-2983222D01*
X-11042156Y-2983222D02*
X-11023109Y-2992746D01*
X-11023109Y-2992746D02*
X-11013585Y-3011794D01*
X-11013585Y-3011794D02*
X-11013585Y-3116556D01*
X-11013585Y-3011794D02*
X-11004061Y-2992746D01*
X-11004061Y-2992746D02*
X-10985014Y-2983222D01*
X-10985014Y-2983222D02*
X-10956442Y-2983222D01*
X-10956442Y-2983222D02*
X-10937395Y-2992746D01*
X-10937395Y-2992746D02*
X-10927871Y-3011794D01*
X-10927871Y-3011794D02*
X-10927871Y-3116556D01*
X-10537395Y-2907032D02*
X-10708823Y-3164175D01*
X-10280252Y-2916556D02*
X-10261204Y-2916556D01*
X-10261204Y-2916556D02*
X-10242156Y-2926079D01*
X-10242156Y-2926079D02*
X-10232633Y-2935603D01*
X-10232633Y-2935603D02*
X-10223109Y-2954651D01*
X-10223109Y-2954651D02*
X-10213585Y-2992746D01*
X-10213585Y-2992746D02*
X-10213585Y-3040365D01*
X-10213585Y-3040365D02*
X-10223109Y-3078460D01*
X-10223109Y-3078460D02*
X-10232633Y-3097508D01*
X-10232633Y-3097508D02*
X-10242156Y-3107032D01*
X-10242156Y-3107032D02*
X-10261204Y-3116556D01*
X-10261204Y-3116556D02*
X-10280252Y-3116556D01*
X-10280252Y-3116556D02*
X-10299299Y-3107032D01*
X-10299299Y-3107032D02*
X-10308823Y-3097508D01*
X-10308823Y-3097508D02*
X-10318347Y-3078460D01*
X-10318347Y-3078460D02*
X-10327871Y-3040365D01*
X-10327871Y-3040365D02*
X-10327871Y-2992746D01*
X-10327871Y-2992746D02*
X-10318347Y-2954651D01*
X-10318347Y-2954651D02*
X-10308823Y-2935603D01*
X-10308823Y-2935603D02*
X-10299299Y-2926079D01*
X-10299299Y-2926079D02*
X-10280252Y-2916556D01*
X-10127871Y-3097508D02*
X-10118347Y-3107032D01*
X-10118347Y-3107032D02*
X-10127871Y-3116556D01*
X-10127871Y-3116556D02*
X-10137394Y-3107032D01*
X-10137394Y-3107032D02*
X-10127871Y-3097508D01*
X-10127871Y-3097508D02*
X-10127871Y-3116556D01*
X-9994537Y-2916556D02*
X-9975490Y-2916556D01*
X-9975490Y-2916556D02*
X-9956442Y-2926079D01*
X-9956442Y-2926079D02*
X-9946918Y-2935603D01*
X-9946918Y-2935603D02*
X-9937394Y-2954651D01*
X-9937394Y-2954651D02*
X-9927871Y-2992746D01*
X-9927871Y-2992746D02*
X-9927871Y-3040365D01*
X-9927871Y-3040365D02*
X-9937394Y-3078460D01*
X-9937394Y-3078460D02*
X-9946918Y-3097508D01*
X-9946918Y-3097508D02*
X-9956442Y-3107032D01*
X-9956442Y-3107032D02*
X-9975490Y-3116556D01*
X-9975490Y-3116556D02*
X-9994537Y-3116556D01*
X-9994537Y-3116556D02*
X-10013585Y-3107032D01*
X-10013585Y-3107032D02*
X-10023109Y-3097508D01*
X-10023109Y-3097508D02*
X-10032633Y-3078460D01*
X-10032633Y-3078460D02*
X-10042156Y-3040365D01*
X-10042156Y-3040365D02*
X-10042156Y-2992746D01*
X-10042156Y-2992746D02*
X-10032633Y-2954651D01*
X-10032633Y-2954651D02*
X-10023109Y-2935603D01*
X-10023109Y-2935603D02*
X-10013585Y-2926079D01*
X-10013585Y-2926079D02*
X-9994537Y-2916556D01*
X-9737394Y-3116556D02*
X-9851680Y-3116556D01*
X-9794537Y-3116556D02*
X-9794537Y-2916556D01*
X-9794537Y-2916556D02*
X-9813585Y-2945127D01*
X-9813585Y-2945127D02*
X-9832633Y-2964175D01*
X-9832633Y-2964175D02*
X-9851680Y-2973698D01*
X-9546918Y-3116556D02*
X-9661204Y-3116556D01*
X-9604061Y-3116556D02*
X-9604061Y-2916556D01*
X-9604061Y-2916556D02*
X-9623109Y-2945127D01*
X-9623109Y-2945127D02*
X-9642156Y-2964175D01*
X-9642156Y-2964175D02*
X-9661204Y-2973698D01*
X-9432633Y-3002270D02*
X-9451680Y-2992746D01*
X-9451680Y-2992746D02*
X-9461204Y-2983222D01*
X-9461204Y-2983222D02*
X-9470728Y-2964175D01*
X-9470728Y-2964175D02*
X-9470728Y-2954651D01*
X-9470728Y-2954651D02*
X-9461204Y-2935603D01*
X-9461204Y-2935603D02*
X-9451680Y-2926079D01*
X-9451680Y-2926079D02*
X-9432633Y-2916556D01*
X-9432633Y-2916556D02*
X-9394537Y-2916556D01*
X-9394537Y-2916556D02*
X-9375490Y-2926079D01*
X-9375490Y-2926079D02*
X-9365966Y-2935603D01*
X-9365966Y-2935603D02*
X-9356442Y-2954651D01*
X-9356442Y-2954651D02*
X-9356442Y-2964175D01*
X-9356442Y-2964175D02*
X-9365966Y-2983222D01*
X-9365966Y-2983222D02*
X-9375490Y-2992746D01*
X-9375490Y-2992746D02*
X-9394537Y-3002270D01*
X-9394537Y-3002270D02*
X-9432633Y-3002270D01*
X-9432633Y-3002270D02*
X-9451680Y-3011794D01*
X-9451680Y-3011794D02*
X-9461204Y-3021317D01*
X-9461204Y-3021317D02*
X-9470728Y-3040365D01*
X-9470728Y-3040365D02*
X-9470728Y-3078460D01*
X-9470728Y-3078460D02*
X-9461204Y-3097508D01*
X-9461204Y-3097508D02*
X-9451680Y-3107032D01*
X-9451680Y-3107032D02*
X-9432633Y-3116556D01*
X-9432633Y-3116556D02*
X-9394537Y-3116556D01*
X-9394537Y-3116556D02*
X-9375490Y-3107032D01*
X-9375490Y-3107032D02*
X-9365966Y-3097508D01*
X-9365966Y-3097508D02*
X-9356442Y-3078460D01*
X-9356442Y-3078460D02*
X-9356442Y-3040365D01*
X-9356442Y-3040365D02*
X-9365966Y-3021317D01*
X-9365966Y-3021317D02*
X-9375490Y-3011794D01*
X-9375490Y-3011794D02*
X-9394537Y-3002270D01*
X-9280252Y-2916556D02*
X-9280252Y-2954651D01*
X-9204061Y-2916556D02*
X-9204061Y-2954651D01*
X-8908823Y-3192746D02*
X-8918347Y-3183222D01*
X-8918347Y-3183222D02*
X-8937394Y-3154651D01*
X-8937394Y-3154651D02*
X-8946918Y-3135603D01*
X-8946918Y-3135603D02*
X-8956442Y-3107032D01*
X-8956442Y-3107032D02*
X-8965966Y-3059413D01*
X-8965966Y-3059413D02*
X-8965966Y-3021317D01*
X-8965966Y-3021317D02*
X-8956442Y-2973698D01*
X-8956442Y-2973698D02*
X-8946918Y-2945127D01*
X-8946918Y-2945127D02*
X-8937394Y-2926079D01*
X-8937394Y-2926079D02*
X-8918347Y-2897508D01*
X-8918347Y-2897508D02*
X-8908823Y-2887984D01*
X-8727871Y-3116556D02*
X-8842156Y-3116556D01*
X-8785013Y-3116556D02*
X-8785013Y-2916556D01*
X-8785013Y-2916556D02*
X-8804061Y-2945127D01*
X-8804061Y-2945127D02*
X-8823109Y-2964175D01*
X-8823109Y-2964175D02*
X-8842156Y-2973698D01*
X-8556442Y-2916556D02*
X-8594537Y-2916556D01*
X-8594537Y-2916556D02*
X-8613585Y-2926079D01*
X-8613585Y-2926079D02*
X-8623109Y-2935603D01*
X-8623109Y-2935603D02*
X-8642156Y-2964175D01*
X-8642156Y-2964175D02*
X-8651680Y-3002270D01*
X-8651680Y-3002270D02*
X-8651680Y-3078460D01*
X-8651680Y-3078460D02*
X-8642156Y-3097508D01*
X-8642156Y-3097508D02*
X-8632632Y-3107032D01*
X-8632632Y-3107032D02*
X-8613585Y-3116556D01*
X-8613585Y-3116556D02*
X-8575490Y-3116556D01*
X-8575490Y-3116556D02*
X-8556442Y-3107032D01*
X-8556442Y-3107032D02*
X-8546918Y-3097508D01*
X-8546918Y-3097508D02*
X-8537394Y-3078460D01*
X-8537394Y-3078460D02*
X-8537394Y-3030841D01*
X-8537394Y-3030841D02*
X-8546918Y-3011794D01*
X-8546918Y-3011794D02*
X-8556442Y-3002270D01*
X-8556442Y-3002270D02*
X-8575490Y-2992746D01*
X-8575490Y-2992746D02*
X-8613585Y-2992746D01*
X-8613585Y-2992746D02*
X-8632632Y-3002270D01*
X-8632632Y-3002270D02*
X-8642156Y-3011794D01*
X-8642156Y-3011794D02*
X-8651680Y-3030841D01*
X-8299299Y-3116556D02*
X-8299299Y-2916556D01*
X-8213585Y-3116556D02*
X-8213585Y-3011794D01*
X-8213585Y-3011794D02*
X-8223108Y-2992746D01*
X-8223108Y-2992746D02*
X-8242156Y-2983222D01*
X-8242156Y-2983222D02*
X-8270728Y-2983222D01*
X-8270728Y-2983222D02*
X-8289775Y-2992746D01*
X-8289775Y-2992746D02*
X-8299299Y-3002270D01*
X-8089775Y-3116556D02*
X-8108823Y-3107032D01*
X-8108823Y-3107032D02*
X-8118347Y-3097508D01*
X-8118347Y-3097508D02*
X-8127870Y-3078460D01*
X-8127870Y-3078460D02*
X-8127870Y-3021317D01*
X-8127870Y-3021317D02*
X-8118347Y-3002270D01*
X-8118347Y-3002270D02*
X-8108823Y-2992746D01*
X-8108823Y-2992746D02*
X-8089775Y-2983222D01*
X-8089775Y-2983222D02*
X-8061204Y-2983222D01*
X-8061204Y-2983222D02*
X-8042156Y-2992746D01*
X-8042156Y-2992746D02*
X-8032632Y-3002270D01*
X-8032632Y-3002270D02*
X-8023108Y-3021317D01*
X-8023108Y-3021317D02*
X-8023108Y-3078460D01*
X-8023108Y-3078460D02*
X-8032632Y-3097508D01*
X-8032632Y-3097508D02*
X-8042156Y-3107032D01*
X-8042156Y-3107032D02*
X-8061204Y-3116556D01*
X-8061204Y-3116556D02*
X-8089775Y-3116556D01*
X-7908823Y-3116556D02*
X-7927870Y-3107032D01*
X-7927870Y-3107032D02*
X-7937394Y-3087984D01*
X-7937394Y-3087984D02*
X-7937394Y-2916556D01*
X-7756442Y-3107032D02*
X-7775489Y-3116556D01*
X-7775489Y-3116556D02*
X-7813585Y-3116556D01*
X-7813585Y-3116556D02*
X-7832632Y-3107032D01*
X-7832632Y-3107032D02*
X-7842156Y-3087984D01*
X-7842156Y-3087984D02*
X-7842156Y-3011794D01*
X-7842156Y-3011794D02*
X-7832632Y-2992746D01*
X-7832632Y-2992746D02*
X-7813585Y-2983222D01*
X-7813585Y-2983222D02*
X-7775489Y-2983222D01*
X-7775489Y-2983222D02*
X-7756442Y-2992746D01*
X-7756442Y-2992746D02*
X-7746918Y-3011794D01*
X-7746918Y-3011794D02*
X-7746918Y-3030841D01*
X-7746918Y-3030841D02*
X-7842156Y-3049889D01*
X-7670727Y-3107032D02*
X-7651680Y-3116556D01*
X-7651680Y-3116556D02*
X-7613585Y-3116556D01*
X-7613585Y-3116556D02*
X-7594537Y-3107032D01*
X-7594537Y-3107032D02*
X-7585013Y-3087984D01*
X-7585013Y-3087984D02*
X-7585013Y-3078460D01*
X-7585013Y-3078460D02*
X-7594537Y-3059413D01*
X-7594537Y-3059413D02*
X-7613585Y-3049889D01*
X-7613585Y-3049889D02*
X-7642156Y-3049889D01*
X-7642156Y-3049889D02*
X-7661204Y-3040365D01*
X-7661204Y-3040365D02*
X-7670727Y-3021317D01*
X-7670727Y-3021317D02*
X-7670727Y-3011794D01*
X-7670727Y-3011794D02*
X-7661204Y-2992746D01*
X-7661204Y-2992746D02*
X-7642156Y-2983222D01*
X-7642156Y-2983222D02*
X-7613585Y-2983222D01*
X-7613585Y-2983222D02*
X-7594537Y-2992746D01*
X-7518346Y-3192746D02*
X-7508823Y-3183222D01*
X-7508823Y-3183222D02*
X-7489775Y-3154651D01*
X-7489775Y-3154651D02*
X-7480251Y-3135603D01*
X-7480251Y-3135603D02*
X-7470727Y-3107032D01*
X-7470727Y-3107032D02*
X-7461204Y-3059413D01*
X-7461204Y-3059413D02*
X-7461204Y-3021317D01*
X-7461204Y-3021317D02*
X-7470727Y-2973698D01*
X-7470727Y-2973698D02*
X-7480251Y-2945127D01*
X-7480251Y-2945127D02*
X-7489775Y-2926079D01*
X-7489775Y-2926079D02*
X-7508823Y-2897508D01*
X-7508823Y-2897508D02*
X-7518346Y-2887984D01*
D12*
X-12483886Y-3289072D02*
G75*
G02*
X-12513886Y-3289072I-15000J0D01*
G01*
X-12513886Y-3289072D02*
G75*
G02*
X-12483886Y-3289072I15000J0D01*
G01*
D11*
X-12185014Y-3180556D02*
X-12165966Y-3180556D01*
X-12165966Y-3180556D02*
X-12146918Y-3190079D01*
X-12146918Y-3190079D02*
X-12137395Y-3199603D01*
X-12137395Y-3199603D02*
X-12127871Y-3218651D01*
X-12127871Y-3218651D02*
X-12118347Y-3256746D01*
X-12118347Y-3256746D02*
X-12118347Y-3304365D01*
X-12118347Y-3304365D02*
X-12127871Y-3342460D01*
X-12127871Y-3342460D02*
X-12137395Y-3361508D01*
X-12137395Y-3361508D02*
X-12146918Y-3371032D01*
X-12146918Y-3371032D02*
X-12165966Y-3380556D01*
X-12165966Y-3380556D02*
X-12185014Y-3380556D01*
X-12185014Y-3380556D02*
X-12204061Y-3371032D01*
X-12204061Y-3371032D02*
X-12213585Y-3361508D01*
X-12213585Y-3361508D02*
X-12223109Y-3342460D01*
X-12223109Y-3342460D02*
X-12232633Y-3304365D01*
X-12232633Y-3304365D02*
X-12232633Y-3256746D01*
X-12232633Y-3256746D02*
X-12223109Y-3218651D01*
X-12223109Y-3218651D02*
X-12213585Y-3199603D01*
X-12213585Y-3199603D02*
X-12204061Y-3190079D01*
X-12204061Y-3190079D02*
X-12185014Y-3180556D01*
X-12032633Y-3361508D02*
X-12023109Y-3371032D01*
X-12023109Y-3371032D02*
X-12032633Y-3380556D01*
X-12032633Y-3380556D02*
X-12042156Y-3371032D01*
X-12042156Y-3371032D02*
X-12032633Y-3361508D01*
X-12032633Y-3361508D02*
X-12032633Y-3380556D01*
X-11956442Y-3180556D02*
X-11832633Y-3180556D01*
X-11832633Y-3180556D02*
X-11899299Y-3256746D01*
X-11899299Y-3256746D02*
X-11870728Y-3256746D01*
X-11870728Y-3256746D02*
X-11851680Y-3266270D01*
X-11851680Y-3266270D02*
X-11842156Y-3275794D01*
X-11842156Y-3275794D02*
X-11832633Y-3294841D01*
X-11832633Y-3294841D02*
X-11832633Y-3342460D01*
X-11832633Y-3342460D02*
X-11842156Y-3361508D01*
X-11842156Y-3361508D02*
X-11851680Y-3371032D01*
X-11851680Y-3371032D02*
X-11870728Y-3380556D01*
X-11870728Y-3380556D02*
X-11927871Y-3380556D01*
X-11927871Y-3380556D02*
X-11946918Y-3371032D01*
X-11946918Y-3371032D02*
X-11956442Y-3361508D01*
X-11708823Y-3180556D02*
X-11689775Y-3180556D01*
X-11689775Y-3180556D02*
X-11670728Y-3190079D01*
X-11670728Y-3190079D02*
X-11661204Y-3199603D01*
X-11661204Y-3199603D02*
X-11651680Y-3218651D01*
X-11651680Y-3218651D02*
X-11642156Y-3256746D01*
X-11642156Y-3256746D02*
X-11642156Y-3304365D01*
X-11642156Y-3304365D02*
X-11651680Y-3342460D01*
X-11651680Y-3342460D02*
X-11661204Y-3361508D01*
X-11661204Y-3361508D02*
X-11670728Y-3371032D01*
X-11670728Y-3371032D02*
X-11689775Y-3380556D01*
X-11689775Y-3380556D02*
X-11708823Y-3380556D01*
X-11708823Y-3380556D02*
X-11727871Y-3371032D01*
X-11727871Y-3371032D02*
X-11737395Y-3361508D01*
X-11737395Y-3361508D02*
X-11746918Y-3342460D01*
X-11746918Y-3342460D02*
X-11756442Y-3304365D01*
X-11756442Y-3304365D02*
X-11756442Y-3256746D01*
X-11756442Y-3256746D02*
X-11746918Y-3218651D01*
X-11746918Y-3218651D02*
X-11737395Y-3199603D01*
X-11737395Y-3199603D02*
X-11727871Y-3190079D01*
X-11727871Y-3190079D02*
X-11708823Y-3180556D01*
X-11518347Y-3180556D02*
X-11499299Y-3180556D01*
X-11499299Y-3180556D02*
X-11480252Y-3190079D01*
X-11480252Y-3190079D02*
X-11470728Y-3199603D01*
X-11470728Y-3199603D02*
X-11461204Y-3218651D01*
X-11461204Y-3218651D02*
X-11451680Y-3256746D01*
X-11451680Y-3256746D02*
X-11451680Y-3304365D01*
X-11451680Y-3304365D02*
X-11461204Y-3342460D01*
X-11461204Y-3342460D02*
X-11470728Y-3361508D01*
X-11470728Y-3361508D02*
X-11480252Y-3371032D01*
X-11480252Y-3371032D02*
X-11499299Y-3380556D01*
X-11499299Y-3380556D02*
X-11518347Y-3380556D01*
X-11518347Y-3380556D02*
X-11537395Y-3371032D01*
X-11537395Y-3371032D02*
X-11546918Y-3361508D01*
X-11546918Y-3361508D02*
X-11556442Y-3342460D01*
X-11556442Y-3342460D02*
X-11565966Y-3304365D01*
X-11565966Y-3304365D02*
X-11565966Y-3256746D01*
X-11565966Y-3256746D02*
X-11556442Y-3218651D01*
X-11556442Y-3218651D02*
X-11546918Y-3199603D01*
X-11546918Y-3199603D02*
X-11537395Y-3190079D01*
X-11537395Y-3190079D02*
X-11518347Y-3180556D01*
X-11365966Y-3380556D02*
X-11365966Y-3247222D01*
X-11365966Y-3266270D02*
X-11356442Y-3256746D01*
X-11356442Y-3256746D02*
X-11337395Y-3247222D01*
X-11337395Y-3247222D02*
X-11308823Y-3247222D01*
X-11308823Y-3247222D02*
X-11289775Y-3256746D01*
X-11289775Y-3256746D02*
X-11280252Y-3275794D01*
X-11280252Y-3275794D02*
X-11280252Y-3380556D01*
X-11280252Y-3275794D02*
X-11270728Y-3256746D01*
X-11270728Y-3256746D02*
X-11251680Y-3247222D01*
X-11251680Y-3247222D02*
X-11223109Y-3247222D01*
X-11223109Y-3247222D02*
X-11204061Y-3256746D01*
X-11204061Y-3256746D02*
X-11194537Y-3275794D01*
X-11194537Y-3275794D02*
X-11194537Y-3380556D01*
X-11099299Y-3380556D02*
X-11099299Y-3247222D01*
X-11099299Y-3266270D02*
X-11089776Y-3256746D01*
X-11089776Y-3256746D02*
X-11070728Y-3247222D01*
X-11070728Y-3247222D02*
X-11042156Y-3247222D01*
X-11042156Y-3247222D02*
X-11023109Y-3256746D01*
X-11023109Y-3256746D02*
X-11013585Y-3275794D01*
X-11013585Y-3275794D02*
X-11013585Y-3380556D01*
X-11013585Y-3275794D02*
X-11004061Y-3256746D01*
X-11004061Y-3256746D02*
X-10985014Y-3247222D01*
X-10985014Y-3247222D02*
X-10956442Y-3247222D01*
X-10956442Y-3247222D02*
X-10937395Y-3256746D01*
X-10937395Y-3256746D02*
X-10927871Y-3275794D01*
X-10927871Y-3275794D02*
X-10927871Y-3380556D01*
X-10537395Y-3171032D02*
X-10708823Y-3428175D01*
X-10280252Y-3180556D02*
X-10261204Y-3180556D01*
X-10261204Y-3180556D02*
X-10242156Y-3190079D01*
X-10242156Y-3190079D02*
X-10232633Y-3199603D01*
X-10232633Y-3199603D02*
X-10223109Y-3218651D01*
X-10223109Y-3218651D02*
X-10213585Y-3256746D01*
X-10213585Y-3256746D02*
X-10213585Y-3304365D01*
X-10213585Y-3304365D02*
X-10223109Y-3342460D01*
X-10223109Y-3342460D02*
X-10232633Y-3361508D01*
X-10232633Y-3361508D02*
X-10242156Y-3371032D01*
X-10242156Y-3371032D02*
X-10261204Y-3380556D01*
X-10261204Y-3380556D02*
X-10280252Y-3380556D01*
X-10280252Y-3380556D02*
X-10299299Y-3371032D01*
X-10299299Y-3371032D02*
X-10308823Y-3361508D01*
X-10308823Y-3361508D02*
X-10318347Y-3342460D01*
X-10318347Y-3342460D02*
X-10327871Y-3304365D01*
X-10327871Y-3304365D02*
X-10327871Y-3256746D01*
X-10327871Y-3256746D02*
X-10318347Y-3218651D01*
X-10318347Y-3218651D02*
X-10308823Y-3199603D01*
X-10308823Y-3199603D02*
X-10299299Y-3190079D01*
X-10299299Y-3190079D02*
X-10280252Y-3180556D01*
X-10127871Y-3361508D02*
X-10118347Y-3371032D01*
X-10118347Y-3371032D02*
X-10127871Y-3380556D01*
X-10127871Y-3380556D02*
X-10137394Y-3371032D01*
X-10137394Y-3371032D02*
X-10127871Y-3361508D01*
X-10127871Y-3361508D02*
X-10127871Y-3380556D01*
X-9994537Y-3180556D02*
X-9975490Y-3180556D01*
X-9975490Y-3180556D02*
X-9956442Y-3190079D01*
X-9956442Y-3190079D02*
X-9946918Y-3199603D01*
X-9946918Y-3199603D02*
X-9937394Y-3218651D01*
X-9937394Y-3218651D02*
X-9927871Y-3256746D01*
X-9927871Y-3256746D02*
X-9927871Y-3304365D01*
X-9927871Y-3304365D02*
X-9937394Y-3342460D01*
X-9937394Y-3342460D02*
X-9946918Y-3361508D01*
X-9946918Y-3361508D02*
X-9956442Y-3371032D01*
X-9956442Y-3371032D02*
X-9975490Y-3380556D01*
X-9975490Y-3380556D02*
X-9994537Y-3380556D01*
X-9994537Y-3380556D02*
X-10013585Y-3371032D01*
X-10013585Y-3371032D02*
X-10023109Y-3361508D01*
X-10023109Y-3361508D02*
X-10032633Y-3342460D01*
X-10032633Y-3342460D02*
X-10042156Y-3304365D01*
X-10042156Y-3304365D02*
X-10042156Y-3256746D01*
X-10042156Y-3256746D02*
X-10032633Y-3218651D01*
X-10032633Y-3218651D02*
X-10023109Y-3199603D01*
X-10023109Y-3199603D02*
X-10013585Y-3190079D01*
X-10013585Y-3190079D02*
X-9994537Y-3180556D01*
X-9737394Y-3380556D02*
X-9851680Y-3380556D01*
X-9794537Y-3380556D02*
X-9794537Y-3180556D01*
X-9794537Y-3180556D02*
X-9813585Y-3209127D01*
X-9813585Y-3209127D02*
X-9832633Y-3228175D01*
X-9832633Y-3228175D02*
X-9851680Y-3237698D01*
X-9546918Y-3380556D02*
X-9661204Y-3380556D01*
X-9604061Y-3380556D02*
X-9604061Y-3180556D01*
X-9604061Y-3180556D02*
X-9623109Y-3209127D01*
X-9623109Y-3209127D02*
X-9642156Y-3228175D01*
X-9642156Y-3228175D02*
X-9661204Y-3237698D01*
X-9432633Y-3266270D02*
X-9451680Y-3256746D01*
X-9451680Y-3256746D02*
X-9461204Y-3247222D01*
X-9461204Y-3247222D02*
X-9470728Y-3228175D01*
X-9470728Y-3228175D02*
X-9470728Y-3218651D01*
X-9470728Y-3218651D02*
X-9461204Y-3199603D01*
X-9461204Y-3199603D02*
X-9451680Y-3190079D01*
X-9451680Y-3190079D02*
X-9432633Y-3180556D01*
X-9432633Y-3180556D02*
X-9394537Y-3180556D01*
X-9394537Y-3180556D02*
X-9375490Y-3190079D01*
X-9375490Y-3190079D02*
X-9365966Y-3199603D01*
X-9365966Y-3199603D02*
X-9356442Y-3218651D01*
X-9356442Y-3218651D02*
X-9356442Y-3228175D01*
X-9356442Y-3228175D02*
X-9365966Y-3247222D01*
X-9365966Y-3247222D02*
X-9375490Y-3256746D01*
X-9375490Y-3256746D02*
X-9394537Y-3266270D01*
X-9394537Y-3266270D02*
X-9432633Y-3266270D01*
X-9432633Y-3266270D02*
X-9451680Y-3275794D01*
X-9451680Y-3275794D02*
X-9461204Y-3285317D01*
X-9461204Y-3285317D02*
X-9470728Y-3304365D01*
X-9470728Y-3304365D02*
X-9470728Y-3342460D01*
X-9470728Y-3342460D02*
X-9461204Y-3361508D01*
X-9461204Y-3361508D02*
X-9451680Y-3371032D01*
X-9451680Y-3371032D02*
X-9432633Y-3380556D01*
X-9432633Y-3380556D02*
X-9394537Y-3380556D01*
X-9394537Y-3380556D02*
X-9375490Y-3371032D01*
X-9375490Y-3371032D02*
X-9365966Y-3361508D01*
X-9365966Y-3361508D02*
X-9356442Y-3342460D01*
X-9356442Y-3342460D02*
X-9356442Y-3304365D01*
X-9356442Y-3304365D02*
X-9365966Y-3285317D01*
X-9365966Y-3285317D02*
X-9375490Y-3275794D01*
X-9375490Y-3275794D02*
X-9394537Y-3266270D01*
X-9280252Y-3180556D02*
X-9280252Y-3218651D01*
X-9204061Y-3180556D02*
X-9204061Y-3218651D01*
X-8908823Y-3456746D02*
X-8918347Y-3447222D01*
X-8918347Y-3447222D02*
X-8937394Y-3418651D01*
X-8937394Y-3418651D02*
X-8946918Y-3399603D01*
X-8946918Y-3399603D02*
X-8956442Y-3371032D01*
X-8956442Y-3371032D02*
X-8965966Y-3323413D01*
X-8965966Y-3323413D02*
X-8965966Y-3285317D01*
X-8965966Y-3285317D02*
X-8956442Y-3237698D01*
X-8956442Y-3237698D02*
X-8946918Y-3209127D01*
X-8946918Y-3209127D02*
X-8937394Y-3190079D01*
X-8937394Y-3190079D02*
X-8918347Y-3161508D01*
X-8918347Y-3161508D02*
X-8908823Y-3151984D01*
X-8804061Y-3266270D02*
X-8823109Y-3256746D01*
X-8823109Y-3256746D02*
X-8832632Y-3247222D01*
X-8832632Y-3247222D02*
X-8842156Y-3228175D01*
X-8842156Y-3228175D02*
X-8842156Y-3218651D01*
X-8842156Y-3218651D02*
X-8832632Y-3199603D01*
X-8832632Y-3199603D02*
X-8823109Y-3190079D01*
X-8823109Y-3190079D02*
X-8804061Y-3180556D01*
X-8804061Y-3180556D02*
X-8765966Y-3180556D01*
X-8765966Y-3180556D02*
X-8746918Y-3190079D01*
X-8746918Y-3190079D02*
X-8737394Y-3199603D01*
X-8737394Y-3199603D02*
X-8727871Y-3218651D01*
X-8727871Y-3218651D02*
X-8727871Y-3228175D01*
X-8727871Y-3228175D02*
X-8737394Y-3247222D01*
X-8737394Y-3247222D02*
X-8746918Y-3256746D01*
X-8746918Y-3256746D02*
X-8765966Y-3266270D01*
X-8765966Y-3266270D02*
X-8804061Y-3266270D01*
X-8804061Y-3266270D02*
X-8823109Y-3275794D01*
X-8823109Y-3275794D02*
X-8832632Y-3285317D01*
X-8832632Y-3285317D02*
X-8842156Y-3304365D01*
X-8842156Y-3304365D02*
X-8842156Y-3342460D01*
X-8842156Y-3342460D02*
X-8832632Y-3361508D01*
X-8832632Y-3361508D02*
X-8823109Y-3371032D01*
X-8823109Y-3371032D02*
X-8804061Y-3380556D01*
X-8804061Y-3380556D02*
X-8765966Y-3380556D01*
X-8765966Y-3380556D02*
X-8746918Y-3371032D01*
X-8746918Y-3371032D02*
X-8737394Y-3361508D01*
X-8737394Y-3361508D02*
X-8727871Y-3342460D01*
X-8727871Y-3342460D02*
X-8727871Y-3304365D01*
X-8727871Y-3304365D02*
X-8737394Y-3285317D01*
X-8737394Y-3285317D02*
X-8746918Y-3275794D01*
X-8746918Y-3275794D02*
X-8765966Y-3266270D01*
X-8489775Y-3380556D02*
X-8489775Y-3180556D01*
X-8404061Y-3380556D02*
X-8404061Y-3275794D01*
X-8404061Y-3275794D02*
X-8413585Y-3256746D01*
X-8413585Y-3256746D02*
X-8432632Y-3247222D01*
X-8432632Y-3247222D02*
X-8461204Y-3247222D01*
X-8461204Y-3247222D02*
X-8480251Y-3256746D01*
X-8480251Y-3256746D02*
X-8489775Y-3266270D01*
X-8280251Y-3380556D02*
X-8299299Y-3371032D01*
X-8299299Y-3371032D02*
X-8308823Y-3361508D01*
X-8308823Y-3361508D02*
X-8318347Y-3342460D01*
X-8318347Y-3342460D02*
X-8318347Y-3285317D01*
X-8318347Y-3285317D02*
X-8308823Y-3266270D01*
X-8308823Y-3266270D02*
X-8299299Y-3256746D01*
X-8299299Y-3256746D02*
X-8280251Y-3247222D01*
X-8280251Y-3247222D02*
X-8251680Y-3247222D01*
X-8251680Y-3247222D02*
X-8232632Y-3256746D01*
X-8232632Y-3256746D02*
X-8223108Y-3266270D01*
X-8223108Y-3266270D02*
X-8213585Y-3285317D01*
X-8213585Y-3285317D02*
X-8213585Y-3342460D01*
X-8213585Y-3342460D02*
X-8223108Y-3361508D01*
X-8223108Y-3361508D02*
X-8232632Y-3371032D01*
X-8232632Y-3371032D02*
X-8251680Y-3380556D01*
X-8251680Y-3380556D02*
X-8280251Y-3380556D01*
X-8099299Y-3380556D02*
X-8118347Y-3371032D01*
X-8118347Y-3371032D02*
X-8127870Y-3351984D01*
X-8127870Y-3351984D02*
X-8127870Y-3180556D01*
X-7946918Y-3371032D02*
X-7965966Y-3380556D01*
X-7965966Y-3380556D02*
X-8004061Y-3380556D01*
X-8004061Y-3380556D02*
X-8023108Y-3371032D01*
X-8023108Y-3371032D02*
X-8032632Y-3351984D01*
X-8032632Y-3351984D02*
X-8032632Y-3275794D01*
X-8032632Y-3275794D02*
X-8023108Y-3256746D01*
X-8023108Y-3256746D02*
X-8004061Y-3247222D01*
X-8004061Y-3247222D02*
X-7965966Y-3247222D01*
X-7965966Y-3247222D02*
X-7946918Y-3256746D01*
X-7946918Y-3256746D02*
X-7937394Y-3275794D01*
X-7937394Y-3275794D02*
X-7937394Y-3294841D01*
X-7937394Y-3294841D02*
X-8032632Y-3313889D01*
X-7861204Y-3371032D02*
X-7842156Y-3380556D01*
X-7842156Y-3380556D02*
X-7804061Y-3380556D01*
X-7804061Y-3380556D02*
X-7785013Y-3371032D01*
X-7785013Y-3371032D02*
X-7775489Y-3351984D01*
X-7775489Y-3351984D02*
X-7775489Y-3342460D01*
X-7775489Y-3342460D02*
X-7785013Y-3323413D01*
X-7785013Y-3323413D02*
X-7804061Y-3313889D01*
X-7804061Y-3313889D02*
X-7832632Y-3313889D01*
X-7832632Y-3313889D02*
X-7851680Y-3304365D01*
X-7851680Y-3304365D02*
X-7861204Y-3285317D01*
X-7861204Y-3285317D02*
X-7861204Y-3275794D01*
X-7861204Y-3275794D02*
X-7851680Y-3256746D01*
X-7851680Y-3256746D02*
X-7832632Y-3247222D01*
X-7832632Y-3247222D02*
X-7804061Y-3247222D01*
X-7804061Y-3247222D02*
X-7785013Y-3256746D01*
X-7708823Y-3456746D02*
X-7699299Y-3447222D01*
X-7699299Y-3447222D02*
X-7680251Y-3418651D01*
X-7680251Y-3418651D02*
X-7670727Y-3399603D01*
X-7670727Y-3399603D02*
X-7661204Y-3371032D01*
X-7661204Y-3371032D02*
X-7651680Y-3323413D01*
X-7651680Y-3323413D02*
X-7651680Y-3285317D01*
X-7651680Y-3285317D02*
X-7661204Y-3237698D01*
X-7661204Y-3237698D02*
X-7670727Y-3209127D01*
X-7670727Y-3209127D02*
X-7680251Y-3190079D01*
X-7680251Y-3190079D02*
X-7699299Y-3161508D01*
X-7699299Y-3161508D02*
X-7708823Y-3151984D01*
D12*
X-12533886Y-3503072D02*
X-12533886Y-3603072D01*
X-12583886Y-3553072D02*
X-12483886Y-3553072D01*
D11*
X-12118347Y-3644556D02*
X-12232633Y-3644556D01*
X-12175490Y-3644556D02*
X-12175490Y-3444556D01*
X-12175490Y-3444556D02*
X-12194537Y-3473127D01*
X-12194537Y-3473127D02*
X-12213585Y-3492175D01*
X-12213585Y-3492175D02*
X-12232633Y-3501698D01*
X-12032633Y-3625508D02*
X-12023109Y-3635032D01*
X-12023109Y-3635032D02*
X-12032633Y-3644556D01*
X-12032633Y-3644556D02*
X-12042156Y-3635032D01*
X-12042156Y-3635032D02*
X-12032633Y-3625508D01*
X-12032633Y-3625508D02*
X-12032633Y-3644556D01*
X-11899299Y-3444556D02*
X-11880252Y-3444556D01*
X-11880252Y-3444556D02*
X-11861204Y-3454079D01*
X-11861204Y-3454079D02*
X-11851680Y-3463603D01*
X-11851680Y-3463603D02*
X-11842156Y-3482651D01*
X-11842156Y-3482651D02*
X-11832633Y-3520746D01*
X-11832633Y-3520746D02*
X-11832633Y-3568365D01*
X-11832633Y-3568365D02*
X-11842156Y-3606460D01*
X-11842156Y-3606460D02*
X-11851680Y-3625508D01*
X-11851680Y-3625508D02*
X-11861204Y-3635032D01*
X-11861204Y-3635032D02*
X-11880252Y-3644556D01*
X-11880252Y-3644556D02*
X-11899299Y-3644556D01*
X-11899299Y-3644556D02*
X-11918347Y-3635032D01*
X-11918347Y-3635032D02*
X-11927871Y-3625508D01*
X-11927871Y-3625508D02*
X-11937395Y-3606460D01*
X-11937395Y-3606460D02*
X-11946918Y-3568365D01*
X-11946918Y-3568365D02*
X-11946918Y-3520746D01*
X-11946918Y-3520746D02*
X-11937395Y-3482651D01*
X-11937395Y-3482651D02*
X-11927871Y-3463603D01*
X-11927871Y-3463603D02*
X-11918347Y-3454079D01*
X-11918347Y-3454079D02*
X-11899299Y-3444556D01*
X-11708823Y-3444556D02*
X-11689775Y-3444556D01*
X-11689775Y-3444556D02*
X-11670728Y-3454079D01*
X-11670728Y-3454079D02*
X-11661204Y-3463603D01*
X-11661204Y-3463603D02*
X-11651680Y-3482651D01*
X-11651680Y-3482651D02*
X-11642156Y-3520746D01*
X-11642156Y-3520746D02*
X-11642156Y-3568365D01*
X-11642156Y-3568365D02*
X-11651680Y-3606460D01*
X-11651680Y-3606460D02*
X-11661204Y-3625508D01*
X-11661204Y-3625508D02*
X-11670728Y-3635032D01*
X-11670728Y-3635032D02*
X-11689775Y-3644556D01*
X-11689775Y-3644556D02*
X-11708823Y-3644556D01*
X-11708823Y-3644556D02*
X-11727871Y-3635032D01*
X-11727871Y-3635032D02*
X-11737395Y-3625508D01*
X-11737395Y-3625508D02*
X-11746918Y-3606460D01*
X-11746918Y-3606460D02*
X-11756442Y-3568365D01*
X-11756442Y-3568365D02*
X-11756442Y-3520746D01*
X-11756442Y-3520746D02*
X-11746918Y-3482651D01*
X-11746918Y-3482651D02*
X-11737395Y-3463603D01*
X-11737395Y-3463603D02*
X-11727871Y-3454079D01*
X-11727871Y-3454079D02*
X-11708823Y-3444556D01*
X-11518347Y-3444556D02*
X-11499299Y-3444556D01*
X-11499299Y-3444556D02*
X-11480252Y-3454079D01*
X-11480252Y-3454079D02*
X-11470728Y-3463603D01*
X-11470728Y-3463603D02*
X-11461204Y-3482651D01*
X-11461204Y-3482651D02*
X-11451680Y-3520746D01*
X-11451680Y-3520746D02*
X-11451680Y-3568365D01*
X-11451680Y-3568365D02*
X-11461204Y-3606460D01*
X-11461204Y-3606460D02*
X-11470728Y-3625508D01*
X-11470728Y-3625508D02*
X-11480252Y-3635032D01*
X-11480252Y-3635032D02*
X-11499299Y-3644556D01*
X-11499299Y-3644556D02*
X-11518347Y-3644556D01*
X-11518347Y-3644556D02*
X-11537395Y-3635032D01*
X-11537395Y-3635032D02*
X-11546918Y-3625508D01*
X-11546918Y-3625508D02*
X-11556442Y-3606460D01*
X-11556442Y-3606460D02*
X-11565966Y-3568365D01*
X-11565966Y-3568365D02*
X-11565966Y-3520746D01*
X-11565966Y-3520746D02*
X-11556442Y-3482651D01*
X-11556442Y-3482651D02*
X-11546918Y-3463603D01*
X-11546918Y-3463603D02*
X-11537395Y-3454079D01*
X-11537395Y-3454079D02*
X-11518347Y-3444556D01*
X-11365966Y-3644556D02*
X-11365966Y-3511222D01*
X-11365966Y-3530270D02*
X-11356442Y-3520746D01*
X-11356442Y-3520746D02*
X-11337395Y-3511222D01*
X-11337395Y-3511222D02*
X-11308823Y-3511222D01*
X-11308823Y-3511222D02*
X-11289775Y-3520746D01*
X-11289775Y-3520746D02*
X-11280252Y-3539794D01*
X-11280252Y-3539794D02*
X-11280252Y-3644556D01*
X-11280252Y-3539794D02*
X-11270728Y-3520746D01*
X-11270728Y-3520746D02*
X-11251680Y-3511222D01*
X-11251680Y-3511222D02*
X-11223109Y-3511222D01*
X-11223109Y-3511222D02*
X-11204061Y-3520746D01*
X-11204061Y-3520746D02*
X-11194537Y-3539794D01*
X-11194537Y-3539794D02*
X-11194537Y-3644556D01*
X-11099299Y-3644556D02*
X-11099299Y-3511222D01*
X-11099299Y-3530270D02*
X-11089776Y-3520746D01*
X-11089776Y-3520746D02*
X-11070728Y-3511222D01*
X-11070728Y-3511222D02*
X-11042156Y-3511222D01*
X-11042156Y-3511222D02*
X-11023109Y-3520746D01*
X-11023109Y-3520746D02*
X-11013585Y-3539794D01*
X-11013585Y-3539794D02*
X-11013585Y-3644556D01*
X-11013585Y-3539794D02*
X-11004061Y-3520746D01*
X-11004061Y-3520746D02*
X-10985014Y-3511222D01*
X-10985014Y-3511222D02*
X-10956442Y-3511222D01*
X-10956442Y-3511222D02*
X-10937395Y-3520746D01*
X-10937395Y-3520746D02*
X-10927871Y-3539794D01*
X-10927871Y-3539794D02*
X-10927871Y-3644556D01*
X-10537395Y-3435032D02*
X-10708823Y-3692175D01*
X-10280252Y-3444556D02*
X-10261204Y-3444556D01*
X-10261204Y-3444556D02*
X-10242156Y-3454079D01*
X-10242156Y-3454079D02*
X-10232633Y-3463603D01*
X-10232633Y-3463603D02*
X-10223109Y-3482651D01*
X-10223109Y-3482651D02*
X-10213585Y-3520746D01*
X-10213585Y-3520746D02*
X-10213585Y-3568365D01*
X-10213585Y-3568365D02*
X-10223109Y-3606460D01*
X-10223109Y-3606460D02*
X-10232633Y-3625508D01*
X-10232633Y-3625508D02*
X-10242156Y-3635032D01*
X-10242156Y-3635032D02*
X-10261204Y-3644556D01*
X-10261204Y-3644556D02*
X-10280252Y-3644556D01*
X-10280252Y-3644556D02*
X-10299299Y-3635032D01*
X-10299299Y-3635032D02*
X-10308823Y-3625508D01*
X-10308823Y-3625508D02*
X-10318347Y-3606460D01*
X-10318347Y-3606460D02*
X-10327871Y-3568365D01*
X-10327871Y-3568365D02*
X-10327871Y-3520746D01*
X-10327871Y-3520746D02*
X-10318347Y-3482651D01*
X-10318347Y-3482651D02*
X-10308823Y-3463603D01*
X-10308823Y-3463603D02*
X-10299299Y-3454079D01*
X-10299299Y-3454079D02*
X-10280252Y-3444556D01*
X-10127871Y-3625508D02*
X-10118347Y-3635032D01*
X-10118347Y-3635032D02*
X-10127871Y-3644556D01*
X-10127871Y-3644556D02*
X-10137394Y-3635032D01*
X-10137394Y-3635032D02*
X-10127871Y-3625508D01*
X-10127871Y-3625508D02*
X-10127871Y-3644556D01*
X-9994537Y-3444556D02*
X-9975490Y-3444556D01*
X-9975490Y-3444556D02*
X-9956442Y-3454079D01*
X-9956442Y-3454079D02*
X-9946918Y-3463603D01*
X-9946918Y-3463603D02*
X-9937394Y-3482651D01*
X-9937394Y-3482651D02*
X-9927871Y-3520746D01*
X-9927871Y-3520746D02*
X-9927871Y-3568365D01*
X-9927871Y-3568365D02*
X-9937394Y-3606460D01*
X-9937394Y-3606460D02*
X-9946918Y-3625508D01*
X-9946918Y-3625508D02*
X-9956442Y-3635032D01*
X-9956442Y-3635032D02*
X-9975490Y-3644556D01*
X-9975490Y-3644556D02*
X-9994537Y-3644556D01*
X-9994537Y-3644556D02*
X-10013585Y-3635032D01*
X-10013585Y-3635032D02*
X-10023109Y-3625508D01*
X-10023109Y-3625508D02*
X-10032633Y-3606460D01*
X-10032633Y-3606460D02*
X-10042156Y-3568365D01*
X-10042156Y-3568365D02*
X-10042156Y-3520746D01*
X-10042156Y-3520746D02*
X-10032633Y-3482651D01*
X-10032633Y-3482651D02*
X-10023109Y-3463603D01*
X-10023109Y-3463603D02*
X-10013585Y-3454079D01*
X-10013585Y-3454079D02*
X-9994537Y-3444556D01*
X-9861204Y-3444556D02*
X-9737394Y-3444556D01*
X-9737394Y-3444556D02*
X-9804061Y-3520746D01*
X-9804061Y-3520746D02*
X-9775490Y-3520746D01*
X-9775490Y-3520746D02*
X-9756442Y-3530270D01*
X-9756442Y-3530270D02*
X-9746918Y-3539794D01*
X-9746918Y-3539794D02*
X-9737394Y-3558841D01*
X-9737394Y-3558841D02*
X-9737394Y-3606460D01*
X-9737394Y-3606460D02*
X-9746918Y-3625508D01*
X-9746918Y-3625508D02*
X-9756442Y-3635032D01*
X-9756442Y-3635032D02*
X-9775490Y-3644556D01*
X-9775490Y-3644556D02*
X-9832633Y-3644556D01*
X-9832633Y-3644556D02*
X-9851680Y-3635032D01*
X-9851680Y-3635032D02*
X-9861204Y-3625508D01*
X-9642156Y-3644556D02*
X-9604061Y-3644556D01*
X-9604061Y-3644556D02*
X-9585013Y-3635032D01*
X-9585013Y-3635032D02*
X-9575490Y-3625508D01*
X-9575490Y-3625508D02*
X-9556442Y-3596936D01*
X-9556442Y-3596936D02*
X-9546918Y-3558841D01*
X-9546918Y-3558841D02*
X-9546918Y-3482651D01*
X-9546918Y-3482651D02*
X-9556442Y-3463603D01*
X-9556442Y-3463603D02*
X-9565966Y-3454079D01*
X-9565966Y-3454079D02*
X-9585013Y-3444556D01*
X-9585013Y-3444556D02*
X-9623109Y-3444556D01*
X-9623109Y-3444556D02*
X-9642156Y-3454079D01*
X-9642156Y-3454079D02*
X-9651680Y-3463603D01*
X-9651680Y-3463603D02*
X-9661204Y-3482651D01*
X-9661204Y-3482651D02*
X-9661204Y-3530270D01*
X-9661204Y-3530270D02*
X-9651680Y-3549317D01*
X-9651680Y-3549317D02*
X-9642156Y-3558841D01*
X-9642156Y-3558841D02*
X-9623109Y-3568365D01*
X-9623109Y-3568365D02*
X-9585013Y-3568365D01*
X-9585013Y-3568365D02*
X-9565966Y-3558841D01*
X-9565966Y-3558841D02*
X-9556442Y-3549317D01*
X-9556442Y-3549317D02*
X-9546918Y-3530270D01*
X-9375490Y-3511222D02*
X-9375490Y-3644556D01*
X-9423109Y-3435032D02*
X-9470728Y-3577889D01*
X-9470728Y-3577889D02*
X-9346918Y-3577889D01*
X-9280252Y-3444556D02*
X-9280252Y-3482651D01*
X-9204061Y-3444556D02*
X-9204061Y-3482651D01*
X-8908823Y-3720746D02*
X-8918347Y-3711222D01*
X-8918347Y-3711222D02*
X-8937394Y-3682651D01*
X-8937394Y-3682651D02*
X-8946918Y-3663603D01*
X-8946918Y-3663603D02*
X-8956442Y-3635032D01*
X-8956442Y-3635032D02*
X-8965966Y-3587413D01*
X-8965966Y-3587413D02*
X-8965966Y-3549317D01*
X-8965966Y-3549317D02*
X-8956442Y-3501698D01*
X-8956442Y-3501698D02*
X-8946918Y-3473127D01*
X-8946918Y-3473127D02*
X-8937394Y-3454079D01*
X-8937394Y-3454079D02*
X-8918347Y-3425508D01*
X-8918347Y-3425508D02*
X-8908823Y-3415984D01*
X-8727871Y-3644556D02*
X-8842156Y-3644556D01*
X-8785013Y-3644556D02*
X-8785013Y-3444556D01*
X-8785013Y-3444556D02*
X-8804061Y-3473127D01*
X-8804061Y-3473127D02*
X-8823109Y-3492175D01*
X-8823109Y-3492175D02*
X-8842156Y-3501698D01*
X-8556442Y-3511222D02*
X-8556442Y-3644556D01*
X-8604061Y-3435032D02*
X-8651680Y-3577889D01*
X-8651680Y-3577889D02*
X-8527871Y-3577889D01*
X-8299299Y-3644556D02*
X-8299299Y-3444556D01*
X-8213585Y-3644556D02*
X-8213585Y-3539794D01*
X-8213585Y-3539794D02*
X-8223108Y-3520746D01*
X-8223108Y-3520746D02*
X-8242156Y-3511222D01*
X-8242156Y-3511222D02*
X-8270728Y-3511222D01*
X-8270728Y-3511222D02*
X-8289775Y-3520746D01*
X-8289775Y-3520746D02*
X-8299299Y-3530270D01*
X-8089775Y-3644556D02*
X-8108823Y-3635032D01*
X-8108823Y-3635032D02*
X-8118347Y-3625508D01*
X-8118347Y-3625508D02*
X-8127870Y-3606460D01*
X-8127870Y-3606460D02*
X-8127870Y-3549317D01*
X-8127870Y-3549317D02*
X-8118347Y-3530270D01*
X-8118347Y-3530270D02*
X-8108823Y-3520746D01*
X-8108823Y-3520746D02*
X-8089775Y-3511222D01*
X-8089775Y-3511222D02*
X-8061204Y-3511222D01*
X-8061204Y-3511222D02*
X-8042156Y-3520746D01*
X-8042156Y-3520746D02*
X-8032632Y-3530270D01*
X-8032632Y-3530270D02*
X-8023108Y-3549317D01*
X-8023108Y-3549317D02*
X-8023108Y-3606460D01*
X-8023108Y-3606460D02*
X-8032632Y-3625508D01*
X-8032632Y-3625508D02*
X-8042156Y-3635032D01*
X-8042156Y-3635032D02*
X-8061204Y-3644556D01*
X-8061204Y-3644556D02*
X-8089775Y-3644556D01*
X-7908823Y-3644556D02*
X-7927870Y-3635032D01*
X-7927870Y-3635032D02*
X-7937394Y-3615984D01*
X-7937394Y-3615984D02*
X-7937394Y-3444556D01*
X-7756442Y-3635032D02*
X-7775489Y-3644556D01*
X-7775489Y-3644556D02*
X-7813585Y-3644556D01*
X-7813585Y-3644556D02*
X-7832632Y-3635032D01*
X-7832632Y-3635032D02*
X-7842156Y-3615984D01*
X-7842156Y-3615984D02*
X-7842156Y-3539794D01*
X-7842156Y-3539794D02*
X-7832632Y-3520746D01*
X-7832632Y-3520746D02*
X-7813585Y-3511222D01*
X-7813585Y-3511222D02*
X-7775489Y-3511222D01*
X-7775489Y-3511222D02*
X-7756442Y-3520746D01*
X-7756442Y-3520746D02*
X-7746918Y-3539794D01*
X-7746918Y-3539794D02*
X-7746918Y-3558841D01*
X-7746918Y-3558841D02*
X-7842156Y-3577889D01*
X-7670727Y-3635032D02*
X-7651680Y-3644556D01*
X-7651680Y-3644556D02*
X-7613585Y-3644556D01*
X-7613585Y-3644556D02*
X-7594537Y-3635032D01*
X-7594537Y-3635032D02*
X-7585013Y-3615984D01*
X-7585013Y-3615984D02*
X-7585013Y-3606460D01*
X-7585013Y-3606460D02*
X-7594537Y-3587413D01*
X-7594537Y-3587413D02*
X-7613585Y-3577889D01*
X-7613585Y-3577889D02*
X-7642156Y-3577889D01*
X-7642156Y-3577889D02*
X-7661204Y-3568365D01*
X-7661204Y-3568365D02*
X-7670727Y-3549317D01*
X-7670727Y-3549317D02*
X-7670727Y-3539794D01*
X-7670727Y-3539794D02*
X-7661204Y-3520746D01*
X-7661204Y-3520746D02*
X-7642156Y-3511222D01*
X-7642156Y-3511222D02*
X-7613585Y-3511222D01*
X-7613585Y-3511222D02*
X-7594537Y-3520746D01*
X-7518346Y-3720746D02*
X-7508823Y-3711222D01*
X-7508823Y-3711222D02*
X-7489775Y-3682651D01*
X-7489775Y-3682651D02*
X-7480251Y-3663603D01*
X-7480251Y-3663603D02*
X-7470727Y-3635032D01*
X-7470727Y-3635032D02*
X-7461204Y-3587413D01*
X-7461204Y-3587413D02*
X-7461204Y-3549317D01*
X-7461204Y-3549317D02*
X-7470727Y-3501698D01*
X-7470727Y-3501698D02*
X-7480251Y-3473127D01*
X-7480251Y-3473127D02*
X-7489775Y-3454079D01*
X-7489775Y-3454079D02*
X-7508823Y-3425508D01*
X-7508823Y-3425508D02*
X-7518346Y-3415984D01*
D13*
X-12498764Y-3852993D02*
X-12498764Y-3781150D01*
X-12570607Y-3781150D01*
X-12570607Y-3852993D01*
X-12498764Y-3852993D01*
D11*
X-12118347Y-3908556D02*
X-12232633Y-3908556D01*
X-12175490Y-3908556D02*
X-12175490Y-3708556D01*
X-12175490Y-3708556D02*
X-12194537Y-3737127D01*
X-12194537Y-3737127D02*
X-12213585Y-3756175D01*
X-12213585Y-3756175D02*
X-12232633Y-3765698D01*
X-12032633Y-3889508D02*
X-12023109Y-3899032D01*
X-12023109Y-3899032D02*
X-12032633Y-3908556D01*
X-12032633Y-3908556D02*
X-12042156Y-3899032D01*
X-12042156Y-3899032D02*
X-12032633Y-3889508D01*
X-12032633Y-3889508D02*
X-12032633Y-3908556D01*
X-11899299Y-3708556D02*
X-11880252Y-3708556D01*
X-11880252Y-3708556D02*
X-11861204Y-3718079D01*
X-11861204Y-3718079D02*
X-11851680Y-3727603D01*
X-11851680Y-3727603D02*
X-11842156Y-3746651D01*
X-11842156Y-3746651D02*
X-11832633Y-3784746D01*
X-11832633Y-3784746D02*
X-11832633Y-3832365D01*
X-11832633Y-3832365D02*
X-11842156Y-3870460D01*
X-11842156Y-3870460D02*
X-11851680Y-3889508D01*
X-11851680Y-3889508D02*
X-11861204Y-3899032D01*
X-11861204Y-3899032D02*
X-11880252Y-3908556D01*
X-11880252Y-3908556D02*
X-11899299Y-3908556D01*
X-11899299Y-3908556D02*
X-11918347Y-3899032D01*
X-11918347Y-3899032D02*
X-11927871Y-3889508D01*
X-11927871Y-3889508D02*
X-11937395Y-3870460D01*
X-11937395Y-3870460D02*
X-11946918Y-3832365D01*
X-11946918Y-3832365D02*
X-11946918Y-3784746D01*
X-11946918Y-3784746D02*
X-11937395Y-3746651D01*
X-11937395Y-3746651D02*
X-11927871Y-3727603D01*
X-11927871Y-3727603D02*
X-11918347Y-3718079D01*
X-11918347Y-3718079D02*
X-11899299Y-3708556D01*
X-11642156Y-3908556D02*
X-11756442Y-3908556D01*
X-11699299Y-3908556D02*
X-11699299Y-3708556D01*
X-11699299Y-3708556D02*
X-11718347Y-3737127D01*
X-11718347Y-3737127D02*
X-11737395Y-3756175D01*
X-11737395Y-3756175D02*
X-11756442Y-3765698D01*
X-11470728Y-3708556D02*
X-11508823Y-3708556D01*
X-11508823Y-3708556D02*
X-11527871Y-3718079D01*
X-11527871Y-3718079D02*
X-11537395Y-3727603D01*
X-11537395Y-3727603D02*
X-11556442Y-3756175D01*
X-11556442Y-3756175D02*
X-11565966Y-3794270D01*
X-11565966Y-3794270D02*
X-11565966Y-3870460D01*
X-11565966Y-3870460D02*
X-11556442Y-3889508D01*
X-11556442Y-3889508D02*
X-11546918Y-3899032D01*
X-11546918Y-3899032D02*
X-11527871Y-3908556D01*
X-11527871Y-3908556D02*
X-11489775Y-3908556D01*
X-11489775Y-3908556D02*
X-11470728Y-3899032D01*
X-11470728Y-3899032D02*
X-11461204Y-3889508D01*
X-11461204Y-3889508D02*
X-11451680Y-3870460D01*
X-11451680Y-3870460D02*
X-11451680Y-3822841D01*
X-11451680Y-3822841D02*
X-11461204Y-3803794D01*
X-11461204Y-3803794D02*
X-11470728Y-3794270D01*
X-11470728Y-3794270D02*
X-11489775Y-3784746D01*
X-11489775Y-3784746D02*
X-11527871Y-3784746D01*
X-11527871Y-3784746D02*
X-11546918Y-3794270D01*
X-11546918Y-3794270D02*
X-11556442Y-3803794D01*
X-11556442Y-3803794D02*
X-11565966Y-3822841D01*
X-11365966Y-3908556D02*
X-11365966Y-3775222D01*
X-11365966Y-3794270D02*
X-11356442Y-3784746D01*
X-11356442Y-3784746D02*
X-11337395Y-3775222D01*
X-11337395Y-3775222D02*
X-11308823Y-3775222D01*
X-11308823Y-3775222D02*
X-11289775Y-3784746D01*
X-11289775Y-3784746D02*
X-11280252Y-3803794D01*
X-11280252Y-3803794D02*
X-11280252Y-3908556D01*
X-11280252Y-3803794D02*
X-11270728Y-3784746D01*
X-11270728Y-3784746D02*
X-11251680Y-3775222D01*
X-11251680Y-3775222D02*
X-11223109Y-3775222D01*
X-11223109Y-3775222D02*
X-11204061Y-3784746D01*
X-11204061Y-3784746D02*
X-11194537Y-3803794D01*
X-11194537Y-3803794D02*
X-11194537Y-3908556D01*
X-11099299Y-3908556D02*
X-11099299Y-3775222D01*
X-11099299Y-3794270D02*
X-11089776Y-3784746D01*
X-11089776Y-3784746D02*
X-11070728Y-3775222D01*
X-11070728Y-3775222D02*
X-11042156Y-3775222D01*
X-11042156Y-3775222D02*
X-11023109Y-3784746D01*
X-11023109Y-3784746D02*
X-11013585Y-3803794D01*
X-11013585Y-3803794D02*
X-11013585Y-3908556D01*
X-11013585Y-3803794D02*
X-11004061Y-3784746D01*
X-11004061Y-3784746D02*
X-10985014Y-3775222D01*
X-10985014Y-3775222D02*
X-10956442Y-3775222D01*
X-10956442Y-3775222D02*
X-10937395Y-3784746D01*
X-10937395Y-3784746D02*
X-10927871Y-3803794D01*
X-10927871Y-3803794D02*
X-10927871Y-3908556D01*
X-10537395Y-3699032D02*
X-10708823Y-3956175D01*
X-10280252Y-3708556D02*
X-10261204Y-3708556D01*
X-10261204Y-3708556D02*
X-10242156Y-3718079D01*
X-10242156Y-3718079D02*
X-10232633Y-3727603D01*
X-10232633Y-3727603D02*
X-10223109Y-3746651D01*
X-10223109Y-3746651D02*
X-10213585Y-3784746D01*
X-10213585Y-3784746D02*
X-10213585Y-3832365D01*
X-10213585Y-3832365D02*
X-10223109Y-3870460D01*
X-10223109Y-3870460D02*
X-10232633Y-3889508D01*
X-10232633Y-3889508D02*
X-10242156Y-3899032D01*
X-10242156Y-3899032D02*
X-10261204Y-3908556D01*
X-10261204Y-3908556D02*
X-10280252Y-3908556D01*
X-10280252Y-3908556D02*
X-10299299Y-3899032D01*
X-10299299Y-3899032D02*
X-10308823Y-3889508D01*
X-10308823Y-3889508D02*
X-10318347Y-3870460D01*
X-10318347Y-3870460D02*
X-10327871Y-3832365D01*
X-10327871Y-3832365D02*
X-10327871Y-3784746D01*
X-10327871Y-3784746D02*
X-10318347Y-3746651D01*
X-10318347Y-3746651D02*
X-10308823Y-3727603D01*
X-10308823Y-3727603D02*
X-10299299Y-3718079D01*
X-10299299Y-3718079D02*
X-10280252Y-3708556D01*
X-10127871Y-3889508D02*
X-10118347Y-3899032D01*
X-10118347Y-3899032D02*
X-10127871Y-3908556D01*
X-10127871Y-3908556D02*
X-10137394Y-3899032D01*
X-10137394Y-3899032D02*
X-10127871Y-3889508D01*
X-10127871Y-3889508D02*
X-10127871Y-3908556D01*
X-9994537Y-3708556D02*
X-9975490Y-3708556D01*
X-9975490Y-3708556D02*
X-9956442Y-3718079D01*
X-9956442Y-3718079D02*
X-9946918Y-3727603D01*
X-9946918Y-3727603D02*
X-9937394Y-3746651D01*
X-9937394Y-3746651D02*
X-9927871Y-3784746D01*
X-9927871Y-3784746D02*
X-9927871Y-3832365D01*
X-9927871Y-3832365D02*
X-9937394Y-3870460D01*
X-9937394Y-3870460D02*
X-9946918Y-3889508D01*
X-9946918Y-3889508D02*
X-9956442Y-3899032D01*
X-9956442Y-3899032D02*
X-9975490Y-3908556D01*
X-9975490Y-3908556D02*
X-9994537Y-3908556D01*
X-9994537Y-3908556D02*
X-10013585Y-3899032D01*
X-10013585Y-3899032D02*
X-10023109Y-3889508D01*
X-10023109Y-3889508D02*
X-10032633Y-3870460D01*
X-10032633Y-3870460D02*
X-10042156Y-3832365D01*
X-10042156Y-3832365D02*
X-10042156Y-3784746D01*
X-10042156Y-3784746D02*
X-10032633Y-3746651D01*
X-10032633Y-3746651D02*
X-10023109Y-3727603D01*
X-10023109Y-3727603D02*
X-10013585Y-3718079D01*
X-10013585Y-3718079D02*
X-9994537Y-3708556D01*
X-9756442Y-3775222D02*
X-9756442Y-3908556D01*
X-9804061Y-3699032D02*
X-9851680Y-3841889D01*
X-9851680Y-3841889D02*
X-9727871Y-3841889D01*
X-9613585Y-3708556D02*
X-9594537Y-3708556D01*
X-9594537Y-3708556D02*
X-9575490Y-3718079D01*
X-9575490Y-3718079D02*
X-9565966Y-3727603D01*
X-9565966Y-3727603D02*
X-9556442Y-3746651D01*
X-9556442Y-3746651D02*
X-9546918Y-3784746D01*
X-9546918Y-3784746D02*
X-9546918Y-3832365D01*
X-9546918Y-3832365D02*
X-9556442Y-3870460D01*
X-9556442Y-3870460D02*
X-9565966Y-3889508D01*
X-9565966Y-3889508D02*
X-9575490Y-3899032D01*
X-9575490Y-3899032D02*
X-9594537Y-3908556D01*
X-9594537Y-3908556D02*
X-9613585Y-3908556D01*
X-9613585Y-3908556D02*
X-9632633Y-3899032D01*
X-9632633Y-3899032D02*
X-9642156Y-3889508D01*
X-9642156Y-3889508D02*
X-9651680Y-3870460D01*
X-9651680Y-3870460D02*
X-9661204Y-3832365D01*
X-9661204Y-3832365D02*
X-9661204Y-3784746D01*
X-9661204Y-3784746D02*
X-9651680Y-3746651D01*
X-9651680Y-3746651D02*
X-9642156Y-3727603D01*
X-9642156Y-3727603D02*
X-9632633Y-3718079D01*
X-9632633Y-3718079D02*
X-9613585Y-3708556D01*
X-9423109Y-3708556D02*
X-9404061Y-3708556D01*
X-9404061Y-3708556D02*
X-9385013Y-3718079D01*
X-9385013Y-3718079D02*
X-9375490Y-3727603D01*
X-9375490Y-3727603D02*
X-9365966Y-3746651D01*
X-9365966Y-3746651D02*
X-9356442Y-3784746D01*
X-9356442Y-3784746D02*
X-9356442Y-3832365D01*
X-9356442Y-3832365D02*
X-9365966Y-3870460D01*
X-9365966Y-3870460D02*
X-9375490Y-3889508D01*
X-9375490Y-3889508D02*
X-9385013Y-3899032D01*
X-9385013Y-3899032D02*
X-9404061Y-3908556D01*
X-9404061Y-3908556D02*
X-9423109Y-3908556D01*
X-9423109Y-3908556D02*
X-9442156Y-3899032D01*
X-9442156Y-3899032D02*
X-9451680Y-3889508D01*
X-9451680Y-3889508D02*
X-9461204Y-3870460D01*
X-9461204Y-3870460D02*
X-9470728Y-3832365D01*
X-9470728Y-3832365D02*
X-9470728Y-3784746D01*
X-9470728Y-3784746D02*
X-9461204Y-3746651D01*
X-9461204Y-3746651D02*
X-9451680Y-3727603D01*
X-9451680Y-3727603D02*
X-9442156Y-3718079D01*
X-9442156Y-3718079D02*
X-9423109Y-3708556D01*
X-9280252Y-3708556D02*
X-9280252Y-3746651D01*
X-9204061Y-3708556D02*
X-9204061Y-3746651D01*
X-8908823Y-3984746D02*
X-8918347Y-3975222D01*
X-8918347Y-3975222D02*
X-8937394Y-3946651D01*
X-8937394Y-3946651D02*
X-8946918Y-3927603D01*
X-8946918Y-3927603D02*
X-8956442Y-3899032D01*
X-8956442Y-3899032D02*
X-8965966Y-3851413D01*
X-8965966Y-3851413D02*
X-8965966Y-3813317D01*
X-8965966Y-3813317D02*
X-8956442Y-3765698D01*
X-8956442Y-3765698D02*
X-8946918Y-3737127D01*
X-8946918Y-3737127D02*
X-8937394Y-3718079D01*
X-8937394Y-3718079D02*
X-8918347Y-3689508D01*
X-8918347Y-3689508D02*
X-8908823Y-3679984D01*
X-8804061Y-3794270D02*
X-8823109Y-3784746D01*
X-8823109Y-3784746D02*
X-8832632Y-3775222D01*
X-8832632Y-3775222D02*
X-8842156Y-3756175D01*
X-8842156Y-3756175D02*
X-8842156Y-3746651D01*
X-8842156Y-3746651D02*
X-8832632Y-3727603D01*
X-8832632Y-3727603D02*
X-8823109Y-3718079D01*
X-8823109Y-3718079D02*
X-8804061Y-3708556D01*
X-8804061Y-3708556D02*
X-8765966Y-3708556D01*
X-8765966Y-3708556D02*
X-8746918Y-3718079D01*
X-8746918Y-3718079D02*
X-8737394Y-3727603D01*
X-8737394Y-3727603D02*
X-8727871Y-3746651D01*
X-8727871Y-3746651D02*
X-8727871Y-3756175D01*
X-8727871Y-3756175D02*
X-8737394Y-3775222D01*
X-8737394Y-3775222D02*
X-8746918Y-3784746D01*
X-8746918Y-3784746D02*
X-8765966Y-3794270D01*
X-8765966Y-3794270D02*
X-8804061Y-3794270D01*
X-8804061Y-3794270D02*
X-8823109Y-3803794D01*
X-8823109Y-3803794D02*
X-8832632Y-3813317D01*
X-8832632Y-3813317D02*
X-8842156Y-3832365D01*
X-8842156Y-3832365D02*
X-8842156Y-3870460D01*
X-8842156Y-3870460D02*
X-8832632Y-3889508D01*
X-8832632Y-3889508D02*
X-8823109Y-3899032D01*
X-8823109Y-3899032D02*
X-8804061Y-3908556D01*
X-8804061Y-3908556D02*
X-8765966Y-3908556D01*
X-8765966Y-3908556D02*
X-8746918Y-3899032D01*
X-8746918Y-3899032D02*
X-8737394Y-3889508D01*
X-8737394Y-3889508D02*
X-8727871Y-3870460D01*
X-8727871Y-3870460D02*
X-8727871Y-3832365D01*
X-8727871Y-3832365D02*
X-8737394Y-3813317D01*
X-8737394Y-3813317D02*
X-8746918Y-3803794D01*
X-8746918Y-3803794D02*
X-8765966Y-3794270D01*
X-8489775Y-3908556D02*
X-8489775Y-3708556D01*
X-8404061Y-3908556D02*
X-8404061Y-3803794D01*
X-8404061Y-3803794D02*
X-8413585Y-3784746D01*
X-8413585Y-3784746D02*
X-8432632Y-3775222D01*
X-8432632Y-3775222D02*
X-8461204Y-3775222D01*
X-8461204Y-3775222D02*
X-8480251Y-3784746D01*
X-8480251Y-3784746D02*
X-8489775Y-3794270D01*
X-8280251Y-3908556D02*
X-8299299Y-3899032D01*
X-8299299Y-3899032D02*
X-8308823Y-3889508D01*
X-8308823Y-3889508D02*
X-8318347Y-3870460D01*
X-8318347Y-3870460D02*
X-8318347Y-3813317D01*
X-8318347Y-3813317D02*
X-8308823Y-3794270D01*
X-8308823Y-3794270D02*
X-8299299Y-3784746D01*
X-8299299Y-3784746D02*
X-8280251Y-3775222D01*
X-8280251Y-3775222D02*
X-8251680Y-3775222D01*
X-8251680Y-3775222D02*
X-8232632Y-3784746D01*
X-8232632Y-3784746D02*
X-8223108Y-3794270D01*
X-8223108Y-3794270D02*
X-8213585Y-3813317D01*
X-8213585Y-3813317D02*
X-8213585Y-3870460D01*
X-8213585Y-3870460D02*
X-8223108Y-3889508D01*
X-8223108Y-3889508D02*
X-8232632Y-3899032D01*
X-8232632Y-3899032D02*
X-8251680Y-3908556D01*
X-8251680Y-3908556D02*
X-8280251Y-3908556D01*
X-8099299Y-3908556D02*
X-8118347Y-3899032D01*
X-8118347Y-3899032D02*
X-8127870Y-3879984D01*
X-8127870Y-3879984D02*
X-8127870Y-3708556D01*
X-7946918Y-3899032D02*
X-7965966Y-3908556D01*
X-7965966Y-3908556D02*
X-8004061Y-3908556D01*
X-8004061Y-3908556D02*
X-8023108Y-3899032D01*
X-8023108Y-3899032D02*
X-8032632Y-3879984D01*
X-8032632Y-3879984D02*
X-8032632Y-3803794D01*
X-8032632Y-3803794D02*
X-8023108Y-3784746D01*
X-8023108Y-3784746D02*
X-8004061Y-3775222D01*
X-8004061Y-3775222D02*
X-7965966Y-3775222D01*
X-7965966Y-3775222D02*
X-7946918Y-3784746D01*
X-7946918Y-3784746D02*
X-7937394Y-3803794D01*
X-7937394Y-3803794D02*
X-7937394Y-3822841D01*
X-7937394Y-3822841D02*
X-8032632Y-3841889D01*
X-7861204Y-3899032D02*
X-7842156Y-3908556D01*
X-7842156Y-3908556D02*
X-7804061Y-3908556D01*
X-7804061Y-3908556D02*
X-7785013Y-3899032D01*
X-7785013Y-3899032D02*
X-7775489Y-3879984D01*
X-7775489Y-3879984D02*
X-7775489Y-3870460D01*
X-7775489Y-3870460D02*
X-7785013Y-3851413D01*
X-7785013Y-3851413D02*
X-7804061Y-3841889D01*
X-7804061Y-3841889D02*
X-7832632Y-3841889D01*
X-7832632Y-3841889D02*
X-7851680Y-3832365D01*
X-7851680Y-3832365D02*
X-7861204Y-3813317D01*
X-7861204Y-3813317D02*
X-7861204Y-3803794D01*
X-7861204Y-3803794D02*
X-7851680Y-3784746D01*
X-7851680Y-3784746D02*
X-7832632Y-3775222D01*
X-7832632Y-3775222D02*
X-7804061Y-3775222D01*
X-7804061Y-3775222D02*
X-7785013Y-3784746D01*
X-7708823Y-3984746D02*
X-7699299Y-3975222D01*
X-7699299Y-3975222D02*
X-7680251Y-3946651D01*
X-7680251Y-3946651D02*
X-7670727Y-3927603D01*
X-7670727Y-3927603D02*
X-7661204Y-3899032D01*
X-7661204Y-3899032D02*
X-7651680Y-3851413D01*
X-7651680Y-3851413D02*
X-7651680Y-3813317D01*
X-7651680Y-3813317D02*
X-7661204Y-3765698D01*
X-7661204Y-3765698D02*
X-7670727Y-3737127D01*
X-7670727Y-3737127D02*
X-7680251Y-3718079D01*
X-7680251Y-3718079D02*
X-7699299Y-3689508D01*
X-7699299Y-3689508D02*
X-7708823Y-3679984D01*
M02*
