0
SECTION
2
HEADER
9
$INSUNITS
70
4
0
ENDSEC
0
SECTION
2
TABLES
0
TABLE
2
LTYPE
0
LTYPE
72
65
70
0
2
CONTINUOUS
3
______
73
0
40
0
0
LTYPE
72
65
70
0
2
DASHED
3
_ _ _ 
73
2
40
7.5
49
5
49
-2.5
0
LTYPE
72
65
70
0
2
DOTTED
3
. . . 
73
2
40
1.5
49
0.5
49
-1
0
ENDTAB
0
TABLE
2
LAYER
0
ENDTAB
0
ENDSEC
0
SECTION
2
ENTITIES
0
LINE
8
0
6
CONTINUOUS
10
-124.7638579
20
-21.7757178
11
-124.7638579
21
86.3616581
0
LINE
8
0
6
CONTINUOUS
10
-122.7638579
20
88.3616581
11
122.7638579
21
88.3616581
0
LINE
8
0
6
CONTINUOUS
10
124.7638579
20
86.3616581
11
124.7638579
21
-21.7757178
0
LINE
8
0
6
CONTINUOUS
10
122.7638579
20
-23.7757178
11
-122.7638579
21
-23.7757178
0
ARC
8
0
6
CONTINUOUS
10
-122.7638579
20
86.3616581
40
2
50
90
51
180
0
ARC
8
0
6
CONTINUOUS
10
122.7638579
20
86.3616581
40
2
50
0
51
90
0
ARC
8
0
6
CONTINUOUS
10
122.7638579
20
-21.7757178
40
2
50
270
51
0
0
ARC
8
0
6
CONTINUOUS
10
-122.7638579
20
-21.7757178
40
2
50
180
51
270
0
LINE
8
0
6
CONTINUOUS
10
-29
20
64.8616581
11
29
21
64.8616581
0
ARC
8
0
6
CONTINUOUS
10
29
20
66.3616581
40
1.5
50
270
51
360
0
LINE
8
0
6
CONTINUOUS
10
30.5
20
66.3616581
11
30.5
21
84.3616581
0
ARC
8
0
6
CONTINUOUS
10
29
20
84.3616581
40
1.5
50
0
51
90
0
LINE
8
0
6
CONTINUOUS
10
29
20
85.8616581
11
-29
21
85.8616581
0
ARC
8
0
6
CONTINUOUS
10
-29
20
84.3616581
40
1.5
50
90
51
180
0
LINE
8
0
6
CONTINUOUS
10
-30.5
20
84.3616581
11
-30.5
21
66.3616581
0
ARC
8
0
6
CONTINUOUS
10
-29
20
66.3616581
40
1.5
50
180
51
270
0
LINE
8
0
6
CONTINUOUS
10
-113.2760759
20
15.3876781
11
-95.6694191
21
11.6452677
0
LINE
8
0
6
CONTINUOUS
10
-95.6694191
20
11.6452677
11
-88.6004215
21
44.9022861
0
LINE
8
0
6
CONTINUOUS
10
-113.2760759
20
15.3876781
11
-106.2070783
21
48.6446965
0
LINE
8
0
6
CONTINUOUS
10
-88.6004216
20
44.9022862
11
-85.0659228
21
61.5307954
0
LINE
8
0
6
CONTINUOUS
10
-85.0659228
20
61.5307954
11
-102.6725796
21
65.2732058
0
LINE
8
0
6
CONTINUOUS
10
-102.6725796
20
65.2732058
11
-106.2070784
21
48.6446966
0
LINE
8
0
6
CONTINUOUS
10
-92.3843864
20
26.7755772
11
-74.9977215
21
22.1168344
0
LINE
8
0
6
CONTINUOUS
10
-74.9977215
20
22.1168344
11
-70.5977978
21
38.5375734
0
LINE
8
0
6
CONTINUOUS
10
-87.9844627
20
43.1963162
11
-92.3843864
21
26.7755772
0
LINE
8
0
6
CONTINUOUS
10
-70.5977977
20
38.5375734
11
-66.197874
21
54.9583124
0
LINE
8
0
6
CONTINUOUS
10
-83.5845389
20
59.6170552
11
-87.9844626
21
43.1963162
0
LINE
8
0
6
CONTINUOUS
10
-66.1978739
20
54.9583125
11
-61.7979502
21
71.3790515
0
LINE
8
0
6
CONTINUOUS
10
-61.7979502
20
71.3790515
11
-79.1846151
21
76.0377943
0
LINE
8
0
6
CONTINUOUS
10
-79.1846151
20
76.0377943
11
-83.5845388
21
59.6170553
0
LINE
8
0
6
CONTINUOUS
10
-74.0311602
20
25.463373
11
-56.9121429
21
19.9010671
0
LINE
8
0
6
CONTINUOUS
10
-74.0311602
20
25.463373
11
-63.5245824
21
57.7992944
0
LINE
8
0
6
CONTINUOUS
10
-43.0063782
20
62.6986102
11
-41.1522762
21
68.4049493
0
LINE
8
0
6
CONTINUOUS
10
-41.1522762
20
68.4049493
11
-58.2712935
21
73.9672552
0
LINE
8
0
6
CONTINUOUS
10
-58.2712935
20
73.9672552
11
-63.5245824
21
57.7992945
0
LINE
8
0
6
CONTINUOUS
10
-58.766245
20
14.194728
11
-41.6472277
21
8.6324221
0
LINE
8
0
6
CONTINUOUS
10
-56.9121429
20
19.9010671
11
-58.766245
21
14.194728
0
LINE
8
0
6
CONTINUOUS
10
-26.5053949
20
55.2341913
11
-25.8873609
21
57.1363043
0
LINE
8
0
6
CONTINUOUS
10
-25.8873609
20
57.1363043
11
-43.0063782
21
62.6986102
0
LINE
8
0
6
CONTINUOUS
10
-25.1462443
20
1.1680032
11
-19.8929554
21
17.3359639
0
LINE
8
0
6
CONTINUOUS
10
-41.6472277
20
8.6324221
11
-42.2652616
21
6.7303091
0
LINE
8
0
6
CONTINUOUS
10
-19.8929554
20
17.335964
11
-9.3863776
21
49.6718854
0
LINE
8
0
6
CONTINUOUS
10
-9.3863776
20
49.6718854
11
-26.5053949
21
55.2341913
0
LINE
8
0
6
CONTINUOUS
10
-56.0780593
20
-6.6564987
11
-21.8400247
21
-17.7811105
0
LINE
8
0
6
CONTINUOUS
10
-42.2652616
20
6.7303091
11
-50.8247704
21
9.511462
0
LINE
8
0
6
CONTINUOUS
10
-50.8247704
20
9.511462
11
-56.0780593
21
-6.6564987
0
LINE
8
0
6
CONTINUOUS
10
-21.8400247
20
-17.7811105
11
-16.5867358
21
-1.6131498
0
LINE
8
0
6
CONTINUOUS
10
-16.5867358
20
-1.6131498
11
-25.1462443
21
1.1680032
0
LINE
8
0
6
CONTINUOUS
10
95.6694191
20
11.6452677
11
113.2760759
21
15.3876781
0
LINE
8
0
6
CONTINUOUS
10
106.2070783
20
48.6446965
11
113.2760759
21
15.3876781
0
LINE
8
0
6
CONTINUOUS
10
88.6004215
20
44.9022861
11
95.6694191
21
11.6452677
0
LINE
8
0
6
CONTINUOUS
10
106.2070784
20
48.6446966
11
102.6725796
21
65.2732058
0
LINE
8
0
6
CONTINUOUS
10
102.6725796
20
65.2732058
11
85.0659228
21
61.5307954
0
LINE
8
0
6
CONTINUOUS
10
85.0659228
20
61.5307954
11
88.6004216
21
44.9022862
0
LINE
8
0
6
CONTINUOUS
10
74.9977215
20
22.1168344
11
92.3843864
21
26.7755772
0
LINE
8
0
6
CONTINUOUS
10
92.3843864
20
26.7755772
11
87.9844627
21
43.1963162
0
LINE
8
0
6
CONTINUOUS
10
70.5977978
20
38.5375734
11
74.9977215
21
22.1168344
0
LINE
8
0
6
CONTINUOUS
10
87.9844626
20
43.1963162
11
83.5845389
21
59.6170552
0
LINE
8
0
6
CONTINUOUS
10
66.197874
20
54.9583124
11
70.5977977
21
38.5375734
0
LINE
8
0
6
CONTINUOUS
10
83.5845388
20
59.6170553
11
79.1846151
21
76.0377943
0
LINE
8
0
6
CONTINUOUS
10
79.1846151
20
76.0377943
11
61.7979502
21
71.3790515
0
LINE
8
0
6
CONTINUOUS
10
61.7979502
20
71.3790515
11
66.1978739
21
54.9583125
0
LINE
8
0
6
CONTINUOUS
10
56.9121429
20
19.9010671
11
74.0311602
21
25.463373
0
LINE
8
0
6
CONTINUOUS
10
63.5245824
20
57.7992944
11
74.0311602
21
25.463373
0
LINE
8
0
6
CONTINUOUS
10
63.5245824
20
57.7992945
11
58.2712935
21
73.9672552
0
LINE
8
0
6
CONTINUOUS
10
58.2712935
20
73.9672552
11
41.1522762
21
68.4049493
0
LINE
8
0
6
CONTINUOUS
10
41.1522762
20
68.4049493
11
43.0063782
21
62.6986102
0
LINE
8
0
6
CONTINUOUS
10
41.6472277
20
8.6324221
11
58.766245
21
14.194728
0
LINE
8
0
6
CONTINUOUS
10
58.766245
20
14.194728
11
56.9121429
21
19.9010671
0
LINE
8
0
6
CONTINUOUS
10
43.0063782
20
62.6986102
11
25.8873609
21
57.1363043
0
LINE
8
0
6
CONTINUOUS
10
25.8873609
20
57.1363043
11
26.5053949
21
55.2341913
0
LINE
8
0
6
CONTINUOUS
10
42.2652616
20
6.7303091
11
41.6472277
21
8.6324221
0
LINE
8
0
6
CONTINUOUS
10
19.8929554
20
17.3359639
11
25.1462443
21
1.1680032
0
LINE
8
0
6
CONTINUOUS
10
9.3863776
20
49.6718854
11
19.8929554
21
17.335964
0
LINE
8
0
6
CONTINUOUS
10
26.5053949
20
55.2341913
11
9.3863776
21
49.6718854
0
LINE
8
0
6
CONTINUOUS
10
21.8400247
20
-17.7811105
11
56.0780593
21
-6.6564987
0
LINE
8
0
6
CONTINUOUS
10
56.0780593
20
-6.6564987
11
50.8247704
21
9.511462
0
LINE
8
0
6
CONTINUOUS
10
50.8247704
20
9.511462
11
42.2652616
21
6.7303091
0
LINE
8
0
6
CONTINUOUS
10
25.1462443
20
1.1680032
11
16.5867358
21
-1.6131498
0
LINE
8
0
6
CONTINUOUS
10
16.5867358
20
-1.6131498
11
21.8400247
21
-17.7811105
0
LINE
8
0
6
CONTINUOUS
10
-103.7638579
20
68.8616581
11
-103.7638579
21
86.3616581
0
LINE
8
0
6
CONTINUOUS
10
-103.7638579
20
86.3616581
11
-124.7638579
21
86.3616581
0
LINE
8
0
6
CONTINUOUS
10
-124.7638579
20
68.8616581
11
-103.7638579
21
68.8616581
0
LINE
8
0
6
CONTINUOUS
10
-30
20
65.3616581
11
30
21
65.3616581
0
LINE
8
0
6
CONTINUOUS
10
30
20
65.3616581
11
30
21
85.3616581
0
LINE
8
0
6
CONTINUOUS
10
30
20
85.3616581
11
-30
21
85.3616581
0
LINE
8
0
6
CONTINUOUS
10
-30
20
85.3616581
11
-30
21
65.3616581
0
LINE
8
0
6
CONTINUOUS
10
-101.0138579
20
85.2616581
11
-94.3138579
21
85.2616581
0
LINE
8
0
6
CONTINUOUS
10
-94.3138579
20
85.2616581
11
-94.3138579
21
87.8616581
0
LINE
8
0
6
CONTINUOUS
10
-94.3138579
20
87.8616581
11
-101.0138579
21
87.8616581
0
LINE
8
0
6
CONTINUOUS
10
-101.0138579
20
87.8616581
11
-101.0138579
21
85.2616581
0
CIRCLE
8
0
6
CONTINUOUS
10
-58
20
81
40
3.5
0
CIRCLE
8
0
6
CONTINUOUS
10
-117
20
50
40
3.5
0
CIRCLE
8
0
6
CONTINUOUS
10
-117
20
25
40
3.5
0
CIRCLE
8
0
6
CONTINUOUS
10
0
20
25
40
3.5
0
CIRCLE
8
0
6
CONTINUOUS
10
58
20
81
40
3.5
0
CIRCLE
8
0
6
CONTINUOUS
10
117
20
50
40
3.5
0
CIRCLE
8
0
6
CONTINUOUS
10
117
20
25
40
3.5
0
ENDSEC
0
EOF