0
SECTION
2
HEADER
9
$INSUNITS
70
4
0
ENDSEC
0
SECTION
2
TABLES
0
TABLE
2
LTYPE
0
LTYPE
72
65
70
0
2
CONTINUOUS
3
______
73
0
40
0
0
LTYPE
72
65
70
0
2
DASHED
3
_ _ _ 
73
2
40
7.5
49
5
49
-2.5
0
LTYPE
72
65
70
0
2
DOTTED
3
. . . 
73
2
40
1.5
49
0.5
49
-1
0
ENDTAB
0
TABLE
2
LAYER
0
ENDTAB
0
ENDSEC
0
SECTION
2
ENTITIES
0
LINE
8
0
6
CONTINUOUS
10
-110.8893072
20
16.5160997
11
-97.3908703
21
13.6469184
0
LINE
8
0
6
CONTINUOUS
10
-97.3908703
20
13.6469184
11
-94.521689
21
27.1453553
0
LINE
8
0
6
CONTINUOUS
10
-94.521689
20
27.1453553
11
-108.0201259
21
30.0145366
0
LINE
8
0
6
CONTINUOUS
10
-108.0201259
20
30.0145366
11
-110.8893072
21
16.5160997
0
LINE
8
0
6
CONTINUOUS
10
-107.3548084
20
33.1446089
11
-93.8563715
21
30.2754276
0
LINE
8
0
6
CONTINUOUS
10
-93.8563715
20
30.2754276
11
-90.9871902
21
43.7738645
0
LINE
8
0
6
CONTINUOUS
10
-90.9871902
20
43.7738645
11
-104.4856271
21
46.6430458
0
LINE
8
0
6
CONTINUOUS
10
-104.4856271
20
46.6430458
11
-107.3548084
21
33.1446089
0
LINE
8
0
6
CONTINUOUS
10
-103.8203097
20
49.7731182
11
-90.3218728
21
46.9039369
0
LINE
8
0
6
CONTINUOUS
10
-90.3218728
20
46.9039369
11
-87.4526915
21
60.4023738
0
LINE
8
0
6
CONTINUOUS
10
-87.4526915
20
60.4023738
11
-100.9511284
21
63.2715551
0
LINE
8
0
6
CONTINUOUS
10
-100.9511284
20
63.2715551
11
-103.8203097
21
49.7731182
0
LINE
8
0
6
CONTINUOUS
10
-89.9418317
20
27.7775385
11
-76.6120553
21
24.2058357
0
LINE
8
0
6
CONTINUOUS
10
-76.6120553
20
24.2058357
11
-73.0403525
21
37.5356121
0
LINE
8
0
6
CONTINUOUS
10
-73.0403525
20
37.5356121
11
-86.3701289
21
41.1073149
0
LINE
8
0
6
CONTINUOUS
10
-86.3701289
20
41.1073149
11
-89.9418317
21
27.7775385
0
LINE
8
0
6
CONTINUOUS
10
-85.5419079
20
44.1982775
11
-72.2121315
21
40.6265747
0
LINE
8
0
6
CONTINUOUS
10
-72.2121315
20
40.6265747
11
-68.6404287
21
53.9563511
0
LINE
8
0
6
CONTINUOUS
10
-68.6404287
20
53.9563511
11
-81.9702051
21
57.5280539
0
LINE
8
0
6
CONTINUOUS
10
-81.9702051
20
57.5280539
11
-85.5419079
21
44.1982775
0
LINE
8
0
6
CONTINUOUS
10
-81.1419841
20
60.6190166
11
-67.8122077
21
57.0473138
0
LINE
8
0
6
CONTINUOUS
10
-67.8122077
20
57.0473138
11
-64.2405049
21
70.3770902
0
LINE
8
0
6
CONTINUOUS
10
-64.2405049
20
70.3770902
11
-77.5702813
21
73.948793
0
LINE
8
0
6
CONTINUOUS
10
-77.5702813
20
73.948793
11
-81.1419841
21
60.6190166
0
LINE
8
0
6
CONTINUOUS
10
-71.5395143
20
26.3361277
11
-58.4149344
21
22.0716932
0
LINE
8
0
6
CONTINUOUS
10
-58.4149344
20
22.0716932
11
-54.1504999
21
35.1962731
0
LINE
8
0
6
CONTINUOUS
10
-54.1504999
20
35.1962731
11
-67.2750798
21
39.4607076
0
LINE
8
0
6
CONTINUOUS
10
-67.2750798
20
39.4607076
11
-71.5395143
21
26.3361277
0
LINE
8
0
6
CONTINUOUS
10
-66.2862254
20
42.5040884
11
-53.1616455
21
38.2396539
0
LINE
8
0
6
CONTINUOUS
10
-53.1616455
20
38.2396539
11
-48.897211
21
51.3642338
0
LINE
8
0
6
CONTINUOUS
10
-48.897211
20
51.3642338
11
-62.0217909
21
55.6286683
0
LINE
8
0
6
CONTINUOUS
10
-62.0217909
20
55.6286683
11
-66.2862254
21
42.5040884
0
LINE
8
0
6
CONTINUOUS
10
-61.0329365
20
58.6720492
11
-47.9083566
21
54.4076147
0
LINE
8
0
6
CONTINUOUS
10
-47.9083566
20
54.4076147
11
-43.6439221
21
67.5321946
0
LINE
8
0
6
CONTINUOUS
10
-43.6439221
20
67.5321946
11
-56.768502
21
71.7966291
0
LINE
8
0
6
CONTINUOUS
10
-56.768502
20
71.7966291
11
-61.0329365
21
58.6720492
0
LINE
8
0
6
CONTINUOUS
10
-56.2745991
20
15.0674827
11
-43.1500192
21
10.8030482
0
LINE
8
0
6
CONTINUOUS
10
-43.1500192
20
10.8030482
11
-38.8855847
21
23.9276281
0
LINE
8
0
6
CONTINUOUS
10
-38.8855847
20
23.9276281
11
-52.0101646
21
28.1920626
0
LINE
8
0
6
CONTINUOUS
10
-52.0101646
20
28.1920626
11
-56.2745991
21
15.0674827
0
LINE
8
0
6
CONTINUOUS
10
-51.0213101
20
31.2354435
11
-37.8967302
21
26.971009
0
LINE
8
0
6
CONTINUOUS
10
-37.8967302
20
26.971009
11
-33.6322957
21
40.0955889
0
LINE
8
0
6
CONTINUOUS
10
-33.6322957
20
40.0955889
11
-46.7568756
21
44.3600234
0
LINE
8
0
6
CONTINUOUS
10
-46.7568756
20
44.3600234
11
-51.0213101
21
31.2354435
0
LINE
8
0
6
CONTINUOUS
10
-45.7680212
20
47.4034042
11
-32.6434413
21
43.1389697
0
LINE
8
0
6
CONTINUOUS
10
-32.6434413
20
43.1389697
11
-28.3790068
21
56.2635496
0
LINE
8
0
6
CONTINUOUS
10
-28.3790068
20
56.2635496
11
-41.5035867
21
60.5279841
0
LINE
8
0
6
CONTINUOUS
10
-41.5035867
20
60.5279841
11
-45.7680212
21
47.4034042
0
LINE
8
0
6
CONTINUOUS
10
-39.7736157
20
7.6030638
11
-26.6490358
21
3.3386293
0
LINE
8
0
6
CONTINUOUS
10
-26.6490358
20
3.3386293
11
-22.3846013
21
16.4632092
0
LINE
8
0
6
CONTINUOUS
10
-22.3846013
20
16.4632092
11
-35.5091812
21
20.7276437
0
LINE
8
0
6
CONTINUOUS
10
-35.5091812
20
20.7276437
11
-39.7736157
21
7.6030638
0
LINE
8
0
6
CONTINUOUS
10
-34.5203268
20
23.7710246
11
-21.3957469
21
19.5065901
0
LINE
8
0
6
CONTINUOUS
10
-21.3957469
20
19.5065901
11
-17.1313124
21
32.63117
0
LINE
8
0
6
CONTINUOUS
10
-17.1313124
20
32.63117
11
-30.2558923
21
36.8956045
0
LINE
8
0
6
CONTINUOUS
10
-30.2558923
20
36.8956045
11
-34.5203268
21
23.7710246
0
LINE
8
0
6
CONTINUOUS
10
-29.2670379
20
39.9389853
11
-16.142458
21
35.6745508
0
LINE
8
0
6
CONTINUOUS
10
-16.142458
20
35.6745508
11
-11.8780235
21
48.7991307
0
LINE
8
0
6
CONTINUOUS
10
-11.8780235
20
48.7991307
11
-25.0026034
21
53.0635652
0
LINE
8
0
6
CONTINUOUS
10
-25.0026034
20
53.0635652
11
-29.2670379
21
39.9389853
0
LINE
8
0
6
CONTINUOUS
10
-53.5864134
20
-5.783744
11
-40.4618335
21
-10.0481785
0
LINE
8
0
6
CONTINUOUS
10
-40.4618335
20
-10.0481785
11
-36.197399
21
3.0764014
0
LINE
8
0
6
CONTINUOUS
10
-36.197399
20
3.0764014
11
-49.3219789
21
7.3408359
0
LINE
8
0
6
CONTINUOUS
10
-49.3219789
20
7.3408359
11
-53.5864134
21
-5.783744
0
LINE
8
0
6
CONTINUOUS
10
-36.4673961
20
-11.3460499
11
-23.3428162
21
-15.6104844
0
LINE
8
0
6
CONTINUOUS
10
-23.3428162
20
-15.6104844
11
-19.0783817
21
-2.4859045
0
LINE
8
0
6
CONTINUOUS
10
-19.0783817
20
-2.4859045
11
-32.2029616
21
1.77853
0
LINE
8
0
6
CONTINUOUS
10
-32.2029616
20
1.77853
11
-36.4673961
21
-11.3460499
0
LINE
8
0
6
CONTINUOUS
10
97.3908703
20
13.6469184
11
110.8893072
21
16.5160997
0
LINE
8
0
6
CONTINUOUS
10
110.8893072
20
16.5160997
11
108.0201259
21
30.0145366
0
LINE
8
0
6
CONTINUOUS
10
108.0201259
20
30.0145366
11
94.521689
21
27.1453553
0
LINE
8
0
6
CONTINUOUS
10
94.521689
20
27.1453553
11
97.3908703
21
13.6469184
0
LINE
8
0
6
CONTINUOUS
10
93.8563715
20
30.2754276
11
107.3548084
21
33.1446089
0
LINE
8
0
6
CONTINUOUS
10
107.3548084
20
33.1446089
11
104.4856271
21
46.6430458
0
LINE
8
0
6
CONTINUOUS
10
104.4856271
20
46.6430458
11
90.9871902
21
43.7738645
0
LINE
8
0
6
CONTINUOUS
10
90.9871902
20
43.7738645
11
93.8563715
21
30.2754276
0
LINE
8
0
6
CONTINUOUS
10
90.3218728
20
46.9039369
11
103.8203097
21
49.7731182
0
LINE
8
0
6
CONTINUOUS
10
103.8203097
20
49.7731182
11
100.9511284
21
63.2715551
0
LINE
8
0
6
CONTINUOUS
10
100.9511284
20
63.2715551
11
87.4526915
21
60.4023738
0
LINE
8
0
6
CONTINUOUS
10
87.4526915
20
60.4023738
11
90.3218728
21
46.9039369
0
LINE
8
0
6
CONTINUOUS
10
76.6120553
20
24.2058357
11
89.9418317
21
27.7775385
0
LINE
8
0
6
CONTINUOUS
10
89.9418317
20
27.7775385
11
86.3701289
21
41.1073149
0
LINE
8
0
6
CONTINUOUS
10
86.3701289
20
41.1073149
11
73.0403525
21
37.5356121
0
LINE
8
0
6
CONTINUOUS
10
73.0403525
20
37.5356121
11
76.6120553
21
24.2058357
0
LINE
8
0
6
CONTINUOUS
10
72.2121315
20
40.6265747
11
85.5419079
21
44.1982775
0
LINE
8
0
6
CONTINUOUS
10
85.5419079
20
44.1982775
11
81.9702051
21
57.5280539
0
LINE
8
0
6
CONTINUOUS
10
81.9702051
20
57.5280539
11
68.6404287
21
53.9563511
0
LINE
8
0
6
CONTINUOUS
10
68.6404287
20
53.9563511
11
72.2121315
21
40.6265747
0
LINE
8
0
6
CONTINUOUS
10
67.8122077
20
57.0473138
11
81.1419841
21
60.6190166
0
LINE
8
0
6
CONTINUOUS
10
81.1419841
20
60.6190166
11
77.5702813
21
73.948793
0
LINE
8
0
6
CONTINUOUS
10
77.5702813
20
73.948793
11
64.2405049
21
70.3770902
0
LINE
8
0
6
CONTINUOUS
10
64.2405049
20
70.3770902
11
67.8122077
21
57.0473138
0
LINE
8
0
6
CONTINUOUS
10
58.4149344
20
22.0716932
11
71.5395143
21
26.3361277
0
LINE
8
0
6
CONTINUOUS
10
71.5395143
20
26.3361277
11
67.2750798
21
39.4607076
0
LINE
8
0
6
CONTINUOUS
10
67.2750798
20
39.4607076
11
54.1504999
21
35.1962731
0
LINE
8
0
6
CONTINUOUS
10
54.1504999
20
35.1962731
11
58.4149344
21
22.0716932
0
LINE
8
0
6
CONTINUOUS
10
53.1616455
20
38.2396539
11
66.2862254
21
42.5040884
0
LINE
8
0
6
CONTINUOUS
10
66.2862254
20
42.5040884
11
62.0217909
21
55.6286683
0
LINE
8
0
6
CONTINUOUS
10
62.0217909
20
55.6286683
11
48.897211
21
51.3642338
0
LINE
8
0
6
CONTINUOUS
10
48.897211
20
51.3642338
11
53.1616455
21
38.2396539
0
LINE
8
0
6
CONTINUOUS
10
47.9083566
20
54.4076147
11
61.0329365
21
58.6720492
0
LINE
8
0
6
CONTINUOUS
10
61.0329365
20
58.6720492
11
56.768502
21
71.7966291
0
LINE
8
0
6
CONTINUOUS
10
56.768502
20
71.7966291
11
43.6439221
21
67.5321946
0
LINE
8
0
6
CONTINUOUS
10
43.6439221
20
67.5321946
11
47.9083566
21
54.4076147
0
LINE
8
0
6
CONTINUOUS
10
43.1500192
20
10.8030482
11
56.2745991
21
15.0674827
0
LINE
8
0
6
CONTINUOUS
10
56.2745991
20
15.0674827
11
52.0101646
21
28.1920626
0
LINE
8
0
6
CONTINUOUS
10
52.0101646
20
28.1920626
11
38.8855847
21
23.9276281
0
LINE
8
0
6
CONTINUOUS
10
38.8855847
20
23.9276281
11
43.1500192
21
10.8030482
0
LINE
8
0
6
CONTINUOUS
10
37.8967302
20
26.971009
11
51.0213101
21
31.2354435
0
LINE
8
0
6
CONTINUOUS
10
51.0213101
20
31.2354435
11
46.7568756
21
44.3600234
0
LINE
8
0
6
CONTINUOUS
10
46.7568756
20
44.3600234
11
33.6322957
21
40.0955889
0
LINE
8
0
6
CONTINUOUS
10
33.6322957
20
40.0955889
11
37.8967302
21
26.971009
0
LINE
8
0
6
CONTINUOUS
10
32.6434413
20
43.1389697
11
45.7680212
21
47.4034042
0
LINE
8
0
6
CONTINUOUS
10
45.7680212
20
47.4034042
11
41.5035867
21
60.5279841
0
LINE
8
0
6
CONTINUOUS
10
41.5035867
20
60.5279841
11
28.3790068
21
56.2635496
0
LINE
8
0
6
CONTINUOUS
10
28.3790068
20
56.2635496
11
32.6434413
21
43.1389697
0
LINE
8
0
6
CONTINUOUS
10
26.6490358
20
3.3386293
11
39.7736157
21
7.6030638
0
LINE
8
0
6
CONTINUOUS
10
39.7736157
20
7.6030638
11
35.5091812
21
20.7276437
0
LINE
8
0
6
CONTINUOUS
10
35.5091812
20
20.7276437
11
22.3846013
21
16.4632092
0
LINE
8
0
6
CONTINUOUS
10
22.3846013
20
16.4632092
11
26.6490358
21
3.3386293
0
LINE
8
0
6
CONTINUOUS
10
21.3957469
20
19.5065901
11
34.5203268
21
23.7710246
0
LINE
8
0
6
CONTINUOUS
10
34.5203268
20
23.7710246
11
30.2558923
21
36.8956045
0
LINE
8
0
6
CONTINUOUS
10
30.2558923
20
36.8956045
11
17.1313124
21
32.63117
0
LINE
8
0
6
CONTINUOUS
10
17.1313124
20
32.63117
11
21.3957469
21
19.5065901
0
LINE
8
0
6
CONTINUOUS
10
16.142458
20
35.6745508
11
29.2670379
21
39.9389853
0
LINE
8
0
6
CONTINUOUS
10
29.2670379
20
39.9389853
11
25.0026034
21
53.0635652
0
LINE
8
0
6
CONTINUOUS
10
25.0026034
20
53.0635652
11
11.8780235
21
48.7991307
0
LINE
8
0
6
CONTINUOUS
10
11.8780235
20
48.7991307
11
16.142458
21
35.6745508
0
LINE
8
0
6
CONTINUOUS
10
40.4618335
20
-10.0481785
11
53.5864134
21
-5.783744
0
LINE
8
0
6
CONTINUOUS
10
53.5864134
20
-5.783744
11
49.3219789
21
7.3408359
0
LINE
8
0
6
CONTINUOUS
10
49.3219789
20
7.3408359
11
36.197399
21
3.0764014
0
LINE
8
0
6
CONTINUOUS
10
36.197399
20
3.0764014
11
40.4618335
21
-10.0481785
0
LINE
8
0
6
CONTINUOUS
10
23.3428162
20
-15.6104844
11
36.4673961
21
-11.3460499
0
LINE
8
0
6
CONTINUOUS
10
36.4673961
20
-11.3460499
11
32.2029616
21
1.77853
0
LINE
8
0
6
CONTINUOUS
10
32.2029616
20
1.77853
11
19.0783817
21
-2.4859045
0
LINE
8
0
6
CONTINUOUS
10
19.0783817
20
-2.4859045
11
23.3428162
21
-15.6104844
0
ENDSEC
0
EOF