G04 #@! TF.GenerationSoftware,KiCad,Pcbnew,8.0.8+1*
G04 #@! TF.CreationDate,2026-07-04T20:06:59+00:00*
G04 #@! TF.ProjectId,limbatus,6c696d62-6174-4757-932e-6b696361645f,v1.0.0*
G04 #@! TF.SameCoordinates,Original*
G04 #@! TF.FileFunction,Legend,Top*
G04 #@! TF.FilePolarity,Positive*
%FSLAX46Y46*%
G04 Gerber Fmt 4.6, Leading zero omitted, Abs format (unit mm)*
G04 Created by KiCad (PCBNEW 8.0.8+1) date 2026-07-04 20:06:59*
%MOMM*%
%LPD*%
G01*
G04 APERTURE LIST*
%ADD10C,0.150000*%
%ADD11C,0.180000*%
%ADD12C,0.200000*%
%ADD13C,0.100000*%
%ADD14C,0.120000*%
%ADD15C,3.500000*%
%ADD16C,2.000000*%
%ADD17C,3.100000*%
%ADD18O,1.900000X2.850000*%
%ADD19C,1.497000*%
%ADD20C,1.000000*%
%ADD21C,7.100000*%
G04 APERTURE END LIST*
D10*
X-6457143Y63014315D02*
X-6685714Y63014315D01*
X-6685714Y63014315D02*
X-6800000Y62957172D01*
X-6800000Y62957172D02*
X-6857143Y62900029D01*
X-6857143Y62900029D02*
X-6971428Y62728600D01*
X-6971428Y62728600D02*
X-7028571Y62500029D01*
X-7028571Y62500029D02*
X-7028571Y62042886D01*
X-7028571Y62042886D02*
X-6971428Y61928600D01*
X-6971428Y61928600D02*
X-6914285Y61871458D01*
X-6914285Y61871458D02*
X-6800000Y61814315D01*
X-6800000Y61814315D02*
X-6571428Y61814315D01*
X-6571428Y61814315D02*
X-6457143Y61871458D01*
X-6457143Y61871458D02*
X-6400000Y61928600D01*
X-6400000Y61928600D02*
X-6342857Y62042886D01*
X-6342857Y62042886D02*
X-6342857Y62328600D01*
X-6342857Y62328600D02*
X-6400000Y62442886D01*
X-6400000Y62442886D02*
X-6457143Y62500029D01*
X-6457143Y62500029D02*
X-6571428Y62557172D01*
X-6571428Y62557172D02*
X-6800000Y62557172D01*
X-6800000Y62557172D02*
X-6914285Y62500029D01*
X-6914285Y62500029D02*
X-6971428Y62442886D01*
X-6971428Y62442886D02*
X-7028571Y62328600D01*
X-5600000Y63014315D02*
X-5485714Y63014315D01*
X-5485714Y63014315D02*
X-5371428Y62957172D01*
X-5371428Y62957172D02*
X-5314286Y62900029D01*
X-5314286Y62900029D02*
X-5257143Y62785743D01*
X-5257143Y62785743D02*
X-5200000Y62557172D01*
X-5200000Y62557172D02*
X-5200000Y62271458D01*
X-5200000Y62271458D02*
X-5257143Y62042886D01*
X-5257143Y62042886D02*
X-5314286Y61928600D01*
X-5314286Y61928600D02*
X-5371428Y61871458D01*
X-5371428Y61871458D02*
X-5485714Y61814315D01*
X-5485714Y61814315D02*
X-5600000Y61814315D01*
X-5600000Y61814315D02*
X-5714286Y61871458D01*
X-5714286Y61871458D02*
X-5771428Y61928600D01*
X-5771428Y61928600D02*
X-5828571Y62042886D01*
X-5828571Y62042886D02*
X-5885714Y62271458D01*
X-5885714Y62271458D02*
X-5885714Y62557172D01*
X-5885714Y62557172D02*
X-5828571Y62785743D01*
X-5828571Y62785743D02*
X-5771428Y62900029D01*
X-5771428Y62900029D02*
X-5714286Y62957172D01*
X-5714286Y62957172D02*
X-5600000Y63014315D01*
X-3885714Y61814315D02*
X-3257143Y62614315D01*
X-3885714Y62614315D02*
X-3257143Y61814315D01*
X-1942856Y62900029D02*
X-1885713Y62957172D01*
X-1885713Y62957172D02*
X-1771428Y63014315D01*
X-1771428Y63014315D02*
X-1485713Y63014315D01*
X-1485713Y63014315D02*
X-1371428Y62957172D01*
X-1371428Y62957172D02*
X-1314285Y62900029D01*
X-1314285Y62900029D02*
X-1257142Y62785743D01*
X-1257142Y62785743D02*
X-1257142Y62671458D01*
X-1257142Y62671458D02*
X-1314285Y62500029D01*
X-1314285Y62500029D02*
X-1999999Y61814315D01*
X-1999999Y61814315D02*
X-1257142Y61814315D01*
X-514285Y63014315D02*
X-399999Y63014315D01*
X-399999Y63014315D02*
X-285713Y62957172D01*
X-285713Y62957172D02*
X-228571Y62900029D01*
X-228571Y62900029D02*
X-171428Y62785743D01*
X-171428Y62785743D02*
X-114285Y62557172D01*
X-114285Y62557172D02*
X-114285Y62271458D01*
X-114285Y62271458D02*
X-171428Y62042886D01*
X-171428Y62042886D02*
X-228571Y61928600D01*
X-228571Y61928600D02*
X-285713Y61871458D01*
X-285713Y61871458D02*
X-399999Y61814315D01*
X-399999Y61814315D02*
X-514285Y61814315D01*
X-514285Y61814315D02*
X-628571Y61871458D01*
X-628571Y61871458D02*
X-685713Y61928600D01*
X-685713Y61928600D02*
X-742856Y62042886D01*
X-742856Y62042886D02*
X-799999Y62271458D01*
X-799999Y62271458D02*
X-799999Y62557172D01*
X-799999Y62557172D02*
X-742856Y62785743D01*
X-742856Y62785743D02*
X-685713Y62900029D01*
X-685713Y62900029D02*
X-628571Y62957172D01*
X-628571Y62957172D02*
X-514285Y63014315D01*
X1200000Y61814315D02*
X1828572Y62614315D01*
X1200000Y62614315D02*
X1828572Y61814315D01*
X3714287Y63014315D02*
X3485715Y63014315D01*
X3485715Y63014315D02*
X3371429Y62957172D01*
X3371429Y62957172D02*
X3314287Y62900029D01*
X3314287Y62900029D02*
X3200001Y62728600D01*
X3200001Y62728600D02*
X3142858Y62500029D01*
X3142858Y62500029D02*
X3142858Y62042886D01*
X3142858Y62042886D02*
X3200001Y61928600D01*
X3200001Y61928600D02*
X3257144Y61871458D01*
X3257144Y61871458D02*
X3371429Y61814315D01*
X3371429Y61814315D02*
X3600001Y61814315D01*
X3600001Y61814315D02*
X3714287Y61871458D01*
X3714287Y61871458D02*
X3771429Y61928600D01*
X3771429Y61928600D02*
X3828572Y62042886D01*
X3828572Y62042886D02*
X3828572Y62328600D01*
X3828572Y62328600D02*
X3771429Y62442886D01*
X3771429Y62442886D02*
X3714287Y62500029D01*
X3714287Y62500029D02*
X3600001Y62557172D01*
X3600001Y62557172D02*
X3371429Y62557172D01*
X3371429Y62557172D02*
X3257144Y62500029D01*
X3257144Y62500029D02*
X3200001Y62442886D01*
X3200001Y62442886D02*
X3142858Y62328600D01*
X4342858Y61814315D02*
X4342858Y62614315D01*
X4342858Y62500029D02*
X4400001Y62557172D01*
X4400001Y62557172D02*
X4514286Y62614315D01*
X4514286Y62614315D02*
X4685715Y62614315D01*
X4685715Y62614315D02*
X4800001Y62557172D01*
X4800001Y62557172D02*
X4857144Y62442886D01*
X4857144Y62442886D02*
X4857144Y61814315D01*
X4857144Y62442886D02*
X4914286Y62557172D01*
X4914286Y62557172D02*
X5028572Y62614315D01*
X5028572Y62614315D02*
X5200001Y62614315D01*
X5200001Y62614315D02*
X5314286Y62557172D01*
X5314286Y62557172D02*
X5371429Y62442886D01*
X5371429Y62442886D02*
X5371429Y61814315D01*
X5942858Y61814315D02*
X5942858Y62614315D01*
X5942858Y62500029D02*
X6000001Y62557172D01*
X6000001Y62557172D02*
X6114286Y62614315D01*
X6114286Y62614315D02*
X6285715Y62614315D01*
X6285715Y62614315D02*
X6400001Y62557172D01*
X6400001Y62557172D02*
X6457144Y62442886D01*
X6457144Y62442886D02*
X6457144Y61814315D01*
X6457144Y62442886D02*
X6514286Y62557172D01*
X6514286Y62557172D02*
X6628572Y62614315D01*
X6628572Y62614315D02*
X6800001Y62614315D01*
X6800001Y62614315D02*
X6914286Y62557172D01*
X6914286Y62557172D02*
X6971429Y62442886D01*
X6971429Y62442886D02*
X6971429Y61814315D01*
X-123082905Y66056838D02*
X-122892429Y66056838D01*
X-122892429Y66056838D02*
X-122797191Y66009219D01*
X-122797191Y66009219D02*
X-122701953Y65913981D01*
X-122701953Y65913981D02*
X-122654334Y65723505D01*
X-122654334Y65723505D02*
X-122654334Y65390172D01*
X-122654334Y65390172D02*
X-122701953Y65199696D01*
X-122701953Y65199696D02*
X-122797191Y65104458D01*
X-122797191Y65104458D02*
X-122892429Y65056838D01*
X-122892429Y65056838D02*
X-123082905Y65056838D01*
X-123082905Y65056838D02*
X-123178143Y65104458D01*
X-123178143Y65104458D02*
X-123273381Y65199696D01*
X-123273381Y65199696D02*
X-123321000Y65390172D01*
X-123321000Y65390172D02*
X-123321000Y65723505D01*
X-123321000Y65723505D02*
X-123273381Y65913981D01*
X-123273381Y65913981D02*
X-123178143Y66009219D01*
X-123178143Y66009219D02*
X-123082905Y66056838D01*
X-122225762Y65056838D02*
X-122225762Y66056838D01*
X-122225762Y66056838D02*
X-121654334Y65056838D01*
X-121654334Y65056838D02*
X-121654334Y66056838D01*
X-123416238Y56056838D02*
X-123225762Y56056838D01*
X-123225762Y56056838D02*
X-123130524Y56009219D01*
X-123130524Y56009219D02*
X-123035286Y55913981D01*
X-123035286Y55913981D02*
X-122987667Y55723505D01*
X-122987667Y55723505D02*
X-122987667Y55390172D01*
X-122987667Y55390172D02*
X-123035286Y55199696D01*
X-123035286Y55199696D02*
X-123130524Y55104458D01*
X-123130524Y55104458D02*
X-123225762Y55056838D01*
X-123225762Y55056838D02*
X-123416238Y55056838D01*
X-123416238Y55056838D02*
X-123511476Y55104458D01*
X-123511476Y55104458D02*
X-123606714Y55199696D01*
X-123606714Y55199696D02*
X-123654333Y55390172D01*
X-123654333Y55390172D02*
X-123654333Y55723505D01*
X-123654333Y55723505D02*
X-123606714Y55913981D01*
X-123606714Y55913981D02*
X-123511476Y56009219D01*
X-123511476Y56009219D02*
X-123416238Y56056838D01*
X-122225762Y55580648D02*
X-122559095Y55580648D01*
X-122559095Y55056838D02*
X-122559095Y56056838D01*
X-122559095Y56056838D02*
X-122082905Y56056838D01*
X-121368619Y55580648D02*
X-121701952Y55580648D01*
X-121701952Y55056838D02*
X-121701952Y56056838D01*
X-121701952Y56056838D02*
X-121225762Y56056838D01*
D11*
X-36027693Y73230706D02*
X-36027693Y73992611D01*
X-35646740Y73611658D02*
X-36408645Y73611658D01*
D12*
X-36012400Y76654515D02*
X-36012400Y77568801D01*
D13*
X-103500520Y16888012D02*
X-103011446Y16784056D01*
X-103583685Y16496753D02*
X-104087409Y17012759D01*
X-103417355Y17279271D02*
X-103583685Y16496753D01*
X-104087409Y17012759D02*
X-103417355Y17279271D01*
X-104087409Y17012759D02*
X-104201760Y16474778D01*
X-104087409Y17012759D02*
X-103973057Y17550740D01*
X-104478668Y17095924D02*
X-104087409Y17012759D01*
X-99966021Y33516521D02*
X-99476947Y33412565D01*
X-100049186Y33125262D02*
X-100552910Y33641268D01*
X-99882856Y33907780D02*
X-100049186Y33125262D01*
X-100552910Y33641268D02*
X-99882856Y33907780D01*
X-100552910Y33641268D02*
X-100667261Y33103287D01*
X-100552910Y33641268D02*
X-100438558Y34179249D01*
X-100944169Y33724433D02*
X-100552910Y33641268D01*
X-96431522Y50145030D02*
X-95942448Y50041074D01*
X-96514687Y49753771D02*
X-97018411Y50269777D01*
X-96348357Y50536289D02*
X-96514687Y49753771D01*
X-97018411Y50269777D02*
X-96348357Y50536289D01*
X-97018411Y50269777D02*
X-97132762Y49731796D01*
X-97018411Y50269777D02*
X-96904059Y50807758D01*
X-97409670Y50352942D02*
X-97018411Y50269777D01*
X-82543706Y27762241D02*
X-82060743Y27632832D01*
X-82647233Y27375871D02*
X-83123261Y27917533D01*
X-82440178Y28148612D02*
X-82647233Y27375871D01*
X-83123261Y27917533D02*
X-82440178Y28148612D01*
X-83123261Y27917533D02*
X-83265612Y27386273D01*
X-83123261Y27917533D02*
X-82980911Y28448792D01*
X-83509631Y28021060D02*
X-83123261Y27917533D01*
X-78143783Y44182980D02*
X-77660820Y44053571D01*
X-78247310Y43796610D02*
X-78723338Y44338272D01*
X-78040255Y44569351D02*
X-78247310Y43796610D01*
X-78723338Y44338272D02*
X-78040255Y44569351D01*
X-78723338Y44338272D02*
X-78865689Y43807012D01*
X-78723338Y44338272D02*
X-78580988Y44869531D01*
X-79109708Y44441799D02*
X-78723338Y44338272D01*
X-73743859Y60603719D02*
X-73260896Y60474310D01*
X-73847386Y60217349D02*
X-74323414Y60759011D01*
X-73640331Y60990090D02*
X-73847386Y60217349D01*
X-74323414Y60759011D02*
X-73640331Y60990090D01*
X-74323414Y60759011D02*
X-74465765Y60227751D01*
X-74323414Y60759011D02*
X-74181064Y61290270D01*
X-74709784Y60862538D02*
X-74323414Y60759011D01*
X-64152328Y25933664D02*
X-63676800Y25779155D01*
X-64275935Y25553241D02*
X-64722962Y26119074D01*
X-64028721Y26314086D02*
X-64275935Y25553241D01*
X-64722962Y26119074D02*
X-64028721Y26314086D01*
X-64722962Y26119074D02*
X-64892921Y25595993D01*
X-64722962Y26119074D02*
X-64553002Y26642155D01*
X-65103384Y26242681D02*
X-64722962Y26119074D01*
X-58899039Y42101624D02*
X-58423511Y41947115D01*
X-59022646Y41721201D02*
X-59469673Y42287034D01*
X-58775432Y42482046D02*
X-59022646Y41721201D01*
X-59469673Y42287034D02*
X-58775432Y42482046D01*
X-59469673Y42287034D02*
X-59639632Y41763953D01*
X-59469673Y42287034D02*
X-59299713Y42810115D01*
X-59850095Y42410641D02*
X-59469673Y42287034D01*
X-53645750Y58269585D02*
X-53170222Y58115076D01*
X-53769357Y57889162D02*
X-54216384Y58454995D01*
X-53522143Y58650007D02*
X-53769357Y57889162D01*
X-54216384Y58454995D02*
X-53522143Y58650007D01*
X-54216384Y58454995D02*
X-54386343Y57931914D01*
X-54216384Y58454995D02*
X-54046424Y58978076D01*
X-54596806Y58578602D02*
X-54216384Y58454995D01*
X-48887413Y14665019D02*
X-48411885Y14510510D01*
X-49011020Y14284596D02*
X-49458047Y14850429D01*
X-48763806Y15045441D02*
X-49011020Y14284596D01*
X-49458047Y14850429D02*
X-48763806Y15045441D01*
X-49458047Y14850429D02*
X-49628006Y14327348D01*
X-49458047Y14850429D02*
X-49288087Y15373510D01*
X-49838469Y14974036D02*
X-49458047Y14850429D01*
X-43634124Y30832980D02*
X-43158596Y30678471D01*
X-43757731Y30452557D02*
X-44204758Y31018390D01*
X-43510517Y31213402D02*
X-43757731Y30452557D01*
X-44204758Y31018390D02*
X-43510517Y31213402D01*
X-44204758Y31018390D02*
X-44374717Y30495309D01*
X-44204758Y31018390D02*
X-44034798Y31541471D01*
X-44585180Y31141997D02*
X-44204758Y31018390D01*
X-38380835Y47000940D02*
X-37905307Y46846431D01*
X-38504442Y46620517D02*
X-38951469Y47186350D01*
X-38257228Y47381362D02*
X-38504442Y46620517D01*
X-38951469Y47186350D02*
X-38257228Y47381362D01*
X-38951469Y47186350D02*
X-39121428Y46663269D01*
X-38951469Y47186350D02*
X-38781509Y47709431D01*
X-39331891Y47309957D02*
X-38951469Y47186350D01*
X-32386429Y7200600D02*
X-31910901Y7046091D01*
X-32510036Y6820177D02*
X-32957063Y7386010D01*
X-32262822Y7581022D02*
X-32510036Y6820177D01*
X-32957063Y7386010D02*
X-32262822Y7581022D01*
X-32957063Y7386010D02*
X-33127022Y6862929D01*
X-32957063Y7386010D02*
X-32787103Y7909091D01*
X-33337485Y7509617D02*
X-32957063Y7386010D01*
X-27133141Y23368561D02*
X-26657613Y23214052D01*
X-27256748Y22988138D02*
X-27703775Y23553971D01*
X-27009534Y23748983D02*
X-27256748Y22988138D01*
X-27703775Y23553971D02*
X-27009534Y23748983D01*
X-27703775Y23553971D02*
X-27873734Y23030890D01*
X-27703775Y23553971D02*
X-27533815Y24077052D01*
X-28084197Y23677578D02*
X-27703775Y23553971D01*
X-21879852Y39536521D02*
X-21404324Y39382012D01*
X-22003459Y39156098D02*
X-22450486Y39721931D01*
X-21756245Y39916943D02*
X-22003459Y39156098D01*
X-22450486Y39721931D02*
X-21756245Y39916943D01*
X-22450486Y39721931D02*
X-22620445Y39198850D01*
X-22450486Y39721931D02*
X-22280526Y40245012D01*
X-22830908Y39845538D02*
X-22450486Y39721931D01*
X-46199227Y-6186208D02*
X-45723699Y-6340717D01*
X-46322834Y-6566631D02*
X-46769861Y-6000798D01*
X-46075620Y-5805786D02*
X-46322834Y-6566631D01*
X-46769861Y-6000798D02*
X-46075620Y-5805786D01*
X-46769861Y-6000798D02*
X-46939820Y-6523879D01*
X-46769861Y-6000798D02*
X-46599901Y-5477717D01*
X-47150283Y-5877191D02*
X-46769861Y-6000798D01*
X-29080210Y-11748514D02*
X-28604682Y-11903023D01*
X-29203817Y-12128937D02*
X-29650844Y-11563104D01*
X-28956603Y-11368092D02*
X-29203817Y-12128937D01*
X-29650844Y-11563104D02*
X-28956603Y-11368092D01*
X-29650844Y-11563104D02*
X-29820803Y-12086185D01*
X-29650844Y-11563104D02*
X-29480884Y-11040023D01*
X-30031266Y-11439497D02*
X-29650844Y-11563104D01*
X103989594Y16991968D02*
X104478668Y17095924D01*
X104072759Y16600709D02*
X103402705Y16867221D01*
X103906429Y17383227D02*
X104072759Y16600709D01*
X103402705Y16867221D02*
X103906429Y17383227D01*
X103402705Y16867221D02*
X103517057Y16329240D01*
X103402705Y16867221D02*
X103288354Y17405202D01*
X103011446Y16784056D02*
X103402705Y16867221D01*
X100455095Y33620477D02*
X100944169Y33724433D01*
X100538260Y33229218D02*
X99868206Y33495730D01*
X100371930Y34011736D02*
X100538260Y33229218D01*
X99868206Y33495730D02*
X100371930Y34011736D01*
X99868206Y33495730D02*
X99982558Y32957749D01*
X99868206Y33495730D02*
X99753855Y34033711D01*
X99476947Y33412565D02*
X99868206Y33495730D01*
X96920596Y50248986D02*
X97409670Y50352942D01*
X97003761Y49857727D02*
X96333707Y50124239D01*
X96837431Y50640245D02*
X97003761Y49857727D01*
X96333707Y50124239D02*
X96837431Y50640245D01*
X96333707Y50124239D02*
X96448059Y49586258D01*
X96333707Y50124239D02*
X96219356Y50662220D01*
X95942448Y50041074D02*
X96333707Y50124239D01*
X83026668Y27891651D02*
X83509631Y28021060D01*
X83130196Y27505280D02*
X82447113Y27736359D01*
X82923141Y28278021D02*
X83130196Y27505280D01*
X82447113Y27736359D02*
X82923141Y28278021D01*
X82447113Y27736359D02*
X82589463Y27205100D01*
X82447113Y27736359D02*
X82304762Y28267619D01*
X82060743Y27632832D02*
X82447113Y27736359D01*
X78626745Y44312390D02*
X79109708Y44441799D01*
X78730273Y43926019D02*
X78047190Y44157098D01*
X78523218Y44698760D02*
X78730273Y43926019D01*
X78047190Y44157098D02*
X78523218Y44698760D01*
X78047190Y44157098D02*
X78189540Y43625839D01*
X78047190Y44157098D02*
X77904839Y44688358D01*
X77660820Y44053571D02*
X78047190Y44157098D01*
X74226821Y60733129D02*
X74709784Y60862538D01*
X74330349Y60346758D02*
X73647266Y60577837D01*
X74123294Y61119499D02*
X74330349Y60346758D01*
X73647266Y60577837D02*
X74123294Y61119499D01*
X73647266Y60577837D02*
X73789616Y60046578D01*
X73647266Y60577837D02*
X73504915Y61109097D01*
X73260896Y60474310D02*
X73647266Y60577837D01*
X64627856Y26088172D02*
X65103384Y26242681D01*
X64751463Y25707750D02*
X64057222Y25902762D01*
X64504249Y26468595D02*
X64751463Y25707750D01*
X64057222Y25902762D02*
X64504249Y26468595D01*
X64057222Y25902762D02*
X64227182Y25379681D01*
X64057222Y25902762D02*
X63887263Y26425843D01*
X63676800Y25779155D02*
X64057222Y25902762D01*
X59374567Y42256132D02*
X59850095Y42410641D01*
X59498174Y41875710D02*
X58803933Y42070722D01*
X59250960Y42636555D02*
X59498174Y41875710D01*
X58803933Y42070722D02*
X59250960Y42636555D01*
X58803933Y42070722D02*
X58973893Y41547641D01*
X58803933Y42070722D02*
X58633974Y42593803D01*
X58423511Y41947115D02*
X58803933Y42070722D01*
X54121278Y58424093D02*
X54596806Y58578602D01*
X54244885Y58043671D02*
X53550644Y58238683D01*
X53997671Y58804516D02*
X54244885Y58043671D01*
X53550644Y58238683D02*
X53997671Y58804516D01*
X53550644Y58238683D02*
X53720604Y57715602D01*
X53550644Y58238683D02*
X53380685Y58761764D01*
X53170222Y58115076D02*
X53550644Y58238683D01*
X49362941Y14819527D02*
X49838469Y14974036D01*
X49486548Y14439105D02*
X48792307Y14634117D01*
X49239334Y15199950D02*
X49486548Y14439105D01*
X48792307Y14634117D02*
X49239334Y15199950D01*
X48792307Y14634117D02*
X48962267Y14111036D01*
X48792307Y14634117D02*
X48622348Y15157198D01*
X48411885Y14510510D02*
X48792307Y14634117D01*
X44109652Y30987488D02*
X44585180Y31141997D01*
X44233259Y30607066D02*
X43539018Y30802078D01*
X43986045Y31367911D02*
X44233259Y30607066D01*
X43539018Y30802078D02*
X43986045Y31367911D01*
X43539018Y30802078D02*
X43708978Y30278997D01*
X43539018Y30802078D02*
X43369059Y31325159D01*
X43158596Y30678471D02*
X43539018Y30802078D01*
X38856363Y47155448D02*
X39331891Y47309957D01*
X38979970Y46775026D02*
X38285729Y46970038D01*
X38732756Y47535871D02*
X38979970Y46775026D01*
X38285729Y46970038D02*
X38732756Y47535871D01*
X38285729Y46970038D02*
X38455689Y46446957D01*
X38285729Y46970038D02*
X38115770Y47493119D01*
X37905307Y46846431D02*
X38285729Y46970038D01*
X32861957Y7355108D02*
X33337485Y7509617D01*
X32985564Y6974686D02*
X32291323Y7169698D01*
X32738350Y7735531D02*
X32985564Y6974686D01*
X32291323Y7169698D02*
X32738350Y7735531D01*
X32291323Y7169698D02*
X32461283Y6646617D01*
X32291323Y7169698D02*
X32121364Y7692779D01*
X31910901Y7046091D02*
X32291323Y7169698D01*
X27608669Y23523069D02*
X28084197Y23677578D01*
X27732276Y23142647D02*
X27038035Y23337659D01*
X27485062Y23903492D02*
X27732276Y23142647D01*
X27038035Y23337659D02*
X27485062Y23903492D01*
X27038035Y23337659D02*
X27207995Y22814578D01*
X27038035Y23337659D02*
X26868076Y23860740D01*
X26657613Y23214052D02*
X27038035Y23337659D01*
X22355380Y39691029D02*
X22830908Y39845538D01*
X22478987Y39310607D02*
X21784746Y39505619D01*
X22231773Y40071452D02*
X22478987Y39310607D01*
X21784746Y39505619D02*
X22231773Y40071452D01*
X21784746Y39505619D02*
X21954706Y38982538D01*
X21784746Y39505619D02*
X21614787Y40028700D01*
X21404324Y39382012D02*
X21784746Y39505619D01*
X46674755Y-6031700D02*
X47150283Y-5877191D01*
X46798362Y-6412122D02*
X46104121Y-6217110D01*
X46551148Y-5651277D02*
X46798362Y-6412122D01*
X46104121Y-6217110D02*
X46551148Y-5651277D01*
X46104121Y-6217110D02*
X46274081Y-6740191D01*
X46104121Y-6217110D02*
X45934162Y-5694029D01*
X45723699Y-6340717D02*
X46104121Y-6217110D01*
X29555738Y-11594006D02*
X30031266Y-11439497D01*
X29679345Y-11974428D02*
X28985104Y-11779416D01*
X29432131Y-11213583D02*
X29679345Y-11974428D01*
X28985104Y-11779416D02*
X29432131Y-11213583D01*
X28985104Y-11779416D02*
X29155064Y-12302497D01*
X28985104Y-11779416D02*
X28815145Y-11256335D01*
X28604682Y-11903023D02*
X28985104Y-11779416D01*
D14*
X-122878858Y57061658D02*
X-122088858Y57061658D01*
X-122088858Y63961658D02*
X-122878858Y63961658D01*
X-121038858Y62111658D02*
X-121038858Y60411658D01*
X-123888858Y63361658D02*
X-123888858Y57661658D01*
X-121038858Y59111658D02*
X-121038858Y58911658D01*
%LPC*%
D15*
X-102705498Y21830728D03*
D16*
X-97325686Y20687214D03*
X-108085310Y22974242D03*
D17*
X-101468423Y27650706D03*
X-97035091Y24459223D03*
D15*
X-99170999Y38459237D03*
D16*
X-93791187Y37315723D03*
X-104550811Y39602751D03*
D17*
X-97933924Y44279215D03*
X-93500592Y41087732D03*
D15*
X-95636501Y55087746D03*
D16*
X-90256689Y53944232D03*
X-101016313Y56231260D03*
D17*
X-94399426Y60907724D03*
X-89966094Y57716241D03*
D15*
X-81491092Y32656575D03*
D16*
X-76178500Y31233070D03*
X-86803684Y34080080D03*
D17*
X-79951119Y38403834D03*
X-75690891Y34984702D03*
D15*
X-77091168Y49077314D03*
D16*
X-71778576Y47653809D03*
X-82403760Y50500819D03*
D17*
X-75551195Y54824573D03*
X-71290967Y51405441D03*
D15*
X-72691245Y65498053D03*
D16*
X-67378653Y64074548D03*
X-78003837Y66921558D03*
D17*
X-71151272Y71245312D03*
X-66891044Y67826180D03*
D15*
X-62845007Y30766200D03*
D16*
X-57614196Y29066607D03*
X-68075818Y32465793D03*
D17*
X-61006356Y36424986D03*
X-56930911Y32787577D03*
D15*
X-57591718Y46934161D03*
D16*
X-52360907Y45234568D03*
X-62822529Y48633754D03*
D17*
X-55753067Y52592947D03*
X-51677622Y48955538D03*
D15*
X-52338429Y63102122D03*
D16*
X-47107618Y61402529D03*
X-57569240Y64801715D03*
D17*
X-50499778Y68760908D03*
X-46424333Y65123499D03*
D15*
X-47580092Y19497555D03*
D16*
X-42349281Y17797962D03*
X-52810903Y21197148D03*
D17*
X-45741441Y25156341D03*
X-41665996Y21518932D03*
D15*
X-42326803Y35665516D03*
D16*
X-37095992Y33965923D03*
X-47557614Y37365109D03*
D17*
X-40488152Y41324302D03*
X-36412707Y37686893D03*
D15*
X-37073514Y51833477D03*
D16*
X-31842703Y50133884D03*
X-42304325Y53533070D03*
D17*
X-35234863Y57492263D03*
X-31159418Y53854854D03*
D15*
X-31079109Y12033137D03*
D16*
X-25848298Y10333544D03*
X-36309920Y13732730D03*
D17*
X-29240458Y17691923D03*
X-25165013Y14054514D03*
D15*
X-25825820Y28201097D03*
D16*
X-20595009Y26501504D03*
X-31056631Y29900690D03*
D17*
X-23987169Y33859883D03*
X-19911724Y30222474D03*
D15*
X-20572531Y44369058D03*
D16*
X-15341720Y42669465D03*
X-25803342Y46068651D03*
D17*
X-18733880Y50027844D03*
X-14658435Y46390435D03*
D15*
X-44891906Y-1353671D03*
D16*
X-39661095Y-3053264D03*
X-50122717Y345922D03*
D17*
X-43053255Y4305115D03*
X-38977810Y667706D03*
D15*
X-27772889Y-6915977D03*
D16*
X-22542078Y-8615570D03*
X-33003700Y-5216384D03*
D17*
X-25934238Y-1257191D03*
X-21858793Y-4894600D03*
D15*
X102705498Y21830728D03*
D16*
X108085310Y22974242D03*
X97325686Y20687214D03*
D17*
X101468423Y27650706D03*
X106816567Y26538340D03*
D15*
X99170999Y38459237D03*
D16*
X104550811Y39602751D03*
X93791187Y37315723D03*
D17*
X97933924Y44279215D03*
X103282068Y43166849D03*
D15*
X95636501Y55087746D03*
D16*
X101016313Y56231260D03*
X90256689Y53944232D03*
D17*
X94399426Y60907724D03*
X99747570Y59795358D03*
D15*
X81491092Y32656575D03*
D16*
X86803684Y34080080D03*
X76178500Y31233070D03*
D17*
X79951119Y38403834D03*
X85350150Y37572892D03*
D15*
X77091168Y49077314D03*
D16*
X82403760Y50500819D03*
X71778576Y47653809D03*
D17*
X75551195Y54824573D03*
X80950226Y53993631D03*
D15*
X72691245Y65498053D03*
D16*
X78003837Y66921558D03*
X67378653Y64074548D03*
D17*
X71151272Y71245312D03*
X76550303Y70414370D03*
D15*
X62845007Y30766200D03*
D16*
X68075818Y32465793D03*
X57614196Y29066607D03*
D17*
X61006356Y36424986D03*
X66441476Y35877747D03*
D15*
X57591718Y46934161D03*
D16*
X62822529Y48633754D03*
X52360907Y45234568D03*
D17*
X55753067Y52592947D03*
X61188187Y52045708D03*
D15*
X52338429Y63102122D03*
D16*
X57569240Y64801715D03*
X47107618Y61402529D03*
D17*
X50499778Y68760908D03*
X55934898Y68213669D03*
D15*
X47580092Y19497555D03*
D16*
X52810903Y21197148D03*
X42349281Y17797962D03*
D17*
X45741441Y25156341D03*
X51176561Y24609102D03*
D15*
X42326803Y35665516D03*
D16*
X47557614Y37365109D03*
X37095992Y33965923D03*
D17*
X40488152Y41324302D03*
X45923272Y40777063D03*
D15*
X37073514Y51833477D03*
D16*
X42304325Y53533070D03*
X31842703Y50133884D03*
D17*
X35234863Y57492263D03*
X40669983Y56945024D03*
D15*
X31079109Y12033137D03*
D16*
X36309920Y13732730D03*
X25848298Y10333544D03*
D17*
X29240458Y17691923D03*
X34675578Y17144684D03*
D15*
X25825820Y28201097D03*
D16*
X31056631Y29900690D03*
X20595009Y26501504D03*
D17*
X23987169Y33859883D03*
X29422289Y33312644D03*
D15*
X20572531Y44369058D03*
D16*
X25803342Y46068651D03*
X15341720Y42669465D03*
D17*
X18733880Y50027844D03*
X24169000Y49480605D03*
D15*
X44891906Y-1353671D03*
D16*
X50122717Y345922D03*
X39661095Y-3053264D03*
D17*
X43053255Y4305115D03*
X48488375Y3757876D03*
D15*
X27772889Y-6915977D03*
D16*
X33003700Y-5216384D03*
X22542078Y-8615570D03*
D17*
X25934238Y-1257191D03*
X31369358Y-1804430D03*
G36*
G01*
X-105972821Y16800112D02*
X-105723327Y17973889D01*
G75*
G02*
X-105664024Y18012400I48907J-10396D01*
G01*
X-104783692Y17825279D01*
G75*
G02*
X-104745181Y17765976I-10396J-48907D01*
G01*
X-104994675Y16592199D01*
G75*
G02*
X-105053978Y16553688I-48907J10396D01*
G01*
X-105934310Y16740809D01*
G75*
G02*
X-105972821Y16800112I10396J48907D01*
G01*
G37*
G36*
G01*
X-102744933Y16114004D02*
X-102495439Y17287781D01*
G75*
G02*
X-102436136Y17326292I48907J-10396D01*
G01*
X-101555804Y17139171D01*
G75*
G02*
X-101517293Y17079868I-10396J-48907D01*
G01*
X-101766787Y15906091D01*
G75*
G02*
X-101826090Y15867580I-48907J10396D01*
G01*
X-102706422Y16054701D01*
G75*
G02*
X-102744933Y16114004I10396J48907D01*
G01*
G37*
G36*
G01*
X-102438322Y33428621D02*
X-102188828Y34602398D01*
G75*
G02*
X-102129525Y34640909I48907J-10396D01*
G01*
X-101249193Y34453788D01*
G75*
G02*
X-101210682Y34394485I-10396J-48907D01*
G01*
X-101460176Y33220708D01*
G75*
G02*
X-101519479Y33182197I-48907J10396D01*
G01*
X-102399811Y33369318D01*
G75*
G02*
X-102438322Y33428621I10396J48907D01*
G01*
G37*
G36*
G01*
X-99210434Y32742513D02*
X-98960940Y33916290D01*
G75*
G02*
X-98901637Y33954801I48907J-10396D01*
G01*
X-98021305Y33767680D01*
G75*
G02*
X-97982794Y33708377I-10396J-48907D01*
G01*
X-98232288Y32534600D01*
G75*
G02*
X-98291591Y32496089I-48907J10396D01*
G01*
X-99171923Y32683210D01*
G75*
G02*
X-99210434Y32742513I10396J48907D01*
G01*
G37*
G36*
G01*
X-98903823Y50057130D02*
X-98654329Y51230907D01*
G75*
G02*
X-98595026Y51269418I48907J-10396D01*
G01*
X-97714694Y51082297D01*
G75*
G02*
X-97676183Y51022994I-10396J-48907D01*
G01*
X-97925677Y49849217D01*
G75*
G02*
X-97984980Y49810706I-48907J10396D01*
G01*
X-98865312Y49997827D01*
G75*
G02*
X-98903823Y50057130I10396J48907D01*
G01*
G37*
G36*
G01*
X-95675935Y49371022D02*
X-95426441Y50544799D01*
G75*
G02*
X-95367138Y50583310I48907J-10396D01*
G01*
X-94486806Y50396189D01*
G75*
G02*
X-94448295Y50336886I-10396J-48907D01*
G01*
X-94697789Y49163109D01*
G75*
G02*
X-94757092Y49124598I-48907J10396D01*
G01*
X-95637424Y49311719D01*
G75*
G02*
X-95675935Y49371022I10396J48907D01*
G01*
G37*
G36*
G01*
X-85017219Y27803851D02*
X-84706636Y28962962D01*
G75*
G02*
X-84645399Y28998317I48296J-12941D01*
G01*
X-83776066Y28765380D01*
G75*
G02*
X-83740711Y28704143I-12941J-48296D01*
G01*
X-84051294Y27545032D01*
G75*
G02*
X-84112531Y27509677I-48296J12941D01*
G01*
X-84981864Y27742614D01*
G75*
G02*
X-85017219Y27803851I12941J48296D01*
G01*
G37*
G36*
G01*
X-81829663Y26949749D02*
X-81519080Y28108860D01*
G75*
G02*
X-81457843Y28144215I48296J-12941D01*
G01*
X-80588510Y27911278D01*
G75*
G02*
X-80553155Y27850041I-12941J-48296D01*
G01*
X-80863738Y26690930D01*
G75*
G02*
X-80924975Y26655575I-48296J12941D01*
G01*
X-81794308Y26888512D01*
G75*
G02*
X-81829663Y26949749I12941J48296D01*
G01*
G37*
G36*
G01*
X-80617296Y44224590D02*
X-80306713Y45383701D01*
G75*
G02*
X-80245476Y45419056I48296J-12941D01*
G01*
X-79376143Y45186119D01*
G75*
G02*
X-79340788Y45124882I-12941J-48296D01*
G01*
X-79651371Y43965771D01*
G75*
G02*
X-79712608Y43930416I-48296J12941D01*
G01*
X-80581941Y44163353D01*
G75*
G02*
X-80617296Y44224590I12941J48296D01*
G01*
G37*
G36*
G01*
X-77429740Y43370488D02*
X-77119157Y44529599D01*
G75*
G02*
X-77057920Y44564954I48296J-12941D01*
G01*
X-76188587Y44332017D01*
G75*
G02*
X-76153232Y44270780I-12941J-48296D01*
G01*
X-76463815Y43111669D01*
G75*
G02*
X-76525052Y43076314I-48296J12941D01*
G01*
X-77394385Y43309251D01*
G75*
G02*
X-77429740Y43370488I12941J48296D01*
G01*
G37*
G36*
G01*
X-76217372Y60645329D02*
X-75906789Y61804440D01*
G75*
G02*
X-75845552Y61839795I48296J-12941D01*
G01*
X-74976219Y61606858D01*
G75*
G02*
X-74940864Y61545621I-12941J-48296D01*
G01*
X-75251447Y60386510D01*
G75*
G02*
X-75312684Y60351155I-48296J12941D01*
G01*
X-76182017Y60584092D01*
G75*
G02*
X-76217372Y60645329I12941J48296D01*
G01*
G37*
G36*
G01*
X-73029816Y59791227D02*
X-72719233Y60950338D01*
G75*
G02*
X-72657996Y60985693I48296J-12941D01*
G01*
X-71788663Y60752756D01*
G75*
G02*
X-71753308Y60691519I-12941J-48296D01*
G01*
X-72063891Y59532408D01*
G75*
G02*
X-72125128Y59497053I-48296J12941D01*
G01*
X-72994461Y59729990D01*
G75*
G02*
X-73029816Y59791227I12941J48296D01*
G01*
G37*
G36*
G01*
X-66620274Y26104671D02*
X-66249453Y27245939D01*
G75*
G02*
X-66186449Y27278041I47553J-15451D01*
G01*
X-65330498Y26999925D01*
G75*
G02*
X-65298396Y26936921I-15451J-47553D01*
G01*
X-65669217Y25795653D01*
G75*
G02*
X-65732221Y25763551I-47553J15451D01*
G01*
X-66588172Y26041667D01*
G75*
G02*
X-66620274Y26104671I15451J47553D01*
G01*
G37*
G36*
G01*
X-63481788Y25084915D02*
X-63110967Y26226183D01*
G75*
G02*
X-63047963Y26258285I47553J-15451D01*
G01*
X-62192012Y25980169D01*
G75*
G02*
X-62159910Y25917165I-15451J-47553D01*
G01*
X-62530731Y24775897D01*
G75*
G02*
X-62593735Y24743795I-47553J15451D01*
G01*
X-63449686Y25021911D01*
G75*
G02*
X-63481788Y25084915I15451J47553D01*
G01*
G37*
G36*
G01*
X-61366985Y42272631D02*
X-60996164Y43413899D01*
G75*
G02*
X-60933160Y43446001I47553J-15451D01*
G01*
X-60077209Y43167885D01*
G75*
G02*
X-60045107Y43104881I-15451J-47553D01*
G01*
X-60415928Y41963613D01*
G75*
G02*
X-60478932Y41931511I-47553J15451D01*
G01*
X-61334883Y42209627D01*
G75*
G02*
X-61366985Y42272631I15451J47553D01*
G01*
G37*
G36*
G01*
X-58228499Y41252875D02*
X-57857678Y42394143D01*
G75*
G02*
X-57794674Y42426245I47553J-15451D01*
G01*
X-56938723Y42148129D01*
G75*
G02*
X-56906621Y42085125I-15451J-47553D01*
G01*
X-57277442Y40943857D01*
G75*
G02*
X-57340446Y40911755I-47553J15451D01*
G01*
X-58196397Y41189871D01*
G75*
G02*
X-58228499Y41252875I15451J47553D01*
G01*
G37*
G36*
G01*
X-56113696Y58440592D02*
X-55742875Y59581860D01*
G75*
G02*
X-55679871Y59613962I47553J-15451D01*
G01*
X-54823920Y59335846D01*
G75*
G02*
X-54791818Y59272842I-15451J-47553D01*
G01*
X-55162639Y58131574D01*
G75*
G02*
X-55225643Y58099472I-47553J15451D01*
G01*
X-56081594Y58377588D01*
G75*
G02*
X-56113696Y58440592I15451J47553D01*
G01*
G37*
G36*
G01*
X-52975210Y57420836D02*
X-52604389Y58562104D01*
G75*
G02*
X-52541385Y58594206I47553J-15451D01*
G01*
X-51685434Y58316090D01*
G75*
G02*
X-51653332Y58253086I-15451J-47553D01*
G01*
X-52024153Y57111818D01*
G75*
G02*
X-52087157Y57079716I-47553J15451D01*
G01*
X-52943108Y57357832D01*
G75*
G02*
X-52975210Y57420836I15451J47553D01*
G01*
G37*
G36*
G01*
X-51355359Y14836026D02*
X-50984538Y15977294D01*
G75*
G02*
X-50921534Y16009396I47553J-15451D01*
G01*
X-50065583Y15731280D01*
G75*
G02*
X-50033481Y15668276I-15451J-47553D01*
G01*
X-50404302Y14527008D01*
G75*
G02*
X-50467306Y14494906I-47553J15451D01*
G01*
X-51323257Y14773022D01*
G75*
G02*
X-51355359Y14836026I15451J47553D01*
G01*
G37*
G36*
G01*
X-48216873Y13816270D02*
X-47846052Y14957538D01*
G75*
G02*
X-47783048Y14989640I47553J-15451D01*
G01*
X-46927097Y14711524D01*
G75*
G02*
X-46894995Y14648520I-15451J-47553D01*
G01*
X-47265816Y13507252D01*
G75*
G02*
X-47328820Y13475150I-47553J15451D01*
G01*
X-48184771Y13753266D01*
G75*
G02*
X-48216873Y13816270I15451J47553D01*
G01*
G37*
G36*
G01*
X-46102070Y31003987D02*
X-45731249Y32145255D01*
G75*
G02*
X-45668245Y32177357I47553J-15451D01*
G01*
X-44812294Y31899241D01*
G75*
G02*
X-44780192Y31836237I-15451J-47553D01*
G01*
X-45151013Y30694969D01*
G75*
G02*
X-45214017Y30662867I-47553J15451D01*
G01*
X-46069968Y30940983D01*
G75*
G02*
X-46102070Y31003987I15451J47553D01*
G01*
G37*
G36*
G01*
X-42963584Y29984231D02*
X-42592763Y31125499D01*
G75*
G02*
X-42529759Y31157601I47553J-15451D01*
G01*
X-41673808Y30879485D01*
G75*
G02*
X-41641706Y30816481I-15451J-47553D01*
G01*
X-42012527Y29675213D01*
G75*
G02*
X-42075531Y29643111I-47553J15451D01*
G01*
X-42931482Y29921227D01*
G75*
G02*
X-42963584Y29984231I15451J47553D01*
G01*
G37*
G36*
G01*
X-40848781Y47171947D02*
X-40477960Y48313215D01*
G75*
G02*
X-40414956Y48345317I47553J-15451D01*
G01*
X-39559005Y48067201D01*
G75*
G02*
X-39526903Y48004197I-15451J-47553D01*
G01*
X-39897724Y46862929D01*
G75*
G02*
X-39960728Y46830827I-47553J15451D01*
G01*
X-40816679Y47108943D01*
G75*
G02*
X-40848781Y47171947I15451J47553D01*
G01*
G37*
G36*
G01*
X-37710295Y46152191D02*
X-37339474Y47293459D01*
G75*
G02*
X-37276470Y47325561I47553J-15451D01*
G01*
X-36420519Y47047445D01*
G75*
G02*
X-36388417Y46984441I-15451J-47553D01*
G01*
X-36759238Y45843173D01*
G75*
G02*
X-36822242Y45811071I-47553J15451D01*
G01*
X-37678193Y46089187D01*
G75*
G02*
X-37710295Y46152191I15451J47553D01*
G01*
G37*
G36*
G01*
X-34854375Y7371607D02*
X-34483554Y8512875D01*
G75*
G02*
X-34420550Y8544977I47553J-15451D01*
G01*
X-33564599Y8266861D01*
G75*
G02*
X-33532497Y8203857I-15451J-47553D01*
G01*
X-33903318Y7062589D01*
G75*
G02*
X-33966322Y7030487I-47553J15451D01*
G01*
X-34822273Y7308603D01*
G75*
G02*
X-34854375Y7371607I15451J47553D01*
G01*
G37*
G36*
G01*
X-31715889Y6351851D02*
X-31345068Y7493119D01*
G75*
G02*
X-31282064Y7525221I47553J-15451D01*
G01*
X-30426113Y7247105D01*
G75*
G02*
X-30394011Y7184101I-15451J-47553D01*
G01*
X-30764832Y6042833D01*
G75*
G02*
X-30827836Y6010731I-47553J15451D01*
G01*
X-31683787Y6288847D01*
G75*
G02*
X-31715889Y6351851I15451J47553D01*
G01*
G37*
G36*
G01*
X-29601087Y23539568D02*
X-29230266Y24680836D01*
G75*
G02*
X-29167262Y24712938I47553J-15451D01*
G01*
X-28311311Y24434822D01*
G75*
G02*
X-28279209Y24371818I-15451J-47553D01*
G01*
X-28650030Y23230550D01*
G75*
G02*
X-28713034Y23198448I-47553J15451D01*
G01*
X-29568985Y23476564D01*
G75*
G02*
X-29601087Y23539568I15451J47553D01*
G01*
G37*
G36*
G01*
X-26462601Y22519812D02*
X-26091780Y23661080D01*
G75*
G02*
X-26028776Y23693182I47553J-15451D01*
G01*
X-25172825Y23415066D01*
G75*
G02*
X-25140723Y23352062I-15451J-47553D01*
G01*
X-25511544Y22210794D01*
G75*
G02*
X-25574548Y22178692I-47553J15451D01*
G01*
X-26430499Y22456808D01*
G75*
G02*
X-26462601Y22519812I15451J47553D01*
G01*
G37*
G36*
G01*
X-24347798Y39707528D02*
X-23976977Y40848796D01*
G75*
G02*
X-23913973Y40880898I47553J-15451D01*
G01*
X-23058022Y40602782D01*
G75*
G02*
X-23025920Y40539778I-15451J-47553D01*
G01*
X-23396741Y39398510D01*
G75*
G02*
X-23459745Y39366408I-47553J15451D01*
G01*
X-24315696Y39644524D01*
G75*
G02*
X-24347798Y39707528I15451J47553D01*
G01*
G37*
G36*
G01*
X-21209312Y38687772D02*
X-20838491Y39829040D01*
G75*
G02*
X-20775487Y39861142I47553J-15451D01*
G01*
X-19919536Y39583026D01*
G75*
G02*
X-19887434Y39520022I-15451J-47553D01*
G01*
X-20258255Y38378754D01*
G75*
G02*
X-20321259Y38346652I-47553J15451D01*
G01*
X-21177210Y38624768D01*
G75*
G02*
X-21209312Y38687772I15451J47553D01*
G01*
G37*
G36*
G01*
X-48667173Y-6015201D02*
X-48296352Y-4873933D01*
G75*
G02*
X-48233348Y-4841831I47553J-15451D01*
G01*
X-47377397Y-5119947D01*
G75*
G02*
X-47345295Y-5182951I-15451J-47553D01*
G01*
X-47716116Y-6324219D01*
G75*
G02*
X-47779120Y-6356321I-47553J15451D01*
G01*
X-48635071Y-6078205D01*
G75*
G02*
X-48667173Y-6015201I15451J47553D01*
G01*
G37*
G36*
G01*
X-45528687Y-7034957D02*
X-45157866Y-5893689D01*
G75*
G02*
X-45094862Y-5861587I47553J-15451D01*
G01*
X-44238911Y-6139703D01*
G75*
G02*
X-44206809Y-6202707I-15451J-47553D01*
G01*
X-44577630Y-7343975D01*
G75*
G02*
X-44640634Y-7376077I-47553J15451D01*
G01*
X-45496585Y-7097961D01*
G75*
G02*
X-45528687Y-7034957I15451J47553D01*
G01*
G37*
G36*
G01*
X-31548156Y-11577507D02*
X-31177335Y-10436239D01*
G75*
G02*
X-31114331Y-10404137I47553J-15451D01*
G01*
X-30258380Y-10682253D01*
G75*
G02*
X-30226278Y-10745257I-15451J-47553D01*
G01*
X-30597099Y-11886525D01*
G75*
G02*
X-30660103Y-11918627I-47553J15451D01*
G01*
X-31516054Y-11640511D01*
G75*
G02*
X-31548156Y-11577507I15451J47553D01*
G01*
G37*
G36*
G01*
X-28409670Y-12597263D02*
X-28038849Y-11455995D01*
G75*
G02*
X-27975845Y-11423893I47553J-15451D01*
G01*
X-27119894Y-11702009D01*
G75*
G02*
X-27087792Y-11765013I-15451J-47553D01*
G01*
X-27458613Y-12906281D01*
G75*
G02*
X-27521617Y-12938383I-47553J15451D01*
G01*
X-28377568Y-12660267D01*
G75*
G02*
X-28409670Y-12597263I15451J47553D01*
G01*
G37*
G36*
G01*
X101766787Y15906091D02*
X101517293Y17079868D01*
G75*
G02*
X101555804Y17139171I48907J10396D01*
G01*
X102436136Y17326292D01*
G75*
G02*
X102495439Y17287781I10396J-48907D01*
G01*
X102744933Y16114004D01*
G75*
G02*
X102706422Y16054701I-48907J-10396D01*
G01*
X101826090Y15867580D01*
G75*
G02*
X101766787Y15906091I-10396J48907D01*
G01*
G37*
G36*
G01*
X104994675Y16592199D02*
X104745181Y17765976D01*
G75*
G02*
X104783692Y17825279I48907J10396D01*
G01*
X105664024Y18012400D01*
G75*
G02*
X105723327Y17973889I10396J-48907D01*
G01*
X105972821Y16800112D01*
G75*
G02*
X105934310Y16740809I-48907J-10396D01*
G01*
X105053978Y16553688D01*
G75*
G02*
X104994675Y16592199I-10396J48907D01*
G01*
G37*
G36*
G01*
X98232288Y32534600D02*
X97982794Y33708377D01*
G75*
G02*
X98021305Y33767680I48907J10396D01*
G01*
X98901637Y33954801D01*
G75*
G02*
X98960940Y33916290I10396J-48907D01*
G01*
X99210434Y32742513D01*
G75*
G02*
X99171923Y32683210I-48907J-10396D01*
G01*
X98291591Y32496089D01*
G75*
G02*
X98232288Y32534600I-10396J48907D01*
G01*
G37*
G36*
G01*
X101460176Y33220708D02*
X101210682Y34394485D01*
G75*
G02*
X101249193Y34453788I48907J10396D01*
G01*
X102129525Y34640909D01*
G75*
G02*
X102188828Y34602398I10396J-48907D01*
G01*
X102438322Y33428621D01*
G75*
G02*
X102399811Y33369318I-48907J-10396D01*
G01*
X101519479Y33182197D01*
G75*
G02*
X101460176Y33220708I-10396J48907D01*
G01*
G37*
G36*
G01*
X94697789Y49163109D02*
X94448295Y50336886D01*
G75*
G02*
X94486806Y50396189I48907J10396D01*
G01*
X95367138Y50583310D01*
G75*
G02*
X95426441Y50544799I10396J-48907D01*
G01*
X95675935Y49371022D01*
G75*
G02*
X95637424Y49311719I-48907J-10396D01*
G01*
X94757092Y49124598D01*
G75*
G02*
X94697789Y49163109I-10396J48907D01*
G01*
G37*
G36*
G01*
X97925677Y49849217D02*
X97676183Y51022994D01*
G75*
G02*
X97714694Y51082297I48907J10396D01*
G01*
X98595026Y51269418D01*
G75*
G02*
X98654329Y51230907I10396J-48907D01*
G01*
X98903823Y50057130D01*
G75*
G02*
X98865312Y49997827I-48907J-10396D01*
G01*
X97984980Y49810706D01*
G75*
G02*
X97925677Y49849217I-10396J48907D01*
G01*
G37*
G36*
G01*
X80863738Y26690930D02*
X80553155Y27850041D01*
G75*
G02*
X80588510Y27911278I48296J12941D01*
G01*
X81457843Y28144215D01*
G75*
G02*
X81519080Y28108860I12941J-48296D01*
G01*
X81829663Y26949749D01*
G75*
G02*
X81794308Y26888512I-48296J-12941D01*
G01*
X80924975Y26655575D01*
G75*
G02*
X80863738Y26690930I-12941J48296D01*
G01*
G37*
G36*
G01*
X84051294Y27545032D02*
X83740711Y28704143D01*
G75*
G02*
X83776066Y28765380I48296J12941D01*
G01*
X84645399Y28998317D01*
G75*
G02*
X84706636Y28962962I12941J-48296D01*
G01*
X85017219Y27803851D01*
G75*
G02*
X84981864Y27742614I-48296J-12941D01*
G01*
X84112531Y27509677D01*
G75*
G02*
X84051294Y27545032I-12941J48296D01*
G01*
G37*
G36*
G01*
X76463815Y43111669D02*
X76153232Y44270780D01*
G75*
G02*
X76188587Y44332017I48296J12941D01*
G01*
X77057920Y44564954D01*
G75*
G02*
X77119157Y44529599I12941J-48296D01*
G01*
X77429740Y43370488D01*
G75*
G02*
X77394385Y43309251I-48296J-12941D01*
G01*
X76525052Y43076314D01*
G75*
G02*
X76463815Y43111669I-12941J48296D01*
G01*
G37*
G36*
G01*
X79651371Y43965771D02*
X79340788Y45124882D01*
G75*
G02*
X79376143Y45186119I48296J12941D01*
G01*
X80245476Y45419056D01*
G75*
G02*
X80306713Y45383701I12941J-48296D01*
G01*
X80617296Y44224590D01*
G75*
G02*
X80581941Y44163353I-48296J-12941D01*
G01*
X79712608Y43930416D01*
G75*
G02*
X79651371Y43965771I-12941J48296D01*
G01*
G37*
G36*
G01*
X72063891Y59532408D02*
X71753308Y60691519D01*
G75*
G02*
X71788663Y60752756I48296J12941D01*
G01*
X72657996Y60985693D01*
G75*
G02*
X72719233Y60950338I12941J-48296D01*
G01*
X73029816Y59791227D01*
G75*
G02*
X72994461Y59729990I-48296J-12941D01*
G01*
X72125128Y59497053D01*
G75*
G02*
X72063891Y59532408I-12941J48296D01*
G01*
G37*
G36*
G01*
X75251447Y60386510D02*
X74940864Y61545621D01*
G75*
G02*
X74976219Y61606858I48296J12941D01*
G01*
X75845552Y61839795D01*
G75*
G02*
X75906789Y61804440I12941J-48296D01*
G01*
X76217372Y60645329D01*
G75*
G02*
X76182017Y60584092I-48296J-12941D01*
G01*
X75312684Y60351155D01*
G75*
G02*
X75251447Y60386510I-12941J48296D01*
G01*
G37*
G36*
G01*
X62530731Y24775897D02*
X62159910Y25917165D01*
G75*
G02*
X62192012Y25980169I47553J15451D01*
G01*
X63047963Y26258285D01*
G75*
G02*
X63110967Y26226183I15451J-47553D01*
G01*
X63481788Y25084915D01*
G75*
G02*
X63449686Y25021911I-47553J-15451D01*
G01*
X62593735Y24743795D01*
G75*
G02*
X62530731Y24775897I-15451J47553D01*
G01*
G37*
G36*
G01*
X65669217Y25795653D02*
X65298396Y26936921D01*
G75*
G02*
X65330498Y26999925I47553J15451D01*
G01*
X66186449Y27278041D01*
G75*
G02*
X66249453Y27245939I15451J-47553D01*
G01*
X66620274Y26104671D01*
G75*
G02*
X66588172Y26041667I-47553J-15451D01*
G01*
X65732221Y25763551D01*
G75*
G02*
X65669217Y25795653I-15451J47553D01*
G01*
G37*
G36*
G01*
X57277442Y40943857D02*
X56906621Y42085125D01*
G75*
G02*
X56938723Y42148129I47553J15451D01*
G01*
X57794674Y42426245D01*
G75*
G02*
X57857678Y42394143I15451J-47553D01*
G01*
X58228499Y41252875D01*
G75*
G02*
X58196397Y41189871I-47553J-15451D01*
G01*
X57340446Y40911755D01*
G75*
G02*
X57277442Y40943857I-15451J47553D01*
G01*
G37*
G36*
G01*
X60415928Y41963613D02*
X60045107Y43104881D01*
G75*
G02*
X60077209Y43167885I47553J15451D01*
G01*
X60933160Y43446001D01*
G75*
G02*
X60996164Y43413899I15451J-47553D01*
G01*
X61366985Y42272631D01*
G75*
G02*
X61334883Y42209627I-47553J-15451D01*
G01*
X60478932Y41931511D01*
G75*
G02*
X60415928Y41963613I-15451J47553D01*
G01*
G37*
G36*
G01*
X52024153Y57111818D02*
X51653332Y58253086D01*
G75*
G02*
X51685434Y58316090I47553J15451D01*
G01*
X52541385Y58594206D01*
G75*
G02*
X52604389Y58562104I15451J-47553D01*
G01*
X52975210Y57420836D01*
G75*
G02*
X52943108Y57357832I-47553J-15451D01*
G01*
X52087157Y57079716D01*
G75*
G02*
X52024153Y57111818I-15451J47553D01*
G01*
G37*
G36*
G01*
X55162639Y58131574D02*
X54791818Y59272842D01*
G75*
G02*
X54823920Y59335846I47553J15451D01*
G01*
X55679871Y59613962D01*
G75*
G02*
X55742875Y59581860I15451J-47553D01*
G01*
X56113696Y58440592D01*
G75*
G02*
X56081594Y58377588I-47553J-15451D01*
G01*
X55225643Y58099472D01*
G75*
G02*
X55162639Y58131574I-15451J47553D01*
G01*
G37*
G36*
G01*
X47265816Y13507252D02*
X46894995Y14648520D01*
G75*
G02*
X46927097Y14711524I47553J15451D01*
G01*
X47783048Y14989640D01*
G75*
G02*
X47846052Y14957538I15451J-47553D01*
G01*
X48216873Y13816270D01*
G75*
G02*
X48184771Y13753266I-47553J-15451D01*
G01*
X47328820Y13475150D01*
G75*
G02*
X47265816Y13507252I-15451J47553D01*
G01*
G37*
G36*
G01*
X50404302Y14527008D02*
X50033481Y15668276D01*
G75*
G02*
X50065583Y15731280I47553J15451D01*
G01*
X50921534Y16009396D01*
G75*
G02*
X50984538Y15977294I15451J-47553D01*
G01*
X51355359Y14836026D01*
G75*
G02*
X51323257Y14773022I-47553J-15451D01*
G01*
X50467306Y14494906D01*
G75*
G02*
X50404302Y14527008I-15451J47553D01*
G01*
G37*
G36*
G01*
X42012527Y29675213D02*
X41641706Y30816481D01*
G75*
G02*
X41673808Y30879485I47553J15451D01*
G01*
X42529759Y31157601D01*
G75*
G02*
X42592763Y31125499I15451J-47553D01*
G01*
X42963584Y29984231D01*
G75*
G02*
X42931482Y29921227I-47553J-15451D01*
G01*
X42075531Y29643111D01*
G75*
G02*
X42012527Y29675213I-15451J47553D01*
G01*
G37*
G36*
G01*
X45151013Y30694969D02*
X44780192Y31836237D01*
G75*
G02*
X44812294Y31899241I47553J15451D01*
G01*
X45668245Y32177357D01*
G75*
G02*
X45731249Y32145255I15451J-47553D01*
G01*
X46102070Y31003987D01*
G75*
G02*
X46069968Y30940983I-47553J-15451D01*
G01*
X45214017Y30662867D01*
G75*
G02*
X45151013Y30694969I-15451J47553D01*
G01*
G37*
G36*
G01*
X36759238Y45843173D02*
X36388417Y46984441D01*
G75*
G02*
X36420519Y47047445I47553J15451D01*
G01*
X37276470Y47325561D01*
G75*
G02*
X37339474Y47293459I15451J-47553D01*
G01*
X37710295Y46152191D01*
G75*
G02*
X37678193Y46089187I-47553J-15451D01*
G01*
X36822242Y45811071D01*
G75*
G02*
X36759238Y45843173I-15451J47553D01*
G01*
G37*
G36*
G01*
X39897724Y46862929D02*
X39526903Y48004197D01*
G75*
G02*
X39559005Y48067201I47553J15451D01*
G01*
X40414956Y48345317D01*
G75*
G02*
X40477960Y48313215I15451J-47553D01*
G01*
X40848781Y47171947D01*
G75*
G02*
X40816679Y47108943I-47553J-15451D01*
G01*
X39960728Y46830827D01*
G75*
G02*
X39897724Y46862929I-15451J47553D01*
G01*
G37*
G36*
G01*
X30764832Y6042833D02*
X30394011Y7184101D01*
G75*
G02*
X30426113Y7247105I47553J15451D01*
G01*
X31282064Y7525221D01*
G75*
G02*
X31345068Y7493119I15451J-47553D01*
G01*
X31715889Y6351851D01*
G75*
G02*
X31683787Y6288847I-47553J-15451D01*
G01*
X30827836Y6010731D01*
G75*
G02*
X30764832Y6042833I-15451J47553D01*
G01*
G37*
G36*
G01*
X33903318Y7062589D02*
X33532497Y8203857D01*
G75*
G02*
X33564599Y8266861I47553J15451D01*
G01*
X34420550Y8544977D01*
G75*
G02*
X34483554Y8512875I15451J-47553D01*
G01*
X34854375Y7371607D01*
G75*
G02*
X34822273Y7308603I-47553J-15451D01*
G01*
X33966322Y7030487D01*
G75*
G02*
X33903318Y7062589I-15451J47553D01*
G01*
G37*
G36*
G01*
X25511544Y22210794D02*
X25140723Y23352062D01*
G75*
G02*
X25172825Y23415066I47553J15451D01*
G01*
X26028776Y23693182D01*
G75*
G02*
X26091780Y23661080I15451J-47553D01*
G01*
X26462601Y22519812D01*
G75*
G02*
X26430499Y22456808I-47553J-15451D01*
G01*
X25574548Y22178692D01*
G75*
G02*
X25511544Y22210794I-15451J47553D01*
G01*
G37*
G36*
G01*
X28650030Y23230550D02*
X28279209Y24371818D01*
G75*
G02*
X28311311Y24434822I47553J15451D01*
G01*
X29167262Y24712938D01*
G75*
G02*
X29230266Y24680836I15451J-47553D01*
G01*
X29601087Y23539568D01*
G75*
G02*
X29568985Y23476564I-47553J-15451D01*
G01*
X28713034Y23198448D01*
G75*
G02*
X28650030Y23230550I-15451J47553D01*
G01*
G37*
G36*
G01*
X20258255Y38378754D02*
X19887434Y39520022D01*
G75*
G02*
X19919536Y39583026I47553J15451D01*
G01*
X20775487Y39861142D01*
G75*
G02*
X20838491Y39829040I15451J-47553D01*
G01*
X21209312Y38687772D01*
G75*
G02*
X21177210Y38624768I-47553J-15451D01*
G01*
X20321259Y38346652D01*
G75*
G02*
X20258255Y38378754I-15451J47553D01*
G01*
G37*
G36*
G01*
X23396741Y39398510D02*
X23025920Y40539778D01*
G75*
G02*
X23058022Y40602782I47553J15451D01*
G01*
X23913973Y40880898D01*
G75*
G02*
X23976977Y40848796I15451J-47553D01*
G01*
X24347798Y39707528D01*
G75*
G02*
X24315696Y39644524I-47553J-15451D01*
G01*
X23459745Y39366408D01*
G75*
G02*
X23396741Y39398510I-15451J47553D01*
G01*
G37*
G36*
G01*
X44577630Y-7343975D02*
X44206809Y-6202707D01*
G75*
G02*
X44238911Y-6139703I47553J15451D01*
G01*
X45094862Y-5861587D01*
G75*
G02*
X45157866Y-5893689I15451J-47553D01*
G01*
X45528687Y-7034957D01*
G75*
G02*
X45496585Y-7097961I-47553J-15451D01*
G01*
X44640634Y-7376077D01*
G75*
G02*
X44577630Y-7343975I-15451J47553D01*
G01*
G37*
G36*
G01*
X47716116Y-6324219D02*
X47345295Y-5182951D01*
G75*
G02*
X47377397Y-5119947I47553J15451D01*
G01*
X48233348Y-4841831D01*
G75*
G02*
X48296352Y-4873933I15451J-47553D01*
G01*
X48667173Y-6015201D01*
G75*
G02*
X48635071Y-6078205I-47553J-15451D01*
G01*
X47779120Y-6356321D01*
G75*
G02*
X47716116Y-6324219I-15451J47553D01*
G01*
G37*
G36*
G01*
X27458613Y-12906281D02*
X27087792Y-11765013D01*
G75*
G02*
X27119894Y-11702009I47553J15451D01*
G01*
X27975845Y-11423893D01*
G75*
G02*
X28038849Y-11455995I15451J-47553D01*
G01*
X28409670Y-12597263D01*
G75*
G02*
X28377568Y-12660267I-47553J-15451D01*
G01*
X27521617Y-12938383D01*
G75*
G02*
X27458613Y-12906281I-15451J47553D01*
G01*
G37*
G36*
G01*
X30597099Y-11886525D02*
X30226278Y-10745257D01*
G75*
G02*
X30258380Y-10682253I47553J15451D01*
G01*
X31114331Y-10404137D01*
G75*
G02*
X31177335Y-10436239I15451J-47553D01*
G01*
X31548156Y-11577507D01*
G75*
G02*
X31516054Y-11640511I-47553J-15451D01*
G01*
X30660103Y-11918627D01*
G75*
G02*
X30597099Y-11886525I-15451J47553D01*
G01*
G37*
D18*
X-121883858Y69516658D03*
X-119343858Y69516658D03*
X-116803858Y69516658D03*
X-114263858Y69516658D03*
X-111723858Y69516658D03*
X-109183858Y69516658D03*
X-106643858Y69516658D03*
X-106643858Y85706658D03*
X-109183858Y85706658D03*
X-111723858Y85706658D03*
X-114263858Y85706658D03*
X-116803858Y85706658D03*
X-119343858Y85706658D03*
X-121883858Y85706658D03*
D19*
X-122835858Y76341658D03*
X-122835858Y78881658D03*
X-120295858Y76341658D03*
X-120295858Y78881658D03*
X-114580858Y73166658D03*
X-116485858Y73166658D03*
X-105462450Y81414066D03*
X-105462450Y83319066D03*
G36*
G01*
X-123988858Y57411658D02*
X-123188858Y57411658D01*
G75*
G02*
X-123138858Y57361658I0J-50000D01*
G01*
X-123138858Y56361658D01*
G75*
G02*
X-123188858Y56311658I-50000J0D01*
G01*
X-123988858Y56311658D01*
G75*
G02*
X-124038858Y56361658I0J50000D01*
G01*
X-124038858Y57361658D01*
G75*
G02*
X-123988858Y57411658I50000J0D01*
G01*
G37*
G36*
G01*
X-121778858Y57411658D02*
X-120978858Y57411658D01*
G75*
G02*
X-120928858Y57361658I0J-50000D01*
G01*
X-120928858Y56361658D01*
G75*
G02*
X-120978858Y56311658I-50000J0D01*
G01*
X-121778858Y56311658D01*
G75*
G02*
X-121828858Y56361658I0J50000D01*
G01*
X-121828858Y57361658D01*
G75*
G02*
X-121778858Y57411658I50000J0D01*
G01*
G37*
G36*
G01*
X-121778858Y64711658D02*
X-120978858Y64711658D01*
G75*
G02*
X-120928858Y64661658I0J-50000D01*
G01*
X-120928858Y63661658D01*
G75*
G02*
X-120978858Y63611658I-50000J0D01*
G01*
X-121778858Y63611658D01*
G75*
G02*
X-121828858Y63661658I0J50000D01*
G01*
X-121828858Y64661658D01*
G75*
G02*
X-121778858Y64711658I50000J0D01*
G01*
G37*
G36*
G01*
X-123988858Y64711658D02*
X-123188858Y64711658D01*
G75*
G02*
X-123138858Y64661658I0J-50000D01*
G01*
X-123138858Y63661658D01*
G75*
G02*
X-123188858Y63611658I-50000J0D01*
G01*
X-123988858Y63611658D01*
G75*
G02*
X-124038858Y63661658I0J50000D01*
G01*
X-124038858Y64661658D01*
G75*
G02*
X-123988858Y64711658I50000J0D01*
G01*
G37*
G36*
G01*
X-121478858Y63161658D02*
X-119978858Y63161658D01*
G75*
G02*
X-119928858Y63111658I0J-50000D01*
G01*
X-119928858Y62411658D01*
G75*
G02*
X-119978858Y62361658I-50000J0D01*
G01*
X-121478858Y62361658D01*
G75*
G02*
X-121528858Y62411658I0J50000D01*
G01*
X-121528858Y63111658D01*
G75*
G02*
X-121478858Y63161658I50000J0D01*
G01*
G37*
G36*
G01*
X-121478858Y60161658D02*
X-119978858Y60161658D01*
G75*
G02*
X-119928858Y60111658I0J-50000D01*
G01*
X-119928858Y59411658D01*
G75*
G02*
X-119978858Y59361658I-50000J0D01*
G01*
X-121478858Y59361658D01*
G75*
G02*
X-121528858Y59411658I0J50000D01*
G01*
X-121528858Y60111658D01*
G75*
G02*
X-121478858Y60161658I50000J0D01*
G01*
G37*
G36*
G01*
X-121478858Y58661658D02*
X-119978858Y58661658D01*
G75*
G02*
X-119928858Y58611658I0J-50000D01*
G01*
X-119928858Y57911658D01*
G75*
G02*
X-119978858Y57861658I-50000J0D01*
G01*
X-121478858Y57861658D01*
G75*
G02*
X-121528858Y57911658I0J50000D01*
G01*
X-121528858Y58611658D01*
G75*
G02*
X-121478858Y58661658I50000J0D01*
G01*
G37*
D20*
X-122488858Y59011658D03*
X-122488858Y62011658D03*
G36*
G01*
X-37000000Y72311658D02*
X-40000000Y72311658D01*
G75*
G02*
X-40050000Y72361658I0J50000D01*
G01*
X-40050000Y74861658D01*
G75*
G02*
X-40000000Y74911658I50000J0D01*
G01*
X-37000000Y74911658D01*
G75*
G02*
X-36950000Y74861658I0J-50000D01*
G01*
X-36950000Y72361658D01*
G75*
G02*
X-37000000Y72311658I-50000J0D01*
G01*
G37*
G36*
G01*
X-37000000Y75811658D02*
X-40000000Y75811658D01*
G75*
G02*
X-40050000Y75861658I0J50000D01*
G01*
X-40050000Y78361658D01*
G75*
G02*
X-40000000Y78411658I50000J0D01*
G01*
X-37000000Y78411658D01*
G75*
G02*
X-36950000Y78361658I0J-50000D01*
G01*
X-36950000Y75861658D01*
G75*
G02*
X-37000000Y75811658I-50000J0D01*
G01*
G37*
D21*
X-58000000Y81000000D03*
X-117000000Y50000000D03*
X-117000000Y25000000D03*
X0Y25000000D03*
X58000000Y81000000D03*
X117000000Y50000000D03*
X117000000Y25000000D03*
%LPD*%
M02*
