M48
; DRILL file {KiCad 8.0.8+1} date 2026-07-04T20:51:32+0000
; FORMAT={-:-/ absolute / metric / decimal}
; #@! TF.CreationDate,2026-07-04T20:51:32+00:00
; #@! TF.GenerationSoftware,Kicad,Pcbnew,8.0.8+1
; #@! TF.FileFunction,Plated,1,2,PTH
FMAT,2
METRIC
; #@! TA.AperFunction,Plated,PTH,ViaDrill
T1C0.300
; #@! TA.AperFunction,Plated,PTH,ComponentDrill
T2C0.300
; #@! TA.AperFunction,Plated,PTH,ComponentDrill
T3C1.000
; #@! TA.AperFunction,Plated,PTH,ComponentDrill
T4C1.016
%
G90
G05
T1
X-93.647Y33.772
X-93.329Y49.727
X-66.085Y65.502
X-45.691Y62.724
X-41.569Y33.005
X-38.182Y18.191
X-37.16Y48.581
X-20.039Y40.384
X-19.322Y7.165
X-16.349Y26.977
X24.458Y44.758
X31.218Y27.541
X37.538Y15.726
X57.975Y62.729
X68.477Y34.458
X80.738Y49.666
T2
X-117.0Y37.0
X-75.0Y80.0
X-40.0Y80.0
X0.0Y18.0
X0.0Y12.0
X40.0Y80.0
X75.0Y80.0
X117.0Y37.0
T3
X-121.884Y85.232
X-121.884Y69.992
X-119.344Y85.232
X-119.344Y69.992
X-116.804Y85.232
X-116.804Y69.992
X-114.264Y85.232
X-114.264Y69.992
X-111.724Y85.232
X-111.724Y69.992
X-109.184Y85.232
X-109.184Y69.992
X-106.644Y85.232
X-106.644Y69.992
T4
X-122.836Y78.882
X-122.836Y76.342
X-120.296Y78.882
X-120.296Y76.342
X-116.486Y73.167
X-114.581Y73.167
X-105.462Y83.319
X-105.462Y81.414
M30
