M48
; DRILL file {KiCad 9.0.7+1} date 2026-07-10T15:23:10+0000
; FORMAT={-:-/ absolute / metric / decimal}
; #@! TF.CreationDate,2026-07-10T15:23:10+00:00
; #@! TF.GenerationSoftware,Kicad,Pcbnew,9.0.7+1
; #@! TF.FileFunction,Plated,1,2,PTH
FMAT,2
METRIC
; #@! TA.AperFunction,Plated,PTH,ComponentDrill
T1C0.300
; #@! TA.AperFunction,Plated,PTH,ComponentDrill
T2C1.000
; #@! TA.AperFunction,Plated,PTH,ComponentDrill
T3C1.016
%
G90
G05
T1
X-117.0Y37.0
X-75.0Y80.0
X-40.0Y80.0
X40.0Y80.0
X75.0Y80.0
X117.0Y37.0
T2
X-121.884Y83.232
X-121.884Y67.992
X-119.344Y83.232
X-119.344Y67.992
X-116.804Y83.232
X-116.804Y67.992
X-114.264Y83.232
X-114.264Y67.992
X-111.724Y83.232
X-111.724Y67.992
X-109.184Y83.232
X-109.184Y67.992
X-106.644Y83.232
X-106.644Y67.992
T3
X-122.836Y76.882
X-122.836Y74.342
X-120.296Y76.882
X-120.296Y74.342
X-116.486Y71.167
X-114.581Y71.167
X-105.462Y81.319
X-105.462Y79.414
M30
