M48
; DRILL file {KiCad 9.0.7+1} date 2026-07-10T15:23:10+0000
; FORMAT={-:-/ absolute / metric / decimal}
; #@! TF.CreationDate,2026-07-10T15:23:10+00:00
; #@! TF.GenerationSoftware,Kicad,Pcbnew,9.0.7+1
; #@! TF.FileFunction,NonPlated,1,2,NPTH
FMAT,2
METRIC
; #@! TA.AperFunction,NonPlated,NPTH,ComponentDrill
T1C0.900
; #@! TA.AperFunction,NonPlated,NPTH,ComponentDrill
T2C1.900
; #@! TA.AperFunction,NonPlated,NPTH,ComponentDrill
T3C3.000
; #@! TA.AperFunction,NonPlated,NPTH,ComponentDrill
T4C3.400
; #@! TA.AperFunction,NonPlated,NPTH,ComponentDrill
T5C7.000
%
G90
G05
T1
X-122.489Y60.012
X-122.489Y57.012
T2
X-108.085Y22.974
X-104.551Y39.603
X-101.016Y56.231
X-97.326Y20.687
X-93.791Y37.316
X-90.257Y53.944
X-86.804Y34.08
X-82.404Y50.501
X-78.004Y66.922
X-76.178Y31.233
X-71.779Y47.654
X-68.076Y32.466
X-67.379Y64.075
X-62.823Y48.634
X-57.614Y29.067
X-57.569Y64.802
X-52.811Y21.197
X-52.361Y45.235
X-50.123Y0.346
X-47.558Y37.365
X-47.108Y61.403
X-42.349Y17.798
X-42.304Y53.533
X-39.661Y-3.053
X-37.096Y33.966
X-36.31Y13.733
X-33.004Y-5.216
X-31.843Y50.134
X-31.057Y29.901
X-25.848Y10.334
X-25.803Y46.069
X-22.542Y-8.616
X-20.595Y26.502
X-15.342Y42.669
X15.342Y42.669
X20.595Y26.502
X22.542Y-8.616
X25.803Y46.069
X25.848Y10.334
X31.057Y29.901
X31.843Y50.134
X33.004Y-5.216
X36.31Y13.733
X37.096Y33.966
X39.661Y-3.053
X42.304Y53.533
X42.349Y17.798
X47.108Y61.403
X47.558Y37.365
X50.123Y0.346
X52.361Y45.235
X52.811Y21.197
X57.569Y64.802
X57.614Y29.067
X62.823Y48.634
X67.379Y64.075
X68.076Y32.466
X71.779Y47.654
X76.178Y31.233
X78.004Y66.922
X82.404Y50.501
X86.804Y34.08
X90.257Y53.944
X93.791Y37.316
X97.326Y20.687
X101.016Y56.231
X104.551Y39.603
X108.085Y22.974
T3
X-101.468Y27.651
X-97.934Y44.279
X-97.035Y24.459
X-94.399Y60.908
X-93.501Y41.088
X-89.966Y57.716
X-79.951Y38.404
X-75.691Y34.985
X-75.551Y54.825
X-71.291Y51.405
X-71.151Y71.245
X-66.891Y67.826
X-61.006Y36.425
X-56.931Y32.788
X-55.753Y52.593
X-51.678Y48.956
X-50.5Y68.761
X-46.424Y65.123
X-45.741Y25.156
X-43.053Y4.305
X-41.666Y21.519
X-40.488Y41.324
X-38.978Y0.668
X-36.413Y37.687
X-35.235Y57.492
X-31.159Y53.855
X-29.24Y17.692
X-25.934Y-1.257
X-25.165Y14.055
X-23.987Y33.86
X-21.859Y-4.895
X-19.912Y30.222
X-18.734Y50.028
X-14.658Y46.39
X18.734Y50.028
X23.987Y33.86
X24.169Y49.481
X25.934Y-1.257
X29.24Y17.692
X29.422Y33.313
X31.369Y-1.804
X34.676Y17.145
X35.235Y57.492
X40.488Y41.324
X40.67Y56.945
X43.053Y4.305
X45.741Y25.156
X45.923Y40.777
X48.488Y3.758
X50.5Y68.761
X51.177Y24.609
X55.753Y52.593
X55.935Y68.214
X61.006Y36.425
X61.188Y52.046
X66.441Y35.878
X71.151Y71.245
X75.551Y54.825
X76.55Y70.414
X79.951Y38.404
X80.95Y53.994
X85.35Y37.573
X94.399Y60.908
X97.934Y44.279
X99.748Y59.795
X101.468Y27.651
X103.282Y43.167
X106.817Y26.538
T4
X-102.705Y21.831
X-99.171Y38.459
X-95.637Y55.088
X-81.491Y32.657
X-77.091Y49.077
X-72.691Y65.498
X-62.845Y30.766
X-57.592Y46.934
X-52.338Y63.102
X-47.58Y19.498
X-44.892Y-1.354
X-42.327Y35.666
X-37.074Y51.833
X-31.079Y12.033
X-27.773Y-6.916
X-25.826Y28.201
X-20.573Y44.369
X20.573Y44.369
X25.826Y28.201
X27.773Y-6.916
X31.079Y12.033
X37.074Y51.833
X42.327Y35.666
X44.892Y-1.354
X47.58Y19.498
X52.338Y63.102
X57.592Y46.934
X62.845Y30.766
X72.691Y65.498
X77.091Y49.077
X81.491Y32.657
X95.637Y55.088
X99.171Y38.459
X102.705Y21.831
T5
X-117.0Y50.0
X-117.0Y25.0
X-58.0Y81.0
X0.0Y25.0
X58.0Y81.0
X117.0Y50.0
X117.0Y25.0
M30
